<?xml version="1.0" encoding="utf-8"?>
<!-- Generator: Adobe Illustrator 25.1.0, SVG Export Plug-In . SVG Version: 6.00 Build 0)  -->
<svg version="1.1" id="traffic-no" xmlns="http://www.w3.org/2000/svg" xmlns:xlink="http://www.w3.org/1999/xlink" x="0px" y="0px"
	 viewBox="0 0 50 50" enable-background="new 0 0 50 50" xml:space="preserve">
<g>
	<g>
		<path fill="#F9F9F9" d="M40.279,48.25c-1.162-0.011-2.033-0.866-2.071-2.036c-0.008-0.255-0.009-0.509-0.008-0.762H23.045
			c0,0.224,0,0.447-0.002,0.671c-0.012,1.245-0.885,2.12-2.123,2.129c-0.529,0.003-1.057,0.005-1.585,0.005
			c-0.529,0-1.057-0.002-1.586-0.005c-1.247-0.009-2.119-0.888-2.12-2.138c-0.004-2.89-0.006-5.779,0.002-8.671
			c0.002-0.737,0.118-1.342,0.363-1.886c-0.579-0.035-1.09-0.29-1.417-0.712c-0.346-0.447-0.456-1.047-0.301-1.645
			c0.17-0.659,0.35-1.183,0.567-1.646c0.461-0.983,1.314-1.531,2.4-1.543c0,0,0.624-0.005,0.652-0.005
			c0.153-0.402,0.308-0.805,0.462-1.206c0.351-0.909,0.701-1.818,1.025-2.736c0.582-1.649,1.877-2.274,2.801-2.601
			c1.464-0.518,3.086-0.786,5.105-0.844c1.295-0.037,2.593-0.055,3.89-0.055c0.535,0,1.07,0.003,1.604,0.009
			c1.401,0.016,3.052,0.079,4.666,0.425c0.669,0.143,1.37,0.348,2.146,0.627c0.98,0.353,1.691,1.056,2.057,2.034
			c0.36,0.966,0.733,1.927,1.107,2.887c0.189,0.487,0.379,0.975,0.567,1.462c0.005,0,0.618,0.003,0.618,0.003
			c1.196,0.002,2.184,0.705,2.579,1.837l0.501,1.439v0.777l-0.143,0.352c-0.28,0.717-0.87,1.128-1.623,1.141
			c0.242,0.532,0.36,1.132,0.362,1.827c0.008,2.927,0.006,5.854,0.002,8.782c0,1.175-0.883,2.069-2.054,2.082
			c-0.56,0.006-1.12,0.009-1.681,0.009C41.352,48.257,40.815,48.254,40.279,48.25z M20.248,39.115c0.01,0,0.06,0.033,0.176,0.08
			c0.044,0.018,0.163,0.065,0.206,0.071c0.524,0.052,1.052,0.097,1.493,0.134l0.417,0.035l0.624-0.024
			c0.427-0.015,0.78-0.026,1.131-0.06c0.003,0,0.006,0,0.009,0c0.054,0,0.015,0.044,0.005,0.073l0.532-0.809l-0.56,0.704
			c-0.114-0.091-0.224-0.176-0.308-0.215c-0.908-0.428-1.819-0.852-2.739-1.255c-0.262-0.115-0.501-0.171-0.731-0.171l-0.095,0.003
			c-0.065,0.005-0.111,0.012-0.144,0.019c-0.005,0.029-0.009,0.072-0.01,0.13c-0.004,0.15-0.002,0.303-0.001,0.454
			c0.002,0.241,0.004,0.482-0.009,0.723C20.241,39.066,20.245,39.1,20.248,39.115L20.248,39.115z M39.4,39.359v0.04
			c0.057-0.001,0.112-0.003,0.169-0.005c0.466-0.018,0.953-0.051,1.354-0.236c0.034-0.016,0.061-0.03,0.079-0.041
			c0.013-0.525,0.005-0.989-0.024-1.414c-0.098-0.018-0.156-0.021-0.215-0.021c-0.151,0-0.3,0.023-0.453,0.073
			c-1.044,0.335-2.018,0.837-3.048,1.37l-0.099,0.051c-0.031,0.018-0.061,0.043-0.092,0.066l-0.127,0.107
			c0.009,0.001,0.02,0.002,0.031,0.003c0.191,0.012,0.384,0.015,0.577,0.015l0.946-0.009H39.4z M21.542,31.545
			c1.924,0.486,5.382,0.788,9.224,0.788c3.816,0,7.155-0.295,8.931-0.769l-0.064-0.223c-0.35-1.18-0.859-2.291-1.398-3.469
			l-0.123-0.269c-0.087-0.189-0.172-0.272-0.353-0.343c-0.129-0.05-0.26-0.1-0.394-0.139c-1.289-0.377-2.663-0.481-3.956-0.539
			c-1.09-0.049-2.081-0.072-3.03-0.072c-1.562,0-2.985,0.063-4.349,0.195c-0.719,0.069-1.559,0.176-2.335,0.442
			c-0.438,0.149-0.511,0.284-0.552,0.421c-0.052,0.169-0.128,0.304-0.179,0.392c-0.501,0.938-0.891,1.862-1.186,2.802
			C21.695,31.023,21.618,31.284,21.542,31.545z"/>
		<path fill="#A5A5A5" d="M31.176,23.465c0.532,0,1.064,0.003,1.597,0.009c1.504,0.017,3.01,0.088,4.487,0.405
			c0.688,0.147,1.367,0.356,2.029,0.594c0.723,0.26,1.238,0.753,1.518,1.501c0.593,1.59,1.223,3.166,1.829,4.751
			c0.052,0.135,0.108,0.191,0.247,0.191c0.007,0,0.015,0,0.022,0c0.147-0.006,0.294-0.007,0.441-0.007
			c0.199,0,0.398,0.003,0.597,0.003c0.806,0.001,1.462,0.468,1.73,1.234c0.151,0.431,0.3,0.863,0.45,1.294c0,0.15,0,0.301,0,0.451
			c-0.028,0.068-0.056,0.136-0.083,0.205c-0.145,0.371-0.414,0.56-0.811,0.562c-0.164,0.001-0.328,0.001-0.495,0.001
			c-0.259,0-0.524-0.001-0.803-0.001c0.163,0.42,0.29,0.822,0.473,1.196c0.238,0.489,0.315,1.004,0.316,1.531
			c0.007,2.927,0.006,5.853,0.002,8.78c-0.001,0.674-0.487,1.175-1.162,1.183c-0.551,0.006-1.102,0.009-1.652,0.009
			c-0.54,0-1.08-0.003-1.62-0.008c-0.685-0.006-1.158-0.477-1.18-1.165c-0.014-0.458-0.004-0.918-0.004-1.377
			c0-0.081,0-0.162,0-0.256c-5.656,0-11.288,0-16.949,0c-0.003,0.074-0.01,0.152-0.01,0.231c-0.001,0.444,0.003,0.888-0.001,1.332
			c-0.007,0.745-0.485,1.232-1.229,1.237c-0.528,0.004-1.056,0.005-1.584,0.005c-0.525,0-1.051-0.002-1.576-0.005
			c-0.743-0.005-1.225-0.49-1.226-1.238c-0.004-2.889-0.006-5.778,0.002-8.667c0.002-0.557,0.074-1.103,0.331-1.62
			c0.179-0.359,0.293-0.751,0.45-1.166c-0.261,0-0.506,0-0.745,0c-0.147,0-0.292,0-0.437,0c-0.725-0.001-1.166-0.53-0.984-1.236
			c0.131-0.507,0.289-1.016,0.511-1.489c0.307-0.654,0.85-1.017,1.595-1.025c0.189-0.002,0.377-0.005,0.566-0.005
			c0.158,0,0.315,0.002,0.472,0.009c0.01,0,0.019,0.001,0.028,0.001c0.151,0,0.219-0.059,0.275-0.211
			c0.543-1.448,1.123-2.883,1.638-4.342c0.391-1.108,1.195-1.678,2.253-2.052c1.568-0.555,3.189-0.746,4.83-0.793
			C28.6,23.482,29.888,23.465,31.176,23.465 M30.764,33.233c4.202,0,8.352-0.365,10.036-1.092c-0.105-0.361-0.204-0.707-0.306-1.052
			c-0.396-1.337-0.988-2.593-1.566-3.858c-0.187-0.409-0.454-0.655-0.846-0.807c-0.154-0.06-0.309-0.118-0.467-0.164
			c-1.36-0.397-2.763-0.511-4.167-0.574c-1.026-0.046-2.053-0.073-3.079-0.073c-1.477,0-2.953,0.057-4.428,0.2
			c-0.861,0.083-1.716,0.204-2.54,0.486c-0.52,0.178-0.951,0.447-1.122,1.012c-0.03,0.099-0.091,0.189-0.14,0.282
			c-0.497,0.93-0.905,1.898-1.221,2.903c-0.172,0.548-0.326,1.101-0.487,1.649C22.332,32.87,26.574,33.233,30.764,33.233
			 M22.519,40.337c0.78-0.034,1.322-0.039,1.859-0.089c0.356-0.033,0.676-0.177,0.793-0.565c0.128-0.426,0.019-0.789-0.33-1.067
			c-0.152-0.121-0.31-0.244-0.485-0.326c-0.916-0.43-1.834-0.858-2.761-1.265c-0.346-0.151-0.711-0.247-1.095-0.247
			c-0.051,0-0.103,0.002-0.155,0.005c-0.682,0.046-0.974,0.338-0.992,1.023c-0.01,0.383,0.013,0.767-0.009,1.149
			c-0.035,0.618,0.268,0.881,0.74,1.072c0.145,0.059,0.298,0.117,0.452,0.133C21.275,40.235,22.015,40.293,22.519,40.337
			 M37.552,40.268c0.316,0,0.632-0.009,0.948-0.009c0,0.013,0,0.025,0,0.038c0.228,0,0.457,0.005,0.685,0.005
			c0.14,0,0.281-0.002,0.421-0.007c0.579-0.023,1.158-0.071,1.695-0.319c0.323-0.149,0.589-0.374,0.6-0.754
			c0.015-0.555,0.012-1.114-0.03-1.667c-0.034-0.445-0.301-0.674-0.745-0.744c-0.122-0.019-0.242-0.028-0.362-0.028
			c-0.246,0-0.489,0.04-0.729,0.117c-1.15,0.369-2.215,0.926-3.283,1.477c-0.099,0.051-0.188,0.124-0.279,0.191
			c-0.365,0.269-0.507,0.627-0.398,1.069c0.108,0.437,0.457,0.592,0.848,0.616C37.132,40.264,37.342,40.268,37.552,40.268
			 M31.176,21.665c-1.313,0-2.629,0.019-3.914,0.055c-2.115,0.061-3.824,0.345-5.379,0.895c-1.721,0.609-2.816,1.639-3.35,3.15
			c-0.319,0.903-0.674,1.824-1.017,2.714c-0.081,0.211-0.162,0.422-0.243,0.632l-0.04,0c-1.43,0.015-2.599,0.766-3.205,2.061
			c-0.241,0.514-0.439,1.087-0.624,1.803c-0.225,0.87-0.057,1.752,0.461,2.42c0.262,0.339,0.6,0.605,0.987,0.787
			c-0.08,0.387-0.119,0.803-0.121,1.259c-0.008,2.891-0.006,5.783-0.002,8.674c0.002,1.747,1.27,3.023,3.014,3.035
			c0.529,0.004,1.059,0.005,1.588,0.005c0.532,0,1.064-0.002,1.596-0.005c1.657-0.011,2.891-1.175,3.008-2.8h13.38
			c0.104,1.588,1.357,2.783,2.957,2.798c0.546,0.005,1.091,0.008,1.637,0.008c0.558,0,1.115-0.003,1.673-0.009
			c1.648-0.019,2.94-1.328,2.942-2.981c0.003-2.929,0.005-5.857-0.002-8.786c-0.001-0.42-0.039-0.812-0.115-1.183
			c0.589-0.281,1.051-0.781,1.312-1.447l0.045-0.111l0.029-0.071l0.132-0.326v-0.352v-0.451v-0.304l-0.1-0.287l-0.14-0.403
			l-0.311-0.895c-0.518-1.48-1.863-2.437-3.427-2.439l-0.002,0c-0.114-0.295-0.229-0.59-0.344-0.884
			c-0.373-0.959-0.747-1.919-1.106-2.883c-0.46-1.233-1.358-2.12-2.595-2.566c-0.812-0.292-1.552-0.508-2.262-0.66
			c-1.693-0.363-3.398-0.428-4.843-0.444C32.254,21.668,31.715,21.665,31.176,21.665L31.176,21.665z M23.937,28.018
			c0.014-0.005,0.03-0.011,0.048-0.017c0.688-0.235,1.463-0.333,2.13-0.398c1.332-0.129,2.724-0.191,4.255-0.191
			c0.938,0,1.918,0.023,2.998,0.071c1.237,0.055,2.547,0.154,3.743,0.503c0.074,0.022,0.146,0.048,0.218,0.075l0.089,0.193
			c0.413,0.902,0.808,1.765,1.119,2.638c-1.66,0.3-4.339,0.54-7.773,0.54c-3.175,0-6.138-0.215-8.076-0.563
			c0.272-0.832,0.621-1.649,1.039-2.431C23.787,28.335,23.867,28.194,23.937,28.018L23.937,28.018z"/>
	</g>
	<g>
		<path fill="#F9F9F9" d="M43.474,27.487c-0.147,0-0.301-0.014-0.458-0.043c-0.42-0.074-0.7-0.409-0.82-0.698l-0.038-0.088
			c-0.159-0.369-0.316-0.738-0.456-1.114c-0.348-0.944-1.019-1.6-2.051-2.005c-1.098-0.432-2.298-0.717-3.566-0.849
			c-0.359-0.037-0.72-0.069-1.078-0.101l-1.533-0.14l0.273-1.276c0.043-0.194,0.087-0.389,0.12-0.585
			c0.041-0.249,0.008-0.53-0.101-0.857l-0.103-0.315c-0.098-0.304-0.194-0.608-0.316-0.901c-0.47-1.136-1.255-1.718-2.472-1.831
			c-0.407-0.037-0.796-0.32-0.944-0.688c-0.383-0.962-0.756-1.923-1.13-2.884l-0.132-0.339l-0.201-1.204l1.073-0.021
			c0.419,0.008,0.837,0.012,1.254,0.012c1.549,0,2.967-0.057,4.334-0.173c1.277-0.108,2.896-0.28,4.558-0.657
			c-0.118-0.385-0.238-0.765-0.385-1.134c-0.39-0.979-0.835-1.963-1.266-2.917L38.01,6.621c-0.5-0.301-1.027-0.409-1.576-0.505
			c-1.492-0.264-3.139-0.386-5.184-0.386c-0.314,0-0.628,0.002-0.942,0.007c-1.526,0.023-3.084,0.12-4.549,0.217
			C25,6.003,24.29,6.147,23.648,6.379c-0.341,0.124-0.452,0.259-0.528,0.451c-0.203,0.509-0.448,0.989-0.684,1.454l-0.213,0.421
			c-0.181,0.362-0.584,0.614-0.981,0.614c-0.568-0.021-1.1-0.048-1.635-0.075l-1.431-0.072l0.109-0.953
			c-0.001-0.027,0.005-0.169,0.069-0.333l0.416-1.038c0.26-0.65,0.521-1.299,0.775-1.952c0.348-0.894,0.993-1.543,1.917-1.93
			c1.292-0.541,2.512-0.863,3.73-0.984c1.619-0.161,3.327-0.239,5.225-0.239c1.095,0,2.189,0.026,3.284,0.068
			c1.241,0.047,2.562,0.119,3.864,0.422c0.629,0.146,1.277,0.335,1.929,0.564c1.053,0.37,1.777,1.073,2.156,2.092
			c0.319,0.86,0.652,1.716,0.986,2.571c0.227,0.583,0.454,1.167,0.677,1.751c0.027,0,0.656,0.006,0.656,0.006
			c1.138,0.007,2.126,0.701,2.518,1.769c0.115,0.313,0.223,0.628,0.331,0.943l0.205,0.593v0.729l-0.062,0.158
			c-0.29,0.876-0.878,1.328-1.692,1.361c0.324,0.886,0.368,1.775,0.362,2.553c-0.015,1.888-0.013,3.776-0.01,5.665l0.003,2.271
			C45.624,26.551,44.72,27.487,43.474,27.487z M36.963,18.549c0.387,0.039,0.733,0.055,1.079,0.071l0.473-0.03l0.829,0.006
			c0.16,0,0.321-0.002,0.481-0.01c0.512-0.023,0.846-0.093,1.12-0.232c0.023-0.012,0.042-0.022,0.057-0.031
			c0.012-0.556,0.004-0.996-0.023-1.4l-0.112-0.002c-0.257,0-0.443,0.02-0.587,0.062c-0.998,0.296-1.929,0.784-2.915,1.3
			l-0.186,0.098c-0.053,0.027-0.144,0.103-0.21,0.157C36.967,18.542,36.965,18.546,36.963,18.549z"/>
		<path fill="#A5A5A5" d="M30.415,2.643c1.084,0,2.168,0.026,3.252,0.067c1.239,0.047,2.481,0.117,3.694,0.399
			c0.62,0.144,1.234,0.326,1.835,0.537c0.765,0.268,1.317,0.765,1.611,1.556c0.578,1.555,1.199,3.095,1.786,4.647
			c0.075,0.198,0.162,0.275,0.349,0.275c0.016,0,0.033-0.001,0.051-0.002c0.135-0.009,0.27-0.011,0.405-0.011
			c0.188,0,0.377,0.005,0.565,0.006c0.758,0.005,1.417,0.464,1.679,1.179c0.167,0.457,0.321,0.919,0.481,1.379
			c0,0.135,0,0.271,0,0.406c-0.018,0.048-0.039,0.094-0.055,0.143c-0.139,0.43-0.413,0.639-0.867,0.649
			c-0.398,0.008-0.797,0.007-1.196,0.01c-0.007,0-0.013,0.007-0.053,0.028c0.084,0.228,0.147,0.475,0.261,0.695
			c0.445,0.855,0.524,1.766,0.517,2.711c-0.021,2.648-0.007,5.296-0.007,7.944c0,0.795-0.521,1.327-1.25,1.327
			c-0.095,0-0.193-0.009-0.295-0.028c-0.06-0.011-0.126-0.095-0.154-0.16c-0.166-0.386-0.333-0.773-0.479-1.167
			c-0.46-1.248-1.357-2.056-2.567-2.531c-1.223-0.48-2.495-0.77-3.802-0.906c-0.538-0.056-1.077-0.1-1.614-0.149
			c0.064-0.303,0.14-0.605,0.19-0.911c0.072-0.439,0.005-0.869-0.134-1.288c-0.141-0.428-0.269-0.862-0.441-1.277
			c-0.594-1.435-1.664-2.238-3.221-2.383c-0.069-0.006-0.168-0.068-0.192-0.128c-0.414-1.039-0.818-2.083-1.224-3.125
			c-0.008-0.02-0.009-0.042-0.017-0.085c0.424,0.008,0.847,0.012,1.27,0.012c1.475,0,2.944-0.051,4.411-0.176
			c1.881-0.16,3.748-0.399,5.62-0.911c-0.231-0.718-0.417-1.431-0.687-2.111c-0.416-1.046-0.883-2.072-1.347-3.097
			c-0.065-0.144-0.223-0.265-0.365-0.351c-0.564-0.339-1.199-0.472-1.836-0.585c-1.769-0.312-3.554-0.4-5.342-0.4
			c-0.318,0-0.635,0.003-0.953,0.008c-1.533,0.023-3.065,0.117-4.595,0.219c-0.801,0.053-1.595,0.202-2.357,0.477
			c-0.487,0.176-0.853,0.45-1.058,0.963c-0.247,0.619-0.569,1.209-0.867,1.807c-0.027,0.055-0.116,0.115-0.175,0.115
			c-0.001,0-0.002,0-0.003,0c-0.683-0.026-1.366-0.063-2.059-0.098c0.004-0.034,0-0.073,0.012-0.105
			c0.397-0.998,0.802-1.992,1.192-2.993c0.268-0.689,0.765-1.15,1.426-1.427c1.113-0.466,2.263-0.798,3.471-0.918
			C26.991,2.707,28.702,2.643,30.415,2.643 M38.513,19.544c0-0.018,0.001-0.036,0.001-0.054c0.276,0,0.553,0.006,0.829,0.006
			c0.175,0,0.349-0.002,0.524-0.011c0.511-0.024,1.02-0.092,1.485-0.328c0.296-0.15,0.538-0.369,0.547-0.718
			c0.014-0.563,0.013-1.128-0.032-1.689c-0.034-0.434-0.318-0.71-0.733-0.724c-0.089-0.003-0.179-0.005-0.269-0.005
			c-0.286,0-0.576,0.021-0.842,0.1c-1.15,0.341-2.204,0.909-3.263,1.462c-0.132,0.069-0.25,0.166-0.366,0.261
			c-0.326,0.267-0.418,0.614-0.316,1.013c0.098,0.382,0.394,0.551,0.748,0.586C37.387,19.5,37.951,19.513,38.513,19.544
			 M30.415,0.843c-1.926,0-3.664,0.08-5.311,0.243c-1.308,0.13-2.612,0.473-3.988,1.049c-1.142,0.478-1.975,1.32-2.408,2.434
			c-0.253,0.651-0.513,1.299-0.774,1.947L17.52,7.549c-0.101,0.253-0.127,0.472-0.135,0.627l-0.198,1.846l1.902,0.096l0.435,0.022
			c0.552,0.028,1.099,0.056,1.647,0.077l0.034,0.001l0.037,0c0.737,0,1.455-0.447,1.786-1.113l0.208-0.411
			c0.235-0.462,0.478-0.938,0.69-1.458c0.008-0.003,0.018-0.007,0.028-0.011c0.562-0.203,1.189-0.329,1.864-0.374
			c1.453-0.097,2.997-0.193,4.503-0.215c0.309-0.005,0.617-0.007,0.926-0.007c1.992,0,3.59,0.118,5.029,0.373
			c0.382,0.068,0.749,0.139,1.036,0.261c0.397,0.877,0.801,1.778,1.154,2.665c0.016,0.041,0.032,0.083,0.048,0.125
			c-1.233,0.227-2.412,0.349-3.461,0.438c-1.341,0.114-2.734,0.17-4.258,0.17c-0.412,0-0.824-0.004-1.236-0.012l-2.232-0.042
			l0.433,2.19c0.013,0.084,0.041,0.223,0.106,0.39l0.17,0.437c0.351,0.901,0.701,1.802,1.059,2.701
			c0.271,0.681,0.954,1.186,1.698,1.255c0.882,0.082,1.381,0.452,1.724,1.279c0.103,0.249,0.194,0.532,0.291,0.833l0.104,0.321
			c0.061,0.184,0.083,0.329,0.067,0.43c-0.029,0.178-0.07,0.354-0.109,0.53l-0.066,0.3l-0.42,1.981l2.016,0.185l0.508,0.045
			c0.361,0.032,0.722,0.064,1.083,0.101c1.188,0.124,2.308,0.39,3.33,0.791c0.802,0.315,1.275,0.771,1.536,1.479
			c0.155,0.421,0.326,0.817,0.491,1.201l0.023,0.054c0.277,0.644,0.831,1.1,1.482,1.22c0.207,0.038,0.415,0.057,0.62,0.057
			c1.739,0,3.05-1.344,3.05-3.127l-0.002-2.33c-0.003-1.867-0.005-3.734,0.009-5.6c0.005-0.59-0.018-1.239-0.151-1.915
			c0.657-0.306,1.153-0.873,1.4-1.637l0.021-0.046l0.122-0.315v-0.338v-0.406v-0.304l-0.1-0.287l-0.145-0.42
			c-0.113-0.33-0.226-0.66-0.346-0.987c-0.522-1.423-1.84-2.349-3.357-2.359l-0.041-0.001c-0.151-0.392-0.304-0.784-0.456-1.175
			c-0.332-0.854-0.665-1.707-0.984-2.566c-0.469-1.264-1.404-2.173-2.702-2.628c-0.678-0.238-1.359-0.437-2.024-0.591
			C36.39,1.035,35.02,0.96,33.735,0.911C32.527,0.865,31.441,0.843,30.415,0.843L30.415,0.843z"/>
	</g>
	<g>
		<path fill="#F9F9F9" d="M4.487,35.021c-1.114-0.006-1.968-0.789-2.076-1.907C2.401,33.007,2.4,32.904,2.4,32.802l0.002-8.486
			c0-0.317,0.001-0.637,0.082-0.974C2.567,23,2.681,22.664,2.796,22.33c-0.586-0.025-1.108-0.281-1.443-0.709
			c-0.344-0.44-0.458-1.026-0.313-1.608c0.174-0.7,0.367-1.256,0.608-1.75c0.459-0.941,1.33-1.48,2.388-1.48
			c0,0,0.612-0.005,0.623-0.005c0.162-0.428,0.325-0.851,0.488-1.273c0.336-0.871,0.672-1.743,0.981-2.624
			c0.594-1.694,1.907-2.326,2.842-2.654c1.469-0.514,3.069-0.779,5.035-0.833c1.326-0.037,2.653-0.055,3.98-0.055
			c0.564,0,1.129,0.003,1.693,0.01c1.354,0.015,2.953,0.078,4.553,0.423c0.639,0.138,1.317,0.335,2.074,0.603
			c1.013,0.356,1.745,1.072,2.117,2.07c0.408,1.1,0.835,2.192,1.262,3.285l0.409,1.053l0.681,0.001
			c1.092,0.007,2.081,0.691,2.463,1.702c0.143,0.375,0.269,0.757,0.394,1.139l0.051,0.155c0.181,0.546,0.137,1.104-0.127,1.614
			c-0.289,0.56-0.803,0.901-1.408,0.934l-3.777,0.184c-1.074,0.049-2.149,0.098-3.22,0.188c-1.524,0.129-2.941,0.548-4.213,1.245
			c-0.646,0.354-1.111,0.873-1.384,1.544c-0.489,1.207-0.964,2.419-1.436,3.633c-0.187,0.482-0.544,0.755-1.062,0.808
			c-1.051,0.105-1.773,0.611-2.274,1.591c-0.291,0.572-0.769,0.692-1.118,0.692c-0.749-0.004-3.843-0.005-3.843-0.005
			c0,0.235,0,0.47-0.003,0.704c-0.015,1.218-0.905,2.106-2.117,2.111l-1.606,0.003L4.487,35.021z M8.309,18.32
			c1.86,0.485,5.257,0.787,9.079,0.787h0c3.795,0,7.196-0.299,9.079-0.782l-0.058-0.199c-0.33-1.111-0.805-2.162-1.308-3.273
			l-0.203-0.451c-0.109-0.245-0.22-0.319-0.386-0.371c-0.46-0.144-0.952-0.289-1.434-0.374c-1.655-0.294-3.363-0.345-4.815-0.357
			c-0.422-0.003-0.844-0.006-1.265-0.006c-1.57,0-3.416,0.039-5.202,0.323c-0.497,0.079-0.998,0.234-1.529,0.398
			c-0.189,0.059-0.236,0.098-0.243,0.113l-0.297,0.626c-0.317,0.665-0.618,1.292-0.874,1.942C8.648,17.218,8.482,17.754,8.309,18.32
			z"/>
		<path fill="#A5A5A5" d="M17.992,10.238c0.559,0,1.118,0.003,1.677,0.009c1.466,0.016,2.934,0.092,4.373,0.403
			c0.666,0.144,1.323,0.345,1.966,0.571c0.749,0.264,1.284,0.763,1.572,1.536c0.582,1.562,1.198,3.111,1.799,4.665
			c0.032,0.083,0.064,0.167,0.1,0.259c0.27,0,0.537-0.001,0.803-0.001c0.163,0,0.326,0,0.489,0.001
			c0.707,0.005,1.376,0.459,1.626,1.121c0.157,0.414,0.293,0.836,0.431,1.257c0.103,0.314,0.079,0.625-0.073,0.919
			c-0.137,0.265-0.353,0.432-0.657,0.449c-0.818,0.044-1.636,0.078-2.454,0.12c-1.524,0.079-3.051,0.124-4.571,0.254
			c-1.608,0.137-3.147,0.573-4.569,1.352c-0.822,0.45-1.431,1.121-1.786,1.996c-0.491,1.211-0.967,2.427-1.44,3.645
			c-0.063,0.161-0.134,0.219-0.315,0.238c-1.375,0.139-2.36,0.857-2.984,2.077c-0.075,0.147-0.152,0.201-0.317,0.201
			c-0.001,0-0.003,0-0.004,0c-0.806-0.004-1.612-0.005-2.417-0.005c-0.676,0-1.352,0.001-2.028,0.001c-0.089,0-0.177,0-0.282,0
			c-0.005,0.093-0.012,0.166-0.012,0.238c-0.001,0.451,0.004,0.903-0.002,1.354c-0.009,0.729-0.498,1.219-1.22,1.222
			c-0.545,0.002-1.089,0.003-1.634,0.003c-0.524,0-1.047-0.001-1.571-0.004c-0.651-0.003-1.122-0.445-1.185-1.093
			c-0.007-0.075-0.007-0.15-0.007-0.225c0-2.828-0.002-5.657,0.002-8.485c0-0.255-0.002-0.518,0.057-0.763
			c0.094-0.391,0.234-0.771,0.364-1.152c0.109-0.317,0.232-0.629,0.358-0.969c-0.261,0-0.507,0-0.747,0c-0.148,0-0.294,0-0.44,0
			c-0.699,0-1.151-0.521-0.981-1.203c0.133-0.537,0.302-1.077,0.543-1.572c0.308-0.63,0.852-0.976,1.579-0.976
			c0.197,0,0.393-0.005,0.59-0.005c0.134,0,0.269,0.002,0.403,0.01c0.013,0.001,0.025,0.001,0.037,0.001
			c0.176,0,0.243-0.081,0.307-0.253c0.53-1.421,1.102-2.827,1.604-4.257c0.396-1.13,1.203-1.721,2.29-2.102
			c1.548-0.542,3.145-0.739,4.763-0.784C15.349,10.256,16.671,10.238,17.992,10.238 M17.387,20.007
			c4.167,0,8.338-0.363,10.188-1.088c-0.103-0.356-0.201-0.702-0.303-1.047c-0.394-1.33-0.986-2.578-1.552-3.839
			c-0.204-0.454-0.502-0.725-0.939-0.861c-0.508-0.158-1.022-0.308-1.545-0.401c-1.641-0.292-3.302-0.357-4.965-0.371
			c-0.423-0.003-0.846-0.006-1.268-0.006c-1.789,0-3.575,0.052-5.348,0.334c-0.589,0.094-1.166,0.277-1.738,0.454
			c-0.295,0.091-0.567,0.266-0.707,0.563c-0.409,0.869-0.843,1.73-1.195,2.622c-0.326,0.827-0.559,1.691-0.831,2.534
			C8.99,19.638,13.186,20.007,17.387,20.007 M9.526,27.131c0.002-0.018,0.003-0.036,0.005-0.053c0.033,0,0.067,0.001,0.1,0.001
			c0.019,0,0.038,0,0.058-0.001c0.488-0.016,0.978-0.011,1.463-0.057c0.365-0.035,0.685-0.188,0.8-0.589
			c0.125-0.434-0.004-0.787-0.353-1.06c-0.153-0.12-0.314-0.238-0.488-0.322c-0.826-0.395-1.653-0.791-2.491-1.159
			c-0.427-0.187-0.87-0.339-1.346-0.339c-0.053,0-0.105,0.002-0.159,0.006c-0.67,0.048-0.966,0.339-0.983,1.011
			c-0.012,0.451-0.004,0.903-0.004,1.354c0,0.257,0.088,0.494,0.306,0.621c0.274,0.16,0.571,0.335,0.875,0.38
			C8.042,27.032,8.786,27.067,9.526,27.131 M17.992,8.438c-1.343,0-2.693,0.018-4.012,0.055c-2.061,0.057-3.748,0.338-5.308,0.884
			c-1.741,0.61-2.851,1.658-3.394,3.205c-0.303,0.863-0.642,1.744-0.971,2.595c-0.091,0.235-0.181,0.47-0.271,0.705l0,0
			c-1.415,0-2.58,0.724-3.196,1.986c-0.27,0.552-0.483,1.164-0.673,1.928c-0.212,0.853-0.038,1.72,0.478,2.379
			c0.268,0.343,0.614,0.612,1.008,0.792c-0.014,0.055-0.028,0.11-0.042,0.165c-0.106,0.441-0.107,0.851-0.107,1.15
			C1.5,26.677,1.5,29.04,1.5,31.403l0,1.399c0,0.14,0.003,0.269,0.015,0.397c0.151,1.568,1.399,2.712,2.967,2.721
			c0.527,0.003,1.053,0.004,1.58,0.004c0.547,0,1.094-0.001,1.641-0.003c1.635-0.006,2.897-1.204,3.006-2.815l0.531,0
			c0.803,0,1.606,0.001,2.408,0.005c0.849,0,1.549-0.431,1.933-1.182c0.358-0.701,0.825-1.031,1.563-1.106
			c0.857-0.087,1.5-0.576,1.811-1.377c0.47-1.21,0.943-2.418,1.431-3.621c0.195-0.48,0.516-0.838,0.982-1.093
			c1.161-0.636,2.459-1.018,3.857-1.137c1.045-0.089,2.129-0.138,3.177-0.186c0.445-0.02,0.89-0.041,1.335-0.064
			c0.37-0.019,0.74-0.037,1.11-0.054c0.449-0.021,0.898-0.042,1.347-0.067c0.932-0.05,1.719-0.568,2.159-1.42
			c0.371-0.719,0.436-1.539,0.183-2.308l-0.044-0.134c-0.132-0.402-0.264-0.803-0.414-1.198c-0.514-1.356-1.839-2.273-3.298-2.283
			l-0.072,0l-0.185-0.477c-0.425-1.09-0.851-2.18-1.259-3.276c-0.468-1.256-1.388-2.157-2.661-2.605
			c-0.794-0.28-1.508-0.487-2.183-0.633c-1.679-0.363-3.335-0.428-4.733-0.444C19.123,8.441,18.557,8.438,17.992,8.438L17.992,8.438
			z M10.689,14.827c0.442-0.136,0.862-0.26,1.25-0.322c1.719-0.274,3.45-0.312,5.065-0.312c0.418,0,0.836,0.003,1.254,0.006
			c1.416,0.011,3.078,0.061,4.664,0.343c0.388,0.069,0.798,0.185,1.191,0.306l0.176,0.388c0.374,0.827,0.731,1.62,1.018,2.417
			c-1.899,0.342-4.8,0.552-7.92,0.552c-3.141,0-6.042-0.211-7.923-0.554c0.072-0.214,0.146-0.422,0.227-0.625
			c0.246-0.623,0.54-1.24,0.853-1.893L10.689,14.827L10.689,14.827z"/>
	</g>
</g>
</svg>
