<?xml version="1.0" encoding="utf-8"?>
<!-- Generator: Adobe Illustrator 25.1.0, SVG Export Plug-In . SVG Version: 6.00 Build 0)  -->
<svg version="1.1" id="weather-no" xmlns="http://www.w3.org/2000/svg" xmlns:xlink="http://www.w3.org/1999/xlink" x="0px" y="0px"
	 viewBox="0 0 50 50" enable-background="new 0 0 50 50" xml:space="preserve">
<g>
	<path fill="#F9F9F9" stroke="#A5A5A5" stroke-width="1.8" stroke-miterlimit="10" d="M28.247,33.977
		c-0.745,0.042-1.463,0.546-2.346,0.901c0.385,0.44,0.441,0.564,0.506,0.57c3.019,0.258,3.386,1.013,1.707,3.528
		c-0.712,1.067-1.313,2.239-2.181,3.158c-0.425,0.45-1.479,0.767-2.013,0.554c-0.937-0.374-0.912-1.328-0.382-2.176
		c0.364-0.583,0.741-1.159,1.229-1.92c-1.169-0.344-2.986,0.328-3.007-1.383c-0.013-1.034,0.832-2.079,1.29-3.12
		c-3.535-0.512-4.04-0.213-5.83,3.441c0.07,0.063,0.136,0.177,0.211,0.182c2.928,0.218,3.323,1.012,1.706,3.433
		c-1.187,1.777-2.378,3.552-3.546,5.342c-0.576,0.882-1.326,1.336-2.281,0.731c-1.003-0.635-0.766-1.523-0.206-2.37
		c0.844-1.275,1.689-2.55,2.524-3.81c-0.203-0.164-0.276-0.275-0.356-0.281c-2.928-0.213-3.297-0.951-1.688-3.392
		c0.69-1.048,1.38-2.096,2.258-3.43C12.772,33.936,30.327,33.861,28.247,33.977z"/>
	<g>
		<path fill="#F9F9F9" d="M37.03,20.573c-1.277,0-2.037-0.663-2.905-2.535c-1.075-2.32-3.023-4.109-5.936-5.442
			c0.93-0.637,2.076-0.987,3.29-0.987c1.311,0,2.596,0.395,3.716,1.142c2.611,1.742,3.623,5.018,2.461,7.773
			C37.434,20.557,37.225,20.573,37.03,20.573L37.03,20.573z"/>
		<path fill="#A5A5A5" d="M31.48,12.51c1.133,0,2.245,0.343,3.216,0.991c2.092,1.396,2.997,3.927,2.313,6.173
			c-0.646-0.003-1.212-0.169-2.067-2.013c-0.945-2.039-2.493-3.693-4.696-5.004C30.641,12.56,31.055,12.51,31.48,12.51 M31.48,10.71
			c-1.89,0-3.707,0.737-4.954,2.171c2.895,1.087,5.484,2.736,6.783,5.536c0.866,1.868,1.848,3.056,3.722,3.056
			c0.377,0,0.79-0.048,1.246-0.148c1.64-3.23,0.564-7.223-2.582-9.322C34.394,11.135,32.916,10.71,31.48,10.71L31.48,10.71z"/>
	</g>
	<path fill="#F9F9F9" stroke="#A5A5A5" stroke-width="1.8" stroke-miterlimit="10" d="M23.428,11.514
		c-1.141-1.371-2.234-2.6-3.188-3.929c-0.133-0.185,0.313-1.071,0.68-1.256c0.422-0.213,1.21-0.212,1.567,0.058
		c0.885,0.667,1.697,1.477,2.369,2.358c0.281,0.368,0.303,1.133,0.123,1.591C24.825,10.731,24.215,10.947,23.428,11.514z"/>
	<path fill="#F9F9F9" stroke="#A5A5A5" stroke-width="1.8" stroke-miterlimit="10" d="M44.609,8.764
		c-0.038,1.224-2.735,3.857-3.633,3.833c-1.165-0.032-1.86-1.363-1.104-2.33c0.716-0.917,1.593-1.734,2.51-2.453
		c0.313-0.245,1.043-0.222,1.437-0.027C44.222,7.986,44.445,8.547,44.609,8.764z"/>
	<path fill="#F9F9F9" stroke="#A5A5A5" stroke-width="1.8" stroke-miterlimit="10" d="M44.22,18.814c0.532,0,1.163-0.18,1.573,0.044
		c0.565,0.307,1.334,0.922,1.33,1.4c-0.004,0.495-0.748,1.25-1.308,1.414c-0.835,0.244-1.792,0.067-2.697,0.073
		c-1.054,0.006-1.819-0.422-1.786-1.552c0.031-1.05,0.788-1.418,1.769-1.39c0.372,0.011,0.745,0.002,1.118,0.002
		C44.22,18.807,44.22,18.81,44.22,18.814z"/>
	<path fill="#F9F9F9" stroke="#A5A5A5" stroke-width="1.8" stroke-miterlimit="10" d="M34.036,5.532
		c-0.126,0.98,0.502,2.744-1.501,2.674c-1.893-0.067-1.371-1.773-1.448-2.971c-0.03-0.475-0.172-1.081,0.055-1.405
		c0.396-0.566,0.994-1.225,1.594-1.324c0.347-0.057,0.965,0.851,1.264,1.428C34.194,4.311,34.036,4.871,34.036,5.532z"/>
	<path fill="#F9F9F9" stroke="#A5A5A5" stroke-width="1.8" stroke-miterlimit="10" d="M32.277,23.125
		c4.589-1.3,8.796,1.683,8.567,5.89c-0.251,4.593-4.666,4.895-4.666,4.895H7.876c0,0-4.207-0.306-4.895-4.36
		c-0.964-5.679,4.972-9.102,10.25-6.349"/>
	<path fill="#F9F9F9" stroke="#A5A5A5" stroke-width="1.8" stroke-miterlimit="10" d="M9.788,23.355
		c1.238-5.616,6.12-9.026,11.932-9.026c6.749,0,12.315,5.192,12.315,12.162"/>
</g>
</svg>
