<?xml version="1.0" encoding="utf-8"?>
<!-- Generator: Adobe Illustrator 25.2.1, SVG Export Plug-In . SVG Version: 6.00 Build 0)  -->
<svg version="1.1" id="Layer_1" xmlns="http://www.w3.org/2000/svg" xmlns:xlink="http://www.w3.org/1999/xlink" x="0px" y="0px"
	 viewBox="0 0 50 50" enable-background="new 0 0 50 50" xml:space="preserve">
<g opacity="0.01">
	<rect width="50" height="50"/>
</g>
<path fill="#F9F9F9" stroke="#797979" stroke-width="2.5" stroke-miterlimit="10" d="M42.494,24.533c0-4.77,0-9.54,0-14.311
	c0-0.085,0-0.17,0-0.245c-0.698-0.103-1.362-0.186-2.02-0.3c-2.211-0.383-4.369-0.932-6.479-1.645
	c-2.255-0.762-4.421-1.69-6.516-2.756c-0.761-0.388-1.511-0.793-2.277-1.174c-0.106-0.053-0.294-0.051-0.404-0.001
	c-0.365,0.163-0.709,0.365-1.067,0.542c-1.217,0.604-2.419,1.233-3.657,1.798c-1.824,0.833-3.716,1.527-5.661,2.099
	c-1.671,0.492-3.37,0.893-5.102,1.169c-0.594,0.096-1.19,0.179-1.806,0.27c0,0.073,0,0.145,0,0.218c0,5.035,0,10.07,0,15.106
	c0,1.047-0.009,2.093,0.002,3.14c0.005,0.463-0.002,0.933,0.08,1.387c0.328,1.815,1.14,3.462,2.226,5.007
	c0.913,1.299,1.991,2.48,3.183,3.58c1.53,1.412,3.198,2.679,5,3.794c1.305,0.808,2.65,1.567,4.004,2.308
	c0.914,0.5,1.873,0.933,2.818,1.384c0.094,0.045,0.256,0.043,0.355,0.002c0.363-0.151,0.716-0.322,1.068-0.494
	c1.827-0.891,3.61-1.846,5.318-2.913c2.252-1.406,4.357-2.966,6.195-4.802c1.732-1.731,3.181-3.626,4.065-5.838
	c0.359-0.897,0.653-1.812,0.667-2.772C42.509,27.569,42.494,26.051,42.494,24.533z M23.071,30.643c-4.734,0-8.571-3.837-8.571-8.571
	c0-4.734,3.837-8.571,8.571-8.571s8.571,3.837,8.571,8.571C31.642,26.806,27.805,30.643,23.071,30.643z"/>
<g>
	<line fill="none" stroke="#797979" stroke-width="2.5" stroke-miterlimit="10" x1="29.039" y1="28.037" x2="35.5" y2="34.499"/>
</g>
</svg>
