<?xml version="1.0" encoding="utf-8"?>
<!-- Generator: Adobe Illustrator 25.2.1, SVG Export Plug-In . SVG Version: 6.00 Build 0)  -->
<svg version="1.1" id="Layer_1" xmlns="http://www.w3.org/2000/svg" xmlns:xlink="http://www.w3.org/1999/xlink" x="0px" y="0px"
	 viewBox="0 0 50 50" enable-background="new 0 0 50 50" xml:space="preserve">
<g opacity="0.01">
	<rect width="50" height="50"/>
</g>
<path fill="#F9F9F9" stroke="#797979" stroke-width="2.5" stroke-miterlimit="10" d="M42.494,24.533c0-4.77,0-9.54,0-14.311
	c0-0.085,0-0.17,0-0.245c-0.698-0.103-1.362-0.186-2.02-0.3c-2.211-0.383-4.369-0.932-6.479-1.645
	c-2.255-0.762-4.421-1.69-6.516-2.756c-0.761-0.388-1.511-0.793-2.277-1.174c-0.106-0.053-0.294-0.051-0.404-0.001
	c-0.365,0.163-0.709,0.365-1.067,0.542c-1.217,0.604-2.419,1.233-3.657,1.798c-1.824,0.833-3.716,1.527-5.661,2.099
	c-1.671,0.492-3.37,0.893-5.102,1.169c-0.594,0.096-1.19,0.179-1.806,0.27c0,0.073,0,0.145,0,0.218c0,5.035,0,10.07,0,15.106
	c0,1.047-0.009,2.093,0.002,3.14c0.005,0.463-0.002,0.933,0.08,1.387c0.328,1.815,1.14,3.462,2.226,5.007
	c0.913,1.299,1.991,2.48,3.183,3.58c1.53,1.412,3.198,2.679,5,3.794c1.305,0.808,2.65,1.567,4.004,2.308
	c0.914,0.5,1.873,0.933,2.818,1.384c0.094,0.045,0.256,0.043,0.355,0.002c0.363-0.151,0.716-0.322,1.068-0.494
	c1.827-0.891,3.61-1.846,5.318-2.913c2.252-1.406,4.357-2.966,6.195-4.802c1.732-1.731,3.181-3.626,4.065-5.838
	c0.359-0.897,0.653-1.812,0.667-2.772C42.509,27.569,42.494,26.051,42.494,24.533z M21.863,36.5l-3.34-3.34
	c0.041-0.036,0.083-0.072,0.121-0.11c0.743-0.745,0.743-1.951,0-2.694c-0.745-0.743-1.951-0.743-2.694,0
	c-0.04,0.039-0.075,0.08-0.11,0.121l-3.34-3.34l15.637-15.638l3.34,3.34c-0.041,0.036-0.083,0.072-0.121,0.11
	c-0.743,0.745-0.743,1.951,0,2.694c0.745,0.743,1.951,0.743,2.694,0c0.04-0.039,0.075-0.08,0.11-0.121l3.34,3.34L21.863,36.5z"/>
<g>
	
		<rect x="23.94" y="18.808" transform="matrix(0.7071 -0.7071 0.7071 0.7071 -6.6271 23.2573)" fill="#797979" width="1.64" height="1.64"/>
	
		<rect x="25.477" y="20.345" transform="matrix(0.7071 -0.7071 0.7071 0.7071 -7.2641 24.7938)" fill="#797979" width="1.64" height="1.64"/>
	
		<rect x="27.014" y="21.882" transform="matrix(0.7071 -0.7071 0.7071 0.7071 -7.9003 26.3307)" fill="#797979" width="1.64" height="1.64"/>
	
		<rect x="28.55" y="23.417" transform="matrix(0.7071 -0.7071 0.7071 0.7071 -8.536 27.8669)" fill="#797979" width="1.64" height="1.64"/>
</g>
</svg>
