<?xml version="1.0" encoding="utf-8"?>
<!-- Generator: Adobe Illustrator 25.2.1, SVG Export Plug-In . SVG Version: 6.00 Build 0)  -->
<svg version="1.1" id="Layer_1" xmlns="http://www.w3.org/2000/svg" xmlns:xlink="http://www.w3.org/1999/xlink" x="0px" y="0px"
	 viewBox="0 0 50 50" enable-background="new 0 0 50 50" xml:space="preserve">
<g opacity="0.01">
	<rect width="50" height="50"/>
</g>
<path fill="#20202A" stroke="#F9F9F9" stroke-width="2.5" stroke-miterlimit="10" d="M42.494,24.533c0-4.77,0-9.54,0-14.311
	c0-0.085,0-0.17,0-0.245c-0.698-0.103-1.362-0.186-2.02-0.3c-2.211-0.383-4.369-0.932-6.479-1.645
	c-2.255-0.762-4.421-1.69-6.516-2.756c-0.761-0.388-1.511-0.793-2.277-1.174c-0.106-0.053-0.294-0.051-0.404-0.001
	c-0.365,0.163-0.709,0.365-1.067,0.542c-1.217,0.604-2.419,1.233-3.657,1.798c-1.824,0.833-3.716,1.527-5.661,2.099
	c-1.671,0.492-3.37,0.893-5.102,1.169c-0.594,0.096-1.19,0.179-1.806,0.27c0,0.073,0,0.145,0,0.218c0,5.035,0,10.07,0,15.106
	c0,1.047-0.009,2.093,0.002,3.14c0.005,0.463-0.002,0.933,0.08,1.387c0.328,1.815,1.14,3.462,2.226,5.007
	c0.913,1.299,1.991,2.48,3.183,3.58c1.53,1.412,3.198,2.679,5,3.794c1.305,0.808,2.65,1.567,4.004,2.308
	c0.914,0.5,1.873,0.933,2.818,1.384c0.094,0.045,0.256,0.043,0.355,0.002c0.363-0.151,0.716-0.322,1.068-0.494
	c1.827-0.891,3.61-1.846,5.318-2.913c2.252-1.406,4.357-2.966,6.195-4.802c1.732-1.731,3.181-3.626,4.065-5.838
	c0.359-0.897,0.653-1.812,0.667-2.772C42.509,27.569,42.494,26.051,42.494,24.533z M36.5,28.883h-23V15.115h23V28.883z"/>
<g>
	<path fill="#F9F9F9" d="M19.968,24.988c-0.644,0-1.287,0.033-1.932,0c-0.512-0.033-0.859-0.413-0.842-0.941
		c0.017-0.446,0.082-0.874,0.182-1.32c0.067-0.231,0.206-0.407,0.37-0.589c0.297-0.363,0.742-0.396,1.123-0.132
		c0.396,0.281,0.843,0.464,1.321,0.332c0.297-0.067,0.592-0.204,0.856-0.352c0.38-0.199,0.778-0.21,1.057,0.104
		c0.158,0.162,0.319,0.461,0.406,0.654c0.115,0.413,0.182,0.842,0.214,1.255c0.033,0.578-0.396,0.991-1.04,0.991
		C21.107,24.988,20.529,24.988,19.968,24.988L19.968,24.988z"/>
	<path fill="#F9F9F9" d="M19.968,22c-0.859,0-1.486-0.66-1.486-1.536c0-0.809,0.677-1.469,1.486-1.469
		c0.842,0,1.486,0.677,1.486,1.536C21.453,21.34,20.793,22,19.968,22z"/>
</g>
<g>
	<line fill="none" stroke="#F9F9F9" stroke-width="1.3" stroke-miterlimit="10" x1="25.744" y1="19.736" x2="32.032" y2="19.736"/>
	<line fill="none" stroke="#F9F9F9" stroke-width="1.3" stroke-miterlimit="10" x1="25.744" y1="22" x2="32.032" y2="22"/>
	<line fill="none" stroke="#F9F9F9" stroke-width="1.3" stroke-miterlimit="10" x1="25.744" y1="24.263" x2="32.032" y2="24.263"/>
</g>
</svg>
