<?xml version="1.0" encoding="utf-8"?>
<!-- Generator: Adobe Illustrator 25.2.1, SVG Export Plug-In . SVG Version: 6.00 Build 0)  -->
<svg version="1.1" id="security-dark-open" xmlns="http://www.w3.org/2000/svg" xmlns:xlink="http://www.w3.org/1999/xlink" x="0px"
	 y="0px" viewBox="0 0 50 50" enable-background="new 0 0 50 50" xml:space="preserve">
<g opacity="0.01">
	<rect width="50" height="50"/>
</g>
<path fill="#F9F9F9" stroke="#F9F9F9" stroke-width="2.5" stroke-miterlimit="10" d="M42.494,24.533c0-4.77,0-9.54,0-14.311
	c0-0.085,0-0.17,0-0.245c-0.698-0.103-1.362-0.186-2.02-0.3c-2.211-0.383-4.369-0.932-6.479-1.645
	c-2.255-0.762-4.421-1.69-6.516-2.756c-0.761-0.388-1.511-0.793-2.277-1.174c-0.106-0.053-0.294-0.051-0.404-0.001
	c-0.365,0.163-0.709,0.365-1.067,0.542c-1.217,0.604-2.419,1.233-3.657,1.798c-1.824,0.833-3.716,1.527-5.661,2.099
	c-1.671,0.492-3.37,0.893-5.102,1.169c-0.594,0.096-1.19,0.179-1.806,0.27c0,0.073,0,0.145,0,0.218c0,5.035,0,10.07,0,15.106
	c0,1.047-0.009,2.093,0.002,3.14c0.005,0.463-0.002,0.933,0.08,1.387c0.328,1.815,1.14,3.462,2.226,5.007
	c0.913,1.299,1.991,2.48,3.183,3.58c1.53,1.412,3.198,2.679,5,3.794c1.305,0.808,2.65,1.567,4.004,2.308
	c0.914,0.5,1.873,0.933,2.818,1.384c0.094,0.045,0.256,0.043,0.355,0.002c0.363-0.151,0.716-0.322,1.068-0.494
	c1.827-0.891,3.61-1.846,5.318-2.913c2.252-1.406,4.357-2.966,6.195-4.802c1.732-1.731,3.181-3.626,4.065-5.838
	c0.359-0.897,0.653-1.812,0.667-2.772C42.509,27.569,42.494,26.051,42.494,24.533z M36.508,27.689
	c-0.009,0.631-0.203,1.234-0.439,1.824c-0.582,1.455-1.535,2.702-2.675,3.842c-1.21,1.209-2.595,2.235-4.077,3.16
	c-1.124,0.702-2.298,1.331-3.5,1.917c-0.232,0.113-0.464,0.226-0.703,0.325c-0.065,0.027-0.171,0.028-0.233-0.001
	c-0.622-0.297-1.253-0.582-1.855-0.911c-0.891-0.487-1.776-0.987-2.635-1.519c-1.186-0.734-2.284-1.568-3.291-2.497
	c-0.784-0.724-1.494-1.501-2.095-2.356c-0.715-1.017-1.25-2.101-1.465-3.295c-0.054-0.299-0.05-0.608-0.053-0.913
	c-0.007-0.689-0.001-1.377-0.001-2.066c0-3.314,0-6.627,0-9.941c0-0.048,0-0.096,0-0.143c0.406-0.06,0.797-0.115,1.188-0.177
	c1.14-0.182,2.258-0.446,3.358-0.769c1.28-0.377,2.525-0.834,3.725-1.382c0.815-0.372,1.606-0.786,2.407-1.183
	c0.235-0.117,0.462-0.249,0.702-0.357c0.072-0.032,0.196-0.034,0.266,0.001c0.504,0.251,0.997,0.518,1.498,0.773
	c1.378,0.702,2.804,1.312,4.288,1.814c1.388,0.469,2.809,0.831,4.264,1.083c0.433,0.075,0.87,0.13,1.329,0.197
	c0,0.049,0,0.105,0,0.161c0,3.139,0,6.278,0,9.418C36.512,25.692,36.522,26.691,36.508,27.689z"/>
</svg>
