<?xml version="1.0" encoding="utf-8"?>
<!-- Generator: Adobe Illustrator 25.1.0, SVG Export Plug-In . SVG Version: 6.00 Build 0)  -->
<svg version="1.1" id="drone" xmlns="http://www.w3.org/2000/svg" xmlns:xlink="http://www.w3.org/1999/xlink" x="0px" y="0px"
	 viewBox="0 0 54 54" enable-background="new 0 0 54 54" xml:space="preserve">
<rect opacity="0.01" enable-background="new    " width="54" height="54"/>
<g>
	
		<line fill="#20202A" stroke="#F9F9F9" stroke-width="1.5" stroke-linecap="round" stroke-linejoin="bevel" stroke-miterlimit="10" x1="32.117" y1="36.855" x2="38.94" y2="41.53"/>
	
		<line fill="#20202A" stroke="#F9F9F9" stroke-width="1.5" stroke-linecap="round" stroke-linejoin="bevel" stroke-miterlimit="10" x1="32.496" y1="30.664" x2="41.593" y2="39.634"/>
	
		<line fill="#20202A" stroke="#F9F9F9" stroke-width="1.5" stroke-linecap="round" stroke-linejoin="bevel" stroke-miterlimit="10" x1="33.759" y1="50.5" x2="49.047" y2="34.96"/>
	
		<circle fill="#20202A" stroke="#F9F9F9" stroke-width="1.5" stroke-linecap="round" stroke-linejoin="bevel" stroke-miterlimit="10" cx="41.466" cy="41.861" r="2.377"/>
	
		<line fill="#20202A" stroke="#F9F9F9" stroke-width="1.5" stroke-linecap="round" stroke-linejoin="bevel" stroke-miterlimit="10" x1="21.883" y1="36.855" x2="15.06" y2="41.53"/>
	
		<line fill="#20202A" stroke="#F9F9F9" stroke-width="1.5" stroke-linecap="round" stroke-linejoin="bevel" stroke-miterlimit="10" x1="21.504" y1="30.664" x2="12.407" y2="39.634"/>
	
		<line fill="#20202A" stroke="#F9F9F9" stroke-width="1.5" stroke-linecap="round" stroke-linejoin="bevel" stroke-miterlimit="10" x1="20.241" y1="50.5" x2="4.953" y2="34.96"/>
	
		<circle fill="#20202A" stroke="#F9F9F9" stroke-width="1.5" stroke-linecap="round" stroke-linejoin="bevel" stroke-miterlimit="10" cx="12.534" cy="41.861" r="2.377"/>
	
		<line fill="#20202A" stroke="#F9F9F9" stroke-width="1.5" stroke-linecap="round" stroke-linejoin="bevel" stroke-miterlimit="10" x1="32.117" y1="17.145" x2="38.94" y2="12.47"/>
	
		<line fill="#20202A" stroke="#F9F9F9" stroke-width="1.5" stroke-linecap="round" stroke-linejoin="bevel" stroke-miterlimit="10" x1="32.496" y1="23.336" x2="41.593" y2="14.366"/>
	
		<line fill="#20202A" stroke="#F9F9F9" stroke-width="1.5" stroke-linecap="round" stroke-linejoin="bevel" stroke-miterlimit="10" x1="33.759" y1="3.5" x2="49.047" y2="19.04"/>
	
		<circle fill="#20202A" stroke="#F9F9F9" stroke-width="1.5" stroke-linecap="round" stroke-linejoin="bevel" stroke-miterlimit="10" cx="41.466" cy="12.139" r="2.377"/>
	
		<line fill="#20202A" stroke="#F9F9F9" stroke-width="1.5" stroke-linecap="round" stroke-linejoin="bevel" stroke-miterlimit="10" x1="21.883" y1="17.145" x2="15.06" y2="12.47"/>
	
		<line fill="#20202A" stroke="#F9F9F9" stroke-width="1.5" stroke-linecap="round" stroke-linejoin="bevel" stroke-miterlimit="10" x1="21.504" y1="23.336" x2="12.407" y2="14.366"/>
	
		<line fill="#20202A" stroke="#F9F9F9" stroke-width="1.5" stroke-linecap="round" stroke-linejoin="bevel" stroke-miterlimit="10" x1="20.241" y1="3.5" x2="4.953" y2="19.04"/>
	
		<circle fill="#20202A" stroke="#F9F9F9" stroke-width="1.5" stroke-linecap="round" stroke-linejoin="bevel" stroke-miterlimit="10" cx="12.534" cy="12.139" r="2.377"/>
	
		<path fill="#20202A" stroke="#F9F9F9" stroke-width="1.5" stroke-linecap="round" stroke-linejoin="bevel" stroke-miterlimit="10" d="
		M32.322,36.549l0.679-17.473c0-3.044-2.46-5.512-5.494-5.512h-1.015c-3.034,0-5.494,2.468-5.494,5.512l0.679,17.473
		c0,0.982,0.794,1.778,1.772,1.778h7.1C31.529,38.328,32.322,37.531,32.322,36.549z"/>
	
		<line fill="#20202A" stroke="#F9F9F9" stroke-width="1.5" stroke-linecap="round" stroke-linejoin="bevel" stroke-miterlimit="10" x1="23.715" y1="38.201" x2="23.715" y2="26.388"/>
	
		<line fill="#20202A" stroke="#F9F9F9" stroke-width="1.5" stroke-linecap="round" stroke-linejoin="bevel" stroke-miterlimit="10" x1="30.285" y1="38.201" x2="30.285" y2="26.388"/>
	
		<line fill="#20202A" stroke="#F9F9F9" stroke-width="1.5" stroke-linecap="round" stroke-linejoin="bevel" stroke-miterlimit="10" x1="23.715" y1="14.733" x2="23.715" y2="22.25"/>
	
		<line fill="#20202A" stroke="#F9F9F9" stroke-width="1.5" stroke-linecap="round" stroke-linejoin="bevel" stroke-miterlimit="10" x1="30.285" y1="14.733" x2="30.285" y2="22.25"/>
</g>
</svg>
