<?xml version="1.0" encoding="utf-8"?>
<!-- Generator: Adobe Illustrator 25.4.1, SVG Export Plug-In . SVG Version: 6.00 Build 0)  -->
<svg version="1.1" id="Layer_1" xmlns="http://www.w3.org/2000/svg" xmlns:xlink="http://www.w3.org/1999/xlink" x="0px" y="0px"
	 viewBox="0 0 50 50" enable-background="new 0 0 50 50" xml:space="preserve">
<g opacity="0.01">
	<rect width="50" height="50"/>
</g>
<circle fill="#FFFFFF" stroke="#303C54" stroke-width="1.5" stroke-miterlimit="10" cx="32.4469986" cy="41.1240005" r="5"/>
<circle fill="#FFFFFF" stroke="#303C54" stroke-width="1.5" stroke-miterlimit="10" cx="42.0099983" cy="23.4300003" r="5"/>
<circle fill="#FFFFFF" stroke="#303C54" stroke-width="1.5" stroke-miterlimit="10" cx="18.5410004" cy="8.5129995" r="5"/>
<circle fill="#FFFFFF" stroke="#303C54" stroke-width="1.5" stroke-miterlimit="10" cx="7.572" cy="34.8450012" r="5"/>
<path fill="#FFFFFF" stroke="#303C54" stroke-width="1.5" stroke-miterlimit="10" d="M37.0100098,23.4299927
	c0-1.0559082,0.3312988-2.0321655,0.8900146-2.8392944l-15.131958-9.4313965
	c-0.8842163,1.4093628-2.4404907,2.3536987-4.2270508,2.3536987c-0.6733398,0-1.3137207-0.1372681-1.9000244-0.3786011
	L9.7229614,30.3490601c1.6800537,0.8059082,2.8490601,2.5080566,2.8490601,4.4959106
	c0,0.5272217-0.1039429,1.0254517-0.255188,1.5025635l15.2109375,3.9751587
	c0.3855591-2.3781128,2.432251-4.1986694,4.9192505-4.1986694c0.822876,0,1.5877075,0.2177734,2.2723389,0.5699463
	l4.9630127-8.8639526C38.1000366,26.9905396,37.0100098,25.3460083,37.0100098,23.4299927z"/>
</svg>
