<?xml version="1.0" encoding="utf-8"?>
<!-- Generator: Adobe Illustrator 25.4.1, SVG Export Plug-In . SVG Version: 6.00 Build 0)  -->
<svg version="1.1" id="edit" xmlns="http://www.w3.org/2000/svg" xmlns:xlink="http://www.w3.org/1999/xlink" x="0px" y="0px"
	 viewBox="0 0 50 50" style="enable-background:new 0 0 50 50;" xml:space="preserve">
<style type="text/css">
	.st0{opacity:1.000000e-02;}
	.st1{fill:none;stroke:#303C54;stroke-width:1.5;stroke-linecap:round;stroke-miterlimit:10;}
	.st2{fill:#303C54;}
</style>
<g class="st0">
	<rect width="50" height="50"/>
</g>
<path id="Path_983_00000163067280835230130480000000191674890777804183_" class="st1" d="M18.8,5.2h-10c-3.1,0-5.6,2.5-5.6,5.6v29.4
	c0,3.1,2.5,5.6,5.6,5.6h31.7c3.1,0,5.6-2.5,5.6-5.6v-10"/>
<path id="Path_983_00000032637923307889872520000003458007502890928825_" class="st2" d="M43.8,30.2"/>
<g>
	<path id="Path_985" class="st2" d="M21.6,29.1l5.1-2.1l-3.1-3.1L21.6,29.1z"/>
	
		<rect x="32.5" y="3.5" transform="matrix(0.7071 0.7071 -0.7071 0.7071 21.3969 -19.8629)" class="st2" width="4.4" height="24.7"/>
	<path class="st2" d="M47.1,4.7l-1.2-1.2C45.4,3,44.5,3,44,3.5l-1.2,1.2l3.1,3.1l1.2-1.2C47.6,6.1,47.6,5.2,47.1,4.7z"/>
</g>
</svg>
