<?xml version="1.0" encoding="utf-8"?>
<!-- Generator: Adobe Illustrator 25.4.1, SVG Export Plug-In . SVG Version: 6.00 Build 0)  -->
<svg version="1.1" id="traffic-no" xmlns="http://www.w3.org/2000/svg" xmlns:xlink="http://www.w3.org/1999/xlink" x="0px" y="0px"
	 viewBox="0 0 50 50" style="enable-background:new 0 0 50 50;" xml:space="preserve">
<style type="text/css">
	.st0{fill:#FFFFFF;stroke:#303C54;stroke-width:1.5;stroke-miterlimit:10;}
	.st1{fill:#303C54;}
</style>
<path class="st0" d="M30.4,0.8c-1.9,0-3.7,0.1-5.3,0.2c-1.3,0.1-2.6,0.5-4,1c-1.1,0.5-2,1.3-2.4,2.4c-0.3,0.7-0.5,1.3-0.8,1.9
	l-0.4,1c-0.1,0.3-0.1,0.5-0.1,0.6L17.2,10l1.9,0.1l0.4,0c0.6,0,1.7,0.1,1.7,0.1c0.7,0,1.5-0.4,1.8-1.1l0.2-0.4
	c0.2-0.5,0.5-0.9,0.7-1.5c0,0,0,0,0,0c0.6-0.2,1.2-0.3,1.9-0.4c1.5-0.1,3-0.2,4.5-0.2c0.3,0,0.6,0,0.9,0c2,0,3.6,0.1,5,0.4
	c0.4,0.1,0.7,0.1,1,0.3c0.4,0.9,0.8,1.8,1.2,2.7c0,0,0,0.1,0,0.1c-1.2,0.2-2.4,0.3-3.5,0.4c-1.3,0.1-2.7,0.2-4.3,0.2
	c-0.4,0-0.8,0-1.2,0l-2.2,0l0.4,2.2c0,0.1,0,0.2,0.1,0.4l0.2,0.4c0.4,0.9,0.7,1.8,1.1,2.7c0.3,0.7,1,1.2,1.7,1.3
	c0.9,0.1,1.4,0.5,1.7,1.3c0.1,0.2,0.2,0.5,0.3,0.8l0.1,0.3c0.1,0.2,0.1,0.3,0.1,0.4c0,0.2-0.1,0.4-0.1,0.5l-0.1,0.3l-0.4,2l2,0.2
	l0.5,0c0.4,0,0.7,0.1,1.1,0.1c1.2,0.1,2.3,0.4,3.3,0.8c0.8,0.3,1.3,0.8,1.5,1.5c0.2,0.4,0.3,0.8,0.5,1.2l0,0.1
	c0.3,0.6,0.8,1.1,1.5,1.2c0.2,0,0.4,0.1,0.6,0.1c1.7,0,3-1.3,3-3.1l0-2.3c0-1.9,0-3.7,0-5.6c0-0.6,0-1.2-0.2-1.9
	c0.7-0.3,1.2-0.9,1.4-1.6l0,0l0.1-0.3v-0.3v-0.4v-0.3l-0.1-0.3l-0.1-0.4c-0.1-0.3-0.2-0.7-0.3-1c-0.5-1.4-1.8-2.3-3.4-2.4l0,0
	c-0.2-0.4-0.3-0.8-0.5-1.2c-0.3-0.9-0.7-1.7-1-2.6c-0.5-1.3-1.4-2.2-2.7-2.6c-0.7-0.2-1.4-0.4-2-0.6C36.4,1,35,1,33.7,0.9
	C32.5,0.9,31.4,0.8,30.4,0.8L30.4,0.8z"/>
<path class="st0" d="M18,8.4c-1.3,0-2.7,0-4,0.1c-2.1,0.1-3.7,0.3-5.3,0.9C6.9,10,5.8,11,5.3,12.6c-0.3,0.9-0.6,1.7-1,2.6
	c-0.1,0.2-0.2,0.5-0.3,0.7l0,0c-1.4,0-2.6,0.7-3.2,2c-0.3,0.6-0.5,1.2-0.7,1.9c-0.2,0.9,0,1.7,0.5,2.4c0.3,0.3,0.6,0.6,1,0.8
	c0,0.1,0,0.1,0,0.2c-0.1,0.4-0.1,0.9-0.1,1.1c0,2.4,0,4.8,0,7.1v1.4c0,0.1,0,0.3,0,0.4c0.2,1.6,1.4,2.7,3,2.7c0.5,0,1.1,0,1.6,0
	c0.5,0,1.1,0,1.6,0c1.6,0,2.9-1.2,3-2.8h0.5c0.8,0,1.6,0,2.4,0c0.8,0,1.5-0.4,1.9-1.2c0.4-0.7,0.8-1,1.6-1.1
	c0.9-0.1,1.5-0.6,1.8-1.4c0.5-1.2,0.9-2.4,1.4-3.6c0.2-0.5,0.5-0.8,1-1.1c1.2-0.6,2.5-1,3.9-1.1c1-0.1,2.1-0.1,3.2-0.2
	c0.4,0,0.9,0,1.3-0.1c0.4,0,0.7,0,1.1-0.1c0.4,0,0.9,0,1.3-0.1c0.9,0,1.7-0.6,2.2-1.4c0.4-0.7,0.4-1.5,0.2-2.3l0-0.1
	c-0.1-0.4-0.3-0.8-0.4-1.2c-0.5-1.4-1.8-2.3-3.3-2.3h-0.1l-0.2-0.5c-0.4-1.1-0.9-2.2-1.3-3.3c-0.5-1.3-1.4-2.2-2.7-2.6
	c-0.8-0.3-1.5-0.5-2.2-0.6c-1.7-0.4-3.3-0.4-4.7-0.4C19.1,8.4,18.6,8.4,18,8.4L18,8.4z"/>
<path class="st0" d="M31.2,21.7c-1.3,0-2.6,0-3.9,0.1c-2.1,0.1-3.8,0.3-5.4,0.9c-1.7,0.6-2.8,1.6-3.4,3.1c-0.3,0.9-0.7,1.8-1,2.7
	c-0.1,0.2-0.2,0.4-0.2,0.6h0c-1.4,0-2.6,0.8-3.2,2.1c-0.2,0.5-0.4,1.1-0.6,1.8c-0.2,0.9-0.1,1.8,0.5,2.4c0.3,0.3,0.6,0.6,1,0.8
	c-0.1,0.4-0.1,0.8-0.1,1.3c0,2.9,0,5.8,0,8.7c0,1.7,1.3,3,3,3c0.5,0,1.1,0,1.6,0c0.5,0,1.1,0,1.6,0c1.7,0,2.9-1.2,3-2.8h13.4
	c0.1,1.6,1.4,2.8,3,2.8c0.5,0,1.1,0,1.6,0c0.6,0,1.1,0,1.7,0c1.6,0,2.9-1.3,2.9-3c0-2.9,0-5.9,0-8.8c0-0.4,0-0.8-0.1-1.2
	c0.6-0.3,1.1-0.8,1.3-1.4l0-0.1l0-0.1l0.1-0.3v-0.4v-0.5v-0.3l-0.1-0.3l-0.1-0.4l-0.3-0.9c-0.5-1.5-1.9-2.4-3.4-2.4h0
	c-0.1-0.3-0.2-0.6-0.3-0.9c-0.4-1-0.7-1.9-1.1-2.9c-0.5-1.2-1.4-2.1-2.6-2.6c-0.8-0.3-1.6-0.5-2.3-0.7c-1.7-0.4-3.4-0.4-4.8-0.4
	C32.3,21.7,31.7,21.7,31.2,21.7L31.2,21.7z"/>
<path class="st1" d="M37.6,40.3c0.3,0,1.9,0,2.1,0c0.6,0,1.2-0.1,1.7-0.3c0.3-0.1,0.6-0.4,0.6-0.8c0-0.6,0-1.1,0-1.7
	c0-0.4-0.3-0.7-0.7-0.7c-0.1,0-0.2,0-0.4,0c-0.2,0-0.5,0-0.7,0.1c-1.2,0.4-2.2,0.9-3.3,1.5c-0.1,0.1-0.2,0.1-0.3,0.2
	c-0.4,0.3-0.5,0.6-0.4,1.1c0.1,0.4,0.5,0.6,0.8,0.6C37.1,40.3,37.3,40.3,37.6,40.3"/>
<path class="st0" d="M30.8,33.2c4.2,0,8.4-0.4,10-1.1c-0.1-0.4-0.2-0.7-0.3-1.1c-0.4-1.3-1-2.6-1.6-3.9c-0.2-0.4-0.5-0.7-0.8-0.8
	c-0.2-0.1-0.3-0.1-0.5-0.2c-1.4-0.4-2.8-0.5-4.2-0.6c-1,0-2.1-0.1-3.1-0.1c-1.5,0-3,0.1-4.4,0.2c-0.9,0.1-1.7,0.2-2.5,0.5
	c-0.5,0.2-1,0.4-1.1,1c0,0.1-0.1,0.2-0.1,0.3c-0.5,0.9-0.9,1.9-1.2,2.9c-0.2,0.5-0.3,1.1-0.5,1.6C22.3,32.9,26.6,33.2,30.8,33.2z"/>
<path class="st1" d="M22.5,40.3c0.8,0,1.3,0,1.9-0.1c0.4,0,0.7-0.2,0.8-0.6c0.1-0.4,0-0.8-0.3-1.1c-0.2-0.1-0.3-0.2-0.5-0.3
	c-0.9-0.4-1.8-0.9-2.8-1.3c-0.3-0.2-0.7-0.2-1.1-0.2c-0.1,0-0.1,0-0.2,0c-0.7,0-1,0.3-1,1c0,0.4,0,0.8,0,1.1c0,0.6,0.3,0.9,0.7,1.1
	c0.1,0.1,0.3,0.1,0.5,0.1C21.3,40.2,22,40.3,22.5,40.3z"/>
<path class="st1" d="M38.5,19.5C38.5,19.5,38.5,19.5,38.5,19.5c0.3-0.1,0.6,0,0.8,0c0.2,0,0.3,0,0.5,0c0.5,0,1-0.1,1.5-0.3
	c0.3-0.1,0.5-0.4,0.5-0.7c0-0.6,0-1.1,0-1.7c0-0.4-0.3-0.7-0.7-0.7c-0.1,0-0.2,0-0.3,0c-0.3,0-0.6,0-0.8,0.1
	c-1.2,0.3-2.2,0.9-3.3,1.5c-0.1,0.1-0.2,0.2-0.4,0.3c-0.3,0.3-0.4,0.6-0.3,1c0.1,0.4,0.4,0.6,0.7,0.6C37.4,19.5,38,19.5,38.5,19.5"
	/>
<path class="st0" d="M17.4,20c4.2,0,8.3-0.4,10.2-1.1c-0.1-0.4-0.2-0.7-0.3-1c-0.4-1.3-1-2.6-1.6-3.8c-0.2-0.5-0.5-0.7-0.9-0.9
	c-0.5-0.2-1-0.3-1.5-0.4c-1.6-0.3-3.3-0.4-5-0.4c-0.4,0-0.8,0-1.3,0c-1.8,0-3.6,0.1-5.3,0.3c-0.6,0.1-1.2,0.3-1.7,0.5
	c-0.3,0.1-0.6,0.3-0.7,0.6c-0.4,0.9-0.8,1.7-1.2,2.6c-0.3,0.8-0.6,1.7-0.8,2.5C9,19.6,13.2,20,17.4,20z"/>
<path class="st1" d="M9.5,27.1C9.5,27.1,9.5,27.1,9.5,27.1c0-0.1,0.1-0.1,0.1-0.1c0,0,0,0,0.1,0c0.5,0,1,0,1.5-0.1
	c0.4,0,0.7-0.2,0.8-0.6c0.1-0.4,0-0.8-0.4-1.1c-0.2-0.1-0.3-0.2-0.5-0.3c-0.8-0.4-1.7-0.8-2.5-1.2c-0.4-0.2-0.9-0.3-1.3-0.3
	c-0.1,0-0.1,0-0.2,0c-0.7,0-1,0.3-1,1c0,0.5,0,0.9,0,1.4c0,0.3,0.1,0.5,0.3,0.6c0.3,0.2,0.6,0.3,0.9,0.4C8,27,8.8,27.1,9.5,27.1"/>
</svg>
