<?xml version="1.0" encoding="utf-8"?>
<!-- Generator: Adobe Illustrator 25.4.1, SVG Export Plug-In . SVG Version: 6.00 Build 0)  -->
<svg version="1.1" id="weather-no" xmlns="http://www.w3.org/2000/svg" xmlns:xlink="http://www.w3.org/1999/xlink" x="0px" y="0px"
	 viewBox="0 0 50 50" style="enable-background:new 0 0 50 50;" xml:space="preserve">
<style type="text/css">
	.st0{fill:#FFFFFF;stroke:#303C54;stroke-width:1.5;stroke-miterlimit:10;}
	.st1{fill:#303C54;}
</style>
<g>
	<path class="st0" d="M28.2,34c-0.7,0-1.5,0.5-2.3,0.9c0.4,0.4,0.4,0.6,0.5,0.6c3,0.3,3.4,1,1.7,3.5c-0.7,1.1-1.3,2.2-2.2,3.2
		c-0.4,0.5-1.5,0.8-2,0.6c-0.9-0.4-0.9-1.3-0.4-2.2c0.4-0.6,0.7-1.2,1.2-1.9c-1.2-0.3-3,0.3-3-1.4c0-1,0.8-2.1,1.3-3.1
		c-3.5-0.5-4-0.2-5.8,3.4c0.1,0.1,0.1,0.2,0.2,0.2c2.9,0.2,3.3,1,1.7,3.4c-1.2,1.8-2.4,3.6-3.5,5.3c-0.6,0.9-1.3,1.3-2.3,0.7
		c-1-0.6-0.8-1.5-0.2-2.4c0.8-1.3,1.7-2.5,2.5-3.8c-0.2-0.2-0.3-0.3-0.4-0.3c-2.9-0.2-3.3-1-1.7-3.4c0.7-1,1.4-2.1,2.3-3.4
		C12.8,33.9,30.3,33.9,28.2,34z"/>
	<g>
		<path class="st0" d="M37,20.6c-1.3,0-2-0.7-2.9-2.5c-1.1-2.3-3-4.1-5.9-5.4c0.9-0.6,2.1-1,3.3-1c1.3,0,2.6,0.4,3.7,1.1
			c2.6,1.7,3.6,5,2.5,7.8C37.4,20.6,37.2,20.6,37,20.6L37,20.6z"/>
		<g>
			<path class="st1" d="M31.5,12.2c1.2,0,2.4,0.4,3.4,1c2.3,1.5,3.2,4.3,2.4,6.7c-0.1,0-0.1,0-0.2,0c-0.9,0-1.5-0.3-2.4-2.2
				c-1-2.2-2.7-3.9-5.2-5.2C30.1,12.3,30.8,12.2,31.5,12.2 M31.5,10.7c-1.9,0-3.7,0.7-5,2.2c2.9,1.1,5.5,2.7,6.8,5.5
				c0.9,1.9,1.8,3.1,3.7,3.1c0.4,0,0.8,0,1.2-0.1c1.6-3.2,0.6-7.2-2.6-9.3C34.4,11.1,32.9,10.7,31.5,10.7L31.5,10.7z"/>
		</g>
	</g>
	<path class="st0" d="M23.4,11.5c-1.1-1.4-2.2-2.6-3.2-3.9c-0.1-0.2,0.3-1.1,0.7-1.3c0.4-0.2,1.2-0.2,1.6,0.1
		c0.9,0.7,1.7,1.5,2.4,2.4c0.3,0.4,0.3,1.1,0.1,1.6C24.8,10.7,24.2,10.9,23.4,11.5z"/>
	<path class="st0" d="M44.6,8.8c0,1.2-2.7,3.9-3.6,3.8c-1.2,0-1.9-1.4-1.1-2.3c0.7-0.9,1.6-1.7,2.5-2.5c0.3-0.2,1-0.2,1.4,0
		C44.2,8,44.4,8.5,44.6,8.8z"/>
	<path class="st0" d="M44.2,18.8c0.5,0,1.2-0.2,1.6,0c0.6,0.3,1.3,0.9,1.3,1.4c0,0.5-0.7,1.2-1.3,1.4c-0.8,0.2-1.8,0.1-2.7,0.1
		c-1.1,0-1.8-0.4-1.8-1.6c0-1,0.8-1.4,1.8-1.4C43.5,18.8,43.8,18.8,44.2,18.8C44.2,18.8,44.2,18.8,44.2,18.8z"/>
	<path class="st0" d="M34,5.5c-0.1,1,0.5,2.7-1.5,2.7c-1.9-0.1-1.4-1.8-1.4-3c0-0.5-0.2-1.1,0.1-1.4c0.4-0.6,1-1.2,1.6-1.3
		c0.3-0.1,1,0.9,1.3,1.4C34.2,4.3,34,4.9,34,5.5z"/>
	<path class="st0" d="M32.3,23.1c4.6-1.3,8.8,1.7,8.6,5.9c-0.3,4.6-4.7,4.9-4.7,4.9H7.9c0,0-4.2-0.3-4.9-4.4c-1-5.7,5-9.1,10.2-6.3"
		/>
	<path class="st0" d="M9.8,23.4c1.2-5.6,6.1-9,11.9-9c6.7,0,12.3,5.2,12.3,12.2"/>
</g>
</svg>
