<?xml version="1.0" encoding="utf-8"?>
<!-- Generator: Adobe Illustrator 25.0.0, SVG Export Plug-In . SVG Version: 6.00 Build 0)  -->
<svg version="1.1" id="Layer_1" xmlns="http://www.w3.org/2000/svg" xmlns:xlink="http://www.w3.org/1999/xlink" x="0px" y="0px"
	 viewBox="0 0 20.126 20.125" enable-background="new 0 0 20.126 20.125" xml:space="preserve">
<g>
	<path fill="#2C2C34" d="M10.063,20.125C4.514,20.125,0,15.611,0,10.062C0,4.514,4.514,0,10.063,0
		c5.548,0,10.063,4.514,10.063,10.063C20.125,15.611,15.611,20.125,10.063,20.125z M10.063,0.838c-5.086,0-9.224,4.138-9.224,9.224
		s4.138,9.224,9.224,9.224s9.224-4.138,9.224-9.224S15.149,0.838,10.063,0.838z"/>
	<g>
		<g>
			<g>
				<path fill="#2C2C34" d="M6.08,10.162c0-0.151,0-0.303,0-0.454c0.016-0.13,0.028-0.26,0.049-0.389
					c0.091-0.55,0.302-1.048,0.703-1.441c0.622-0.612,1.353-0.863,2.215-0.594c0.237,0.074,0.471,0.158,0.705,0.242
					c0.166,0.059,0.327,0.064,0.494,0c0.18-0.069,0.364-0.126,0.546-0.19c0.394-0.138,0.794-0.229,1.217-0.163
					c0.366,0.057,0.713,0.163,1.023,0.372c0.209,0.14,0.383,0.315,0.531,0.525c-0.71,0.432-1.076,1.05-1.018,1.889
					c0.058,0.839,0.53,1.388,1.262,1.751c-0.005,0.013-0.01,0.03-0.016,0.046c-0.175,0.512-0.426,0.985-0.75,1.419
					c-0.175,0.235-0.352,0.468-0.578,0.658c-0.278,0.234-0.592,0.353-0.96,0.295c-0.22-0.035-0.426-0.112-0.631-0.194
					c-0.46-0.183-0.924-0.2-1.394-0.034c-0.189,0.067-0.378,0.136-0.569,0.197c-0.391,0.125-0.742,0.043-1.054-0.217
					c-0.069-0.057-0.138-0.115-0.2-0.18c-0.493-0.522-0.884-1.11-1.155-1.776c-0.192-0.472-0.33-0.958-0.388-1.466
					C6.101,10.359,6.091,10.26,6.08,10.162z"/>
				<path fill="#2C2C34" d="M11.863,4.975c-0.001,0.145,0.02,0.293-0.005,0.433c-0.14,0.772-0.584,1.312-1.288,1.641
					c-0.175,0.082-0.366,0.104-0.559,0.1c-0.043-0.001-0.057-0.014-0.06-0.058c-0.03-0.442,0.108-0.836,0.354-1.195
					c0.354-0.514,0.847-0.809,1.46-0.911c0.009-0.002,0.018-0.007,0.027-0.01C11.815,4.975,11.839,4.975,11.863,4.975z"/>
			</g>
		</g>
	</g>
</g>
</svg>
