<?xml version="1.0" encoding="utf-8"?>
<!-- Generator: Adobe Illustrator 25.0.1, SVG Export Plug-In . SVG Version: 6.00 Build 0)  -->
<svg version="1.1" baseProfile="tiny" id="Layer_1" xmlns="http://www.w3.org/2000/svg" xmlns:xlink="http://www.w3.org/1999/xlink"
	 x="0px" y="0px" viewBox="0 0 200 38.5" overflow="visible" xml:space="preserve">
<path fill="#F2F2F2" stroke="#59595B" stroke-width="1.1277" stroke-miterlimit="5.6386" d="M180.8,37.9H19.2
	c-10.3,0-18.7-8.3-18.7-18.7l0,0C0.6,8.9,8.9,0.6,19.2,0.6h161.5c10.3,0,18.7,8.3,18.7,18.7l0,0C199.4,29.5,191.1,37.9,180.8,37.9z"
	/>
<g>
	<g>
		<g>
			<path fill="#2C2C34" d="M13.6,19.5c0-0.3,0-0.6,0-0.9c0.1-0.3,0.1-0.5,0.1-0.8c0.2-1.1,0.6-2.1,1.4-2.9c1.2-1.2,2.7-1.7,4.5-1.2
				c0.5,0.2,1,0.3,1.4,0.5c0.3,0.1,0.7,0.1,1,0s0.7-0.3,1.1-0.4c0.8-0.3,1.6-0.5,2.5-0.3c0.7,0.1,1.4,0.3,2.1,0.7
				c0.4,0.3,0.8,0.6,1.1,1.1c-1.4,0.8-2.1,2.1-2,3.8s1.1,2.8,2.5,3.6c0,0,0,0.1-0.1,0.1c-0.3,1-0.8,2-1.5,2.9
				c-0.3,0.5-0.7,1-1.2,1.4c-0.6,0.5-1.2,0.7-1.9,0.6c-0.5-0.1-0.8-0.2-1.3-0.4c-0.9-0.4-1.9-0.4-2.8-0.1c-0.4,0.1-0.8,0.3-1.1,0.4
				c-0.8,0.2-1.5,0.1-2.1-0.5c-0.1-0.1-0.3-0.2-0.4-0.3c-1-1.1-1.8-2.3-2.3-3.6c-0.4-1-0.7-1.9-0.8-2.9
				C13.6,19.8,13.6,19.6,13.6,19.5z"/>
			<path fill="#2C2C34" d="M25.3,9c0,0.3,0.1,0.6,0,0.8c-0.3,1.6-1.2,2.7-2.6,3.3c-0.3,0.2-0.7,0.2-1.1,0.2c-0.1,0-0.1-0.1-0.1-0.1
				c-0.1-0.9,0.2-1.7,0.7-2.4c0.7-1,1.7-1.6,2.9-1.9h0.1C25.2,9,25.3,9,25.3,9z"/>
		</g>
	</g>
	<circle fill="none" cx="21.7" cy="19.2" r="11.1"/>
</g>
<text transform="matrix(1 0 0 1 42.0999 25.3188)" fill="#59595B" font-family="'Roboto-Italic'" font-size="14px">C</text>
<text transform="matrix(1 0 0 1 51.3572 25.3188)" fill="#59595B" font-family="'Roboto-Italic'" font-size="14px">o</text>
<text transform="matrix(1 0 0 1 59.5208 25.3188)" fill="#59595B" font-family="'Roboto-Italic'" font-size="14px">n</text>
<text transform="matrix(1 0 0 1 67.4309 25.3188)" fill="#59595B" font-family="'Roboto-Italic'" font-size="14px">t</text>
<text transform="matrix(1 0 0 1 72.2859 25.3188)" fill="#59595B" font-family="'Roboto-Italic'" font-size="14px">i</text>
<text transform="matrix(1 0 0 1 75.9993 25.3188)" fill="#59595B" font-family="'Roboto-Italic'" font-size="14px">n</text>
<text transform="matrix(1 0 0 1 83.9099 25.3188)" fill="#59595B" font-family="'Roboto-Italic'" font-size="14px">u</text>
<text transform="matrix(1 0 0 1 91.8132 25.3188)" fill="#59595B" font-family="'Roboto-Italic'" font-size="14px">e</text>
<text transform="matrix(1 0 0 1 99.4236 25.3188)" fill="#59595B" font-family="'Roboto-Italic'" font-size="14px"> </text>
<text transform="matrix(1 0 0 1 103.2048 25.3188)" fill="#59595B" font-family="'Roboto-Italic'" font-size="14px">w</text>
<text transform="matrix(1 0 0 1 113.8289 25.3188)" fill="#59595B" font-family="'Roboto-Italic'" font-size="14px">i</text>
<text transform="matrix(1 0 0 1 117.5427 25.3188)" fill="#59595B" font-family="'Roboto-Italic'" font-size="14px">t</text>
<text transform="matrix(1 0 0 1 122.3972 25.3188)" fill="#59595B" font-family="'Roboto-Italic'" font-size="14px">h</text>
<text transform="matrix(1 0 0 1 130.2947 25.3188)" fill="#59595B" font-family="'Roboto-Italic'" font-size="14px"> </text>
<text transform="matrix(1 0 0 1 134.0759 25.3188)" fill="#59595B" font-family="'Roboto-Italic'" font-size="14px">A</text>
<text transform="matrix(1 0 0 1 143.3543 25.3188)" fill="#59595B" font-family="'Roboto-Italic'" font-size="14px">p</text>
<text transform="matrix(1 0 0 1 151.3943 25.3188)" fill="#59595B" font-family="'Roboto-Italic'" font-size="14px">p</text>
<text transform="matrix(1 0 0 1 159.4343 25.3188)" fill="#59595B" font-family="'Roboto-Italic'" font-size="14px">l</text>
<text transform="matrix(1 0 0 1 163.1482 25.3188)" fill="#59595B" font-family="'Roboto-Italic'" font-size="14px">e</text>
</svg>
