<?xml version="1.0" encoding="UTF-8"?><!DOCTYPE svg PUBLIC "-//W3C//DTD SVG 1.1//EN" "http://www.w3.org/Graphics/SVG/1.1/DTD/svg11.dtd"><svg xmlns="http://www.w3.org/2000/svg" xmlns:xlink="http://www.w3.org/1999/xlink"><defs/><symbol id="arrow-down-dark" viewBox="0 0 50 50"><g opacity="0.01"><rect width="50" height="50"/></g><g><g><path fill="#F9F9F9" d="M31.343 19.257 25 30.243l-6.343-10.986H31.343M35.673 16.757H14.327L25 35.243 35.673 16.757 35.673 16.757z"/></g></g></symbol><symbol id="arrow-down-light" viewBox="0 0 50 50"><g opacity="0.01"><rect width="50" height="50"/></g><g><polygon fill="#FFFFFF" points="16.5,18 33.5,18 25,32.7 	"/><path fill="#797979" d="M31.3 19.3l-6.3 11-6.3-11H31.3M35.7 16.8H14.3L25 35.2 35.7 16.8 35.7 16.8z"/></g></symbol><symbol id="arrow-left-dark" viewBox="0 0 50 50"><g opacity="0.01"><rect width="50" height="50"/></g><g><path fill="#F9F9F9" d="M30.743 18.657v12.685L19.757 25 30.743 18.657M33.243 14.327 14.757 25l18.486 10.673V14.327L33.243 14.327z"/></g></symbol><symbol id="arrow-left-light" viewBox="0 0 50 50"><g opacity="0.01"><rect width="50" height="50"/></g><g><polygon fill="#FFFFFF" points="17.3,25 32,16.5 32,33.5 	"/><path fill="#797979" d="M30.7 18.7v12.7l-11-6.3L30.7 18.7M33.2 14.3 14.8 25l18.5 10.7V14.3H33.2z"/></g></symbol><symbol id="arrow-right-dark" viewBox="0 0 50 50"><g opacity="0.01"><rect width="50" height="50"/></g><g><g><path fill="#F9F9F9" d="M19.257 18.657 30.243 25l-10.986 6.343V18.657M16.757 14.327v21.345L35.243 25 16.757 14.327 16.757 14.327z"/></g></g></symbol><symbol id="arrow-right-light" viewBox="0 0 50 50"><g opacity="0.01"><rect width="50" height="50"/></g><g><polygon fill="#FFFFFF" points="18,16.5 32.7,25 18,33.5 	"/><path fill="#797979" d="M19.3 18.7l11 6.3-11 6.3V18.7M16.8 14.3v21.3L35.2 25 16.8 14.3 16.8 14.3z"/></g></symbol><symbol id="arrow-up-dark" viewBox="0 0 50 50"><g opacity="0.01"><rect width="50" height="50"/></g><g><g><path fill="#F9F9F9" d="M25 19.757l6.343 10.986H18.657L25 19.757M25 14.757 14.327 33.243h21.345L25 14.757 25 14.757z"/></g></g></symbol><symbol id="arrow-up-light" viewBox="0 0 50 50"><g opacity="0.01"><rect width="50" height="50"/></g><g><polygon fill="#FFFFFF" points="16.5,32 25,17.3 33.5,32 	"/><path fill="#797979" d="M25 19.8l6.3 11H18.7L25 19.8M25 14.8 14.3 33.2h21.3L25 14.8 25 14.8z"/></g></symbol></svg>