<?xml version="1.0" encoding="utf-8"?>
<!-- Generator: Adobe Illustrator 25.0.0, SVG Export Plug-In . SVG Version: 6.00 Build 0)  -->
<svg version="1.1" baseProfile="tiny" id="Layer_1" xmlns="http://www.w3.org/2000/svg" xmlns:xlink="http://www.w3.org/1999/xlink"
	 x="0px" y="0px" viewBox="0 0 132.2 122.2" overflow="visible" xml:space="preserve">
<g>
	<g>
		<path fill="#FFFFFF" d="M8.6,115.1c0.3,0.2,0.6,0.3,0.9,0.5c2,1.1,1.8,4.5-0.1,5.5c-0.9,0.5-1.8,0.7-2.8,0.7c-2.1,0.1-4.2,0-6.3,0
			c-0.1,0-0.1,0-0.2-0.1C0,121.2-0.1,109.9,0,108.9c0.1,0,0.3-0.1,0.5-0.1c1.8,0,3.7,0,5.4,0c0.7,0,1.4,0.1,2,0.3
			c1.6,0.5,2.4,2,2.2,3.6c-0.1,0.7-0.5,1.3-1,1.8C9,114.8,8.8,114.9,8.6,115.1z M2.7,119.3c1.4,0,2.7,0,4,0c0.2,0,0.4-0.1,0.5-0.1
			C7.7,119,8,118.6,8,118c0-0.5-0.2-1-0.7-1.2c-0.3-0.1-0.6-0.2-0.9-0.2c-1.2,0-2.4,0-3.6,0c-0.1,0-0.1,0.1-0.1,0.1
			C2.7,117.5,2.7,118.4,2.7,119.3z M2.7,114.2c1.2,0,2.2,0.1,3.3-0.1c0.1,0,0.3-0.1,0.4-0.1c0.6-0.2,0.9-0.6,0.9-1.2s-0.3-1-0.9-1.2
			c-0.3-0.1-0.5-0.1-0.8-0.1c-0.8,0-1.6,0-2.4,0c-0.1,0-0.3,0.1-0.5,0.1C2.7,112.4,2.7,113.2,2.7,114.2z"/>
		<path fill="#FFFFFF" d="M13.3,108.9c0.3,0,0.5,0,0.7,0c1.6,0,3.2,0,4.9,0c0.7,0,1.4,0.1,2.2,0.3c1.8,0.4,2.8,1.7,3,3.5
			c0.3,2-0.5,3.5-2.3,4.5c-0.1,0.1-0.2,0.1-0.3,0.2c0.5,0.8,1,1.5,1.5,2.2s1,1.4,1.6,2.3c-0.3,0-0.5,0.1-0.7,0.1
			c-0.7,0-1.3-0.1-1.9,0c-0.5,0.1-0.9-0.2-1.1-0.6c-0.5-0.9-1-1.6-1.6-2.5c-0.9-1.3-0.4-1-2-1c-0.2,0-0.5,0-0.7,0
			c-0.1,0-0.1,0.1-0.3,0.1c0,1.3,0,2.6,0,4c-1,0-1.8,0-2.8,0C13.2,121.3,13.1,109.8,13.3,108.9z M16.1,111.5c-0.1,0.9-0.1,3.2,0,3.7
			c0.2,0,0.5,0,0.7,0c0.8,0,1.6,0,2.4,0c0.1,0,0.3-0.1,0.4-0.1c1-0.3,1.4-0.9,1.4-1.9c-0.1-0.9-0.5-1.5-1.5-1.6
			C18.4,111.5,17.3,111.5,16.1,111.5z"/>
		<path fill="#FFFFFF" d="M46.4,121.8c0-4.3,0-8.6,0-12.8c0.9,0,1.8,0,2.8,0c0.1,0.6,0.1,1.2,0.1,1.8s0,1.2,0,1.8s0,1.2,0,1.8
			c0.3,0,0.4-0.2,0.5-0.3c1.4-1.5,2.8-3,4.3-4.6c0.3-0.3,0.6-0.5,1-0.5c0.7,0.1,1.4,0,2,0c0.2,0,0.4,0,0.7,0.1
			c-1.7,1.9-3.5,3.6-5.2,5.4c0.9,1.2,1.8,2.4,2.7,3.7c0.9,1.2,1.8,2.4,2.7,3.7c-0.3,0.1-0.4,0.1-0.5,0.1c-0.8,0-1.6,0-2.3,0
			c-0.4,0-0.7-0.1-0.9-0.5c-1-1.5-2.2-2.9-3.2-4.5c-0.1-0.2-0.3-0.4-0.5-0.6c-0.5,0.5-0.9,0.9-1.4,1.4c-0.1,0.1-0.1,0.4-0.1,0.6
			c0,0.9,0,1.8,0,2.8c0,0.2,0,0.4-0.1,0.7C48.2,121.8,47.3,121.8,46.4,121.8z"/>
		<g>
			<path fill="#FFFFFF" d="M68.5,113.8c-0.1,0.2-0.1,0.5-0.3,0.7c-0.8,2.3-1.6,4.6-2.4,6.9c-0.2,0.6-0.2,0.6-0.9,0.6
				c-0.4,0-0.8,0-1.2,0c-0.7,0-0.7,0-0.9-0.7c-0.8-2.3-1.6-4.5-2.3-6.8c-0.5-1.6-1-3.1-1.6-4.8c-0.1-0.2-0.1-0.5-0.2-0.7
				c0.2-0.1,0.3-0.1,0.5-0.1c0.7,0,1.3,0,2,0c0.5,0,0.5,0,0.7,0.5c0.7,2.2,1.4,4.5,2.1,6.8c0.1,0.4,0.3,0.7,0.4,1.1
				c0.1,0,0.1,0,0.1,0c0.5-1.4,0.9-2.8,1.4-4.2s0.9-2.8,1.4-4.3c0.7,0,1.4,0,2.2,0c0.3,0,0.3,0.2,0.4,0.4c0.2,0.6,0.4,1.2,0.6,1.8
				c0.7,1.9,1.2,3.8,1.9,5.7c0.1,0.2,0.1,0.4,0.3,0.7c0.1-0.3,0.2-0.6,0.3-0.8c0.7-2.4,1.4-4.8,2.2-7.2c0.2-0.6,0.2-0.6,0.9-0.7
				c0.6,0,1.1,0,1.7,0c0.2,0,0.4,0,0.6,0.1c-0.1,0.3-0.1,0.5-0.2,0.7c-1.3,3.9-2.6,7.8-3.9,11.7c-0.2,0.6-0.2,0.6-0.9,0.6
				c-0.5,0-0.9,0-1.4,0c-0.3,0-0.5-0.1-0.6-0.4c-0.3-0.7-0.5-1.4-0.7-2.2c-0.6-1.6-1.1-3.3-1.7-4.9c-0.1-0.2-0.1-0.5-0.3-0.7
				C68.6,113.8,68.5,113.8,68.5,113.8z"/>
			<path fill="#FFFFFF" d="M104.1,117.3c1,1.5,2,2.9,3.1,4.5c-0.3,0.1-0.5,0.1-0.6,0.1c-0.7,0-1.4,0-2.1,0c-0.4,0-0.7-0.1-0.9-0.5
				c-0.7-1-1.4-2.1-2.1-3.1c-0.3-0.4-0.5-0.5-0.9-0.5c-0.5,0.1-1,0-1.6,0c0,1.4,0,2.7,0,4.1c-1,0-1.8,0-2.8,0
				c-0.1-0.5-0.2-11.7-0.1-12.8c0.2,0,0.3-0.1,0.5-0.1c1.8,0,3.5,0,5.2,0c0.8,0,1.6,0.1,2.3,0.3c1.5,0.6,2.4,1.6,2.6,3.3
				c0.3,2.1-0.5,3.6-2.4,4.6C104.4,117.1,104.3,117.2,104.1,117.3z M98.9,111.5c0,1.3-0.1,2.5,0,3.7c1.1,0,2.2,0,3.3,0
				c0.2,0,0.4-0.1,0.6-0.1c0.7-0.3,1.1-0.8,1.2-1.6c0.1-1-0.5-1.8-1.6-1.9S100.2,111.5,98.9,111.5z"/>
			<path fill="#FFFFFF" d="M86.7,122.1c-3.2-0.1-5.9-2-6.6-5c-1-4.1,1.9-8.1,6.2-8.3c2-0.1,3.7,0.4,5.2,1.8c2,1.8,2.6,4.1,1.8,6.6
				c-0.7,2.6-2.4,4.1-4.9,4.7C87.8,122,87.2,122,86.7,122.1z M90.5,115.5c0-0.3,0-0.5-0.1-0.7c-0.3-1.5-1-2.6-2.5-3.1
				c-1.4-0.5-2.7-0.3-3.8,0.7c-1.8,1.5-1.8,4.6-0.1,6.2c1.2,1.1,2.7,1.3,4.2,0.7C89.9,118.4,90.5,117.1,90.5,115.5z"/>
			<path fill="#FFFFFF" d="M109.4,109c0.9,0,1.8,0,2.8,0c0.1,0.9,0,1.8,0.1,2.7c0,0.9,0,1.8,0,2.7c0.3,0,0.5-0.3,0.6-0.4
				c1.4-1.5,2.8-2.9,4.1-4.5c0.3-0.4,0.7-0.5,1.2-0.5c0.7,0.1,1.4,0,2,0c0.1,0,0.3,0,0.7,0.1c-1.8,1.8-3.5,3.6-5.2,5.4
				c0.9,1.2,1.8,2.4,2.7,3.7c0.9,1.2,1.8,2.4,2.8,3.7c-0.3,0.1-0.5,0.1-0.6,0.1c-0.7,0-1.5,0-2.2,0c-0.4,0-0.7-0.1-0.9-0.5
				c-1-1.5-2.2-2.9-3.2-4.5c-0.1-0.2-0.3-0.4-0.5-0.6c-0.5,0.5-0.9,0.9-1.3,1.4c-0.1,0.1-0.1,0.4-0.1,0.6c0,0.9,0,1.8,0,2.7
				c0,0.3,0,0.5-0.1,0.7c-0.9,0-1.8,0-2.7,0C109.4,121.3,109.3,109.8,109.4,109z"/>
			<path fill="#FFFFFF" d="M131.8,110.4c-0.5,0.7-1,1.4-1.4,2.1c-0.5-0.3-0.9-0.5-1.4-0.7c-0.7-0.4-1.5-0.6-2.4-0.5
				c-0.3,0-0.5,0.1-0.7,0.2c-0.4,0.2-0.6,0.5-0.6,0.9s0.1,0.8,0.5,1c0.3,0.2,0.7,0.3,1,0.4c0.7,0.2,1.3,0.3,1.9,0.5
				c0.5,0.2,1,0.4,1.5,0.6c2.8,1.2,2.3,5.1,0.3,6.4c-0.7,0.4-1.4,0.7-2.2,0.7c-2.2,0.2-4.2-0.3-6-1.6c-0.1-0.1-0.3-0.2-0.4-0.3
				c0.6-0.7,1.1-1.4,1.6-2c0.5,0.3,0.9,0.6,1.3,0.9c1,0.6,2,0.8,3.1,0.7c0.3-0.1,0.5-0.1,0.8-0.3c0.7-0.4,0.7-1.4,0-1.8
				c-0.5-0.3-1-0.5-1.6-0.6c-0.5-0.1-1-0.3-1.5-0.4c-0.4-0.1-0.7-0.3-1.1-0.4c-1.3-0.5-2.2-1.4-2.2-2.9c-0.1-1.6,0.5-2.9,1.9-3.7
				c0.9-0.5,1.9-0.7,2.9-0.7C128.9,108.8,130.3,109.3,131.8,110.4z"/>
		</g>
		<path fill="#FFFFFF" d="M42.2,118c0.6,0.6,1.2,1.2,1.8,1.8c-0.7,0.7-1.4,1.4-2.3,1.7c-2.1,0.9-4.1,0.9-6.2-0.2
			c-2.6-1.4-3.9-4.5-3.3-7.5c0.7-2.9,3.1-4.9,6-5.1c1.8-0.1,3.5,0.3,5,1.4c0.2,0.1,0.3,0.3,0.6,0.5c-0.6,0.7-1.2,1.4-1.8,2.1
			c-0.3-0.3-0.7-0.5-0.9-0.7c-0.9-0.6-1.8-0.9-2.9-0.7c-1.8,0.3-3,1.7-3.2,3.6c-0.1,0.7,0.1,1.4,0.3,2.2c0.9,2.1,3.3,2.9,5.3,1.8
			C41.3,118.7,41.7,118.4,42.2,118z"/>
		<path fill="#FFFFFF" d="M26.8,109c0.9,0,1.8,0,2.6,0c0.1,0.1,0.1,0.1,0.1,0.1s0.1,0,0.1,0.1s0.1,0.2,0.1,0.3c0,4,0,8,0,12
			c0,0.1,0,0.2,0,0.3s-0.1,0.1-0.1,0.1c-0.9,0-1.8,0-2.6,0C26.6,121.3,26.6,109.7,26.8,109z"/>
	</g>
</g>
<path fill="#FFFFFF" d="M72.4,6.8c5.1-2,13.9-2.4,14.8,4.6c0,1.4,0.9,2,2.3,2c4.6-0.3,5.2,1.9,7.1,5.7c4.8-0.6,9.4-0.9,11.7,4.6
	c5.4,1.1,6.8,2.8,6,6.8c2.2,1.7,3.4,3.6,2.8,6.5c6.7,2.2,4.2,9.5-2,9.4c-4.9,7.7-9.6-1.6-14.8,2.8c-11.8,7.9-34,13.8-29.6,32.1
	c5.2-4,5.8-11.7,13.7-12.8c-0.7-2.1-1-4.4,1.4-5.1c2.2-0.7,3.3-2.6,5.7-2c1.8,0.5,4.3-2.5,5.4,0.3c0.9,2.3,4.5,1.4,4.3,4.6
	c0,1.2,1.5,2.1,1.7,3.1c1,2.6-1.2,3.3-3.4,3.7c-1.4,4-2.8,3.7-6,1.1C92,75,90,76.4,88.7,74.5c-1.1-1.7-3.7-1.1-5.1-2.6
	c-0.3-0.3-1.1,0.3-1.7,0.6c-4.1,4.2-7,9.5-9.1,15.1c-2.5,6.7,1.9,10,6.8,13.4c-2.8,0.9-6-0.3-8.5,2.3c-3.8-3.8-8.2-0.7-11.9,0.9
	c0-0.9,0-1.4,0-2.3c-1.1,0-2.3-0.3-3.7-0.3c2.9-2.8,7.9-4.2,7.7-8.8c0.2-3.7,2-7.4,2-11.1c0.3-2.6-1.1-4.6-3.1-5.4
	c-4.6-1.7-7.1-5.1-9.7-8.8c-3-4.3-8.3-5.5-8.5-11.7c-2.8-0.9-5.4-1.7-8.5-2.8c-3.6,4.6-8.6-0.6-13.1,1.1c-5.9,0.6-4.5-7.8-8-9.1
	c-6.3-3.3-2.1-12.5,4.3-12.5c1.4,0,2-0.6,2.6-1.7c1.4-3.7,2.8-4.6,6.8-4.3c0.3-7.7,3.1-10.2,10-9.4c1.8-7.8,5.3-7.4,12.2-6.3
	c1.7-2,3.1-5.7,7.1-4C62-2.4,67.4-2.2,72.4,6.8z M58.2,47.8c-2.4,6.2-5.3,2.5-9.7,5.1c-1.1,0.3-1.7,1.4-1.4,2.6
	c0.2,6.5,8.5,5.8,10.5,11.4c1.4,2.8,4.8,3.4,7.4,1.4c2-2.1,8.7-5,6-8.2C61.7,53.4,66.9,51,58.2,47.8z M75.3,56.9
	c5.2-0.3,16.8-5.8,19.6-10.2c-1.7,1.7-3.4,1.7-5.4,0.9c-3.9,0.4-3.9,3.2-8-0.9C78.3,49.4,77.9,53.7,75.3,56.9z M67.9,47.2
	c-0.9,1.1-2.6,1.7-1.7,3.1c1.1,2.3,2.8,4.3,4.6,6.3c2.6,1.7,5.4-5.9,6.3-8.2c-1.1-0.6-2-1.1-3.1-1.7C71,49.5,71,49.5,67.9,47.2z"/>
</svg>
