<?xml version="1.0" encoding="UTF-8"?>
<!DOCTYPE svg PUBLIC "-//W3C//DTD SVG 1.1//EN" "http://www.w3.org/Graphics/SVG/1.1/DTD/svg11.dtd"><svg
	xmlns="http://www.w3.org/2000/svg" xmlns:xlink="http://www.w3.org/1999/xlink">
	<defs />
	<symbol id="add-comment-dark" viewBox="0 0 50 50">
		<path fill="#20202A" stroke="#F9F9F9" stroke-width="2.5" stroke-miterlimit="10"
			d="M25 5.61c-10.453 0-18.927 7.87-18.927 17.578 0 4.741 2.031 9.036 5.316 12.197-.324 1.798-1.297 5.955-3.739 8.996 4.816.176 9.264-2.435 11.877-4.368 1.733.486 3.568.753 5.472.753 10.453 0 18.927-7.87 18.927-17.578C43.927 13.48 35.453 5.61 25 5.61zM15.642 26.456c-1.708 0-3.093-1.385-3.093-3.093 0-1.708 1.385-3.093 3.093-3.093s3.093 1.385 3.093 3.093C18.735 25.071 17.35 26.456 15.642 26.456zM25 26.456c-1.708 0-3.093-1.385-3.093-3.093 0-1.708 1.385-3.093 3.093-3.093 1.708 0 3.093 1.385 3.093 3.093C28.093 25.071 26.708 26.456 25 26.456zM34.358 26.456c-1.708 0-3.093-1.385-3.093-3.093 0-1.708 1.385-3.093 3.093-3.093 1.708 0 3.093 1.385 3.093 3.093C37.45 25.071 36.066 26.456 34.358 26.456z" />
		<g opacity="0.01">
			<rect width="50" height="50" />
		</g>
	</symbol>
	<symbol id="add-comment-light" viewBox="0 0 50 50">
		<g opacity="0.01">
			<rect width="50" height="50" />
		</g>
		<g>
			<circle fill="none" stroke="#797979" stroke-width="2.5" stroke-miterlimit="10" cx="15.642" cy="23.363"
				r="3.093" />
			<circle fill="none" stroke="#797979" stroke-width="2.5" stroke-miterlimit="10" cx="25" cy="23.363"
				r="3.093" />
			<circle fill="none" stroke="#797979" stroke-width="2.5" stroke-miterlimit="10" cx="34.358" cy="23.363"
				r="3.093" />
		</g>
		<path fill="#FFFFFF" stroke="#797979" stroke-width="2.5" stroke-miterlimit="10"
			d="M25 5.61c-10.453 0-18.927 7.87-18.927 17.578 0 4.741 2.031 9.036 5.317 12.197-.324 1.798-1.297 5.955-3.739 8.996 4.816.176 9.264-2.435 11.877-4.368 1.733.486 3.568.753 5.472.753 10.453 0 18.927-7.87 18.927-17.578C43.927 13.48 35.453 5.61 25 5.61zM15.642 26.456c-1.708 0-3.093-1.385-3.093-3.093 0-1.708 1.385-3.093 3.093-3.093s3.093 1.385 3.093 3.093C18.735 25.071 17.35 26.456 15.642 26.456zM25 26.456c-1.708 0-3.093-1.385-3.093-3.093 0-1.708 1.385-3.093 3.093-3.093 1.708 0 3.093 1.385 3.093 3.093C28.093 25.071 26.708 26.456 25 26.456zM34.358 26.456c-1.708 0-3.093-1.385-3.093-3.093 0-1.708 1.385-3.093 3.093-3.093s3.093 1.385 3.093 3.093C37.451 25.071 36.066 26.456 34.358 26.456z" />
	</symbol>
	<symbol id="control-sprites">
		<symbol id="add-comment-dark" viewBox="0 0 50 50">
			<path fill="#20202A" stroke="#F9F9F9" stroke-width="2.5" stroke-miterlimit="10"
				d="M25 5.61c-10.453 0-18.927 7.87-18.927 17.578 0 4.741 2.031 9.036 5.316 12.197-.324 1.798-1.297 5.955-3.739 8.996 4.816.176 9.264-2.435 11.877-4.368 1.733.486 3.568.753 5.472.753 10.453 0 18.927-7.87 18.927-17.578C43.927 13.48 35.453 5.61 25 5.61zM15.642 26.456c-1.708 0-3.093-1.385-3.093-3.093 0-1.708 1.385-3.093 3.093-3.093s3.093 1.385 3.093 3.093C18.735 25.071 17.35 26.456 15.642 26.456zM25 26.456c-1.708 0-3.093-1.385-3.093-3.093 0-1.708 1.385-3.093 3.093-3.093 1.708 0 3.093 1.385 3.093 3.093C28.093 25.071 26.708 26.456 25 26.456zM34.358 26.456c-1.708 0-3.093-1.385-3.093-3.093 0-1.708 1.385-3.093 3.093-3.093 1.708 0 3.093 1.385 3.093 3.093C37.45 25.071 36.066 26.456 34.358 26.456z" />
			<g opacity="0.01">
				<rect width="50" height="50" />
			</g>
		</symbol>
		<symbol id="add-comment-light" viewBox="0 0 50 50">
			<g opacity="0.01">
				<rect width="50" height="50" />
			</g>
			<g>
				<circle fill="none" stroke="#797979" stroke-width="2.5" stroke-miterlimit="10" cx="15.642" cy="23.363"
					r="3.093" />
				<circle fill="none" stroke="#797979" stroke-width="2.5" stroke-miterlimit="10" cx="25" cy="23.363"
					r="3.093" />
				<circle fill="none" stroke="#797979" stroke-width="2.5" stroke-miterlimit="10" cx="34.358" cy="23.363"
					r="3.093" />
			</g>
			<path fill="#FFFFFF" stroke="#797979" stroke-width="2.5" stroke-miterlimit="10"
				d="M25 5.61c-10.453 0-18.927 7.87-18.927 17.578 0 4.741 2.031 9.036 5.317 12.197-.324 1.798-1.297 5.955-3.739 8.996 4.816.176 9.264-2.435 11.877-4.368 1.733.486 3.568.753 5.472.753 10.453 0 18.927-7.87 18.927-17.578C43.927 13.48 35.453 5.61 25 5.61zM15.642 26.456c-1.708 0-3.093-1.385-3.093-3.093 0-1.708 1.385-3.093 3.093-3.093s3.093 1.385 3.093 3.093C18.735 25.071 17.35 26.456 15.642 26.456zM25 26.456c-1.708 0-3.093-1.385-3.093-3.093 0-1.708 1.385-3.093 3.093-3.093 1.708 0 3.093 1.385 3.093 3.093C28.093 25.071 26.708 26.456 25 26.456zM34.358 26.456c-1.708 0-3.093-1.385-3.093-3.093 0-1.708 1.385-3.093 3.093-3.093s3.093 1.385 3.093 3.093C37.451 25.071 36.066 26.456 34.358 26.456z" />
		</symbol>
		<symbol id="draw-line-dark" viewBox="0 0 50 50">
			<g opacity="0.01">
				<rect width="50" height="50" />
			</g>
			<line fill="#20202A" stroke="#F9F9F9" stroke-width="2.5" stroke-miterlimit="10" x1="12.961" y1="12.202"
				x2="36.22" y2="37.178" />
			<circle fill="#20202A" stroke="#F9F9F9" stroke-width="2.5" stroke-miterlimit="10" cx="36.632" cy="37.51"
				r="4" />
			<circle fill="#20202A" stroke="#F9F9F9" stroke-width="2.5" stroke-miterlimit="10" cx="13.368" cy="12.49"
				r="4" />
		</symbol>
		
		<symbol id="draw-point-dark" viewBox="0 0 50 50">
			<g>
				<g opacity="0.01">
					<rect width="50" height="50" />
				</g>
				<circle fill="none" stroke="#F9F9F9" stroke-width="2.5" stroke-miterlimit="10" cx="25" cy="19.605"
					r="10.34" />
				<path fill="#20202A" stroke="#F9F9F9" stroke-width="2.5" stroke-miterlimit="10"
					d="M25 1.841c-9.664 0-17.499 7.835-17.499 17.499 0 2.798.673 5.432 1.84 7.777l15.603 21.042 15.714-21.042c1.167-2.345 1.84-4.98 1.84-7.777C42.499 9.676 34.664 1.841 25 1.841zM25 29.945c-5.711 0-10.34-4.629-10.34-10.34S19.289 9.265 25 9.265c5.711 0 10.34 4.63 10.34 10.34S30.711 29.945 25 29.945z" />
			</g>
		</symbol>
		<symbol id="draw-point-light" viewBox="0 0 50 50">
			<g opacity="0.01">
				<rect width="50" height="50" />
			</g>
			<circle fill="none" stroke="#797979" stroke-width="2.5" stroke-miterlimit="10" cx="25" cy="19.605"
				r="10.34" />
			<path fill="#FFFFFF" stroke="#797979" stroke-width="2.5" stroke-miterlimit="10"
				d="M25 1.841c-9.664 0-17.499 7.835-17.499 17.499 0 2.798.673 5.432 1.84 7.777l15.603 21.042 15.714-21.042c1.167-2.345 1.84-4.98 1.84-7.777C42.499 9.676 34.664 1.841 25 1.841zM25 29.945c-5.711 0-10.34-4.629-10.34-10.34 0-5.711 4.629-10.34 10.34-10.34 5.711 0 10.34 4.629 10.34 10.34C35.34 25.316 30.711 29.945 25 29.945z" />
		</symbol>
		<symbol id="draw-polygon-dark" viewBox="0 0 50 50">
			<g opacity="0.01">
				<rect width="50" height="50" />
			</g>
			<polygon fill="none" stroke="#F9F9F9" stroke-width="2.5" stroke-miterlimit="10" points="7.788,35.164 18.503,8.501 42.226,23.287 
	32.029,41.499 " />
			<circle fill="#20202A" stroke="#F9F9F9" stroke-width="2.5" stroke-miterlimit="10" cx="32.447" cy="41.124"
				r="4" />
			<circle fill="#20202A" stroke="#F9F9F9" stroke-width="2.5" stroke-miterlimit="10" cx="42.01" cy="23.43"
				r="4" />
			<circle fill="#20202A" stroke="#F9F9F9" stroke-width="2.5" stroke-miterlimit="10" cx="18.541" cy="8.513"
				r="4" />
			<circle fill="#20202A" stroke="#F9F9F9" stroke-width="2.5" stroke-miterlimit="10" cx="7.572" cy="34.845"
				r="4" />
		</symbol>
		<symbol id="draw-polygon-light" viewBox="0 0 50 50">
			<g opacity="0.01">
				<rect width="50" height="50" />
			</g>
			<g>
				<polygon fill="none" stroke="#797979" stroke-width="2.5" stroke-miterlimit="10" points="7.788,35.164 18.503,8.501 
		42.226,23.287 32.029,41.499 	" />
				<circle fill="#FFFFFF" stroke="#797979" stroke-width="2.5" stroke-miterlimit="10" cx="32.447"
					cy="41.124" r="4" />
				<circle fill="#FFFFFF" stroke="#797979" stroke-width="2.5" stroke-miterlimit="10" cx="42.01" cy="23.43"
					r="4" />
				<circle fill="#FFFFFF" stroke="#797979" stroke-width="2.5" stroke-miterlimit="10" cx="18.541" cy="8.513"
					r="4" />
				<circle fill="#FFFFFF" stroke="#797979" stroke-width="2.5" stroke-miterlimit="10" cx="7.572" cy="34.845"
					r="4" />
			</g>
		</symbol>
		<symbol id="security-dark" viewBox="0 0 50 50">
			<g opacity="0.01">
				<rect width="50" height="50" />
			</g>
			<path fill="#20202A" stroke="#F9F9F9" stroke-width="2.5" stroke-miterlimit="10"
				d="M42.494 24.533c0-4.77 0-9.54 0-14.311 0-.085 0-.17 0-.245-.698-.103-1.362-.186-2.02-.3-2.211-.383-4.369-.932-6.479-1.645-2.255-.762-4.421-1.69-6.516-2.756-.761-.388-1.511-.793-2.277-1.174-.106-.053-.294-.051-.404-.001-.365.163-.709.365-1.067.542-1.217.604-2.419 1.233-3.657 1.798-1.824.833-3.716 1.527-5.661 2.099-1.671.492-3.37.893-5.102 1.169C8.717 9.805 8.121 9.888 7.505 9.979c0 .073 0 .145 0 .218 0 5.035 0 10.07 0 15.106 0 1.047-.009 2.093.002 3.14.005.463-.002.933.08 1.387.328 1.815 1.14 3.462 2.226 5.007.913 1.299 1.991 2.48 3.183 3.58 1.53 1.412 3.198 2.679 5 3.794 1.305.808 2.65 1.567 4.004 2.308.914.5 1.873.933 2.818 1.384.094.045.256.043.355.002.363-.151.716-.322 1.068-.494 1.827-.891 3.61-1.846 5.318-2.913 2.252-1.406 4.357-2.966 6.195-4.802 1.732-1.731 3.181-3.626 4.065-5.838.359-.897.653-1.812.667-2.772C42.509 27.569 42.494 26.051 42.494 24.533zM36.508 27.689c-.009.631-.203 1.234-.439 1.824-.582 1.455-1.535 2.702-2.675 3.842-1.21 1.209-2.595 2.235-4.077 3.16-1.124.702-2.298 1.331-3.5 1.917-.232.113-.464.226-.703.325-.065.027-.171.028-.233-.001-.622-.297-1.253-.582-1.855-.911-.891-.487-1.776-.987-2.635-1.519-1.186-.734-2.284-1.568-3.291-2.497-.784-.724-1.494-1.501-2.095-2.356-.715-1.017-1.25-2.101-1.465-3.295-.054-.299-.05-.608-.053-.913-.007-.689-.001-1.377-.001-2.066 0-3.314 0-6.627 0-9.941 0-.048 0-.096 0-.143.406-.06.797-.115 1.188-.177 1.14-.182 2.258-.446 3.358-.769 1.28-.377 2.525-.834 3.725-1.382.815-.372 1.606-.786 2.407-1.183.235-.117.462-.249.702-.357.072-.032.196-.034.266.001.504.251.997.518 1.498.773 1.378.702 2.804 1.312 4.288 1.814 1.388.469 2.809.831 4.264 1.083.433.075.87.13 1.329.197 0 .049 0 .105 0 .161 0 3.139 0 6.278 0 9.418C36.512 25.692 36.522 26.691 36.508 27.689z" />
		</symbol>
		<symbol id="security-light" viewBox="0 0 50 50">
			<g opacity="0.01">
				<rect width="50" height="50" />
			</g>
			<path fill="none" stroke="#797979" stroke-width="2.5" stroke-miterlimit="10"
				d="M36.512 15.275c0-.056 0-.112 0-.161-.46-.068-.896-.122-1.329-.197-1.455-.252-2.875-.613-4.264-1.083-1.484-.502-2.91-1.112-4.288-1.814-.501-.255-.995-.522-1.498-.773-.069-.035-.193-.033-.266-.001-.24.107-.467.24-.702.357-.801.397-1.592.811-2.407 1.183-1.2.548-2.445 1.005-3.725 1.382-1.1.324-2.218.587-3.358.769-.39.062-.782.117-1.188.177 0 .048 0 .096 0 .143 0 3.314 0 6.627 0 9.941 0 .689-.006 1.377.001 2.066.003.305-.001.614.053.913.216 1.195.75 2.279 1.465 3.295.601.855 1.31 1.632 2.095 2.356 1.007.929 2.104 1.763 3.291 2.497.859.532 1.744 1.031 2.635 1.519.601.329 1.232.614 1.855.911.062.03.168.028.233.001.239-.099.471-.212.703-.325 1.202-.586 2.375-1.215 3.5-1.917 1.482-.925 2.867-1.952 4.077-3.16 1.14-1.139 2.093-2.386 2.675-3.842.236-.59.43-1.193.439-1.824.015-.999.005-1.997.005-2.996C36.512 21.554 36.512 18.414 36.512 15.275z" />
			<path fill="#FFFFFF" stroke="#797979" stroke-width="2.5" stroke-miterlimit="10"
				d="M42.494 24.533c0-4.77 0-9.54-.001-14.311 0-.085 0-.17 0-.245-.698-.103-1.362-.186-2.02-.3-2.211-.383-4.369-.932-6.479-1.645-2.255-.762-4.421-1.69-6.516-2.756-.761-.388-1.511-.793-2.277-1.174-.106-.053-.294-.051-.404-.001-.365.163-.709.365-1.067.542-1.217.604-2.419 1.233-3.658 1.798-1.824.833-3.716 1.527-5.661 2.1-1.672.492-3.37.893-5.102 1.169C8.717 9.805 8.121 9.888 7.505 9.979c0 .073 0 .145 0 .218 0 5.035 0 10.07 0 15.106 0 1.047-.009 2.093.002 3.14.005.463-.002.933.08 1.387.328 1.815 1.14 3.462 2.226 5.007.914 1.299 1.991 2.48 3.183 3.58 1.53 1.412 3.198 2.679 5 3.794 1.305.808 2.65 1.567 4.004 2.308.914.5 1.872.933 2.818 1.384.094.045.256.043.355.002.363-.151.716-.322 1.068-.494 1.827-.891 3.61-1.846 5.318-2.913 2.252-1.406 4.357-2.966 6.195-4.802 1.733-1.731 3.181-3.626 4.065-5.838.359-.897.653-1.812.667-2.772C42.509 27.569 42.494 26.051 42.494 24.533zM36.508 27.689c-.009.631-.203 1.234-.439 1.824-.582 1.455-1.535 2.702-2.675 3.842-1.21 1.209-2.595 2.235-4.077 3.16-1.124.702-2.298 1.331-3.5 1.917-.232.113-.464.226-.703.325-.065.027-.171.028-.233-.001-.622-.297-1.253-.582-1.855-.911-.891-.487-1.776-.987-2.635-1.519-1.186-.734-2.284-1.568-3.291-2.497-.784-.724-1.494-1.501-2.095-2.356-.715-1.017-1.25-2.101-1.465-3.295-.054-.299-.05-.608-.053-.913-.007-.689-.001-1.377-.001-2.066 0-3.314 0-6.627 0-9.941 0-.048 0-.096 0-.143.406-.06.798-.115 1.188-.177 1.14-.182 2.258-.446 3.358-.769 1.28-.377 2.525-.834 3.725-1.382.815-.372 1.606-.786 2.407-1.183.235-.117.462-.249.702-.357.072-.032.196-.034.266.001.504.251.997.518 1.498.773 1.378.702 2.804 1.312 4.288 1.814 1.388.469 2.809.831 4.264 1.083.433.075.87.13 1.329.197 0 .049 0 .105 0 .161 0 3.139 0 6.278 0 9.418C36.512 25.692 36.522 26.691 36.508 27.689z" />
		</symbol>
		<symbol id="trash-dark" viewBox="0 0 50 50">
			<g>
				<g opacity="0.01">
					<rect width="50" height="50" />
				</g>
			</g>
			<rect x="16.939" y="6.058" fill="#20202A" stroke="#F9F9F9" stroke-width="2.5" stroke-miterlimit="10"
				width="16.122" height="6.188" />
			<polygon fill="#20202A" stroke="#F9F9F9" stroke-width="2.5" stroke-miterlimit="10" points="36.564,43.942 13.436,43.942 
	11.315,11.716 38.685,11.716 " />
			<line fill="none" stroke="#F9F9F9" stroke-width="2.5" stroke-miterlimit="10" x1="7.501" y1="11.716"
				x2="42.499" y2="11.716" />
			<g>
				<line fill="none" stroke="#F9F9F9" stroke-width="2.5" stroke-miterlimit="10" x1="19.376" y1="19.346"
					x2="20.437" y2="36.486" />
				<line fill="none" stroke="#F9F9F9" stroke-width="2.5" stroke-miterlimit="10" x1="25" y1="19.346" x2="25"
					y2="36.486" />
				<line fill="none" stroke="#F9F9F9" stroke-width="2.5" stroke-miterlimit="10" x1="30.624" y1="19.346"
					x2="29.563" y2="36.486" />
			</g>
		</symbol>
		<symbol id="trash-light" viewBox="0 0 50 50">
			<g>
				<g opacity="0.01">
					<rect width="50" height="50" />
				</g>
			</g>
			<g>
				<rect x="16.939" y="6.058" fill="#FFFFFF" stroke="#797979" stroke-width="2.5" stroke-miterlimit="10"
					width="16.122" height="6.188" />
				<g>
					<polygon fill="#FFFFFF" stroke="#797979" stroke-width="2.5" stroke-miterlimit="10" points="36.564,43.942 13.436,43.942 
			11.315,11.716 38.685,11.716 		" />
					<line fill="#FFFFFF" stroke="#797979" stroke-width="2.5" stroke-miterlimit="10" x1="7.501"
						y1="11.716" x2="42.499" y2="11.716" />
				</g>
				<g>
					<line fill="#FFFFFF" stroke="#797979" stroke-width="2.5" stroke-miterlimit="10" x1="19.376"
						y1="19.346" x2="20.437" y2="36.486" />
					<line fill="#FFFFFF" stroke="#797979" stroke-width="2.5" stroke-miterlimit="10" x1="25" y1="19.346"
						x2="25" y2="36.486" />
					<line fill="#FFFFFF" stroke="#797979" stroke-width="2.5" stroke-miterlimit="10" x1="30.624"
						y1="19.346" x2="29.563" y2="36.486" />
				</g>
			</g>
		</symbol>
	</symbol>
	<symbol id="draw-line-dark" viewBox="0 0 50 50">
		<g opacity="0.01">
			<rect width="50" height="50" />
		</g>
		<line fill="#20202A" stroke="#F9F9F9" stroke-width="2.5" stroke-miterlimit="10" x1="12.961" y1="12.202"
			x2="36.22" y2="37.178" />
		<circle fill="#20202A" stroke="#F9F9F9" stroke-width="2.5" stroke-miterlimit="10" cx="36.632" cy="37.51"
			r="4" />
		<circle fill="#20202A" stroke="#F9F9F9" stroke-width="2.5" stroke-miterlimit="10" cx="13.368" cy="12.49"
			r="4" />
	</symbol>
	<symbol id="draw-line-light" viewBox="0 0 50 50">
		<g opacity="0.01">
			<rect width="50" height="50" />
		</g>
		<g>
			<line fill="none" stroke="#797979" stroke-width="2.5" stroke-miterlimit="10" x1="13.5" y1="12.4" x2="36.8"
				y2="37.4" />
			<circle fill="#FFFFFF" stroke="#797979" stroke-width="2.5" stroke-miterlimit="10" cx="37.2" cy="37.7"
				r="4" />
			<circle fill="#FFFFFF" stroke="#797979" stroke-width="2.5" stroke-miterlimit="10" cx="13.9" cy="12.7"
				r="4" />
		</g>
	</symbol>
	<symbol id="draw-point-dark" viewBox="0 0 50 50">
		<g>
			<g opacity="0.01">
				<rect width="50" height="50" />
			</g>
			<circle fill="none" stroke="#F9F9F9" stroke-width="2.5" stroke-miterlimit="10" cx="25" cy="19.605"
				r="10.34" />
			<path fill="#20202A" stroke="#F9F9F9" stroke-width="2.5" stroke-miterlimit="10"
				d="M25 1.841c-9.664 0-17.499 7.835-17.499 17.499 0 2.798.673 5.432 1.84 7.777l15.603 21.042 15.714-21.042c1.167-2.345 1.84-4.98 1.84-7.777C42.499 9.676 34.664 1.841 25 1.841zM25 29.945c-5.711 0-10.34-4.629-10.34-10.34S19.289 9.265 25 9.265c5.711 0 10.34 4.63 10.34 10.34S30.711 29.945 25 29.945z" />
		</g>
	</symbol>
	<symbol id="draw-point-light" viewBox="0 0 50 50">
		<g opacity="0.01">
			<rect width="50" height="50" />
		</g>
		<circle fill="none" stroke="#797979" stroke-width="2.5" stroke-miterlimit="10" cx="25" cy="19.605" r="10.34" />
		<path fill="#FFFFFF" stroke="#797979" stroke-width="2.5" stroke-miterlimit="10"
			d="M25 1.841c-9.664 0-17.499 7.835-17.499 17.499 0 2.798.673 5.432 1.84 7.777l15.603 21.042 15.714-21.042c1.167-2.345 1.84-4.98 1.84-7.777C42.499 9.676 34.664 1.841 25 1.841zM25 29.945c-5.711 0-10.34-4.629-10.34-10.34 0-5.711 4.629-10.34 10.34-10.34 5.711 0 10.34 4.629 10.34 10.34C35.34 25.316 30.711 29.945 25 29.945z" />
	</symbol>
	<symbol id="draw-polygon-dark" viewBox="0 0 50 50">
		<g opacity="0.01">
			<rect width="50" height="50" />
		</g>
		<polygon fill="none" stroke="#F9F9F9" stroke-width="2.5" stroke-miterlimit="10" points="7.788,35.164 18.503,8.501 42.226,23.287 
	32.029,41.499 " />
		<circle fill="#20202A" stroke="#F9F9F9" stroke-width="2.5" stroke-miterlimit="10" cx="32.447" cy="41.124"
			r="4" />
		<circle fill="#20202A" stroke="#F9F9F9" stroke-width="2.5" stroke-miterlimit="10" cx="42.01" cy="23.43" r="4" />
		<circle fill="#20202A" stroke="#F9F9F9" stroke-width="2.5" stroke-miterlimit="10" cx="18.541" cy="8.513"
			r="4" />
		<circle fill="#20202A" stroke="#F9F9F9" stroke-width="2.5" stroke-miterlimit="10" cx="7.572" cy="34.845"
			r="4" />
	</symbol>
	<symbol id="draw-polygon-light" viewBox="0 0 50 50">
		<g opacity="0.01">
			<rect width="50" height="50" />
		</g>
		<g>
			<polygon fill="none" stroke="#797979" stroke-width="2.5" stroke-miterlimit="10" points="7.788,35.164 18.503,8.501 
		42.226,23.287 32.029,41.499 	" />
			<circle fill="#FFFFFF" stroke="#797979" stroke-width="2.5" stroke-miterlimit="10" cx="32.447" cy="41.124"
				r="4" />
			<circle fill="#FFFFFF" stroke="#797979" stroke-width="2.5" stroke-miterlimit="10" cx="42.01" cy="23.43"
				r="4" />
			<circle fill="#FFFFFF" stroke="#797979" stroke-width="2.5" stroke-miterlimit="10" cx="18.541" cy="8.513"
				r="4" />
			<circle fill="#FFFFFF" stroke="#797979" stroke-width="2.5" stroke-miterlimit="10" cx="7.572" cy="34.845"
				r="4" />
		</g>
	</symbol>
	<symbol id="security-dark" viewBox="0 0 50 50">
		<g opacity="0.01">
			<rect width="50" height="50" />
		</g>
		<path fill="#20202A" stroke="#F9F9F9" stroke-width="2.5" stroke-miterlimit="10"
			d="M42.494 24.533c0-4.77 0-9.54 0-14.311 0-.085 0-.17 0-.245-.698-.103-1.362-.186-2.02-.3-2.211-.383-4.369-.932-6.479-1.645-2.255-.762-4.421-1.69-6.516-2.756-.761-.388-1.511-.793-2.277-1.174-.106-.053-.294-.051-.404-.001-.365.163-.709.365-1.067.542-1.217.604-2.419 1.233-3.657 1.798-1.824.833-3.716 1.527-5.661 2.099-1.671.492-3.37.893-5.102 1.169C8.717 9.805 8.121 9.888 7.505 9.979c0 .073 0 .145 0 .218 0 5.035 0 10.07 0 15.106 0 1.047-.009 2.093.002 3.14.005.463-.002.933.08 1.387.328 1.815 1.14 3.462 2.226 5.007.913 1.299 1.991 2.48 3.183 3.58 1.53 1.412 3.198 2.679 5 3.794 1.305.808 2.65 1.567 4.004 2.308.914.5 1.873.933 2.818 1.384.094.045.256.043.355.002.363-.151.716-.322 1.068-.494 1.827-.891 3.61-1.846 5.318-2.913 2.252-1.406 4.357-2.966 6.195-4.802 1.732-1.731 3.181-3.626 4.065-5.838.359-.897.653-1.812.667-2.772C42.509 27.569 42.494 26.051 42.494 24.533zM36.508 27.689c-.009.631-.203 1.234-.439 1.824-.582 1.455-1.535 2.702-2.675 3.842-1.21 1.209-2.595 2.235-4.077 3.16-1.124.702-2.298 1.331-3.5 1.917-.232.113-.464.226-.703.325-.065.027-.171.028-.233-.001-.622-.297-1.253-.582-1.855-.911-.891-.487-1.776-.987-2.635-1.519-1.186-.734-2.284-1.568-3.291-2.497-.784-.724-1.494-1.501-2.095-2.356-.715-1.017-1.25-2.101-1.465-3.295-.054-.299-.05-.608-.053-.913-.007-.689-.001-1.377-.001-2.066 0-3.314 0-6.627 0-9.941 0-.048 0-.096 0-.143.406-.06.797-.115 1.188-.177 1.14-.182 2.258-.446 3.358-.769 1.28-.377 2.525-.834 3.725-1.382.815-.372 1.606-.786 2.407-1.183.235-.117.462-.249.702-.357.072-.032.196-.034.266.001.504.251.997.518 1.498.773 1.378.702 2.804 1.312 4.288 1.814 1.388.469 2.809.831 4.264 1.083.433.075.87.13 1.329.197 0 .049 0 .105 0 .161 0 3.139 0 6.278 0 9.418C36.512 25.692 36.522 26.691 36.508 27.689z" />
	</symbol>
	<symbol id="security-light" viewBox="0 0 50 50">
		<g opacity="0.01">
			<rect width="50" height="50" />
		</g>
		<path fill="none" stroke="#797979" stroke-width="2.5" stroke-miterlimit="10"
			d="M36.512 15.275c0-.056 0-.112 0-.161-.46-.068-.896-.122-1.329-.197-1.455-.252-2.875-.613-4.264-1.083-1.484-.502-2.91-1.112-4.288-1.814-.501-.255-.995-.522-1.498-.773-.069-.035-.193-.033-.266-.001-.24.107-.467.24-.702.357-.801.397-1.592.811-2.407 1.183-1.2.548-2.445 1.005-3.725 1.382-1.1.324-2.218.587-3.358.769-.39.062-.782.117-1.188.177 0 .048 0 .096 0 .143 0 3.314 0 6.627 0 9.941 0 .689-.006 1.377.001 2.066.003.305-.001.614.053.913.216 1.195.75 2.279 1.465 3.295.601.855 1.31 1.632 2.095 2.356 1.007.929 2.104 1.763 3.291 2.497.859.532 1.744 1.031 2.635 1.519.601.329 1.232.614 1.855.911.062.03.168.028.233.001.239-.099.471-.212.703-.325 1.202-.586 2.375-1.215 3.5-1.917 1.482-.925 2.867-1.952 4.077-3.16 1.14-1.139 2.093-2.386 2.675-3.842.236-.59.43-1.193.439-1.824.015-.999.005-1.997.005-2.996C36.512 21.554 36.512 18.414 36.512 15.275z" />
		<path fill="#FFFFFF" stroke="#797979" stroke-width="2.5" stroke-miterlimit="10"
			d="M42.494 24.533c0-4.77 0-9.54-.001-14.311 0-.085 0-.17 0-.245-.698-.103-1.362-.186-2.02-.3-2.211-.383-4.369-.932-6.479-1.645-2.255-.762-4.421-1.69-6.516-2.756-.761-.388-1.511-.793-2.277-1.174-.106-.053-.294-.051-.404-.001-.365.163-.709.365-1.067.542-1.217.604-2.419 1.233-3.658 1.798-1.824.833-3.716 1.527-5.661 2.1-1.672.492-3.37.893-5.102 1.169C8.717 9.805 8.121 9.888 7.505 9.979c0 .073 0 .145 0 .218 0 5.035 0 10.07 0 15.106 0 1.047-.009 2.093.002 3.14.005.463-.002.933.08 1.387.328 1.815 1.14 3.462 2.226 5.007.914 1.299 1.991 2.48 3.183 3.58 1.53 1.412 3.198 2.679 5 3.794 1.305.808 2.65 1.567 4.004 2.308.914.5 1.872.933 2.818 1.384.094.045.256.043.355.002.363-.151.716-.322 1.068-.494 1.827-.891 3.61-1.846 5.318-2.913 2.252-1.406 4.357-2.966 6.195-4.802 1.733-1.731 3.181-3.626 4.065-5.838.359-.897.653-1.812.667-2.772C42.509 27.569 42.494 26.051 42.494 24.533zM36.508 27.689c-.009.631-.203 1.234-.439 1.824-.582 1.455-1.535 2.702-2.675 3.842-1.21 1.209-2.595 2.235-4.077 3.16-1.124.702-2.298 1.331-3.5 1.917-.232.113-.464.226-.703.325-.065.027-.171.028-.233-.001-.622-.297-1.253-.582-1.855-.911-.891-.487-1.776-.987-2.635-1.519-1.186-.734-2.284-1.568-3.291-2.497-.784-.724-1.494-1.501-2.095-2.356-.715-1.017-1.25-2.101-1.465-3.295-.054-.299-.05-.608-.053-.913-.007-.689-.001-1.377-.001-2.066 0-3.314 0-6.627 0-9.941 0-.048 0-.096 0-.143.406-.06.798-.115 1.188-.177 1.14-.182 2.258-.446 3.358-.769 1.28-.377 2.525-.834 3.725-1.382.815-.372 1.606-.786 2.407-1.183.235-.117.462-.249.702-.357.072-.032.196-.034.266.001.504.251.997.518 1.498.773 1.378.702 2.804 1.312 4.288 1.814 1.388.469 2.809.831 4.264 1.083.433.075.87.13 1.329.197 0 .049 0 .105 0 .161 0 3.139 0 6.278 0 9.418C36.512 25.692 36.522 26.691 36.508 27.689z" />
	</symbol>
	<symbol id="trash-dark" viewBox="0 0 50 50">
		<g>
			<g opacity="0.01">
				<rect width="50" height="50" />
			</g>
		</g>
		<rect x="16.939" y="6.058" fill="#20202A" stroke="#F9F9F9" stroke-width="2.5" stroke-miterlimit="10"
			width="16.122" height="6.188" />
		<polygon fill="#20202A" stroke="#F9F9F9" stroke-width="2.5" stroke-miterlimit="10" points="36.564,43.942 13.436,43.942 
	11.315,11.716 38.685,11.716 " />
		<line fill="none" stroke="#F9F9F9" stroke-width="2.5" stroke-miterlimit="10" x1="7.501" y1="11.716" x2="42.499"
			y2="11.716" />
		<g>
			<line fill="none" stroke="#F9F9F9" stroke-width="2.5" stroke-miterlimit="10" x1="19.376" y1="19.346"
				x2="20.437" y2="36.486" />
			<line fill="none" stroke="#F9F9F9" stroke-width="2.5" stroke-miterlimit="10" x1="25" y1="19.346" x2="25"
				y2="36.486" />
			<line fill="none" stroke="#F9F9F9" stroke-width="2.5" stroke-miterlimit="10" x1="30.624" y1="19.346"
				x2="29.563" y2="36.486" />
		</g>
	</symbol>
	<symbol id="trash-light" viewBox="0 0 50 50">
		<g>
			<g opacity="0.01">
				<rect width="50" height="50" />
			</g>
		</g>
		<g>
			<rect x="16.939" y="6.058" fill="#FFFFFF" stroke="#797979" stroke-width="2.5" stroke-miterlimit="10"
				width="16.122" height="6.188" />
			<g>
				<polygon fill="#FFFFFF" stroke="#797979" stroke-width="2.5" stroke-miterlimit="10" points="36.564,43.942 13.436,43.942 
			11.315,11.716 38.685,11.716 		" />
				<line fill="#FFFFFF" stroke="#797979" stroke-width="2.5" stroke-miterlimit="10" x1="7.501" y1="11.716"
					x2="42.499" y2="11.716" />
			</g>
			<g>
				<line fill="#FFFFFF" stroke="#797979" stroke-width="2.5" stroke-miterlimit="10" x1="19.376" y1="19.346"
					x2="20.437" y2="36.486" />
				<line fill="#FFFFFF" stroke="#797979" stroke-width="2.5" stroke-miterlimit="10" x1="25" y1="19.346"
					x2="25" y2="36.486" />
				<line fill="#FFFFFF" stroke="#797979" stroke-width="2.5" stroke-miterlimit="10" x1="30.624" y1="19.346"
					x2="29.563" y2="36.486" />
			</g>
		</g>
	</symbol>
</svg>