<?xml version="1.0" encoding="utf-8"?>
<!-- Generator: Adobe Illustrator 25.0.0, SVG Export Plug-In . SVG Version: 6.00 Build 0)  -->
<svg version="1.1" id="Layer_1" xmlns="http://www.w3.org/2000/svg" xmlns:xlink="http://www.w3.org/1999/xlink" x="0px" y="0px"
	 viewBox="0 0 20.126 20.125" enable-background="new 0 0 20.126 20.125" xml:space="preserve">
<g>
	<g>
		<path fill="#4285F4" d="M14.327,10.163c0-0.359-0.031-0.624-0.094-0.889h-4.085v1.606h2.401c-0.047,0.405-0.312,0.998-0.889,1.419
			l-0.016,0.047l1.294,0.998l0.094,0.016C13.844,12.596,14.327,11.489,14.327,10.163"/>
		<path fill="#34A853" d="M10.148,14.404c1.169,0,2.152-0.39,2.869-1.045l-1.357-1.06c-0.374,0.265-0.858,0.437-1.497,0.437
			c-1.154,0-2.121-0.764-2.479-1.809H7.638l-1.357,1.045l-0.016,0.047C6.983,13.422,8.449,14.404,10.148,14.404"/>
		<path fill="#FBBC05" d="M7.669,10.927c-0.094-0.265-0.14-0.561-0.14-0.858c0-0.296,0.047-0.592,0.14-0.858V9.15L6.313,8.105
			L6.266,8.121C5.97,8.713,5.798,9.368,5.798,10.07s0.156,1.357,0.468,1.949L7.669,10.927"/>
		<path fill="#EB4335" d="M10.148,7.404c0.811,0,1.357,0.343,1.684,0.655l1.216-1.201c-0.748-0.702-1.731-1.138-2.9-1.138
			c-1.7,0-3.165,0.967-3.882,2.401l1.403,1.091C8.028,8.168,8.995,7.404,10.148,7.404"/>
	</g>
	<path fill="#2C2C34" d="M10.063,20.125C4.514,20.125,0,15.611,0,10.062C0,4.514,4.514,0,10.063,0
		c5.548,0,10.063,4.514,10.063,10.063C20.125,15.611,15.611,20.125,10.063,20.125z M10.063,0.838c-5.086,0-9.224,4.138-9.224,9.224
		s4.138,9.224,9.224,9.224s9.224-4.138,9.224-9.224S15.149,0.838,10.063,0.838z"/>
</g>
</svg>
