<?xml version="1.0" encoding="utf-8"?>
<!-- Generator: Adobe Illustrator 25.0.1, SVG Export Plug-In . SVG Version: 6.00 Build 0)  -->
<svg version="1.1" baseProfile="tiny" id="Layer_1" xmlns="http://www.w3.org/2000/svg" xmlns:xlink="http://www.w3.org/1999/xlink"
	 x="0px" y="0px" viewBox="0 0 200 38.5" overflow="visible" xml:space="preserve">
<path fill="#F2F2F2" stroke="#59595B" stroke-width="1.1277" stroke-miterlimit="5.6386" d="M180.8,37.9H19.2
	c-10.3,0-18.7-8.3-18.7-18.7l0,0C0.6,8.9,8.9,0.6,19.2,0.6h161.5c10.3,0,18.7,8.3,18.7,18.7l0,0C199.4,29.5,191.1,37.9,180.8,37.9z"
	/>
<g>
	<path fill="#4285F4" d="M30.3,19.5c0-0.7-0.1-1.2-0.2-1.8h-8.3v3.2h4.8c-0.1,0.8-0.6,2-1.8,2.9l-0.1,0.1l2.6,2l0.2,0.1
		C29.3,24.4,30.3,22.1,30.3,19.5"/>
	<path fill="#34A853" d="M21.8,28c2.4,0,4.3-0.8,5.8-2.1l-2.8-2.1c-0.7,0.5-1.7,0.9-3,0.9c-2.3,0-4.3-1.5-5-3.7h-0.1l-2.8,2.1
		l-0.1,0.1C15.4,26,18.4,28,21.8,28"/>
	<path fill="#FBBC05" d="M16.9,21c-0.2-0.5-0.3-1.1-0.3-1.7s0.1-1.2,0.3-1.7v-0.1l-2.8-2.1L14,15.3c-0.6,1.2-1,2.5-1,3.9
		c0,1.4,0.3,2.8,1,3.9L16.9,21"/>
	<path fill="#EB4335" d="M21.8,13.9c1.6,0,2.8,0.7,3.4,1.3l2.4-2.4c-1.5-1.4-3.5-2.3-5.9-2.3c-3.4,0-6.4,2-7.8,4.8l2.8,2.2
		C17.5,15.4,19.5,13.9,21.8,13.9"/>
</g>
<text transform="matrix(1 0 0 1 42.0999 25.3188)" fill="#59595B" font-family="'Roboto-Italic'" font-size="14px">C</text>
<text transform="matrix(1 0 0 1 51.3572 25.3188)" fill="#59595B" font-family="'Roboto-Italic'" font-size="14px">o</text>
<text transform="matrix(1 0 0 1 59.5208 25.3188)" fill="#59595B" font-family="'Roboto-Italic'" font-size="14px">n</text>
<text transform="matrix(1 0 0 1 67.4309 25.3188)" fill="#59595B" font-family="'Roboto-Italic'" font-size="14px">t</text>
<text transform="matrix(1 0 0 1 72.2859 25.3188)" fill="#59595B" font-family="'Roboto-Italic'" font-size="14px">i</text>
<text transform="matrix(1 0 0 1 75.9993 25.3188)" fill="#59595B" font-family="'Roboto-Italic'" font-size="14px">n</text>
<text transform="matrix(1 0 0 1 83.9099 25.3188)" fill="#59595B" font-family="'Roboto-Italic'" font-size="14px">u</text>
<text transform="matrix(1 0 0 1 91.8132 25.3188)" fill="#59595B" font-family="'Roboto-Italic'" font-size="14px">e</text>
<text transform="matrix(1 0 0 1 99.4236 25.3188)" fill="#59595B" font-family="'Roboto-Italic'" font-size="14px"> </text>
<text transform="matrix(1 0 0 1 103.2048 25.3188)" fill="#59595B" font-family="'Roboto-Italic'" font-size="14px">w</text>
<text transform="matrix(1 0 0 1 113.8289 25.3188)" fill="#59595B" font-family="'Roboto-Italic'" font-size="14px">i</text>
<text transform="matrix(1 0 0 1 117.5427 25.3188)" fill="#59595B" font-family="'Roboto-Italic'" font-size="14px">t</text>
<text transform="matrix(1 0 0 1 122.3972 25.3188)" fill="#59595B" font-family="'Roboto-Italic'" font-size="14px">h</text>
<text transform="matrix(1 0 0 1 130.2947 25.3188)" fill="#59595B" font-family="'Roboto-Italic'" font-size="14px"> </text>
<text transform="matrix(1 0 0 1 134.0759 25.3188)" fill="#59595B" font-family="'Roboto-Italic'" font-size="14px">G</text>
<text transform="matrix(1 0 0 1 143.7429 25.3188)" fill="#59595B" font-family="'Roboto-Italic'" font-size="14px">o</text>
<text transform="matrix(1 0 0 1 151.907 25.3188)" fill="#59595B" font-family="'Roboto-Italic'" font-size="14px">o</text>
<text transform="matrix(1 0 0 1 160.0701 25.3188)" fill="#59595B" font-family="'Roboto-Italic'" font-size="14px">g</text>
<text transform="matrix(1 0 0 1 168.1111 25.3188)" fill="#59595B" font-family="'Roboto-Italic'" font-size="14px">l</text>
<text transform="matrix(1 0 0 1 171.824 25.3188)" fill="#59595B" font-family="'Roboto-Italic'" font-size="14px">e</text>
</svg>
