<?xml version="1.0" encoding="utf-8"?>
<!-- Generator: Adobe Illustrator 25.0.1, SVG Export Plug-In . SVG Version: 6.00 Build 0)  -->
<svg version="1.1" baseProfile="tiny" id="Layer_1" xmlns="http://www.w3.org/2000/svg" xmlns:xlink="http://www.w3.org/1999/xlink"
	 x="0px" y="0px" viewBox="0 0 200 38.5" overflow="visible" xml:space="preserve">
<g>
	<path fill="#F2F2F2" d="M180.8,37.9H19.2c-10.3,0-18.7-8.3-18.7-18.7l0,0C0.6,8.9,8.9,0.6,19.2,0.6h161.5
		c10.3,0,18.7,8.3,18.7,18.7l0,0C199.4,29.5,191.1,37.9,180.8,37.9z"/>
	<path fill="#59595B" d="M180.8,38.464H19.2c-10.622,0-19.264-8.642-19.264-19.264C0.039,8.631,8.681,0.036,19.2,0.036h161.5
		c10.622,0,19.264,8.642,19.264,19.264C199.964,29.867,191.367,38.464,180.8,38.464z M19.2,1.164
		c-9.904,0-18.04,8.093-18.136,18.042C1.064,29.2,9.2,37.337,19.2,37.337h161.6c9.945,0,18.037-8.092,18.037-18.037
		c0-10-8.137-18.136-18.137-18.136H19.2z"/>
</g>
<g>
	<path fill="#4285F4" d="M30.3,19.5c0-0.7-0.1-1.2-0.2-1.8h-8.3v3.2h4.8c-0.1,0.8-0.6,2-1.8,2.9l-0.1,0.1l2.6,2l0.2,0.1
		C29.3,24.4,30.3,22.1,30.3,19.5"/>
	<path fill="#34A853" d="M21.8,28c2.4,0,4.3-0.8,5.8-2.1l-2.8-2.1c-0.7,0.5-1.7,0.9-3,0.9c-2.3,0-4.3-1.5-5-3.7h-0.1l-2.8,2.1
		l-0.1,0.1C15.4,26,18.4,28,21.8,28"/>
	<path fill="#FBBC05" d="M16.9,21c-0.2-0.5-0.3-1.1-0.3-1.7s0.1-1.2,0.3-1.7v-0.1l-2.8-2.1L14,15.3c-0.6,1.2-1,2.5-1,3.9
		c0,1.4,0.3,2.8,1,3.9L16.9,21"/>
	<path fill="#EB4335" d="M21.8,13.9c1.6,0,2.8,0.7,3.4,1.3l2.4-2.4c-1.5-1.4-3.5-2.3-5.9-2.3c-3.4,0-6.4,2-7.8,4.8l2.8,2.2
		C17.5,15.4,19.5,13.9,21.8,13.9"/>
</g>
<g>
	<path fill="#59595B" d="M50.091,22.146c-0.191,1.03-0.657,1.846-1.398,2.447s-1.628,0.889-2.663,0.861
		c-0.615-0.014-1.153-0.165-1.613-0.455c-0.46-0.289-0.818-0.706-1.073-1.25c-0.255-0.545-0.396-1.147-0.424-1.809
		c-0.018-0.374-0.002-0.738,0.048-1.094l0.116-0.82c0.214-1.495,0.739-2.673,1.576-3.537c0.836-0.864,1.854-1.284,3.052-1.262
		c0.934,0.019,1.675,0.32,2.222,0.906c0.547,0.585,0.836,1.397,0.868,2.437h-1.278c-0.059-1.395-0.606-2.146-1.641-2.256
		l-0.226-0.014c-0.861-0.022-1.58,0.298-2.157,0.96c-0.577,0.664-0.949,1.569-1.118,2.718l-0.15,1.032l-0.041,0.602
		c-0.027,0.839,0.122,1.505,0.448,2c0.326,0.494,0.81,0.75,1.453,0.769c0.693,0.022,1.266-0.144,1.719-0.499
		s0.799-0.928,1.036-1.716L50.091,22.146z"/>
</g>
<g>
	<path fill="#59595B" d="M55.678,17.786c0.619,0.009,1.15,0.178,1.593,0.506c0.441,0.328,0.769,0.78,0.98,1.357
		c0.212,0.576,0.284,1.206,0.216,1.889l-0.014,0.15c-0.087,0.72-0.301,1.37-0.643,1.952c-0.342,0.58-0.784,1.033-1.326,1.356
		c-0.543,0.323-1.138,0.477-1.784,0.458c-0.615-0.009-1.146-0.178-1.59-0.506s-0.769-0.774-0.974-1.34s-0.278-1.188-0.219-1.866
		c0.068-0.766,0.275-1.454,0.622-2.064c0.346-0.61,0.792-1.083,1.336-1.419C54.421,17.926,55.021,17.767,55.678,17.786z
		 M53.162,21.75c-0.032,0.287-0.032,0.586,0,0.896c0.045,0.538,0.206,0.966,0.481,1.285c0.276,0.319,0.644,0.485,1.104,0.499
		c0.41,0.014,0.788-0.088,1.135-0.305c0.346-0.216,0.638-0.543,0.875-0.98c0.236-0.438,0.39-0.923,0.458-1.456
		c0.036-0.419,0.043-0.772,0.021-1.06c-0.055-0.552-0.222-0.986-0.499-1.305c-0.278-0.319-0.647-0.487-1.107-0.506
		c-0.639-0.014-1.181,0.237-1.627,0.752c-0.447,0.514-0.723,1.189-0.827,2.023L53.162,21.75z"/>
</g>
<g>
	<path fill="#59595B" d="M62.187,17.916l-0.178,0.937c0.666-0.729,1.422-1.085,2.27-1.066c0.697,0.019,1.212,0.26,1.545,0.725
		s0.456,1.119,0.369,1.961l-0.807,4.847h-1.237l0.813-4.862c0.027-0.223,0.03-0.43,0.007-0.621
		c-0.078-0.638-0.454-0.963-1.128-0.977c-0.743-0.014-1.395,0.383-1.955,1.188l-0.916,5.271h-1.237l1.285-7.396L62.187,17.916z"/>
</g>
<g>
	<path fill="#59595B" d="M70.91,16.131l-0.314,1.791h1.347L71.771,18.9h-1.34l-0.772,4.6c-0.014,0.118-0.016,0.228-0.007,0.328
		c0.032,0.355,0.226,0.533,0.581,0.533c0.15,0,0.352-0.022,0.602-0.068l-0.096,1.032c-0.296,0.082-0.597,0.123-0.902,0.123
		c-0.492-0.009-0.861-0.19-1.107-0.544c-0.246-0.353-0.342-0.828-0.287-1.425l0.752-4.58h-1.306l0.171-0.978h1.306l0.314-1.791
		H70.91z"/>
</g>
<g>
	<path fill="#59595B" d="M73.838,25.318h-1.23l1.285-7.396h1.23L73.838,25.318z M74.856,15.222c0.209-0.009,0.384,0.054,0.522,0.188
		c0.14,0.134,0.209,0.311,0.209,0.529c-0.005,0.214-0.074,0.39-0.209,0.526c-0.134,0.137-0.309,0.21-0.522,0.219
		c-0.215,0.009-0.39-0.053-0.526-0.185s-0.203-0.306-0.198-0.52c0.004-0.214,0.072-0.392,0.205-0.533
		C74.469,15.306,74.642,15.231,74.856,15.222z"/>
</g>
<g>
	<path fill="#59595B" d="M78.665,17.916l-0.178,0.937c0.666-0.729,1.422-1.085,2.27-1.066c0.697,0.019,1.213,0.26,1.545,0.725
		c0.333,0.465,0.456,1.119,0.369,1.961l-0.807,4.847h-1.237l0.813-4.862c0.027-0.223,0.03-0.43,0.007-0.621
		c-0.077-0.638-0.453-0.963-1.128-0.977c-0.742-0.014-1.395,0.383-1.955,1.188l-0.916,5.271h-1.237l1.285-7.396L78.665,17.916z"/>
</g>
<g>
	<path fill="#59595B" d="M88.818,24.587c-0.579,0.597-1.315,0.887-2.208,0.868c-0.707-0.019-1.229-0.271-1.569-0.759
		c-0.339-0.487-0.466-1.153-0.379-1.996l0.793-4.778h1.237l-0.8,4.798c-0.023,0.2-0.027,0.396-0.014,0.588
		c0.022,0.328,0.12,0.586,0.294,0.772c0.173,0.187,0.414,0.287,0.725,0.301c0.884,0.027,1.567-0.33,2.051-1.073l0.93-5.386h1.237
		l-1.285,7.396h-1.169L88.818,24.587z"/>
</g>
<g>
	<path fill="#59595B" d="M95.225,25.455c-0.921-0.019-1.641-0.357-2.16-1.019s-0.738-1.506-0.656-2.536l0.034-0.294
		c0.077-0.733,0.295-1.403,0.652-2.009c0.358-0.606,0.794-1.063,1.31-1.37c0.515-0.309,1.07-0.455,1.668-0.441
		c0.761,0.019,1.357,0.271,1.791,0.759c0.433,0.487,0.67,1.148,0.711,1.982c0.014,0.296,0.004,0.593-0.027,0.889l-0.075,0.567
		h-4.833c-0.082,0.67,0.028,1.239,0.331,1.709c0.304,0.47,0.756,0.713,1.357,0.731c0.729,0.019,1.403-0.31,2.023-0.984l0.711,0.602
		c-0.311,0.446-0.71,0.796-1.2,1.05C96.372,25.342,95.826,25.464,95.225,25.455z M96.011,18.818
		c-0.511-0.014-0.956,0.159-1.337,0.52c-0.38,0.36-0.683,0.895-0.905,1.606l3.596,0.007l0.027-0.109
		c0.072-0.574-0.02-1.051-0.277-1.432C96.857,19.029,96.489,18.832,96.011,18.818z"/>
</g>
<g>
	<path fill="#59595B" d="M110.055,23.568l2.358-5.646h1.278l-3.37,7.396h-1.005l-0.766-5.591l-2.666,5.591h-1.005l-0.8-7.396h1.183
		l0.451,5.509l2.625-5.509h0.998L110.055,23.568z"/>
</g>
<g>
	<path fill="#59595B" d="M115.381,25.318h-1.23l1.285-7.396h1.23L115.381,25.318z M116.399,15.222
		c0.209-0.009,0.384,0.054,0.522,0.188c0.14,0.134,0.209,0.311,0.209,0.529c-0.005,0.214-0.074,0.39-0.209,0.526
		c-0.134,0.137-0.309,0.21-0.522,0.219c-0.215,0.009-0.39-0.053-0.526-0.185s-0.203-0.306-0.198-0.52
		c0.004-0.214,0.072-0.392,0.205-0.533C116.012,15.306,116.185,15.231,116.399,15.222z"/>
</g>
<g>
	<path fill="#59595B" d="M121.022,16.131l-0.314,1.791h1.347l-0.171,0.978h-1.34l-0.772,4.6c-0.014,0.118-0.017,0.228-0.007,0.328
		c0.031,0.355,0.226,0.533,0.581,0.533c0.15,0,0.351-0.022,0.602-0.068l-0.096,1.032c-0.297,0.082-0.598,0.123-0.902,0.123
		c-0.492-0.009-0.861-0.19-1.107-0.544c-0.246-0.353-0.342-0.828-0.287-1.425l0.752-4.58h-1.306l0.171-0.978h1.306l0.314-1.791
		H121.022z"/>
</g>
<g>
	<path fill="#59595B" d="M124.92,18.825c0.646-0.706,1.392-1.051,2.235-1.032c0.692,0.009,1.206,0.247,1.541,0.714
		c0.335,0.468,0.459,1.123,0.373,1.965l-0.807,4.847h-1.237l0.813-4.867c0.027-0.224,0.029-0.431,0.007-0.622
		c-0.078-0.638-0.454-0.964-1.128-0.978c-0.757-0.019-1.408,0.378-1.955,1.189l-0.916,5.277h-1.237l1.825-10.5h1.237L124.92,18.825z
		"/>
</g>
<g>
	<path fill="#59595B" d="M141.917,24.006c-0.333,0.47-0.817,0.83-1.453,1.084c-0.636,0.252-1.361,0.374-2.177,0.365
		c-0.652-0.014-1.222-0.166-1.709-0.458c-0.488-0.292-0.871-0.71-1.148-1.255c-0.278-0.544-0.438-1.163-0.479-1.855
		c-0.032-0.542,0.035-1.276,0.201-2.201c0.167-0.925,0.457-1.725,0.872-2.399c0.414-0.675,0.933-1.189,1.555-1.545
		s1.334-0.526,2.137-0.513c0.925,0.019,1.662,0.293,2.211,0.824c0.55,0.53,0.862,1.276,0.94,2.238h-1.271
		c-0.051-0.631-0.239-1.116-0.567-1.454c-0.328-0.339-0.782-0.517-1.36-0.535c-0.857-0.032-1.573,0.276-2.15,0.925
		c-0.576,0.647-0.956,1.595-1.138,2.841l-0.13,0.958l-0.021,0.521c0,0.899,0.185,1.595,0.554,2.085
		c0.369,0.491,0.886,0.741,1.552,0.75c0.961,0.022,1.725-0.214,2.29-0.711l0.41-2.235h-2.242l0.191-1.073h3.5L141.917,24.006z"/>
</g>
<g>
	<path fill="#59595B" d="M148.063,17.786c0.619,0.009,1.15,0.178,1.593,0.506c0.441,0.328,0.769,0.78,0.98,1.357
		c0.212,0.576,0.284,1.206,0.216,1.889l-0.014,0.15c-0.087,0.72-0.301,1.37-0.643,1.952c-0.342,0.58-0.784,1.033-1.326,1.356
		c-0.543,0.323-1.138,0.477-1.784,0.458c-0.615-0.009-1.146-0.178-1.59-0.506s-0.769-0.774-0.974-1.34s-0.278-1.188-0.219-1.866
		c0.068-0.766,0.275-1.454,0.622-2.064c0.346-0.61,0.792-1.083,1.336-1.419C146.807,17.926,147.407,17.767,148.063,17.786z
		 M145.548,21.75c-0.032,0.287-0.032,0.586,0,0.896c0.045,0.538,0.206,0.966,0.481,1.285c0.276,0.319,0.644,0.485,1.104,0.499
		c0.41,0.014,0.788-0.088,1.135-0.305c0.346-0.216,0.638-0.543,0.875-0.98c0.236-0.438,0.39-0.923,0.458-1.456
		c0.036-0.419,0.043-0.772,0.021-1.06c-0.055-0.552-0.222-0.986-0.499-1.305c-0.278-0.319-0.647-0.487-1.107-0.506
		c-0.639-0.014-1.181,0.237-1.627,0.752c-0.447,0.514-0.723,1.189-0.827,2.023L145.548,21.75z"/>
</g>
<g>
	<path fill="#59595B" d="M156.228,17.786c0.619,0.009,1.15,0.178,1.593,0.506c0.441,0.328,0.769,0.78,0.98,1.357
		c0.212,0.576,0.284,1.206,0.216,1.889l-0.014,0.15c-0.087,0.72-0.301,1.37-0.643,1.952c-0.342,0.58-0.784,1.033-1.326,1.356
		c-0.543,0.323-1.138,0.477-1.784,0.458c-0.615-0.009-1.146-0.178-1.59-0.506s-0.769-0.774-0.974-1.34s-0.278-1.188-0.219-1.866
		c0.068-0.766,0.275-1.454,0.622-2.064c0.346-0.61,0.792-1.083,1.336-1.419C154.971,17.926,155.571,17.767,156.228,17.786z
		 M153.712,21.75c-0.032,0.287-0.032,0.586,0,0.896c0.045,0.538,0.206,0.966,0.481,1.285c0.276,0.319,0.644,0.485,1.104,0.499
		c0.41,0.014,0.788-0.088,1.135-0.305c0.346-0.216,0.638-0.543,0.875-0.98c0.236-0.438,0.39-0.923,0.458-1.456
		c0.036-0.419,0.043-0.772,0.021-1.06c-0.055-0.552-0.222-0.986-0.499-1.305c-0.278-0.319-0.647-0.487-1.107-0.506
		c-0.639-0.014-1.181,0.237-1.627,0.752c-0.447,0.514-0.723,1.189-0.827,2.023L153.712,21.75z"/>
</g>
<g>
	<path fill="#59595B" d="M160.645,21.606c0.109-0.807,0.327-1.507,0.652-2.102c0.326-0.594,0.723-1.034,1.189-1.318
		c0.468-0.285,0.979-0.421,1.535-0.407c0.856,0.019,1.504,0.342,1.941,0.971l0.246-0.827h1.135l-1.23,7.239
		c-0.133,0.943-0.516,1.698-1.148,2.267c-0.634,0.566-1.415,0.837-2.345,0.81c-0.502-0.009-0.981-0.128-1.439-0.355
		s-0.819-0.54-1.083-0.937l0.704-0.759c0.446,0.661,1.036,1,1.771,1.019c0.588,0.019,1.086-0.146,1.493-0.492
		c0.408-0.347,0.678-0.839,0.811-1.477l0.137-0.656c-0.602,0.602-1.306,0.894-2.112,0.875c-0.461-0.014-0.86-0.138-1.2-0.373
		c-0.339-0.234-0.603-0.574-0.789-1.018c-0.188-0.445-0.29-0.94-0.308-1.487C160.594,22.309,160.607,21.984,160.645,21.606z
		 M161.841,22.307c-0.014,0.65,0.099,1.154,0.338,1.512s0.601,0.545,1.084,0.563c0.738,0.019,1.374-0.344,1.907-1.086l0.581-3.392
		c-0.273-0.674-0.769-1.024-1.483-1.052c-0.67-0.019-1.221,0.255-1.651,0.819c-0.431,0.564-0.685,1.327-0.762,2.287L161.841,22.307z
		"/>
</g>
<g>
	<path fill="#59595B" d="M169.663,25.318h-1.23l1.818-10.5h1.237L169.663,25.318z"/>
</g>
<g>
	<path fill="#59595B" d="M175.235,25.455c-0.921-0.019-1.641-0.357-2.16-1.019s-0.738-1.506-0.656-2.536l0.034-0.294
		c0.077-0.733,0.295-1.403,0.652-2.009c0.358-0.606,0.794-1.063,1.31-1.37c0.515-0.309,1.07-0.455,1.668-0.441
		c0.761,0.019,1.357,0.271,1.791,0.759c0.433,0.487,0.67,1.148,0.711,1.982c0.014,0.296,0.004,0.593-0.027,0.889l-0.075,0.567
		h-4.833c-0.082,0.67,0.028,1.239,0.331,1.709c0.304,0.47,0.756,0.713,1.357,0.731c0.729,0.019,1.403-0.31,2.023-0.984l0.711,0.602
		c-0.311,0.446-0.71,0.796-1.2,1.05C176.383,25.342,175.837,25.464,175.235,25.455z M176.021,18.818
		c-0.511-0.014-0.956,0.159-1.337,0.52c-0.38,0.36-0.683,0.895-0.905,1.606l3.596,0.007l0.027-0.109
		c0.072-0.574-0.02-1.051-0.277-1.432C176.868,19.029,176.5,18.832,176.021,18.818z"/>
</g>
</svg>
