<?xml version="1.0" encoding="UTF-8"?><!DOCTYPE svg PUBLIC "-//W3C//DTD SVG 1.1//EN" "http://www.w3.org/Graphics/SVG/1.1/DTD/svg11.dtd"><svg xmlns="http://www.w3.org/2000/svg" xmlns:xlink="http://www.w3.org/1999/xlink"><defs/><symbol id="cad-map-dark" viewBox="0 0 54 54"><rect opacity="0.01" enable-background="new    " width="54" height="54"/><g><polygon fill="#20202A" stroke="#F9F9F9" stroke-width="1.8" stroke-linejoin="bevel" stroke-miterlimit="10" points="
		19.717,40.241 7.088,46.929 7.088,15.013 19.717,8.325 	"/><polygon fill="#20202A" stroke="#F9F9F9" stroke-width="1.8" stroke-linejoin="bevel" stroke-miterlimit="10" points="
		35.195,45.675 18.805,40.241 18.805,8.325 35.195,13.759 	"/><polygon fill="#20202A" stroke="#F9F9F9" stroke-width="1.8" stroke-linejoin="bevel" stroke-miterlimit="10" points="
		46.912,38.987 34.283,45.675 34.283,13.759 46.912,7.071 	"/></g></symbol><symbol id="cad-map-light" viewBox="0 0 54 54"><rect opacity="0.01" enable-background="new    " width="54" height="54"/><g><polygon fill="#F9F9F9" stroke="#797979" stroke-width="1.8" stroke-linecap="round" stroke-linejoin="bevel" stroke-miterlimit="10" points="
		19.717,40.241 7.088,46.929 7.088,15.013 19.717,8.325 	"/><polygon fill="#F9F9F9" stroke="#797979" stroke-width="1.8" stroke-linecap="round" stroke-linejoin="bevel" stroke-miterlimit="10" points="
		35.195,45.675 18.805,40.241 18.805,8.325 35.195,13.759 	"/><polygon fill="#F9F9F9" stroke="#797979" stroke-width="1.8" stroke-linecap="round" stroke-linejoin="bevel" stroke-miterlimit="10" points="
		46.912,38.987 34.283,45.675 34.283,13.759 46.912,7.071 	"/></g></symbol><symbol id="drone-dark" viewBox="0 0 54 54"><rect opacity="0.01" enable-background="new    " width="54" height="54"/><g><line fill="#20202A" stroke="#F9F9F9" stroke-width="1.5" stroke-linecap="round" stroke-linejoin="bevel" stroke-miterlimit="10" x1="32.117" y1="36.855" x2="38.94" y2="41.53"/><line fill="#20202A" stroke="#F9F9F9" stroke-width="1.5" stroke-linecap="round" stroke-linejoin="bevel" stroke-miterlimit="10" x1="32.496" y1="30.664" x2="41.593" y2="39.634"/><line fill="#20202A" stroke="#F9F9F9" stroke-width="1.5" stroke-linecap="round" stroke-linejoin="bevel" stroke-miterlimit="10" x1="33.759" y1="50.5" x2="49.047" y2="34.96"/><circle fill="#20202A" stroke="#F9F9F9" stroke-width="1.5" stroke-linecap="round" stroke-linejoin="bevel" stroke-miterlimit="10" cx="41.466" cy="41.861" r="2.377"/><line fill="#20202A" stroke="#F9F9F9" stroke-width="1.5" stroke-linecap="round" stroke-linejoin="bevel" stroke-miterlimit="10" x1="21.883" y1="36.855" x2="15.06" y2="41.53"/><line fill="#20202A" stroke="#F9F9F9" stroke-width="1.5" stroke-linecap="round" stroke-linejoin="bevel" stroke-miterlimit="10" x1="21.504" y1="30.664" x2="12.407" y2="39.634"/><line fill="#20202A" stroke="#F9F9F9" stroke-width="1.5" stroke-linecap="round" stroke-linejoin="bevel" stroke-miterlimit="10" x1="20.241" y1="50.5" x2="4.953" y2="34.96"/><circle fill="#20202A" stroke="#F9F9F9" stroke-width="1.5" stroke-linecap="round" stroke-linejoin="bevel" stroke-miterlimit="10" cx="12.534" cy="41.861" r="2.377"/><line fill="#20202A" stroke="#F9F9F9" stroke-width="1.5" stroke-linecap="round" stroke-linejoin="bevel" stroke-miterlimit="10" x1="32.117" y1="17.145" x2="38.94" y2="12.47"/><line fill="#20202A" stroke="#F9F9F9" stroke-width="1.5" stroke-linecap="round" stroke-linejoin="bevel" stroke-miterlimit="10" x1="32.496" y1="23.336" x2="41.593" y2="14.366"/><line fill="#20202A" stroke="#F9F9F9" stroke-width="1.5" stroke-linecap="round" stroke-linejoin="bevel" stroke-miterlimit="10" x1="33.759" y1="3.5" x2="49.047" y2="19.04"/><circle fill="#20202A" stroke="#F9F9F9" stroke-width="1.5" stroke-linecap="round" stroke-linejoin="bevel" stroke-miterlimit="10" cx="41.466" cy="12.139" r="2.377"/><line fill="#20202A" stroke="#F9F9F9" stroke-width="1.5" stroke-linecap="round" stroke-linejoin="bevel" stroke-miterlimit="10" x1="21.883" y1="17.145" x2="15.06" y2="12.47"/><line fill="#20202A" stroke="#F9F9F9" stroke-width="1.5" stroke-linecap="round" stroke-linejoin="bevel" stroke-miterlimit="10" x1="21.504" y1="23.336" x2="12.407" y2="14.366"/><line fill="#20202A" stroke="#F9F9F9" stroke-width="1.5" stroke-linecap="round" stroke-linejoin="bevel" stroke-miterlimit="10" x1="20.241" y1="3.5" x2="4.953" y2="19.04"/><circle fill="#20202A" stroke="#F9F9F9" stroke-width="1.5" stroke-linecap="round" stroke-linejoin="bevel" stroke-miterlimit="10" cx="12.534" cy="12.139" r="2.377"/><path fill="#20202A" stroke="#F9F9F9" stroke-width="1.5" stroke-linecap="round" stroke-linejoin="bevel" stroke-miterlimit="10" d="M32.322 36.549l.679-17.473c0-3.044-2.46-5.512-5.494-5.512h-1.015c-3.034 0-5.494 2.468-5.494 5.512l.679 17.473c0 .982.794 1.778 1.772 1.778h7.1C31.529 38.328 32.322 37.531 32.322 36.549z"/><line fill="#20202A" stroke="#F9F9F9" stroke-width="1.5" stroke-linecap="round" stroke-linejoin="bevel" stroke-miterlimit="10" x1="23.715" y1="38.201" x2="23.715" y2="26.388"/><line fill="#20202A" stroke="#F9F9F9" stroke-width="1.5" stroke-linecap="round" stroke-linejoin="bevel" stroke-miterlimit="10" x1="30.285" y1="38.201" x2="30.285" y2="26.388"/><line fill="#20202A" stroke="#F9F9F9" stroke-width="1.5" stroke-linecap="round" stroke-linejoin="bevel" stroke-miterlimit="10" x1="23.715" y1="14.733" x2="23.715" y2="22.25"/><line fill="#20202A" stroke="#F9F9F9" stroke-width="1.5" stroke-linecap="round" stroke-linejoin="bevel" stroke-miterlimit="10" x1="30.285" y1="14.733" x2="30.285" y2="22.25"/></g></symbol><symbol id="drone-light" viewBox="0 0 54 54"><rect opacity="0.01" enable-background="new    " width="54" height="54"/><g><line fill="#F9F9F9" stroke="#797979" stroke-width="1.5" stroke-linecap="round" stroke-miterlimit="10" x1="32.117" y1="36.855" x2="38.94" y2="41.53"/><line fill="#F9F9F9" stroke="#797979" stroke-width="1.5" stroke-linecap="round" stroke-miterlimit="10" x1="32.496" y1="30.664" x2="41.593" y2="39.634"/><line fill="#F9F9F9" stroke="#797979" stroke-width="1.5" stroke-linecap="round" stroke-miterlimit="10" x1="33.759" y1="50.5" x2="49.047" y2="34.96"/><circle fill="#F9F9F9" stroke="#797979" stroke-width="1.5" stroke-linecap="round" stroke-miterlimit="10" cx="41.466" cy="41.861" r="2.377"/><line fill="#F9F9F9" stroke="#797979" stroke-width="1.5" stroke-linecap="round" stroke-miterlimit="10" x1="21.883" y1="36.855" x2="15.06" y2="41.53"/><line fill="#F9F9F9" stroke="#797979" stroke-width="1.5" stroke-linecap="round" stroke-miterlimit="10" x1="21.504" y1="30.664" x2="12.407" y2="39.634"/><line fill="#F9F9F9" stroke="#797979" stroke-width="1.5" stroke-linecap="round" stroke-miterlimit="10" x1="20.241" y1="50.5" x2="4.953" y2="34.96"/><circle fill="#F9F9F9" stroke="#797979" stroke-width="1.5" stroke-linecap="round" stroke-miterlimit="10" cx="12.534" cy="41.861" r="2.377"/><line fill="#F9F9F9" stroke="#797979" stroke-width="1.5" stroke-linecap="round" stroke-miterlimit="10" x1="32.117" y1="17.145" x2="38.94" y2="12.47"/><line fill="#F9F9F9" stroke="#797979" stroke-width="1.5" stroke-linecap="round" stroke-miterlimit="10" x1="32.496" y1="23.336" x2="41.593" y2="14.366"/><line fill="#F9F9F9" stroke="#797979" stroke-width="1.5" stroke-linecap="round" stroke-miterlimit="10" x1="33.759" y1="3.5" x2="49.047" y2="19.04"/><circle fill="#F9F9F9" stroke="#797979" stroke-width="1.5" stroke-linecap="round" stroke-miterlimit="10" cx="41.466" cy="12.139" r="2.377"/><line fill="#F9F9F9" stroke="#797979" stroke-width="1.5" stroke-linecap="round" stroke-miterlimit="10" x1="21.883" y1="17.145" x2="15.06" y2="12.47"/><line fill="#F9F9F9" stroke="#797979" stroke-width="1.5" stroke-linecap="round" stroke-miterlimit="10" x1="21.504" y1="23.336" x2="12.407" y2="14.366"/><line fill="#F9F9F9" stroke="#797979" stroke-width="1.5" stroke-linecap="round" stroke-miterlimit="10" x1="20.241" y1="3.5" x2="4.953" y2="19.04"/><circle fill="#F9F9F9" stroke="#797979" stroke-width="1.5" stroke-linecap="round" stroke-miterlimit="10" cx="12.534" cy="12.139" r="2.377"/><path fill="#F9F9F9" stroke="#797979" stroke-width="1.5" stroke-linecap="round" stroke-miterlimit="10" d="M32.322 36.549l.679-17.473c0-3.044-2.46-5.512-5.494-5.512h-1.015c-3.034 0-5.494 2.468-5.494 5.512l.679 17.473c0 .982.794 1.778 1.772 1.778h7.1C31.529 38.328 32.322 37.531 32.322 36.549z"/><line fill="#F9F9F9" stroke="#797979" stroke-width="1.5" stroke-linecap="round" stroke-miterlimit="10" x1="23.715" y1="38.201" x2="23.715" y2="26.388"/><line fill="#F9F9F9" stroke="#797979" stroke-width="1.5" stroke-linecap="round" stroke-miterlimit="10" x1="30.285" y1="38.201" x2="30.285" y2="26.388"/><line fill="#F9F9F9" stroke="#797979" stroke-width="1.5" stroke-linecap="round" stroke-miterlimit="10" x1="23.715" y1="14.733" x2="23.715" y2="22.25"/><line fill="#F9F9F9" stroke="#797979" stroke-width="1.5" stroke-linecap="round" stroke-miterlimit="10" x1="30.285" y1="14.733" x2="30.285" y2="22.25"/></g></symbol><symbol id="satellite-dark" viewBox="0 0 54 54"><rect opacity="0.01" enable-background="new    " width="54" height="54"/><g><g><polygon fill="#20202A" stroke="#F9F9F9" stroke-width="1.5" stroke-linecap="round" stroke-linejoin="round" stroke-miterlimit="9.9998" points="
			39.551,35.876 35.876,39.551 31.228,35.861 35.861,31.228 		"/><polygon fill="#20202A" stroke="#F9F9F9" stroke-width="1.5" stroke-linecap="round" stroke-linejoin="round" stroke-miterlimit="9.9998" points="
			14.449,18.124 18.124,14.449 22.772,18.139 18.139,22.772 		"/></g><g><path fill="#20202A" stroke="#F9F9F9" stroke-width="1.5" stroke-linecap="round" stroke-linejoin="round" stroke-miterlimit="9.9998" d="M41.384 29.808c-3.23-1.54-7.21-.983-9.885 1.692s-3.232 6.655-1.692 9.885L41.384 29.808z"/><path fill="#20202A" stroke="#F9F9F9" stroke-width="1.5" stroke-linecap="round" stroke-linejoin="round" stroke-miterlimit="9.9998" d="M12.616 24.192c3.23 1.54 7.21.983 9.885-1.692s3.232-6.655 1.692-9.885L12.616 24.192z"/></g><rect x="15.596" y="23.913" transform="matrix(0.7071 -0.7071 0.7071 0.7071 -11.1838 27)" fill="#20202A" stroke="#F9F9F9" stroke-width="1.5" stroke-linecap="round" stroke-linejoin="round" stroke-miterlimit="9.9998" width="22.808" height="6.173"/><g><g><rect x="33.679" y="11.754" transform="matrix(0.7071 -0.7071 0.7071 0.7071 -1.6071 30.9668)" fill="#20202A" stroke="#F9F9F9" stroke-width="1.5" stroke-linecap="round" stroke-linejoin="round" stroke-miterlimit="9.9998" width="5.795" height="11.339"/><rect x="37.777" y="7.656" transform="matrix(0.7071 -0.7071 0.7071 0.7071 2.4909 32.6642)" fill="#20202A" stroke="#F9F9F9" stroke-width="1.5" stroke-linecap="round" stroke-linejoin="round" stroke-miterlimit="9.9998" width="5.795" height="11.339"/><rect x="41.875" y="3.558" transform="matrix(0.7071 -0.7071 0.7071 0.7071 6.5888 34.3616)" fill="#20202A" stroke="#F9F9F9" stroke-width="1.5" stroke-linecap="round" stroke-linejoin="round" stroke-miterlimit="9.9998" width="5.795" height="11.339"/></g><g><rect x="6.33" y="39.103" transform="matrix(0.7071 -0.7071 0.7071 0.7071 -28.9564 19.6384)" fill="#20202A" stroke="#F9F9F9" stroke-width="1.5" stroke-linecap="round" stroke-linejoin="round" stroke-miterlimit="9.9998" width="5.795" height="11.339"/><rect x="10.428" y="35.005" transform="matrix(0.7071 -0.7071 0.7071 0.7071 -24.8584 21.3358)" fill="#20202A" stroke="#F9F9F9" stroke-width="1.5" stroke-linecap="round" stroke-linejoin="round" stroke-miterlimit="9.9998" width="5.795" height="11.339"/><rect x="14.526" y="30.907" transform="matrix(0.7071 -0.7071 0.7071 0.7071 -20.7605 23.0332)" fill="#20202A" stroke="#F9F9F9" stroke-width="1.5" stroke-linecap="round" stroke-linejoin="round" stroke-miterlimit="9.9998" width="5.795" height="11.339"/></g></g><rect x="20.008" y="19.756" transform="matrix(0.7071 -0.7071 0.7071 0.7071 -11.1838 27)" fill="#20202A" stroke="#F9F9F9" stroke-width="1.5" stroke-linecap="round" stroke-linejoin="round" stroke-miterlimit="9.9998" width="13.984" height="14.488"/><circle fill="#20202A" stroke="#F9F9F9" stroke-width="1.5" stroke-linecap="round" stroke-linejoin="round" stroke-miterlimit="9.9998" cx="26.864" cy="22.427" r="1.134"/><rect x="26.081" y="28.411" transform="matrix(0.7071 -0.7071 0.7071 0.7071 -12.2381 29.5453)" fill="#20202A" stroke="#F9F9F9" stroke-width="1.5" stroke-linecap="round" stroke-linejoin="round" stroke-miterlimit="9.9998" width="6.929" height="2.268"/></g></symbol><symbol id="satellite-light" viewBox="0 0 54 54"><rect opacity="0.01" enable-background="new    " width="54" height="54"/><g><g><polygon fill="#F9F9F9" stroke="#797979" stroke-width="1.5" stroke-linecap="round" stroke-linejoin="round" stroke-miterlimit="10" points="
			39.551,35.876 35.876,39.551 31.228,35.861 35.861,31.228 		"/><polygon fill="#F9F9F9" stroke="#797979" stroke-width="1.5" stroke-linecap="round" stroke-linejoin="round" stroke-miterlimit="10" points="
			14.449,18.124 18.124,14.449 22.772,18.139 18.139,22.772 		"/></g><g><path fill="#F9F9F9" stroke="#797979" stroke-width="1.5" stroke-linecap="round" stroke-linejoin="round" stroke-miterlimit="10" d="M41.384 29.808c-3.23-1.54-7.21-.983-9.885 1.692s-3.232 6.655-1.692 9.885L41.384 29.808z"/><path fill="#F9F9F9" stroke="#797979" stroke-width="1.5" stroke-linecap="round" stroke-linejoin="round" stroke-miterlimit="10" d="M12.616 24.192c3.23 1.54 7.21.983 9.885-1.692s3.232-6.655 1.692-9.885L12.616 24.192z"/></g><rect x="15.596" y="23.913" transform="matrix(0.7071 -0.7071 0.7071 0.7071 -11.1838 27)" fill="#F9F9F9" stroke="#797979" stroke-width="1.5" stroke-linecap="round" stroke-linejoin="round" stroke-miterlimit="10" width="22.808" height="6.173"/><g><g><rect x="33.679" y="11.754" transform="matrix(0.7071 -0.7071 0.7071 0.7071 -1.6071 30.9668)" fill="#F9F9F9" stroke="#797979" stroke-width="1.5" stroke-linecap="round" stroke-linejoin="round" stroke-miterlimit="10" width="5.795" height="11.339"/><rect x="37.777" y="7.656" transform="matrix(0.7071 -0.7071 0.7071 0.7071 2.4909 32.6642)" fill="#F9F9F9" stroke="#797979" stroke-width="1.5" stroke-linecap="round" stroke-linejoin="round" stroke-miterlimit="10" width="5.795" height="11.339"/><rect x="41.875" y="3.558" transform="matrix(0.7071 -0.7071 0.7071 0.7071 6.5888 34.3616)" fill="#F9F9F9" stroke="#797979" stroke-width="1.5" stroke-linecap="round" stroke-linejoin="round" stroke-miterlimit="10" width="5.795" height="11.339"/></g><g><rect x="6.33" y="39.103" transform="matrix(0.7071 -0.7071 0.7071 0.7071 -28.9564 19.6384)" fill="#F9F9F9" stroke="#797979" stroke-width="1.5" stroke-linecap="round" stroke-linejoin="round" stroke-miterlimit="10" width="5.795" height="11.339"/><rect x="10.428" y="35.005" transform="matrix(0.7071 -0.7071 0.7071 0.7071 -24.8584 21.3358)" fill="#F9F9F9" stroke="#797979" stroke-width="1.5" stroke-linecap="round" stroke-linejoin="round" stroke-miterlimit="10" width="5.795" height="11.339"/><rect x="14.526" y="30.907" transform="matrix(0.7071 -0.7071 0.7071 0.7071 -20.7605 23.0332)" fill="#F9F9F9" stroke="#797979" stroke-width="1.5" stroke-linecap="round" stroke-linejoin="round" stroke-miterlimit="10" width="5.795" height="11.339"/></g></g><rect x="20.008" y="19.756" transform="matrix(0.7071 -0.7071 0.7071 0.7071 -11.1838 27)" fill="#F9F9F9" stroke="#797979" stroke-width="1.5" stroke-linecap="round" stroke-linejoin="round" stroke-miterlimit="10" width="13.984" height="14.488"/><circle fill="#F9F9F9" stroke="#797979" stroke-width="1.5" stroke-linecap="round" stroke-linejoin="round" stroke-miterlimit="10" cx="26.864" cy="22.427" r="1.134"/><rect x="26.081" y="28.411" transform="matrix(0.7071 -0.7071 0.7071 0.7071 -12.2381 29.5453)" fill="#F9F9F9" stroke="#797979" stroke-width="1.5" stroke-linecap="round" stroke-linejoin="round" stroke-miterlimit="10" width="6.929" height="2.268"/></g></symbol><symbol id="under-dark" viewBox="0 0 54 54"><g><g><path fill="#20202A" d="M0 51c0 1.657 1.343 3 3 3h48c1.657 0 3-1.343 3-3V3c0-1.657-1.343-3-3-3H3C1.343 0 0 1.343 0 3V51z"/></g></g></symbol><symbol id="under-light" viewBox="0 0 54 54"><g><g><path fill="#F9F9F9" d="M0 48.6C0 51.624 2.376 54 5.4 54h43.2c3.024 0 5.4-2.376 5.4-5.4V5.4C54 2.376 51.624 0 48.6 0H5.4C2.376 0 0 2.376 0 5.4V48.6z"/></g></g></symbol></svg>