<?xml version="1.0" encoding="utf-8"?>
<!-- Generator: Adobe Illustrator 25.1.0, SVG Export Plug-In . SVG Version: 6.00 Build 0)  -->
<svg version="1.1" id="satellite" xmlns="http://www.w3.org/2000/svg" xmlns:xlink="http://www.w3.org/1999/xlink" x="0px" y="0px"
	 viewBox="0 0 54 54" enable-background="new 0 0 54 54" xml:space="preserve">
<rect opacity="0.01" enable-background="new    " width="54" height="54"/>
<g>
	<g>
		
			<polygon fill="#F9F9F9" stroke="#797979" stroke-width="1.5" stroke-linecap="round" stroke-linejoin="round" stroke-miterlimit="10" points="
			39.551,35.876 35.876,39.551 31.228,35.861 35.861,31.228 		"/>
		
			<polygon fill="#F9F9F9" stroke="#797979" stroke-width="1.5" stroke-linecap="round" stroke-linejoin="round" stroke-miterlimit="10" points="
			14.449,18.124 18.124,14.449 22.772,18.139 18.139,22.772 		"/>
	</g>
	<g>
		
			<path fill="#F9F9F9" stroke="#797979" stroke-width="1.5" stroke-linecap="round" stroke-linejoin="round" stroke-miterlimit="10" d="
			M41.384,29.808c-3.23-1.54-7.21-0.983-9.885,1.692s-3.232,6.655-1.692,9.885L41.384,29.808z"/>
		
			<path fill="#F9F9F9" stroke="#797979" stroke-width="1.5" stroke-linecap="round" stroke-linejoin="round" stroke-miterlimit="10" d="
			M12.616,24.192c3.23,1.54,7.21,0.983,9.885-1.692s3.232-6.655,1.692-9.885L12.616,24.192z"/>
	</g>
	
		<rect x="15.596" y="23.913" transform="matrix(0.7071 -0.7071 0.7071 0.7071 -11.1838 27)" fill="#F9F9F9" stroke="#797979" stroke-width="1.5" stroke-linecap="round" stroke-linejoin="round" stroke-miterlimit="10" width="22.808" height="6.173"/>
	<g>
		<g>
			
				<rect x="33.679" y="11.754" transform="matrix(0.7071 -0.7071 0.7071 0.7071 -1.6071 30.9668)" fill="#F9F9F9" stroke="#797979" stroke-width="1.5" stroke-linecap="round" stroke-linejoin="round" stroke-miterlimit="10" width="5.795" height="11.339"/>
			
				<rect x="37.777" y="7.656" transform="matrix(0.7071 -0.7071 0.7071 0.7071 2.4909 32.6642)" fill="#F9F9F9" stroke="#797979" stroke-width="1.5" stroke-linecap="round" stroke-linejoin="round" stroke-miterlimit="10" width="5.795" height="11.339"/>
			
				<rect x="41.875" y="3.558" transform="matrix(0.7071 -0.7071 0.7071 0.7071 6.5888 34.3616)" fill="#F9F9F9" stroke="#797979" stroke-width="1.5" stroke-linecap="round" stroke-linejoin="round" stroke-miterlimit="10" width="5.795" height="11.339"/>
		</g>
		<g>
			
				<rect x="6.33" y="39.103" transform="matrix(0.7071 -0.7071 0.7071 0.7071 -28.9564 19.6384)" fill="#F9F9F9" stroke="#797979" stroke-width="1.5" stroke-linecap="round" stroke-linejoin="round" stroke-miterlimit="10" width="5.795" height="11.339"/>
			
				<rect x="10.428" y="35.005" transform="matrix(0.7071 -0.7071 0.7071 0.7071 -24.8584 21.3358)" fill="#F9F9F9" stroke="#797979" stroke-width="1.5" stroke-linecap="round" stroke-linejoin="round" stroke-miterlimit="10" width="5.795" height="11.339"/>
			
				<rect x="14.526" y="30.907" transform="matrix(0.7071 -0.7071 0.7071 0.7071 -20.7605 23.0332)" fill="#F9F9F9" stroke="#797979" stroke-width="1.5" stroke-linecap="round" stroke-linejoin="round" stroke-miterlimit="10" width="5.795" height="11.339"/>
		</g>
	</g>
	
		<rect x="20.008" y="19.756" transform="matrix(0.7071 -0.7071 0.7071 0.7071 -11.1838 27)" fill="#F9F9F9" stroke="#797979" stroke-width="1.5" stroke-linecap="round" stroke-linejoin="round" stroke-miterlimit="10" width="13.984" height="14.488"/>
	
		<circle fill="#F9F9F9" stroke="#797979" stroke-width="1.5" stroke-linecap="round" stroke-linejoin="round" stroke-miterlimit="10" cx="26.864" cy="22.427" r="1.134"/>
	
		<rect x="26.081" y="28.411" transform="matrix(0.7071 -0.7071 0.7071 0.7071 -12.2381 29.5453)" fill="#F9F9F9" stroke="#797979" stroke-width="1.5" stroke-linecap="round" stroke-linejoin="round" stroke-miterlimit="10" width="6.929" height="2.268"/>
</g>
</svg>
