<?xml version="1.0" encoding="utf-8"?>
<!-- Generator: Adobe Illustrator 25.0.0, SVG Export Plug-In . SVG Version: 6.00 Build 0)  -->
<svg version="1.1" baseProfile="tiny" id="Layer_1" xmlns="http://www.w3.org/2000/svg" xmlns:xlink="http://www.w3.org/1999/xlink"
	 x="0px" y="0px" viewBox="0 0 249.1 36.4" overflow="visible" xml:space="preserve">
<g>
	<path fill="#2C2C34" d="M21.6,2.4c0.3-0.1,0.6-0.2,0.9-0.3c0.9-0.2,1.8-0.2,2.6,0C26,2.4,26.7,2.9,26.8,4c0,0.5,0.3,0.7,0.8,0.7
		c1.4,0,1.8,0.3,2.3,1.7c0,0.1,0.1,0.2,0.2,0.3c1.7-0.2,3.3-0.3,4.1,1.6c1.9,0.4,2.4,1,2.1,2.4c0.3,0.3,0.7,0.6,0.9,1
		s0.1,0.8,0.1,1.3c0.2,0.1,0.4,0.2,0.7,0.4c0.9,0.6,1,1.4,0.3,2.2c-0.5,0.5-1.1,0.7-1.7,0.7c-0.8,1.1-1.8,1.5-3,0.8
		c-0.8-0.5-1.6-0.3-2.2,0.2c-1.5,1.2-3.2,1.7-4.8,2.6c-1.6,0.9-3.1,2-4.4,3.4c-1.1,1.3-1.5,2.8-1.4,4.5c0,0.2,0.1,0.5,0.2,0.8
		c0.3-0.2,0.4-0.4,0.6-0.5c0.3-0.4,0.6-0.8,0.9-1.3c0.7-1.3,1.6-2.4,3.3-2.7c-0.1-0.2-0.1-0.4-0.1-0.5c-0.2-0.6,0-1.1,0.6-1.3
		c0.3-0.1,0.6-0.3,0.8-0.4c0.4-0.3,0.7-0.4,1.2-0.3c0.3,0.1,0.6-0.1,0.9-0.2c0.4-0.2,0.8-0.2,1,0.3c0.1,0.3,0.4,0.5,0.7,0.6
		c0.5,0.1,0.8,0.4,0.8,1c0,0.2,0.1,0.3,0.2,0.5s0.4,0.4,0.4,0.6c0.2,0.6,0,1.1-0.7,1.2c-0.2,0-0.3,0-0.5,0.1c-0.5,1.4-1,1.3-2.1,0.4
		c-0.2,0.1-0.4,0.2-0.6,0.3c-0.4,0.2-0.8,0.2-1.1-0.2c-0.4-0.6-1.3-0.4-1.8-0.9c-0.1-0.1-0.4,0.1-0.6,0.2s-0.4,0.3-0.5,0.5
		c-1.1,1.5-2.1,3-2.7,4.8c-0.6,1.8,0,3.2,1.6,4.1c0.3,0.1,0.5,0.3,0.8,0.6c-1,0.3-2.1-0.1-3,0.8c-1-1.1-2.1-0.5-3.1-0.2
		c-0.4,0.1-0.7,0.3-1.1,0.5c0-0.3,0-0.5,0-0.8c-0.4,0-0.8-0.1-1.3-0.1c0.2-0.2,0.4-0.3,0.5-0.4c0.5-0.4,1-0.7,1.5-1.1
		c0.5-0.4,0.7-1,0.7-1.6s0.2-1.3,0.4-1.9c0.1-0.7,0.3-1.3,0.3-2c0.1-0.9-0.4-1.6-1.1-1.9c-1.6-0.6-2.5-1.8-3.4-3.1
		c-0.3-0.5-0.8-1-1.3-1.3c-0.9-0.6-1.5-1.3-1.6-2.5c0-0.1-0.1-0.2-0.1-0.3c-1-0.3-1.9-0.6-3-1c-0.5,0.6-1.4,0.9-2.2,0.6
		S4.8,18.7,3.9,19c-0.6,0.2-1.2-0.4-1.6-0.9C2,17.3,1.9,17,1.8,16.6S1.5,16,1.1,15.8c-1.3-0.7-1.5-2.4-0.4-3.5
		c0.5-0.5,1.2-0.9,1.9-0.9c0.5,0,0.7-0.2,0.9-0.6c0.5-1.3,1-1.6,2.4-1.5C6,6.6,7,5.7,9.4,6c0.1-0.3,0.3-0.7,0.4-1.1
		C10,4,10.7,3.5,11.6,3.6c0.7,0,1.4,0.1,2.1,0.2c0.6-0.7,1.1-2,2.5-1.4c0.2-0.3,0.3-0.5,0.5-0.8s0.5-0.7,0.8-1
		c1-0.9,2.1-0.8,2.9,0.1C20.8,1.2,21.1,1.8,21.6,2.4z M16.6,16.8c-0.1,0.3-0.2,0.5-0.4,0.7c-0.3,0.5-0.8,0.8-1.3,0.7
		c-0.7-0.2-1.1,0.2-1.7,0.4c-0.4,0.1-0.6,0.5-0.5,0.9c0.1,0.9,0.5,1.7,1.4,2c1,0.4,1.8,1,2.3,2c0.5,1,1.7,1.2,2.6,0.5
		c0.7-0.5,1.4-1.1,2-1.7c0.5-0.4,0.5-0.7,0.1-1.2c-0.3-0.3-0.6-0.5-0.9-0.8c-0.7-0.5-1.3-1.2-1.6-2.1c-0.1-0.3-0.3-0.6-0.5-0.7
		C17.7,17.3,17.2,17.1,16.6,16.8z M22.6,20c0.3,0,0.4,0.1,0.5,0c2.3-0.7,4.4-1.7,6.3-3.3c0.1-0.1,0.1-0.2,0.1-0.3
		c-0.6,0.6-1.2,0.6-1.9,0.3c-0.2-0.1-0.5,0.1-0.8,0.2c-0.6,0.4-0.9,0.4-1.5-0.1c-0.2-0.1-0.3-0.2-0.5-0.4c-0.3,0.3-0.6,0.6-0.8,1
		c-0.3,0.5-0.5,1-0.7,1.5C23.1,19.3,22.9,19.6,22.6,20z M20,16.6c-0.3,0.4-0.9,0.6-0.6,1.1c0.4,0.8,1,1.5,1.6,2.2
		c0.2,0.2,0.5,0.2,0.7-0.1c0.6-0.8,1.2-1.7,1.5-2.8c-0.4-0.2-0.7-0.4-1.1-0.6C21.1,17.4,21.1,17.4,20,16.6z"/>
	<path fill="#2C2C34" d="M151.9,15.8c-0.1,0.3-0.2,0.7-0.4,1c-1.2,3.5-2.4,7-3.6,10.5c-0.3,0.9-0.3,0.9-1.3,0.9c-0.6,0-1.2,0-1.8,0
		c-1,0-1,0-1.4-1c-1.2-3.5-2.4-6.9-3.5-10.4c-0.8-2.4-1.6-4.8-2.5-7.3c-0.1-0.3-0.2-0.7-0.3-1.1c0.3-0.1,0.5-0.1,0.7-0.1
		c1,0,2,0,3,0c0.8,0,0.8,0,1.1,0.8c1.1,3.4,2.1,6.9,3.2,10.3c0.2,0.6,0.4,1.1,0.6,1.7c0.1,0,0.2,0,0.2,0c0.7-2.1,1.4-4.3,2.1-6.4
		c0.7-2.1,1.4-4.3,2.2-6.5c1.1,0,2.2,0,3.4,0c0.4,0,0.5,0.3,0.6,0.6c0.3,0.9,0.6,1.9,0.9,2.8c1,2.9,1.9,5.8,2.9,8.7
		c0.1,0.3,0.2,0.6,0.4,1.1c0.2-0.5,0.3-0.9,0.4-1.2c1.1-3.7,2.2-7.3,3.4-11c0.3-0.9,0.3-0.9,1.3-1c0.9,0,1.7,0,2.6,0
		c0.3,0,0.6,0,0.9,0.1c-0.1,0.4-0.2,0.7-0.3,1c-2,5.9-4,11.9-6,17.8c-0.3,0.9-0.3,0.9-1.3,0.9c-0.7,0-1.4,0-2.2,0
		c-0.5,0-0.7-0.2-0.9-0.6c-0.4-1.1-0.8-2.2-1.1-3.3c-0.9-2.5-1.7-5-2.6-7.5c-0.1-0.3-0.2-0.7-0.4-1C152.1,15.7,152,15.7,151.9,15.8z
		"/>
	<path fill="#2C2C34" d="M60.6,17.7c0.5,0.3,0.9,0.5,1.3,0.7c3.1,1.7,2.8,6.8-0.1,8.4c-1.4,0.7-2.8,1.1-4.3,1.1
		c-3.2,0.1-6.4,0-9.6,0c-0.1,0-0.2,0-0.3-0.1c-0.2-0.7-0.3-18-0.1-19.6c0.2,0,0.5-0.1,0.7-0.1c2.8,0,5.6,0,8.3,0
		c1,0,2.1,0.2,3.1,0.5c2.5,0.8,3.7,3,3.3,5.5c-0.2,1.1-0.7,2-1.5,2.7C61.2,17.3,60.9,17.4,60.6,17.7z M51.6,24.1c2.1,0,4.1,0,6.1,0
		c0.3,0,0.6-0.1,0.8-0.2c0.8-0.3,1.2-0.9,1.2-1.8c0-0.8-0.3-1.5-1.1-1.8c-0.4-0.2-0.9-0.3-1.3-0.3c-1.8,0-3.7,0-5.5,0
		c-0.1,0-0.1,0.1-0.2,0.2C51.6,21.4,51.6,22.7,51.6,24.1z M51.6,16.3c1.8,0,3.4,0.1,5.1-0.1c0.2,0,0.4-0.1,0.6-0.1
		c0.9-0.3,1.3-0.9,1.3-1.8c0-0.9-0.4-1.5-1.3-1.8c-0.4-0.1-0.8-0.2-1.2-0.2c-1.2,0-2.5,0-3.7,0c-0.2,0-0.4,0.1-0.7,0.1
		C51.6,13.6,51.6,14.9,51.6,16.3z"/>
	<path fill="#2C2C34" d="M206.3,21.1c1.6,2.3,3.1,4.5,4.7,6.9c-0.4,0.1-0.7,0.1-0.9,0.1c-1.1,0-2.2,0-3.2,0c-0.6,0-1-0.2-1.4-0.7
		c-1-1.6-2.2-3.2-3.2-4.8c-0.4-0.6-0.8-0.8-1.4-0.8c-0.8,0.1-1.6,0-2.5,0c0,2.1,0,4.1,0,6.2c-1.5,0-2.8,0-4.2,0
		c-0.2-0.7-0.3-17.8-0.1-19.6c0.3,0,0.5-0.1,0.8-0.1c2.7,0,5.3,0,8,0c1.2,0,2.4,0.1,3.5,0.5c2.3,0.9,3.7,2.5,4,5
		c0.4,3.2-0.7,5.5-3.6,7C206.7,20.8,206.6,20.9,206.3,21.1z M198.4,12.2c0,2-0.1,3.8,0,5.6c1.7,0,3.4,0,5,0c0.3,0,0.6-0.1,0.9-0.2
		c1.1-0.4,1.7-1.2,1.8-2.4c0.1-1.6-0.7-2.7-2.4-2.9C202,12.2,200.3,12.3,198.4,12.2z"/>
	<path fill="#2C2C34" d="M67.8,8.3c0.4,0,0.7,0,1,0c2.5,0,4.9,0,7.4,0c1.1,0,2.2,0.1,3.3,0.4c2.7,0.6,4.3,2.6,4.6,5.3
		c0.4,3.1-0.8,5.3-3.5,6.8c-0.1,0.1-0.3,0.2-0.5,0.3c0.7,1.2,1.5,2.3,2.3,3.4s1.5,2.2,2.4,3.5c-0.5,0-0.8,0.1-1,0.1
		c-1,0-2-0.1-2.9,0c-0.8,0.1-1.3-0.3-1.7-0.9c-0.8-1.3-1.6-2.5-2.5-3.8c-1.4-2-0.6-1.6-3.1-1.6c-0.3,0-0.7,0-1,0
		c-0.1,0-0.2,0.1-0.4,0.1c0,2,0,4,0,6.1c-1.5,0-2.8,0-4.2,0C67.6,27.2,67.5,9.6,67.8,8.3z M72.1,12.2c-0.2,1.3-0.2,4.9,0,5.7
		c0.3,0,0.7,0,1,0c1.2,0,2.5,0,3.7,0c0.2,0,0.4-0.1,0.6-0.1c1.5-0.4,2.2-1.4,2.1-2.9c-0.1-1.4-0.8-2.3-2.3-2.5
		C75.6,12.2,73.9,12.3,72.1,12.2z"/>
	<path fill="#2C2C34" d="M179.7,28.4c-4.9-0.1-9-3.1-10.1-7.7C168,14.4,172.5,8.4,179,8c3-0.2,5.7,0.6,8,2.7c3,2.8,3.9,6.3,2.8,10.1
		c-1,3.9-3.7,6.3-7.5,7.2C181.4,28.3,180.5,28.3,179.7,28.4z M185.6,18.3c0-0.4,0-0.8-0.1-1.1c-0.4-2.3-1.6-3.9-3.8-4.7
		c-2.1-0.8-4.1-0.5-5.8,1c-2.8,2.3-2.8,7-0.2,9.4c1.9,1.7,4.1,2,6.4,1C184.6,22.8,185.5,20.7,185.6,18.3z"/>
	<path fill="#2C2C34" d="M214.4,8.4c1.4,0,2.7,0,4.2,0c0.1,1.4,0,2.7,0.1,4.1c0,1.3,0,2.7,0,4.1c0.5,0,0.7-0.4,0.9-0.6
		c2.1-2.3,4.2-4.5,6.3-6.8c0.5-0.6,1-0.8,1.8-0.8c1,0.1,2.1,0,3.1,0c0.2,0,0.5,0,1,0.1c-2.7,2.8-5.3,5.5-7.9,8.3
		c1.4,1.9,2.8,3.7,4.1,5.6c1.4,1.8,2.7,3.7,4.2,5.6c-0.4,0.1-0.7,0.1-0.9,0.1c-1.1,0-2.3,0-3.4,0c-0.6,0-1-0.2-1.3-0.7
		c-1.6-2.3-3.3-4.5-4.9-6.8c-0.2-0.3-0.4-0.6-0.7-0.9c-0.7,0.7-1.4,1.4-2,2.1c-0.2,0.2-0.2,0.6-0.2,0.9c0,1.4,0,2.7,0,4.1
		c0,0.4,0,0.7-0.1,1.1c-1.4,0-2.8,0-4.1,0C214.3,27.2,214.2,9.6,214.4,8.4z"/>
	<path fill="#2C2C34" d="M118.2,28c0-6.6,0-13.1,0-19.6c1.4,0,2.8,0,4.2,0c0.2,0.9,0.1,1.8,0.1,2.7s0,1.8,0,2.7s0,1.8,0,2.8
		c0.5,0,0.6-0.3,0.8-0.5c2.2-2.3,4.3-4.6,6.5-7c0.5-0.5,0.9-0.8,1.6-0.7c1,0.1,2.1,0,3.1,0c0.3,0,0.6,0,1.1,0.1
		c-2.6,2.9-5.3,5.5-7.9,8.3c1.4,1.9,2.8,3.7,4.1,5.6c1.4,1.8,2.7,3.7,4.1,5.6c-0.4,0.1-0.6,0.1-0.8,0.1c-1.2,0-2.4,0-3.5,0
		c-0.6,0-1-0.2-1.3-0.7c-1.6-2.3-3.3-4.5-4.9-6.8c-0.2-0.3-0.4-0.6-0.7-0.9c-0.7,0.7-1.4,1.4-2.1,2.1c-0.2,0.2-0.2,0.6-0.2,0.9
		c0,1.4,0,2.8,0,4.2c0,0.3,0,0.6-0.1,1C121,28,119.6,28,118.2,28z"/>
	<path fill="#2C2C34" d="M248.5,10.6c-0.8,1.1-1.5,2.2-2.2,3.2c-0.8-0.4-1.4-0.8-2.1-1.1c-1.1-0.6-2.3-0.9-3.6-0.7
		c-0.4,0-0.7,0.1-1,0.3c-0.6,0.3-0.9,0.7-0.9,1.4s0.2,1.2,0.8,1.5c0.5,0.3,1,0.5,1.5,0.6c1,0.3,2,0.5,2.9,0.8
		c0.8,0.3,1.5,0.6,2.3,0.9c4.2,1.9,3.5,7.8,0.4,9.7c-1,0.6-2.1,1-3.3,1.1c-3.4,0.3-6.4-0.5-9.1-2.5c-0.2-0.1-0.4-0.3-0.6-0.5
		c0.9-1.1,1.7-2.1,2.5-3.1c0.7,0.5,1.4,0.9,2,1.3c1.5,0.9,3,1.2,4.7,1c0.4-0.1,0.8-0.2,1.2-0.4c1.1-0.6,1.1-2.1,0-2.7
		c-0.7-0.4-1.6-0.7-2.4-0.9c-0.7-0.2-1.5-0.4-2.3-0.6c-0.6-0.2-1.1-0.4-1.7-0.6c-2-0.8-3.3-2.2-3.4-4.5c-0.1-2.4,0.7-4.4,2.9-5.6
		c1.4-0.8,2.9-1,4.5-1C244.1,8.1,246.3,8.9,248.5,10.6z"/>
	<path fill="#2C2C34" d="M111.8,22.2c0.9,0.9,1.8,1.8,2.8,2.7c-1,1.1-2.1,2.1-3.5,2.6c-3.2,1.3-6.3,1.3-9.4-0.3c-4-2.1-6-6.8-5-11.4
		c1-4.4,4.7-7.5,9.2-7.8c2.8-0.1,5.4,0.4,7.6,2.2c0.3,0.2,0.5,0.5,0.9,0.8c-0.9,1.1-1.8,2.1-2.7,3.2c-0.5-0.4-1-0.7-1.4-1
		c-1.3-0.9-2.8-1.4-4.5-1.1c-2.7,0.4-4.6,2.6-4.9,5.5c-0.1,1.1,0.1,2.2,0.5,3.3c1.4,3.2,5,4.5,8.1,2.8
		C110.4,23.2,111.1,22.7,111.8,22.2z"/>
	<path fill="#2C2C34" d="M88.3,8.4c1.4,0,2.7,0,4,0c0.1,0.1,0.1,0.1,0.1,0.1s0.1,0,0.1,0.1c0,0.2,0.1,0.3,0.1,0.5
		c0,6.1,0,12.2,0,18.3c0,0.1,0,0.3,0,0.4s-0.1,0.1-0.1,0.2c-1.3,0-2.7,0-4,0C88.1,27.2,88,9.5,88.3,8.4z"/>
</g>
</svg>
