<?xml version="1.0" encoding="utf-8"?>
<!-- Generator: Adobe Illustrator 25.0.1, SVG Export Plug-In . SVG Version: 6.00 Build 0)  -->
<svg version="1.1" id="Layer_1" xmlns="http://www.w3.org/2000/svg" xmlns:xlink="http://www.w3.org/1999/xlink" x="0px" y="0px"
	 viewBox="0 0 232.0594 36.62708" enable-background="new 0 0 232.0594 36.62708" xml:space="preserve">
<path fill="#F8F9FA" d="M21.61401,2.42708c0.3-0.1,0.6-0.2,0.9-0.3c0.9-0.2,1.8-0.2,2.6,0c0.9,0.3,1.6,0.8,1.7,1.9
	c0,0.5,0.3,0.7,0.8,0.7c1.4,0,1.8,0.3,2.3,1.7c0,0.1,0.1,0.2,0.2,0.3c1.7-0.2,3.3-0.3,4.1,1.6c1.9,0.4,2.4,1,2.1,2.4
	c0.3,0.3,0.7,0.6,0.9,1s0.1,0.8,0.1,1.3c0.2,0.1,0.4,0.2,0.7,0.4c0.9,0.6,1,1.4,0.3,2.2c-0.5,0.5-1.1,0.7-1.7,0.7
	c-0.8,1.1-1.8,1.5-3,0.8c-0.8-0.5-1.6-0.3-2.2,0.2c-1.5,1.2-3.2,1.7-4.8,2.6c-1.6,0.9-3.1,2-4.4,3.4c-1.1,1.3-1.5,2.8-1.4,4.5
	c0,0.2,0.1,0.5,0.2,0.8c0.3-0.2,0.4-0.4,0.6-0.5c0.3-0.4,0.6-0.8,0.9-1.3c0.7-1.3,1.6-2.4,3.3-2.7c-0.1-0.2-0.1-0.4-0.1-0.5
	c-0.2-0.6,0-1.1,0.6-1.3c0.3-0.1,0.6-0.3,0.8-0.4c0.4-0.3,0.7-0.4,1.2-0.3c0.3,0.1,0.6-0.1,0.9-0.2c0.4-0.2,0.8-0.2,1,0.3
	c0.1,0.3,0.4,0.5,0.7,0.6c0.5,0.1,0.8,0.4,0.8,1c0,0.2,0.1,0.3,0.2,0.5c0.1,0.2,0.4,0.4,0.4,0.6c0.2,0.6,0,1.1-0.7,1.2
	c-0.2,0-0.3,0-0.5,0.1c-0.5,1.4-1,1.3-2.1,0.4c-0.2,0.1-0.4,0.2-0.6,0.3c-0.4,0.2-0.8,0.2-1.1-0.2c-0.4-0.6-1.3-0.4-1.8-0.9
	c-0.1-0.1-0.4,0.1-0.6,0.2s-0.4,0.3-0.5,0.5c-1.1,1.5-2.1,3-2.7,4.8s0,3.2,1.6,4.1c0.3,0.1,0.5,0.3,0.8,0.6c-1,0.3-2.1-0.1-3,0.8
	c-1-1.1-2.1-0.5-3.1-0.2c-0.4,0.1-0.7,0.3-1.1,0.5c0-0.3,0-0.5,0-0.8c-0.4,0-0.8-0.1-1.3-0.1c0.2-0.2,0.4-0.3,0.5-0.4
	c0.5-0.4,1-0.7,1.5-1.1c0.5-0.4,0.7-1,0.7-1.6s0.2-1.3,0.4-1.9c0.1-0.7,0.3-1.3,0.3-2c0.1-0.9-0.4-1.6-1.1-1.9
	c-1.6-0.6-2.5-1.8-3.4-3.1c-0.3-0.5-0.8-1-1.3-1.3c-0.9-0.6-1.5-1.3-1.6-2.5c0-0.1-0.1-0.2-0.1-0.3c-1-0.3-1.9-0.6-3-1
	c-0.5,0.6-1.4,0.9-2.2,0.6s-1.49999-0.5-2.39999-0.2c-0.6,0.2-1.2-0.4-1.6-0.9c-0.3-0.8-0.4-1.1-0.5-1.5s-0.3-0.6-0.7-0.8
	c-1.3-0.7-1.5-2.4-0.4-3.5c0.5-0.5,1.2-0.9,1.9-0.9c0.5,0,0.7-0.2,0.9-0.6c0.5-1.3,1-1.6,2.4-1.5c0.1-2.7,1.1-3.6,3.5-3.3
	c0.1-0.3,0.3-0.7,0.4-1.1c0.2-0.9,0.9-1.4,1.8-1.3c0.7,0,1.4,0.1,2.1,0.2c0.6-0.7,1.1-2,2.5-1.4c0.2-0.3,0.3-0.5,0.5-0.8
	s0.5-0.7,0.8-1c1-0.9,2.1-0.8,2.9,0.1C20.81401,1.22708,21.11401,1.82708,21.61401,2.42708z M16.61401,16.82708
	c-0.1,0.3-0.2,0.5-0.4,0.7c-0.3,0.5-0.8,0.8-1.3,0.7c-0.7-0.2-1.1,0.2-1.7,0.4c-0.4,0.1-0.6,0.5-0.5,0.9c0.1,0.9,0.5,1.7,1.4,2
	c1,0.4,1.8,1,2.3,2c0.5,1,1.7,1.2,2.6,0.5c0.7-0.5,1.4-1.1,2-1.7c0.5-0.4,0.5-0.7,0.1-1.2c-0.3-0.3-0.6-0.5-0.9-0.8
	c-0.7-0.5-1.3-1.2-1.6-2.1c-0.1-0.3-0.3-0.6-0.5-0.7C17.71401,17.32708,17.21401,17.12708,16.61401,16.82708z M22.61401,20.02708
	c0.3,0,0.4,0.1,0.5,0c2.3-0.7,4.4-1.7,6.3-3.3c0.1-0.1,0.1-0.2,0.1-0.3c-0.6,0.6-1.2,0.6-1.9,0.3c-0.2-0.1-0.5,0.1-0.8,0.2
	c-0.6,0.4-0.9,0.4-1.5-0.1c-0.2-0.1-0.3-0.2-0.5-0.4c-0.3,0.3-0.6,0.6-0.8,1c-0.3,0.5-0.5,1-0.7,1.5
	C23.11401,19.32708,22.91401,19.62708,22.61401,20.02708z M20.01401,16.62708c-0.3,0.4-0.9,0.6-0.6,1.1c0.4,0.8,1,1.5,1.6,2.2
	c0.2,0.2,0.5,0.2,0.7-0.1c0.6-0.8,1.2-1.7,1.5-2.8c-0.4-0.2-0.7-0.4-1.1-0.6C21.11401,17.42708,21.11401,17.42708,20.01401,16.62708
	z"/>
<g>
	<path fill="#F8F9FA" d="M141.6472,9.49426c-0.09297,0.27894-0.18594,0.65086-0.3719,0.9298
		c-1.11575,3.25429-2.23151,6.50858-3.34727,9.76287c-0.27895,0.83682-0.27895,0.83682-1.20874,0.83682
		c-0.55789,0-1.11575,0-1.67365,0c-0.92979,0-0.92979,0-1.3017-0.9298c-1.11575-3.25429-2.23152-6.4156-3.2543-9.66989
		c-0.74384-2.23151-1.48767-4.46302-2.32448-6.78752c-0.09299-0.27894-0.18597-0.65086-0.27895-1.02278
		c0.27895-0.09298,0.46489-0.09298,0.65085-0.09298c0.92979,0,1.8596,0,2.7894,0c0.74384,0,0.74384,0,1.02278,0.74384
		c1.02278,3.16131,1.95258,6.4156,2.97534,9.57691c0.18596,0.55788,0.37192,1.02278,0.55789,1.58066c0.09297,0,0.18594,0,0.18594,0
		c0.65086-1.95257,1.30171-3.99813,1.95259-5.9507c0.65085-1.95257,1.30171-3.99813,2.04555-6.04368c1.02278,0,2.04555,0,3.1613,0
		c0.37192,0,0.4649,0.27894,0.55789,0.55788c0.27893,0.83682,0.55788,1.76661,0.83681,2.60343
		c0.92979,2.69641,1.7666,5.39282,2.6964,8.08923c0.09299,0.27894,0.18596,0.55788,0.37192,1.02278
		c0.18596-0.4649,0.27895-0.83682,0.37192-1.11576c1.02278-3.44025,2.04555-6.78752,3.1613-10.22777
		c0.27895-0.83682,0.27895-0.83682,1.20874-0.9298c0.83681,0,1.58064,0,2.41748,0c0.27893,0,0.55788,0,0.83681,0.09298
		c-0.09299,0.37192-0.18596,0.65086-0.27895,0.9298c-1.85959,5.4858-3.71918,11.06458-5.57878,16.55038
		c-0.27895,0.83682-0.27895,0.83682-1.20874,0.83682c-0.65085,0-1.30171,0-2.04555,0c-0.46489,0-0.65085-0.18596-0.83681-0.55788
		c-0.37192-1.02278-0.74384-2.04555-1.02278-3.06833c-0.83681-2.32449-1.58066-4.64898-2.41748-6.97348
		c-0.09299-0.27894-0.18596-0.65086-0.37192-0.9298C141.83318,9.40128,141.74019,9.40128,141.6472,9.49426z"/>
	<path fill="#F8F9FA" d="M56.75676,11.26088c0.4649,0.27894,0.83682,0.4649,1.20874,0.65086
		c2.88237,1.58066,2.60343,6.32262-0.09298,7.81029c-1.30172,0.65086-2.60343,1.02278-3.99813,1.02278
		c-2.97535,0.09298-5.9507,0-8.92605,0c-0.09298,0-0.18596,0-0.27894-0.09298c-0.18596-0.65086-0.27894-16.73634-0.09298-18.22402
		c0.18596,0,0.4649-0.09298,0.65086-0.09298c2.60343,0,5.20686,0,7.71732,0c0.92979,0,1.95257,0.18596,2.88237,0.4649
		c2.32449,0.74384,3.44025,2.78939,3.06833,5.11388c-0.18596,1.02278-0.65086,1.85959-1.3947,2.51045
		C57.31464,10.88896,57.0357,10.98194,56.75676,11.26088z M48.38859,17.21158c1.95257,0,3.81216,0,5.67176,0
		c0.27894,0,0.55788-0.09298,0.74384-0.18596c0.74384-0.27894,1.11576-0.83682,1.11576-1.67363
		c0-0.74384-0.27894-1.3947-1.02277-1.67363c-0.37192-0.18596-0.83682-0.27894-1.20874-0.27894c-1.67363,0-3.44025,0-5.11388,0
		c-0.09298,0-0.09298,0.09298-0.18596,0.18596C48.38859,14.70112,48.38859,15.90986,48.38859,17.21158z M48.38859,9.95916
		c1.67363,0,3.16131,0.09298,4.74196-0.09298c0.18596,0,0.37192-0.09298,0.55788-0.09298
		c0.83682-0.27894,1.20874-0.83682,1.20874-1.67363s-0.37192-1.3947-1.20874-1.67364
		c-0.37192-0.09298-0.74384-0.18596-1.11576-0.18596c-1.11576,0-2.32449,0-3.44025,0c-0.18596,0-0.37192,0.09298-0.65086,0.09298
		C48.38859,7.44871,48.38859,8.65744,48.38859,9.95916z"/>
	<path fill="#F8F9FA" d="M192.22816,14.42219c1.48769,2.13853,2.88237,4.18409,4.37004,6.4156
		c-0.37192,0.09298-0.65085,0.09298-0.83681,0.09298c-1.02278,0-2.04555,0-2.97534,0c-0.55789,0-0.92981-0.18596-1.30171-0.65086
		c-0.92979-1.48767-2.04556-2.97535-2.97536-4.46303c-0.3719-0.55788-0.74384-0.74384-1.30171-0.74384
		c-0.74384,0.09298-1.48767,0-2.32448,0c0,1.95257,0,3.81217,0,5.76474c-1.3947,0-2.60344,0-3.90515,0
		c-0.18596-0.65086-0.27895-16.55038-0.09299-18.22402c0.27895,0,0.4649-0.09298,0.74384-0.09298c2.51045,0,4.92793,0,7.43839,0
		c1.11575,0,2.23151,0.09298,3.25429,0.4649c2.13853,0.83682,3.44025,2.32449,3.71919,4.64898
		c0.3719,2.97535-0.65086,5.11388-3.34727,6.50858C192.60008,14.14325,192.50711,14.23623,192.22816,14.42219z M184.88277,6.14699
		c0,1.85959-0.09299,3.53323,0,5.20686c1.58064,0,3.1613,0,4.64899,0c0.27893,0,0.55788-0.09298,0.83681-0.18596
		c1.02278-0.37192,1.58064-1.11576,1.67363-2.23151c0.09299-1.48768-0.65085-2.51045-2.23151-2.69641
		C188.23004,6.14699,186.64938,6.23997,184.88277,6.14699z"/>
	<path fill="#F8F9FA" d="M63.4513,2.52079c0.37192,0,0.65086,0,0.92979,0c2.32449,0,4.55601,0,6.8805,0
		c1.02277,0,2.04555,0.09298,3.06833,0.37192c2.51045,0.55788,3.99813,2.41747,4.27707,4.92792
		c0.37192,2.88237-0.74384,4.92792-3.25429,6.32262c-0.09298,0.09298-0.27895,0.18596-0.4649,0.27894
		c0.65086,1.11576,1.3947,2.13853,2.13854,3.16131c0.74384,1.02278,1.39469,2.04556,2.23151,3.25429
		c-0.4649,0-0.74384,0.09298-0.9298,0.09298c-0.92979,0-1.85959-0.09298-2.69641,0
		c-0.74384,0.09298-1.20874-0.27894-1.58065-0.83682c-0.74384-1.20873-1.48767-2.32449-2.32449-3.53323
		c-1.30172-1.85959-0.55788-1.48768-2.88237-1.48768c-0.27894,0-0.65086,0-0.92979,0c-0.09298,0-0.18596,0.09298-0.37192,0.09298
		c0,1.85959,0,3.71919,0,5.67176c-1.3947,0-2.60344,0-3.90515,0C63.26534,20.09395,63.17236,3.72952,63.4513,2.52079z
		 M67.44942,6.14699c-0.18596,1.20874-0.18596,4.55601,0,5.29984c0.27894,0,0.65086,0,0.92979,0c1.11575,0,2.32449,0,3.44025,0
		c0.18596,0,0.37192-0.09298,0.55788-0.09298c1.3947-0.37192,2.04555-1.30171,1.95258-2.69641
		c-0.09298-1.30172-0.74384-2.13853-2.13854-2.32449C70.70371,6.14699,69.12306,6.23997,67.44942,6.14699z"/>
	<path fill="#F8F9FA" d="M167.49556,21.2097c-4.556-0.09298-8.36816-2.88237-9.39095-7.15943
		c-1.48767-5.85772,2.69641-11.4365,8.7401-11.80842c2.78938-0.18596,5.29984,0.55788,7.43837,2.51045
		c2.7894,2.60343,3.62621,5.85772,2.60344,9.39095c-0.92979,3.62621-3.44025,5.85772-6.97348,6.69454
		C169.07622,21.11672,168.23941,21.11672,167.49556,21.2097z M172.98137,11.81875c0-0.37192,0-0.74384-0.09299-1.02278
		c-0.3719-2.13853-1.48767-3.62621-3.53322-4.37005c-1.95259-0.74384-3.81218-0.4649-5.39284,0.9298
		c-2.60342,2.13853-2.60342,6.50858-0.18594,8.74009c1.7666,1.58066,3.81216,1.85959,5.95068,0.9298
		C172.05157,16.00284,172.88838,14.05027,172.98137,11.81875z"/>
	<path fill="#F8F9FA" d="M199.75951,2.61377c1.30171,0,2.51045,0,3.90515,0c0.09299,1.30172,0,2.51045,0.09299,3.81217
		c0,1.20874,0,2.51045,0,3.81217c0.46489,0,0.65085-0.37192,0.83681-0.55788c1.95258-2.13853,3.90515-4.18409,5.85773-6.32262
		c0.46489-0.55788,0.92979-0.74384,1.67363-0.74384c0.92979,0.09298,1.95258,0,2.88239,0c0.18594,0,0.46489,0,0.92979,0.09298
		c-2.51045,2.60343-4.92793,5.11388-7.3454,7.71731c1.30171,1.76661,2.60344,3.44025,3.81218,5.20686
		c1.30171,1.67363,2.51045,3.44025,3.90514,5.20686c-0.3719,0.09298-0.65085,0.09298-0.83681,0.09298c-1.02278,0-2.13853,0-3.1613,0
		c-0.55789,0-0.92979-0.18596-1.20874-0.65086c-1.48769-2.13853-3.06833-4.18409-4.556-6.32262
		c-0.18596-0.27894-0.37192-0.55788-0.65085-0.83682c-0.65086,0.65086-1.30171,1.30171-1.8596,1.95257
		c-0.18596,0.18596-0.18596,0.55788-0.18596,0.83682c0,1.30171,0,2.51045,0,3.81217c0,0.37192,0,0.65086-0.09297,1.02278
		c-1.30171,0-2.60344,0-3.81218,0C199.66653,20.09395,199.57356,3.72952,199.75951,2.61377z"/>
	<path fill="#F8F9FA" d="M110.31306,20.83778c0-6.13666,0-12.18034,0-18.22402c1.30172,0,2.60343,0,3.90514,0
		c0.18596,0.83682,0.09298,1.67363,0.09298,2.51045s0,1.67363,0,2.51045s0,1.67363,0,2.60343
		c0.4649,0,0.55788-0.27894,0.74384-0.4649c2.04555-2.13853,3.99812-4.27707,6.04367-6.50858
		c0.4649-0.4649,0.83681-0.74384,1.48768-0.65086c0.92979,0.09298,1.95258,0,2.88238,0c0.27894,0,0.55788,0,1.02278,0.09298
		c-2.41748,2.69641-4.92793,5.11388-7.3454,7.71731c1.30172,1.76661,2.60342,3.44025,3.81216,5.20686
		c1.30171,1.67363,2.51045,3.44025,3.81217,5.20686c-0.37191,0.09298-0.55788,0.09298-0.74384,0.09298
		c-1.11575,0-2.23151,0-3.25429,0c-0.55788,0-0.9298-0.18596-1.20874-0.65086c-1.48768-2.13853-3.06834-4.18409-4.55601-6.32262
		c-0.18596-0.27894-0.37192-0.55788-0.65086-0.83682c-0.65086,0.65086-1.30172,1.30171-1.95257,1.95257
		c-0.18596,0.18596-0.18596,0.55788-0.18596,0.83682c0,1.30171,0,2.60343,0,3.90514c0,0.27894,0,0.55788-0.09298,0.9298
		C112.91649,20.83778,111.61478,20.83778,110.31306,20.83778z"/>
	<path fill="#F8F9FA" d="M231.46559,4.65932c-0.74384,1.02278-1.3947,2.04555-2.04555,2.97535
		c-0.74385-0.37192-1.30171-0.74384-1.95258-1.02278c-1.0228-0.55788-2.13855-0.83682-3.34727-0.65086
		c-0.37192,0-0.65086,0.09298-0.92981,0.27894c-0.55788,0.27894-0.83681,0.65086-0.83681,1.30172s0.18596,1.11576,0.74384,1.3947
		c0.4649,0.27894,0.92981,0.4649,1.3947,0.55788c0.92979,0.27894,1.85959,0.4649,2.69641,0.74384
		c0.74384,0.27894,1.3947,0.55788,2.13853,0.83682c3.90514,1.76661,3.25429,7.25241,0.37192,9.01903
		c-0.92981,0.55788-1.95259,0.9298-3.06834,1.02278c-3.1613,0.27894-5.95068-0.4649-8.46115-2.32449
		c-0.18596-0.09298-0.37192-0.27894-0.55789-0.4649c0.83682-1.02278,1.58066-1.95257,2.32449-2.88237
		c0.65086,0.4649,1.30171,0.83682,1.8596,1.20874c1.39468,0.83682,2.78938,1.11576,4.37004,0.9298
		c0.3719-0.09298,0.74384-0.18596,1.11575-0.37192c1.02278-0.55788,1.02278-1.95257,0-2.51045
		c-0.65086-0.37192-1.48769-0.65086-2.23151-0.83682c-0.65086-0.18596-1.3947-0.37192-2.13853-0.55788
		c-0.55789-0.18596-1.02278-0.37192-1.58066-0.55788c-1.85959-0.74384-3.06833-2.04555-3.1613-4.18409
		c-0.09299-2.23151,0.65085-4.09111,2.69641-5.20686c1.3017-0.74384,2.6964-0.9298,4.18408-0.9298
		C227.3745,2.33483,229.42004,3.07866,231.46559,4.65932z"/>
	<path fill="#F8F9FA" d="M104.36237,15.44496c0.83681,0.83682,1.67364,1.67363,2.60343,2.51045
		c-0.92979,1.02278-1.95258,1.95257-3.25429,2.41747c-2.97535,1.20874-5.85773,1.20874-8.7401-0.27894
		c-3.71918-1.95257-5.57878-6.32262-4.64898-10.59968c0.92979-4.09111,4.37004-6.97348,8.55412-7.25242
		c2.60344-0.09298,5.0209,0.37192,7.06646,2.04555c0.27894,0.18596,0.4649,0.4649,0.83681,0.74384
		c-0.83681,1.02278-1.67364,1.95257-2.51044,2.97535c-0.4649-0.37192-0.9298-0.65086-1.30172-0.9298
		c-1.20874-0.83682-2.60343-1.30172-4.18408-1.02278c-2.51045,0.37192-4.27707,2.41747-4.55601,5.11388
		c-0.09298,1.02278,0.09298,2.04555,0.4649,3.06833c1.30172,2.97535,4.64899,4.18409,7.53135,2.60343
		C103.06065,16.37476,103.7115,15.90986,104.36237,15.44496z"/>
	<path fill="#F8F9FA" d="M82.51214,2.61377c1.30171,0,2.51044,0,3.71918,0c0.09298,0.09298,0.09298,0.09298,0.09298,0.09298
		s0.09298,0,0.09298,0.09298c0,0.18596,0.09298,0.27894,0.09298,0.4649c0,5.67176,0,11.34352,0,17.01528
		c0,0.09298,0,0.27894,0,0.37192c0,0.09298-0.09298,0.09298-0.09298,0.18596c-1.20874,0-2.51045,0-3.71919,0
		C82.32617,20.09395,82.23319,3.63654,82.51214,2.61377z"/>
	<g>
		<path fill="#F8F9FA" d="M45.14256,31.93451c0.26786,0.46399,0.61608,0.80994,1.0442,1.03694
			c0.42767,0.227,0.91527,0.3396,1.46189,0.3396c0.3405,0,0.66012-0.05085,0.95931-0.15436
			c0.29919-0.1026,0.55933-0.24789,0.78134-0.43312c0.22155-0.18614,0.3968-0.41042,0.52573-0.67283
			c0.12894-0.26332,0.19341-0.55933,0.19341-0.88984c0-0.38136-0.0799-0.69644-0.23971-0.94342
			c-0.15981-0.24788-0.37365-0.45128-0.64196-0.61109s-0.56977-0.29692-0.90483-0.41042
			c-0.33551-0.1135-0.681-0.22609-1.03694-0.3405c-0.35548-0.11259-0.70144-0.24153-1.03649-0.38681
			c-0.33505-0.14346-0.63696-0.33233-0.90483-0.56387c-0.26831-0.23245-0.48215-0.52392-0.64196-0.87441
			c-0.16026-0.35049-0.23971-0.78361-0.23971-1.29935c0-0.48487,0.09489-0.91527,0.28602-1.29209
			c0.19068-0.37682,0.44855-0.69099,0.77362-0.94342c0.32461-0.25333,0.69825-0.44402,1.12138-0.57295
			c0.42313-0.12894,0.86669-0.19341,1.33068-0.19341c0.59792,0,1.15271,0.10624,1.66301,0.3178
			c0.51075,0.21066,0.95159,0.56387,1.32296,1.05964l-0.88213,0.63379c-0.25787-0.36048-0.55933-0.63106-0.90483-0.81176
			c-0.34595-0.18069-0.75591-0.27059-1.22989-0.27059c-0.33051,0-0.64468,0.04358-0.94387,0.13075
			c-0.29919,0.08808-0.55978,0.21701-0.78134,0.38681c-0.22201,0.1707-0.39952,0.38499-0.53345,0.64196
			c-0.13438,0.25787-0.20112,0.56296-0.20112,0.91345c0,0.54662,0.13892,0.96702,0.41768,1.26031
			c0.27831,0.2942,0.62653,0.52664,1.04421,0.69644c0.41768,0.1698,0.87123,0.31962,1.3611,0.44855
			c0.48987,0.12894,0.94387,0.30146,1.36155,0.51847c0.41768,0.2161,0.7659,0.51847,1.0442,0.90528
			c0.27876,0.38681,0.41768,0.91981,0.41768,1.60081c0,0.49486-0.09262,0.93343-0.27831,1.31479
			c-0.18569,0.38227-0.43584,0.70461-0.75047,0.96703c-0.31462,0.26332-0.67828,0.46217-1.09052,0.59565
			c-0.41269,0.13438-0.84081,0.20158-1.28392,0.20158c-0.72232,0-1.38743-0.12712-1.9958-0.37955
			c-0.60882-0.25242-1.12956-0.67828-1.56268-1.27575L45.14256,31.93451z"/>
		<path fill="#F8F9FA" d="M53.63422,23.00792h1.02105v4.82695h0.09307l5.30638-4.82695h1.40786l-5.53838,5.01219l5.84801,5.94108
			h-1.47006l-5.55381-5.66232h-0.09307v5.66232h-1.02105V23.00792z"/>
		<path fill="#F8F9FA" d="M66.65411,29.24228l-4.02201-6.23436h1.22218l3.31059,5.19833l3.38822-5.19833h1.14454l-4.02246,6.23436
			v4.7189h-1.02105V29.24228z"/>
		<path fill="#F8F9FA" d="M73.55085,23.00792h6.55988v0.92798h-5.53883v3.89897h5.15202v0.92798h-5.15202v5.19833h-1.02106V23.00792
			z"/>
		<path fill="#F8F9FA" d="M85.07525,23.00792h1.05193l4.61039,10.95326h-1.14499l-1.19131-2.90834h-5.80124l-1.23761,2.90834
			H80.2946L85.07525,23.00792z M85.55468,24.12204l-2.55241,6.00282h5.02808L85.55468,24.12204z"/>
		<path fill="#F8F9FA" d="M92.66798,23.00792h1.02105V33.0332h5.10571v0.92798h-6.12676V23.00792z"/>
		<path fill="#F8F9FA" d="M100.74696,23.00792h1.02105V33.0332h5.10571v0.92798h-6.12676V23.00792z"/>
		<path fill="#F8F9FA" d="M108.71152,27.4635c0-0.20612,0.07219-0.38136,0.21656-0.52574
			c0.14438-0.14437,0.31962-0.21701,0.52619-0.21701c0.20612,0,0.38136,0.07264,0.52619,0.21701
			c0.14391,0.14437,0.21655,0.31962,0.21655,0.52574c0,0.20612-0.07264,0.38136-0.21655,0.52573
			c-0.14483,0.14437-0.32008,0.21701-0.52619,0.21701c-0.20657,0-0.38181-0.07264-0.52619-0.21701
			C108.78371,27.84486,108.71152,27.66961,108.71152,27.4635z M108.71152,33.31105c0-0.20612,0.07219-0.38136,0.21656-0.52574
			c0.14438-0.14437,0.31962-0.2161,0.52619-0.2161c0.20612,0,0.38136,0.07173,0.52619,0.2161
			c0.14391,0.14437,0.21655,0.31962,0.21655,0.52574c0,0.20702-0.07264,0.38227-0.21655,0.52664
			c-0.14483,0.14437-0.32008,0.2161-0.52619,0.2161c-0.20657,0-0.38181-0.07173-0.52619-0.2161
			C108.78371,33.69331,108.71152,33.51807,108.71152,33.31105z"/>
		<path fill="#F8F9FA" d="M118.0558,31.93451c0.26877,0.46399,0.61562,0.80994,1.0442,1.03694
			c0.42857,0.227,0.91527,0.3396,1.46188,0.3396c0.33959,0,0.65921-0.05085,0.95885-0.15436
			c0.29964-0.1026,0.55933-0.24789,0.78088-0.43312c0.22337-0.18614,0.39771-0.41042,0.52664-0.67283
			c0.12894-0.26332,0.19431-0.55933,0.19431-0.88984c0-0.38136-0.0799-0.69644-0.23972-0.94342
			c-0.16162-0.24788-0.37409-0.45128-0.64287-0.61109c-0.26877-0.15981-0.57022-0.29692-0.90437-0.41042
			c-0.33597-0.1135-0.68101-0.22609-1.03694-0.3405c-0.35594-0.11259-0.70098-0.24153-1.03694-0.38681
			c-0.33597-0.14346-0.63742-0.33233-0.90437-0.56387c-0.26878-0.23245-0.48306-0.52392-0.64287-0.87441
			c-0.15981-0.35049-0.23926-0.78361-0.23926-1.29935c0-0.48487,0.09489-0.91527,0.28647-1.29209
			c0.19068-0.37682,0.44855-0.69099,0.77362-0.94342c0.32507-0.25333,0.69735-0.44402,1.12048-0.57295
			c0.42313-0.12894,0.86623-0.19341,1.33113-0.19341c0.59747,0,1.15317,0.10624,1.66347,0.3178
			c0.5103,0.21066,0.95158,0.56387,1.32205,1.05964l-0.88076,0.63379c-0.25787-0.36048-0.56115-0.63106-0.90619-0.81176
			c-0.34505-0.18069-0.75546-0.27059-1.22944-0.27059c-0.33051,0-0.64468,0.04358-0.94433,0.13075
			c-0.29964,0.08808-0.55933,0.21701-0.78088,0.38681c-0.22155,0.1707-0.39952,0.38499-0.53391,0.64196
			c-0.13438,0.25787-0.20158,0.56296-0.20158,0.91345c0,0.54662,0.13983,0.96702,0.41768,1.26031
			c0.27967,0.2942,0.62653,0.52664,1.0442,0.69644c0.41769,0.1698,0.87169,0.31962,1.36201,0.44855
			c0.49033,0.12894,0.94433,0.30146,1.36201,0.51847c0.41769,0.2161,0.76454,0.51847,1.0442,0.90528
			c0.27785,0.38681,0.41769,0.91981,0.41769,1.60081c0,0.49486-0.09262,0.93343-0.27785,1.31479
			c-0.18705,0.38227-0.43584,0.70461-0.75183,0.96703c-0.31417,0.26332-0.67737,0.46217-1.08961,0.59565
			c-0.41223,0.13438-0.84081,0.20158-1.28392,0.20158c-0.72277,0-1.38743-0.12712-1.99579-0.37955
			c-0.60928-0.25242-1.13001-0.67828-1.56313-1.27575L118.0558,31.93451z"/>
		<path fill="#F8F9FA" d="M126.57561,23.00792h1.0206v10.95326h-1.0206V23.00792z"/>
		<path fill="#F8F9FA" d="M133.3239,23.9359h-3.74461v-0.92798h8.50891v0.92798h-3.7437v10.02528h-1.0206V23.9359z"/>
		<path fill="#F8F9FA" d="M140.07945,23.00792h6.69835v0.92798h-5.67775v3.89897h5.32181v0.92798h-5.32181v4.27035h5.92564v0.92798
			h-6.94624V23.00792z"/>
		<path fill="#F8F9FA" d="M153.94106,23.00792h1.5318l3.99159,9.18991l3.99159-9.18991h1.45462v10.95326h-1.0215v-9.65391h-0.03088
			l-4.17682,9.65391h-0.44855l-4.23949-9.65391h-0.03087v9.65391h-1.0215V23.00792z"/>
		<path fill="#F8F9FA" d="M171.56725,23.00792h1.05237l4.60994,10.95326h-1.14499l-1.1913-2.90834h-5.80124l-1.23761,2.90834
			h-1.06783L171.56725,23.00792z M172.04666,24.12204l-2.5524,6.00282h5.02762L172.04666,24.12204z"/>
		<path fill="#F8F9FA" d="M179.15997,23.00792h1.31479l6.66748,9.59216h0.03088v-9.59216h1.0215v10.95326h-1.31479l-6.6684-9.59216
			h-0.03087v9.59216h-1.0206V23.00792z"/>
		<path fill="#F8F9FA" d="M194.91386,23.00792h1.05237l4.60994,10.95326h-1.14499l-1.1913-2.90834h-5.80124l-1.23761,2.90834
			h-1.06783L194.91386,23.00792z M195.39328,24.12204l-2.5524,6.00282h5.02762L195.39328,24.12204z"/>
		<path fill="#F8F9FA" d="M211.09631,33.2493c-0.63924,0.36139-1.30208,0.61654-1.98761,0.76635
			c-0.68646,0.14891-1.38472,0.22428-2.09659,0.22428c-0.83537,0-1.60172-0.14256-2.29726-0.42585
			c-0.69644-0.2833-1.29208-0.681-1.78696-1.1913c-0.49486-0.5103-0.88167-1.11866-1.16043-1.82509
			c-0.27875-0.70643-0.41768-1.47732-0.41768-2.3136c0-0.83536,0.13893-1.60353,0.41768-2.30452
			c0.27876-0.70189,0.66557-1.30753,1.16043-1.81783c0.49487-0.5103,1.09052-0.91073,1.78696-1.19947
			c0.69554-0.28875,1.46188-0.43312,2.29726-0.43312c1.62987,0,2.94466,0.50576,3.94528,1.51637l-0.74275,0.77362
			c-0.16525-0.19613-0.36865-0.37955-0.61108-0.54934c-0.24243-0.1698-0.50577-0.31417-0.78906-0.43312
			c-0.28419-0.11804-0.58022-0.21157-0.88985-0.27876c-0.30962-0.06628-0.6138-0.09988-0.91254-0.09988
			c-0.71188,0-1.35384,0.12349-1.92587,0.37047c-0.57295,0.24788-1.05965,0.58839-1.4619,1.02151
			c-0.40224,0.43312-0.71187,0.94342-0.92888,1.5318c-0.21611,0.58748-0.32507,1.22218-0.32507,1.90227
			c0,0.681,0.10896,1.3157,0.32507,1.90318c0.21701,0.58839,0.52664,1.09869,0.92888,1.5318
			c0.40225,0.43312,0.88895,0.77362,1.4619,1.0206c0.57204,0.24789,1.21399,0.37138,1.92587,0.37138
			c0.58748,0,1.13954-0.04631,1.65529-0.13893s0.98518-0.26332,1.40741-0.5103v-3.68196h-2.62958v-0.92889h3.65108V33.2493z"/>
		<path fill="#F8F9FA" d="M214.25708,23.00792h6.69835v0.92798h-5.67775v3.89897h5.32182v0.92798h-5.32182v4.27035h5.92564v0.92798
			h-6.94624V23.00792z"/>
		<path fill="#F8F9FA" d="M223.45609,23.00792h2.87746c0.14438,0,0.3405,0.00545,0.58748,0.01544
			c0.24789,0.00999,0.51575,0.04177,0.8045,0.09262c0.28874,0.05176,0.58293,0.13439,0.88167,0.24789
			c0.29964,0.1135,0.5675,0.27876,0.80449,0.49486c0.2379,0.21701,0.43312,0.49032,0.58839,0.81993
			c0.15436,0.33051,0.23154,0.73276,0.23154,1.20674c0,0.52574-0.08989,0.95885-0.27058,1.29935s-0.4077,0.61654-0.6801,0.8281
			c-0.27422,0.21157-0.57567,0.36865-0.90527,0.47125c-0.33052,0.10351-0.64468,0.17615-0.94342,0.21701l3.18619,5.26007h-1.15953
			l-3.07904-5.19833h-1.90317v5.19833h-1.0206V23.00792z M224.47668,27.83487h2.16649c0.53572,0,0.97157-0.06719,1.30663-0.20158
			c0.33505-0.13348,0.59564-0.29873,0.78178-0.49486c0.18524-0.19522,0.31145-0.40679,0.37865-0.63379
			c0.06718-0.227,0.10078-0.43312,0.10078-0.61926c0-0.18523-0.0336-0.39135-0.10078-0.61835
			c-0.0672-0.227-0.19341-0.43857-0.37865-0.6347c-0.18614-0.19613-0.44673-0.36139-0.78178-0.49486
			c-0.33505-0.13438-0.7709-0.20158-1.30663-0.20158h-2.16649V27.83487z"/>
	</g>
</g>
</svg>
