<?xml version="1.0" encoding="utf-8"?>
<!-- Generator: Adobe Illustrator 25.1.0, SVG Export Plug-In . SVG Version: 6.00 Build 0)  -->
<svg version="1.1" id="Layer_1" xmlns="http://www.w3.org/2000/svg" xmlns:xlink="http://www.w3.org/1999/xlink" x="0px" y="0px"
	 viewBox="0 0 232.059 36.627" enable-background="new 0 0 232.059 36.627" xml:space="preserve">
<path fill="#20202A" d="M21.614,2.427c0.3-0.1,0.6-0.2,0.9-0.3c0.9-0.2,1.8-0.2,2.6,0c0.9,0.3,1.6,0.8,1.7,1.9
	c0,0.5,0.3,0.7,0.8,0.7c1.4,0,1.8,0.3,2.3,1.7c0,0.1,0.1,0.2,0.2,0.3c1.7-0.2,3.3-0.3,4.1,1.6c1.9,0.4,2.4,1,2.1,2.4
	c0.3,0.3,0.7,0.6,0.9,1s0.1,0.8,0.1,1.3c0.2,0.1,0.4,0.2,0.7,0.4c0.9,0.6,1,1.4,0.3,2.2c-0.5,0.5-1.1,0.7-1.7,0.7
	c-0.8,1.1-1.8,1.5-3,0.8c-0.8-0.5-1.6-0.3-2.2,0.2c-1.5,1.2-3.2,1.7-4.8,2.6c-1.6,0.9-3.1,2-4.4,3.4c-1.1,1.3-1.5,2.8-1.4,4.5
	c0,0.2,0.1,0.5,0.2,0.8c0.3-0.2,0.4-0.4,0.6-0.5c0.3-0.4,0.6-0.8,0.9-1.3c0.7-1.3,1.6-2.4,3.3-2.7c-0.1-0.2-0.1-0.4-0.1-0.5
	c-0.2-0.6,0-1.1,0.6-1.3c0.3-0.1,0.6-0.3,0.8-0.4c0.4-0.3,0.7-0.4,1.2-0.3c0.3,0.1,0.6-0.1,0.9-0.2c0.4-0.2,0.8-0.2,1,0.3
	c0.1,0.3,0.4,0.5,0.7,0.6c0.5,0.1,0.8,0.4,0.8,1c0,0.2,0.1,0.3,0.2,0.5s0.4,0.4,0.4,0.6c0.2,0.6,0,1.1-0.7,1.2c-0.2,0-0.3,0-0.5,0.1
	c-0.5,1.4-1,1.3-2.1,0.4c-0.2,0.1-0.4,0.2-0.6,0.3c-0.4,0.2-0.8,0.2-1.1-0.2c-0.4-0.6-1.3-0.4-1.8-0.9c-0.1-0.1-0.4,0.1-0.6,0.2
	s-0.4,0.3-0.5,0.5c-1.1,1.5-2.1,3-2.7,4.8c-0.6,1.8,0,3.2,1.6,4.1c0.3,0.1,0.5,0.3,0.8,0.6c-1,0.3-2.1-0.1-3,0.8
	c-1-1.1-2.1-0.5-3.1-0.2c-0.4,0.1-0.7,0.3-1.1,0.5c0-0.3,0-0.5,0-0.8c-0.4,0-0.8-0.1-1.3-0.1c0.2-0.2,0.4-0.3,0.5-0.4
	c0.5-0.4,1-0.7,1.5-1.1c0.5-0.4,0.7-1,0.7-1.6s0.2-1.3,0.4-1.9c0.1-0.7,0.3-1.3,0.3-2c0.1-0.9-0.4-1.6-1.1-1.9
	c-1.6-0.6-2.5-1.8-3.4-3.1c-0.3-0.5-0.8-1-1.3-1.3c-0.9-0.6-1.5-1.3-1.6-2.5c0-0.1-0.1-0.2-0.1-0.3c-1-0.3-1.9-0.6-3-1
	c-0.5,0.6-1.4,0.9-2.2,0.6s-1.5-0.5-2.4-0.2c-0.6,0.2-1.2-0.4-1.6-0.9c-0.3-0.8-0.4-1.1-0.5-1.5s-0.3-0.6-0.7-0.8
	c-1.3-0.7-1.5-2.4-0.4-3.5c0.5-0.5,1.2-0.9,1.9-0.9c0.5,0,0.7-0.2,0.9-0.6c0.5-1.3,1-1.6,2.4-1.5c0.1-2.7,1.1-3.6,3.5-3.3
	c0.1-0.3,0.3-0.7,0.4-1.1c0.2-0.9,0.9-1.4,1.8-1.3c0.7,0,1.4,0.1,2.1,0.2c0.6-0.7,1.1-2,2.5-1.4c0.2-0.3,0.3-0.5,0.5-0.8
	s0.5-0.7,0.8-1c1-0.9,2.1-0.8,2.9,0.1C20.814,1.227,21.114,1.827,21.614,2.427z M16.614,16.827c-0.1,0.3-0.2,0.5-0.4,0.7
	c-0.3,0.5-0.8,0.8-1.3,0.7c-0.7-0.2-1.1,0.2-1.7,0.4c-0.4,0.1-0.6,0.5-0.5,0.9c0.1,0.9,0.5,1.7,1.4,2c1,0.4,1.8,1,2.3,2
	c0.5,1,1.7,1.2,2.6,0.5c0.7-0.5,1.4-1.1,2-1.7c0.5-0.4,0.5-0.7,0.1-1.2c-0.3-0.3-0.6-0.5-0.9-0.8c-0.7-0.5-1.3-1.2-1.6-2.1
	c-0.1-0.3-0.3-0.6-0.5-0.7C17.714,17.327,17.214,17.127,16.614,16.827z M22.614,20.027c0.3,0,0.4,0.1,0.5,0c2.3-0.7,4.4-1.7,6.3-3.3
	c0.1-0.1,0.1-0.2,0.1-0.3c-0.6,0.6-1.2,0.6-1.9,0.3c-0.2-0.1-0.5,0.1-0.8,0.2c-0.6,0.4-0.9,0.4-1.5-0.1c-0.2-0.1-0.3-0.2-0.5-0.4
	c-0.3,0.3-0.6,0.6-0.8,1c-0.3,0.5-0.5,1-0.7,1.5C23.114,19.327,22.914,19.627,22.614,20.027z M20.014,16.627
	c-0.3,0.4-0.9,0.6-0.6,1.1c0.4,0.8,1,1.5,1.6,2.2c0.2,0.2,0.5,0.2,0.7-0.1c0.6-0.8,1.2-1.7,1.5-2.8c-0.4-0.2-0.7-0.4-1.1-0.6
	C21.114,17.427,21.114,17.427,20.014,16.627z"/>
<g>
	<path fill="#20202A" d="M141.647,9.494c-0.093,0.279-0.186,0.651-0.372,0.93c-1.116,3.254-2.232,6.509-3.347,9.763
		c-0.279,0.837-0.279,0.837-1.209,0.837c-0.558,0-1.116,0-1.674,0c-0.93,0-0.93,0-1.302-0.93c-1.116-3.254-2.232-6.416-3.254-9.67
		c-0.744-2.232-1.488-4.463-2.324-6.788c-0.093-0.279-0.186-0.651-0.279-1.023c0.279-0.093,0.465-0.093,0.651-0.093
		c0.93,0,1.86,0,2.789,0c0.744,0,0.744,0,1.023,0.744c1.023,3.161,1.953,6.416,2.975,9.577c0.186,0.558,0.372,1.023,0.558,1.581
		c0.093,0,0.186,0,0.186,0c0.651-1.953,1.302-3.998,1.953-5.951c0.651-1.953,1.302-3.998,2.046-6.044c1.023,0,2.046,0,3.161,0
		c0.372,0,0.465,0.279,0.558,0.558c0.279,0.837,0.558,1.767,0.837,2.603c0.93,2.696,1.767,5.393,2.696,8.089
		c0.093,0.279,0.186,0.558,0.372,1.023c0.186-0.465,0.279-0.837,0.372-1.116c1.023-3.44,2.046-6.788,3.161-10.228
		c0.279-0.837,0.279-0.837,1.209-0.93c0.837,0,1.581,0,2.417,0c0.279,0,0.558,0,0.837,0.093c-0.093,0.372-0.186,0.651-0.279,0.93
		c-1.86,5.486-3.719,11.065-5.579,16.55c-0.279,0.837-0.279,0.837-1.209,0.837c-0.651,0-1.302,0-2.046,0
		c-0.465,0-0.651-0.186-0.837-0.558c-0.372-1.023-0.744-2.046-1.023-3.068c-0.837-2.324-1.581-4.649-2.417-6.973
		c-0.093-0.279-0.186-0.651-0.372-0.93C141.833,9.401,141.74,9.401,141.647,9.494z"/>
	<path fill="#20202A" d="M56.757,11.261c0.465,0.279,0.837,0.465,1.209,0.651c2.882,1.581,2.603,6.323-0.093,7.81
		c-1.302,0.651-2.603,1.023-3.998,1.023c-2.975,0.093-5.951,0-8.926,0c-0.093,0-0.186,0-0.279-0.093
		c-0.186-0.651-0.279-16.736-0.093-18.224c0.186,0,0.465-0.093,0.651-0.093c2.603,0,5.207,0,7.717,0c0.93,0,1.953,0.186,2.882,0.465
		c2.324,0.744,3.44,2.789,3.068,5.114c-0.186,1.023-0.651,1.86-1.395,2.51C57.315,10.889,57.036,10.982,56.757,11.261z
		 M48.389,17.212c1.953,0,3.812,0,5.672,0c0.279,0,0.558-0.093,0.744-0.186c0.744-0.279,1.116-0.837,1.116-1.674
		c0-0.744-0.279-1.395-1.023-1.674c-0.372-0.186-0.837-0.279-1.209-0.279c-1.674,0-3.44,0-5.114,0c-0.093,0-0.093,0.093-0.186,0.186
		C48.389,14.701,48.389,15.91,48.389,17.212z M48.389,9.959c1.674,0,3.161,0.093,4.742-0.093c0.186,0,0.372-0.093,0.558-0.093
		c0.837-0.279,1.209-0.837,1.209-1.674s-0.372-1.395-1.209-1.674c-0.372-0.093-0.744-0.186-1.116-0.186c-1.116,0-2.324,0-3.44,0
		c-0.186,0-0.372,0.093-0.651,0.093C48.389,7.449,48.389,8.657,48.389,9.959z"/>
	<path fill="#20202A" d="M192.228,14.422c1.488,2.139,2.882,4.184,4.37,6.416c-0.372,0.093-0.651,0.093-0.837,0.093
		c-1.023,0-2.046,0-2.975,0c-0.558,0-0.93-0.186-1.302-0.651c-0.93-1.488-2.046-2.975-2.975-4.463
		c-0.372-0.558-0.744-0.744-1.302-0.744c-0.744,0.093-1.488,0-2.324,0c0,1.953,0,3.812,0,5.765c-1.395,0-2.603,0-3.905,0
		c-0.186-0.651-0.279-16.55-0.093-18.224c0.279,0,0.465-0.093,0.744-0.093c2.51,0,4.928,0,7.438,0c1.116,0,2.232,0.093,3.254,0.465
		c2.139,0.837,3.44,2.324,3.719,4.649c0.372,2.975-0.651,5.114-3.347,6.509C192.6,14.143,192.507,14.236,192.228,14.422z
		 M184.883,6.147c0,1.86-0.093,3.533,0,5.207c1.581,0,3.161,0,4.649,0c0.279,0,0.558-0.093,0.837-0.186
		c1.023-0.372,1.581-1.116,1.674-2.232c0.093-1.488-0.651-2.51-2.232-2.696C188.23,6.147,186.649,6.24,184.883,6.147z"/>
	<path fill="#20202A" d="M63.451,2.521c0.372,0,0.651,0,0.93,0c2.324,0,4.556,0,6.881,0c1.023,0,2.046,0.093,3.068,0.372
		c2.51,0.558,3.998,2.417,4.277,4.928c0.372,2.882-0.744,4.928-3.254,6.323c-0.093,0.093-0.279,0.186-0.465,0.279
		c0.651,1.116,1.395,2.139,2.139,3.161s1.395,2.046,2.232,3.254c-0.465,0-0.744,0.093-0.93,0.093c-0.93,0-1.86-0.093-2.696,0
		c-0.744,0.093-1.209-0.279-1.581-0.837c-0.744-1.209-1.488-2.324-2.324-3.533c-1.302-1.86-0.558-1.488-2.882-1.488
		c-0.279,0-0.651,0-0.93,0c-0.093,0-0.186,0.093-0.372,0.093c0,1.86,0,3.719,0,5.672c-1.395,0-2.603,0-3.905,0
		C63.265,20.094,63.172,3.73,63.451,2.521z M67.449,6.147c-0.186,1.209-0.186,4.556,0,5.3c0.279,0,0.651,0,0.93,0
		c1.116,0,2.324,0,3.44,0c0.186,0,0.372-0.093,0.558-0.093c1.395-0.372,2.046-1.302,1.953-2.696
		c-0.093-1.302-0.744-2.139-2.139-2.324C70.704,6.147,69.123,6.24,67.449,6.147z"/>
	<path fill="#20202A" d="M167.496,21.21c-4.556-0.093-8.368-2.882-9.391-7.159c-1.488-5.858,2.696-11.436,8.74-11.808
		c2.789-0.186,5.3,0.558,7.438,2.51c2.789,2.603,3.626,5.858,2.603,9.391c-0.93,3.626-3.44,5.858-6.973,6.695
		C169.076,21.117,168.239,21.117,167.496,21.21z M172.981,11.819c0-0.372,0-0.744-0.093-1.023c-0.372-2.139-1.488-3.626-3.533-4.37
		c-1.953-0.744-3.812-0.465-5.393,0.93c-2.603,2.139-2.603,6.509-0.186,8.74c1.767,1.581,3.812,1.86,5.951,0.93
		C172.052,16.003,172.888,14.05,172.981,11.819z"/>
	<path fill="#20202A" d="M199.76,2.614c1.302,0,2.51,0,3.905,0c0.093,1.302,0,2.51,0.093,3.812c0,1.209,0,2.51,0,3.812
		c0.465,0,0.651-0.372,0.837-0.558c1.953-2.139,3.905-4.184,5.858-6.323c0.465-0.558,0.93-0.744,1.674-0.744
		c0.93,0.093,1.953,0,2.882,0c0.186,0,0.465,0,0.93,0.093c-2.51,2.603-4.928,5.114-7.345,7.717c1.302,1.767,2.603,3.44,3.812,5.207
		c1.302,1.674,2.51,3.44,3.905,5.207c-0.372,0.093-0.651,0.093-0.837,0.093c-1.023,0-2.139,0-3.161,0
		c-0.558,0-0.93-0.186-1.209-0.651c-1.488-2.139-3.068-4.184-4.556-6.323c-0.186-0.279-0.372-0.558-0.651-0.837
		c-0.651,0.651-1.302,1.302-1.86,1.953c-0.186,0.186-0.186,0.558-0.186,0.837c0,1.302,0,2.51,0,3.812c0,0.372,0,0.651-0.093,1.023
		c-1.302,0-2.603,0-3.812,0C199.667,20.094,199.574,3.73,199.76,2.614z"/>
	<path fill="#20202A" d="M110.313,20.838c0-6.137,0-12.18,0-18.224c1.302,0,2.603,0,3.905,0c0.186,0.837,0.093,1.674,0.093,2.51
		s0,1.674,0,2.51s0,1.674,0,2.603c0.465,0,0.558-0.279,0.744-0.465c2.046-2.139,3.998-4.277,6.044-6.509
		c0.465-0.465,0.837-0.744,1.488-0.651c0.93,0.093,1.953,0,2.882,0c0.279,0,0.558,0,1.023,0.093
		c-2.417,2.696-4.928,5.114-7.345,7.717c1.302,1.767,2.603,3.44,3.812,5.207c1.302,1.674,2.51,3.44,3.812,5.207
		c-0.372,0.093-0.558,0.093-0.744,0.093c-1.116,0-2.232,0-3.254,0c-0.558,0-0.93-0.186-1.209-0.651
		c-1.488-2.139-3.068-4.184-4.556-6.323c-0.186-0.279-0.372-0.558-0.651-0.837c-0.651,0.651-1.302,1.302-1.953,1.953
		c-0.186,0.186-0.186,0.558-0.186,0.837c0,1.302,0,2.603,0,3.905c0,0.279,0,0.558-0.093,0.93
		C112.916,20.838,111.615,20.838,110.313,20.838z"/>
	<path fill="#20202A" d="M231.466,4.659c-0.744,1.023-1.395,2.046-2.046,2.975c-0.744-0.372-1.302-0.744-1.953-1.023
		c-1.023-0.558-2.139-0.837-3.347-0.651c-0.372,0-0.651,0.093-0.93,0.279c-0.558,0.279-0.837,0.651-0.837,1.302
		s0.186,1.116,0.744,1.395c0.465,0.279,0.93,0.465,1.395,0.558c0.93,0.279,1.86,0.465,2.696,0.744
		c0.744,0.279,1.395,0.558,2.139,0.837c3.905,1.767,3.254,7.252,0.372,9.019c-0.93,0.558-1.953,0.93-3.068,1.023
		c-3.161,0.279-5.951-0.465-8.461-2.324c-0.186-0.093-0.372-0.279-0.558-0.465c0.837-1.023,1.581-1.953,2.324-2.882
		c0.651,0.465,1.302,0.837,1.86,1.209c1.395,0.837,2.789,1.116,4.37,0.93c0.372-0.093,0.744-0.186,1.116-0.372
		c1.023-0.558,1.023-1.953,0-2.51c-0.651-0.372-1.488-0.651-2.232-0.837c-0.651-0.186-1.395-0.372-2.139-0.558
		c-0.558-0.186-1.023-0.372-1.581-0.558c-1.86-0.744-3.068-2.046-3.161-4.184c-0.093-2.232,0.651-4.091,2.696-5.207
		c1.302-0.744,2.696-0.93,4.184-0.93C227.374,2.335,229.42,3.079,231.466,4.659z"/>
	<path fill="#20202A" d="M104.362,15.445c0.837,0.837,1.674,1.674,2.603,2.51c-0.93,1.023-1.953,1.953-3.254,2.417
		c-2.975,1.209-5.858,1.209-8.74-0.279c-3.719-1.953-5.579-6.323-4.649-10.6c0.93-4.091,4.37-6.973,8.554-7.252
		c2.603-0.093,5.021,0.372,7.066,2.046c0.279,0.186,0.465,0.465,0.837,0.744c-0.837,1.023-1.674,1.953-2.51,2.975
		c-0.465-0.372-0.93-0.651-1.302-0.93c-1.209-0.837-2.603-1.302-4.184-1.023c-2.51,0.372-4.277,2.417-4.556,5.114
		c-0.093,1.023,0.093,2.046,0.465,3.068c1.302,2.975,4.649,4.184,7.531,2.603C103.061,16.375,103.712,15.91,104.362,15.445z"/>
	<path fill="#20202A" d="M82.512,2.614c1.302,0,2.51,0,3.719,0c0.093,0.093,0.093,0.093,0.093,0.093s0.093,0,0.093,0.093
		c0,0.186,0.093,0.279,0.093,0.465c0,5.672,0,11.344,0,17.015c0,0.093,0,0.279,0,0.372s-0.093,0.093-0.093,0.186
		c-1.209,0-2.51,0-3.719,0C82.326,20.094,82.233,3.637,82.512,2.614z"/>
	<g>
		<path fill="#20202A" d="M45.143,31.935c0.268,0.464,0.616,0.81,1.044,1.037c0.428,0.227,0.915,0.34,1.462,0.34
			c0.34,0,0.66-0.051,0.959-0.154c0.299-0.103,0.559-0.248,0.781-0.433c0.222-0.186,0.397-0.41,0.526-0.673
			c0.129-0.263,0.193-0.559,0.193-0.89c0-0.381-0.08-0.696-0.24-0.943c-0.16-0.248-0.374-0.451-0.642-0.611s-0.57-0.297-0.905-0.41
			c-0.336-0.114-0.681-0.226-1.037-0.34c-0.355-0.113-0.701-0.242-1.036-0.387c-0.335-0.143-0.637-0.332-0.905-0.564
			c-0.268-0.232-0.482-0.524-0.642-0.874c-0.16-0.35-0.24-0.784-0.24-1.299c0-0.485,0.095-0.915,0.286-1.292
			c0.191-0.377,0.449-0.691,0.774-0.943c0.325-0.253,0.698-0.444,1.121-0.573c0.423-0.129,0.867-0.193,1.331-0.193
			c0.598,0,1.153,0.106,1.663,0.318c0.511,0.211,0.952,0.564,1.323,1.06l-0.882,0.634c-0.258-0.36-0.559-0.631-0.905-0.812
			c-0.346-0.181-0.756-0.271-1.23-0.271c-0.331,0-0.645,0.044-0.944,0.131c-0.299,0.088-0.56,0.217-0.781,0.387
			c-0.222,0.171-0.4,0.385-0.533,0.642c-0.134,0.258-0.201,0.563-0.201,0.913c0,0.547,0.139,0.967,0.418,1.26
			c0.278,0.294,0.627,0.527,1.044,0.696s0.871,0.32,1.361,0.449c0.49,0.129,0.944,0.301,1.362,0.518
			c0.418,0.216,0.766,0.518,1.044,0.905c0.279,0.387,0.418,0.92,0.418,1.601c0,0.495-0.093,0.933-0.278,1.315
			c-0.186,0.382-0.436,0.705-0.75,0.967c-0.315,0.263-0.678,0.462-1.091,0.596c-0.413,0.134-0.841,0.202-1.284,0.202
			c-0.722,0-1.387-0.127-1.996-0.38c-0.609-0.252-1.13-0.678-1.563-1.276L45.143,31.935z"/>
		<path fill="#20202A" d="M53.634,23.008h1.021v4.827h0.093l5.306-4.827h1.408l-5.538,5.012l5.848,5.941h-1.47l-5.554-5.662h-0.093
			v5.662h-1.021C53.634,33.961,53.634,23.008,53.634,23.008z"/>
		<path fill="#20202A" d="M66.654,29.242l-4.022-6.234h1.222l3.311,5.198l3.388-5.198h1.145l-4.022,6.234v4.719h-1.021
			C66.654,33.961,66.654,29.242,66.654,29.242z"/>
		<path fill="#20202A" d="M73.551,23.008h6.56v0.928h-5.539v3.899h5.152v0.928h-5.152v5.198h-1.021
			C73.551,33.961,73.551,23.008,73.551,23.008z"/>
		<path fill="#20202A" d="M85.075,23.008h1.052l4.61,10.953h-1.145l-1.191-2.908H82.6l-1.238,2.908h-1.068L85.075,23.008z
			 M85.555,24.122l-2.552,6.003h5.028L85.555,24.122z"/>
		<path fill="#20202A" d="M92.668,23.008h1.021v10.025h5.106v0.928h-6.127V23.008z"/>
		<path fill="#20202A" d="M100.747,23.008h1.021v10.025h5.106v0.928h-6.127V23.008z"/>
		<path fill="#20202A" d="M108.712,27.463c0-0.206,0.072-0.381,0.217-0.526c0.144-0.144,0.32-0.217,0.526-0.217
			c0.206,0,0.381,0.073,0.526,0.217c0.144,0.144,0.217,0.32,0.217,0.526s-0.073,0.381-0.217,0.526
			c-0.145,0.144-0.32,0.217-0.526,0.217c-0.207,0-0.382-0.073-0.526-0.217C108.784,27.845,108.712,27.67,108.712,27.463z
			 M108.712,33.311c0-0.206,0.072-0.381,0.217-0.526c0.144-0.144,0.32-0.216,0.526-0.216c0.206,0,0.381,0.072,0.526,0.216
			c0.144,0.144,0.217,0.32,0.217,0.526c0,0.207-0.073,0.382-0.217,0.527c-0.145,0.144-0.32,0.216-0.526,0.216
			c-0.207,0-0.382-0.072-0.526-0.216C108.784,33.693,108.712,33.518,108.712,33.311z"/>
		<path fill="#20202A" d="M118.056,31.935c0.269,0.464,0.616,0.81,1.044,1.037s0.915,0.34,1.462,0.34
			c0.34,0,0.659-0.051,0.959-0.154c0.3-0.103,0.559-0.248,0.781-0.433c0.223-0.186,0.398-0.41,0.527-0.673
			c0.129-0.263,0.194-0.559,0.194-0.89c0-0.381-0.08-0.696-0.24-0.943c-0.162-0.248-0.374-0.451-0.643-0.611
			c-0.269-0.16-0.57-0.297-0.904-0.41c-0.336-0.114-0.681-0.226-1.037-0.34c-0.356-0.113-0.701-0.242-1.037-0.387
			c-0.336-0.143-0.637-0.332-0.904-0.564c-0.269-0.232-0.483-0.524-0.643-0.874c-0.16-0.35-0.239-0.784-0.239-1.299
			c0-0.485,0.095-0.915,0.286-1.292c0.191-0.377,0.449-0.691,0.774-0.943c0.325-0.253,0.697-0.444,1.12-0.573
			c0.423-0.129,0.866-0.193,1.331-0.193c0.597,0,1.153,0.106,1.663,0.318c0.51,0.211,0.952,0.564,1.322,1.06l-0.881,0.634
			c-0.258-0.36-0.561-0.631-0.906-0.812c-0.345-0.181-0.755-0.271-1.229-0.271c-0.331,0-0.645,0.044-0.944,0.131
			c-0.3,0.088-0.559,0.217-0.781,0.387c-0.222,0.171-0.4,0.385-0.534,0.642c-0.134,0.258-0.202,0.563-0.202,0.913
			c0,0.547,0.14,0.967,0.418,1.26c0.28,0.294,0.627,0.527,1.044,0.696c0.418,0.17,0.872,0.32,1.362,0.449
			c0.49,0.129,0.944,0.301,1.362,0.518c0.418,0.216,0.765,0.518,1.044,0.905c0.278,0.387,0.418,0.92,0.418,1.601
			c0,0.495-0.093,0.933-0.278,1.315c-0.187,0.382-0.436,0.705-0.752,0.967c-0.314,0.263-0.677,0.462-1.09,0.596
			c-0.412,0.134-0.841,0.202-1.284,0.202c-0.723,0-1.387-0.127-1.996-0.38c-0.609-0.252-1.13-0.678-1.563-1.276L118.056,31.935z"/>
		<path fill="#20202A" d="M126.576,23.008h1.021v10.953h-1.021V23.008z"/>
		<path fill="#20202A" d="M133.324,23.936h-3.745v-0.928h8.509v0.928h-3.744v10.025h-1.021V23.936z"/>
		<path fill="#20202A" d="M140.079,23.008h6.698v0.928H141.1v3.899h5.322v0.928H141.1v4.27h5.926v0.928h-6.946V23.008z"/>
		<path fill="#20202A" d="M153.941,23.008h1.532l3.992,9.19l3.992-9.19h1.455v10.953h-1.021v-9.654h-0.031l-4.177,9.654h-0.449
			l-4.239-9.654h-0.031v9.654h-1.021V23.008z"/>
		<path fill="#20202A" d="M171.567,23.008h1.052l4.61,10.953h-1.145l-1.191-2.908h-5.801l-1.238,2.908h-1.068L171.567,23.008z
			 M172.047,24.122l-2.552,6.003h5.028L172.047,24.122z"/>
		<path fill="#20202A" d="M179.16,23.008h1.315l6.667,9.592h0.031v-9.592h1.021v10.953h-1.315l-6.668-9.592h-0.031v9.592h-1.021
			V23.008z"/>
		<path fill="#20202A" d="M194.914,23.008h1.052l4.61,10.953h-1.145l-1.191-2.908h-5.801l-1.238,2.908h-1.068L194.914,23.008z
			 M195.393,24.122l-2.552,6.003h5.028L195.393,24.122z"/>
		<path fill="#20202A" d="M211.096,33.249c-0.639,0.361-1.302,0.617-1.988,0.766c-0.686,0.149-1.385,0.224-2.097,0.224
			c-0.835,0-1.602-0.143-2.297-0.426c-0.696-0.283-1.292-0.681-1.787-1.191c-0.495-0.51-0.882-1.119-1.16-1.825
			c-0.279-0.706-0.418-1.477-0.418-2.314c0-0.835,0.139-1.604,0.418-2.305c0.279-0.702,0.666-1.308,1.16-1.818
			c0.495-0.51,1.091-0.911,1.787-1.199c0.696-0.289,1.462-0.433,2.297-0.433c1.63,0,2.945,0.506,3.945,1.516l-0.743,0.774
			c-0.165-0.196-0.369-0.38-0.611-0.549c-0.242-0.17-0.506-0.314-0.789-0.433c-0.284-0.118-0.58-0.212-0.89-0.279
			c-0.31-0.066-0.614-0.1-0.913-0.1c-0.712,0-1.354,0.123-1.926,0.37c-0.573,0.248-1.06,0.588-1.462,1.022
			c-0.402,0.433-0.712,0.943-0.929,1.532c-0.216,0.587-0.325,1.222-0.325,1.902c0,0.681,0.109,1.316,0.325,1.903
			c0.217,0.588,0.527,1.099,0.929,1.532c0.402,0.433,0.889,0.774,1.462,1.021c0.572,0.248,1.214,0.371,1.926,0.371
			c0.587,0,1.14-0.046,1.655-0.139s0.985-0.263,1.407-0.51V28.98h-2.63v-0.929h3.651V33.249z"/>
		<path fill="#20202A" d="M214.257,23.008h6.698v0.928h-5.678v3.899h5.322v0.928h-5.322v4.27h5.926v0.928h-6.946V23.008z"/>
		<path fill="#20202A" d="M223.456,23.008h2.877c0.144,0,0.34,0.005,0.587,0.015c0.248,0.01,0.516,0.042,0.805,0.093
			c0.289,0.052,0.583,0.134,0.882,0.248c0.3,0.114,0.568,0.279,0.804,0.495c0.238,0.217,0.433,0.49,0.588,0.82
			c0.154,0.331,0.232,0.733,0.232,1.207c0,0.526-0.09,0.959-0.271,1.299s-0.408,0.617-0.68,0.828
			c-0.274,0.212-0.576,0.369-0.905,0.471c-0.331,0.104-0.645,0.176-0.943,0.217l3.186,5.26h-1.16l-3.079-5.198h-1.903v5.198h-1.021
			V23.008z M224.477,27.835h2.166c0.536,0,0.972-0.067,1.307-0.202c0.335-0.133,0.596-0.299,0.782-0.495
			c0.185-0.195,0.311-0.407,0.379-0.634c0.067-0.227,0.101-0.433,0.101-0.619c0-0.185-0.034-0.391-0.101-0.618
			c-0.067-0.227-0.193-0.439-0.379-0.635c-0.186-0.196-0.447-0.361-0.782-0.495c-0.335-0.134-0.771-0.202-1.307-0.202h-2.166V27.835
			z"/>
	</g>
</g>
</svg>
