<?xml version="1.0" encoding="utf-8"?>
<!-- Generator: Adobe Illustrator 25.2.1, SVG Export Plug-In . SVG Version: 6.00 Build 0)  -->
<svg version="1.1" id="Layer_1" xmlns="http://www.w3.org/2000/svg" xmlns:xlink="http://www.w3.org/1999/xlink" x="0px" y="0px"
	 viewBox="0 0 38.8 36.6" enable-background="new 0 0 38.8 36.6" xml:space="preserve">
<path fill="#20202A" d="M21.6,2.4c0.3-0.1,0.6-0.2,0.9-0.3c0.9-0.2,1.8-0.2,2.6,0C26,2.4,26.7,2.9,26.8,4c0,0.5,0.3,0.7,0.8,0.7
	c1.4,0,1.8,0.3,2.3,1.7c0,0.1,0.1,0.2,0.2,0.3c1.7-0.2,3.3-0.3,4.1,1.6c1.9,0.4,2.4,1,2.1,2.4c0.3,0.3,0.7,0.6,0.9,1
	s0.1,0.8,0.1,1.3c0.2,0.1,0.4,0.2,0.7,0.4c0.9,0.6,1,1.4,0.3,2.2c-0.5,0.5-1.1,0.7-1.7,0.7c-0.8,1.1-1.8,1.5-3,0.8
	c-0.8-0.5-1.6-0.3-2.2,0.2c-1.5,1.2-3.2,1.7-4.8,2.6c-1.6,0.9-3.1,2-4.4,3.4c-1.1,1.3-1.5,2.8-1.4,4.5c0,0.2,0.1,0.5,0.2,0.8
	c0.3-0.2,0.4-0.4,0.6-0.5c0.3-0.4,0.6-0.8,0.9-1.3c0.7-1.3,1.6-2.4,3.3-2.7c-0.1-0.2-0.1-0.4-0.1-0.5c-0.2-0.6,0-1.1,0.6-1.3
	c0.3-0.1,0.6-0.3,0.8-0.4c0.4-0.3,0.7-0.4,1.2-0.3c0.3,0.1,0.6-0.1,0.9-0.2c0.4-0.2,0.8-0.2,1,0.3c0.1,0.3,0.4,0.5,0.7,0.6
	c0.5,0.1,0.8,0.4,0.8,1c0,0.2,0.1,0.3,0.2,0.5s0.4,0.4,0.4,0.6c0.2,0.6,0,1.1-0.7,1.2c-0.2,0-0.3,0-0.5,0.1c-0.5,1.4-1,1.3-2.1,0.4
	c-0.2,0.1-0.4,0.2-0.6,0.3c-0.4,0.2-0.8,0.2-1.1-0.2c-0.4-0.6-1.3-0.4-1.8-0.9c-0.1-0.1-0.4,0.1-0.6,0.2s-0.4,0.3-0.5,0.5
	c-1.1,1.5-2.1,3-2.7,4.8c-0.6,1.8,0,3.2,1.6,4.1c0.3,0.1,0.5,0.3,0.8,0.6c-1,0.3-2.1-0.1-3,0.8c-1-1.1-2.1-0.5-3.1-0.2
	c-0.4,0.1-0.7,0.3-1.1,0.5c0-0.3,0-0.5,0-0.8c-0.4,0-0.8-0.1-1.3-0.1c0.2-0.2,0.4-0.3,0.5-0.4c0.5-0.4,1-0.7,1.5-1.1
	c0.5-0.4,0.7-1,0.7-1.6s0.2-1.3,0.4-1.9c0.1-0.7,0.3-1.3,0.3-2c0.1-0.9-0.4-1.6-1.1-1.9c-1.6-0.6-2.5-1.8-3.4-3.1
	c-0.3-0.5-0.8-1-1.3-1.3c-0.9-0.6-1.5-1.3-1.6-2.5c0-0.1-0.1-0.2-0.1-0.3c-1-0.3-1.9-0.6-3-1c-0.5,0.6-1.4,0.9-2.2,0.6
	S4.8,18.7,3.9,19c-0.6,0.2-1.2-0.4-1.6-0.9C2,17.3,1.9,17,1.8,16.6S1.5,16,1.1,15.8c-1.3-0.7-1.5-2.4-0.4-3.5
	c0.5-0.5,1.2-0.9,1.9-0.9c0.5,0,0.7-0.2,0.9-0.6c0.5-1.3,1-1.6,2.4-1.5C6,6.6,7,5.7,9.4,6c0.1-0.3,0.3-0.7,0.4-1.1
	C10,4,10.7,3.5,11.6,3.6c0.7,0,1.4,0.1,2.1,0.2c0.6-0.7,1.1-2,2.5-1.4c0.2-0.3,0.3-0.5,0.5-0.8s0.5-0.7,0.8-1c1-0.9,2.1-0.8,2.9,0.1
	C20.8,1.2,21.1,1.8,21.6,2.4z M16.6,16.8c-0.1,0.3-0.2,0.5-0.4,0.7c-0.3,0.5-0.8,0.8-1.3,0.7c-0.7-0.2-1.1,0.2-1.7,0.4
	c-0.4,0.1-0.6,0.5-0.5,0.9c0.1,0.9,0.5,1.7,1.4,2c1,0.4,1.8,1,2.3,2c0.5,1,1.7,1.2,2.6,0.5c0.7-0.5,1.4-1.1,2-1.7
	c0.5-0.4,0.5-0.7,0.1-1.2c-0.3-0.3-0.6-0.5-0.9-0.8c-0.7-0.5-1.3-1.2-1.6-2.1c-0.1-0.3-0.3-0.6-0.5-0.7
	C17.7,17.3,17.2,17.1,16.6,16.8z M22.6,20c0.3,0,0.4,0.1,0.5,0c2.3-0.7,4.4-1.7,6.3-3.3c0.1-0.1,0.1-0.2,0.1-0.3
	c-0.6,0.6-1.2,0.6-1.9,0.3c-0.2-0.1-0.5,0.1-0.8,0.2c-0.6,0.4-0.9,0.4-1.5-0.1c-0.2-0.1-0.3-0.2-0.5-0.4c-0.3,0.3-0.6,0.6-0.8,1
	c-0.3,0.5-0.5,1-0.7,1.5C23.1,19.3,22.9,19.6,22.6,20z M20,16.6c-0.3,0.4-0.9,0.6-0.6,1.1c0.4,0.8,1,1.5,1.6,2.2
	c0.2,0.2,0.5,0.2,0.7-0.1c0.6-0.8,1.2-1.7,1.5-2.8c-0.4-0.2-0.7-0.4-1.1-0.6C21.1,17.4,21.1,17.4,20,16.6z"/>
</svg>
