<?xml version="1.0" encoding="utf-8"?>
<!-- Generator: Adobe Illustrator 25.4.0, SVG Export Plug-In . SVG Version: 6.00 Build 0)  -->
<svg version="1.1" id="Layer_1" xmlns="http://www.w3.org/2000/svg" xmlns:xlink="http://www.w3.org/1999/xlink" x="0px" y="0px"
	 viewBox="0 0 35.5734673 50.8371696" enable-background="new 0 0 35.5734673 50.8371696" xml:space="preserve">
<rect x="0.0017336" y="-0.001415" opacity="0.01" fill="#797979" enable-background="new    " width="35.5699997" height="50.8400002"/>
<rect x="0.0017336" y="-0.001415" opacity="0.01" fill="#797979" enable-background="new    " width="35.5699997" height="50.8400002"/>
<g>
	<g>
		<polyline fill="#F9F9F9" points="29.5007954,2.6165497 29.5007954,9.1612453 1.0726712,9.1612453 1.0726712,2.6165497 		"/>
		
			<rect x="1.0749836" y="2.6165497" fill="none" stroke="#F9F9F9" stroke-width="2" stroke-miterlimit="10" width="28.4235001" height="36.0877991"/>
		<line fill="#20202A" x1="1.0726712" y1="2.6165497" x2="29.5007954" y2="2.6165497"/>
		
			<line fill="none" stroke="#F9F9F9" stroke-width="2" stroke-miterlimit="10" x1="1.0749836" y1="9.1612453" x2="29.4984837" y2="9.1612453"/>
		
			<line fill="none" stroke="#F9F9F9" stroke-width="2" stroke-miterlimit="10" x1="1.0749836" y1="17.0516701" x2="29.4984837" y2="17.0516701"/>
		
			<line fill="none" stroke="#F9F9F9" stroke-width="2" stroke-miterlimit="10" x1="1.0749836" y1="9.8341093" x2="29.4984837" y2="9.8341093"/>
		
			<line fill="none" stroke="#F9F9F9" stroke-width="2" stroke-miterlimit="10" x1="1.0749836" y1="2.6165497" x2="29.4984837" y2="2.6165497"/>
		
			<line fill="none" stroke="#F9F9F9" stroke-width="2" stroke-miterlimit="10" x1="1.0749836" y1="24.2692299" x2="29.4984837" y2="24.2692299"/>
		
			<line fill="none" stroke="#F9F9F9" stroke-width="2" stroke-miterlimit="10" x1="1.0749836" y1="31.4867897" x2="29.4984837" y2="31.4867897"/>
		
			<line fill="none" stroke="#F9F9F9" stroke-width="2" stroke-miterlimit="10" x1="1.0749836" y1="38.7043495" x2="29.4984837" y2="38.7043495"/>
		
			<line fill="none" stroke="#F9F9F9" stroke-width="2" stroke-miterlimit="10" x1="10.5494833" y1="38.9834175" x2="10.5494833" y2="2.8956189"/>
		
			<line fill="none" stroke="#F9F9F9" stroke-width="2" stroke-miterlimit="10" x1="1.0749836" y1="38.9834175" x2="1.0749836" y2="2.8956189"/>
		
			<line fill="none" stroke="#F9F9F9" stroke-width="2" stroke-miterlimit="10" x1="20.023983" y1="38.9834175" x2="20.023983" y2="2.8956189"/>
		
			<line fill="none" stroke="#F9F9F9" stroke-width="2" stroke-miterlimit="10" x1="29.4984837" y1="38.9834175" x2="29.4984837" y2="2.8956189"/>
		<path fill="#20202A" d="M3.9515514,4.6165495c-0.4843829,0-0.8788803,0.3944974-0.8788803,0.8795047
			c0,0.4843826,0.3944974,0.87888,0.8788803,0.87888s0.8788805-0.3944974,0.8788805-0.87888
			C4.8304319,5.0110469,4.4359345,4.6165495,3.9515514,4.6165495z"/>
	</g>
	<g>
		
			<rect x="15.0784607" y="28.7982845" fill="#75D17E" stroke="#75D17E" stroke-width="2.3" stroke-miterlimit="10" width="19.4223347" height="19.4223347"/>
		<g>
			<polyline fill="none" stroke="#F9F9F9" stroke-width="2.3" stroke-miterlimit="10" points="20.5616589,38.2539711 
				24.7896099,42.4819221 29.0175972,38.2539711 			"/>
			
				<line fill="none" stroke="#F9F9F9" stroke-width="2.3" stroke-miterlimit="10" x1="24.789629" y1="33.9935684" x2="24.789629" y2="42.4494705"/>
		</g>
	</g>
</g>
</svg>
