<?xml version="1.0" encoding="utf-8"?>
<!-- Generator: Adobe Illustrator 25.4.0, SVG Export Plug-In . SVG Version: 6.00 Build 0)  -->
<svg version="1.1" id="Layer_1" xmlns="http://www.w3.org/2000/svg" xmlns:xlink="http://www.w3.org/1999/xlink" x="0px" y="0px"
	 viewBox="0 0 35.5734673 50.8371696" enable-background="new 0 0 35.5734673 50.8371696" xml:space="preserve">
<rect x="0.0017336" y="-0.001415" opacity="0.01" fill="#797979" width="35.5699997" height="50.8400002"/>
<g>
	<g>
		<rect x="7.0219312" y="3.1765423" fill="#F9F9F9" width="16.529604" height="4.991158"/>
		
			<rect x="1.075" y="5.6404667" fill="none" stroke="#F9F9F9" stroke-width="2" stroke-miterlimit="10" width="28.4234676" height="34.8095016"/>
		<g>
			<g>
				
					<line fill="none" stroke="#F9F9F9" stroke-width="2" stroke-miterlimit="10" x1="7.9695086" y1="15.2528391" x2="22.6039581" y2="15.2528391"/>
			</g>
			<g>
				
					<line fill="none" stroke="#F9F9F9" stroke-width="2" stroke-miterlimit="10" x1="7.9695086" y1="20.2866116" x2="22.6039581" y2="20.2866116"/>
			</g>
			<g>
				
					<line fill="none" stroke="#F9F9F9" stroke-width="2" stroke-miterlimit="10" x1="7.9695086" y1="25.320385" x2="22.6039581" y2="25.320385"/>
			</g>
		</g>
		<g>
			<circle fill="#F9F9F9" cx="15.2867336" cy="3.1800635" r="2.0294218"/>
			<path fill="#F9F9F9" d="M15.2868376,6.3600221c-1.7533913,0-3.1796989-1.4263077-3.1796989-3.1796989
				C12.1071386,1.4263078,13.5334463,0,15.2868376,0s3.1796999,1.4263078,3.1796999,3.1803231
				C18.4665375,4.9337144,17.0402298,6.3600221,15.2868376,6.3600221z M15.2868376,2.3008187
				c-0.4843826,0-0.8788795,0.3944974-0.8788795,0.8795044c0,0.4843829,0.3944969,0.87888,0.8788795,0.87888
				c0.4843836,0,0.8788805-0.3944972,0.8788805-0.87888C16.1657181,2.6953161,15.7712212,2.3008187,15.2868376,2.3008187z"/>
		</g>
	</g>
	<g>
		<g>
			
				<rect x="15.0761318" y="30.2648354" fill="#75D17E" stroke="#75D17E" stroke-width="2.3" stroke-miterlimit="10" width="19.4223347" height="19.4223347"/>
		</g>
		<g>
			
				<line fill="none" stroke="#F9F9F9" stroke-width="2.3" stroke-miterlimit="10" x1="24.7873001" y1="45.9552536" x2="24.7873001" y2="33.9967499"/>
			
				<line fill="none" stroke="#F9F9F9" stroke-width="2.3" stroke-miterlimit="10" x1="18.8080482" y1="39.9760017" x2="30.766552" y2="39.9760017"/>
		</g>
	</g>
</g>
<rect x="0.0017336" y="-0.001415" opacity="0.01" fill="#797979" width="35.5699997" height="50.8400002"/>
</svg>
