<?xml version="1.0" encoding="utf-8"?>
<!-- Generator: Adobe Illustrator 25.2.1, SVG Export Plug-In . SVG Version: 6.00 Build 0)  -->
<svg version="1.1" id="Layer_1" xmlns="http://www.w3.org/2000/svg" xmlns:xlink="http://www.w3.org/1999/xlink" x="0px" y="0px"
	 viewBox="0 0 87.75 70" enable-background="new 0 0 87.75 70" xml:space="preserve">
<g>
	<g id="wToggleAddShadowDark" style="filter: drop-shadow(0 0.1rem .2rem rgba(0, 0, 0, 0.7));">
		<circle fill="#20202A" cx="52.749" cy="35" r="24"/>
		<path fill="#20202A" d="M52.749,12c12.682,0,23,10.318,23,23s-10.318,23-23,23s-23-10.318-23-23S40.067,12,52.749,12 M52.749,10
			c-13.807,0-25,11.193-25,25s11.193,25,25,25s25-11.193,25-25S66.556,10,52.749,10L52.749,10z"/>
	</g>
	<g>
		<g>
			<polygon fill="#F2A60F" points="52.415,38.475 49.199,39.223 45.248,45.222 48.188,44.937 44.461,50.657 52.638,43.222 
				49.581,43.359 			"/>
		</g>
		<g>
			<circle fill="#F2A60F" cx="56.536" cy="27.088" r="5.744"/>
		</g>
		<g>
			<path fill="#20202A" d="M41.821,40.33L41.6,40.212c-1.675-0.894-2.716-2.623-2.716-4.514c0-2.297,1.506-4.261,3.63-4.901
				c0.067-3.393,2.848-6.132,6.256-6.132c1.801,0,3.481,0.766,4.659,2.086c0.757-0.383,1.589-0.582,2.45-0.582
				c2.518,0,4.665,1.721,5.285,4.074c0.053-0.002,0.105-0.003,0.158-0.003c2.917,0,5.291,2.373,5.291,5.29
				c0,1.975-1.092,3.771-2.849,4.687l-0.217,0.113H41.821z"/>
			<path fill="#F9F9F9" d="M48.77,25.665c1.854,0,3.48,0.962,4.416,2.412c0.75-0.567,1.681-0.908,2.693-0.908
				c2.374,0,4.311,1.852,4.458,4.19c0.317-0.075,0.646-0.119,0.986-0.119c2.369,0,4.29,1.921,4.29,4.29
				c0,1.654-0.939,3.085-2.31,3.8H42.071c-1.299-0.693-2.187-2.056-2.187-3.632c0-2.126,1.611-3.876,3.678-4.097
				c-0.029-0.223-0.049-0.448-0.049-0.679C43.513,28.018,45.867,25.665,48.77,25.665 M48.77,23.665c-3.717,0-6.791,2.81-7.209,6.417
				c-2.184,0.946-3.678,3.116-3.678,5.616c0,2.26,1.243,4.328,3.245,5.396l0.441,0.236h0.5h21.232h0.49l0.435-0.227
				c2.088-1.089,3.386-3.224,3.386-5.574c0-3.276-2.517-5.975-5.719-6.264c-0.952-2.407-3.302-4.097-6.016-4.097
				c-0.768,0-1.515,0.133-2.22,0.392C52.339,24.352,50.608,23.665,48.77,23.665L48.77,23.665z"/>
		</g>
	</g>
</g>
<g id="wToggleAddShadowDarkArrow" style="filter: drop-shadow(0 0.1rem .2rem rgba(0, 0, 0, 0.7));">
	<polygon fill="#20202A" points="24.556,27.807 24.556,42.193 12.117,35 	"/>
	<path fill="#20202A" d="M23.456,40.331L14.147,35l9.308-5.331v10.662 M25.572,44.055v-18.11L10.001,35L25.572,44.055L25.572,44.055
		z"/>
</g>
<rect opacity="0.01" fill="#F9F9F9" width="87.75" height="70"/>
</svg>
