<?xml version="1.0" encoding="utf-8"?>
<!-- Generator: Adobe Illustrator 25.1.0, SVG Export Plug-In . SVG Version: 6.00 Build 0)  -->
<svg version="1.1" id="Layer_1" xmlns="http://www.w3.org/2000/svg" xmlns:xlink="http://www.w3.org/1999/xlink" x="0px" y="0px"
	 viewBox="0 0 50 50" enable-background="new 0 0 50 50" xml:space="preserve">
<rect opacity="0.01" fill="#2D2D2D" enable-background="new    " width="50" height="50"/>
<rect opacity="0.01" fill="#2D2D2D" enable-background="new    " width="50" height="50"/>
<circle fill="#E5A505" cx="25" cy="26" r="13.377"/>
<g>
	<path fill="#E5A505" d="M15.973,13.136l-6.944-3.47l3.176,7.215C13.241,15.43,14.514,14.162,15.973,13.136z"/>
	<path fill="#E5A505" d="M9.275,26c0-0.786,0.077-1.552,0.188-2.307l-7.307,2.435l7.414,2.883C9.381,28.036,9.275,27.031,9.275,26z"
		/>
	<path fill="#E5A505" d="M12.382,35.355l-3.444,6.888l7.276-3.2C14.733,38.043,13.445,36.787,12.382,35.355z"/>
	<path fill="#E5A505" d="M25,41.725c-0.888,0-1.752-0.091-2.6-0.233l2.857,7.352l2.458-7.369C26.831,41.629,25.928,41.725,25,41.725
		z"/>
	<path fill="#E5A505" d="M37.863,35.027c-1.026,1.46-2.295,2.733-3.747,3.769l7.221,3.174L37.863,35.027z"/>
	<path fill="#E5A505" d="M47.844,26.129l-7.307-2.436c0.111,0.755,0.188,1.521,0.188,2.307c0,1.031-0.106,2.037-0.296,3.012
		L47.844,26.129z"/>
	<path fill="#E5A505" d="M34.356,13.383c1.432,1.064,2.687,2.351,3.686,3.831l3.198-7.278L34.356,13.383z"/>
	<path fill="#E5A505" d="M25,10.275c0.927,0,1.831,0.096,2.714,0.25l-2.457-7.369L22.4,10.508
		C23.248,10.366,24.112,10.275,25,10.275z"/>
</g>
</svg>
