<?xml version="1.0" encoding="utf-8"?>
<!-- Generator: Adobe Illustrator 25.2.0, SVG Export Plug-In . SVG Version: 6.00 Build 0)  -->
<svg version="1.0" id="Layer_1" xmlns="http://www.w3.org/2000/svg" xmlns:xlink="http://www.w3.org/1999/xlink" x="0px" y="0px"
	 viewBox="0 0 67.748 50" enable-background="new 0 0 67.748 50" xml:space="preserve">
<g>
	<g>
		<circle fill="#20202A" cx="42.748" cy="25" r="24"/>
		<path fill="#F9F9F9" d="M42.748,2c12.682,0,23,10.318,23,23s-10.318,23-23,23s-23-10.318-23-23S30.066,2,42.748,2 M42.748,0
			c-13.807,0-25,11.193-25,25c0,13.807,11.193,25,25,25s25-11.193,25-25C67.748,11.193,56.555,0,42.748,0L42.748,0z"/>
	</g>
	<g>
		<g>
			<polygon fill="#F2A60F" points="42.414,28.475 39.198,29.223 35.247,35.222 38.187,34.937 34.46,40.657 42.637,33.222 
				39.58,33.359 			"/>
		</g>
		<g>
			<circle fill="#F2A60F" cx="46.535" cy="17.088" r="5.744"/>
		</g>
		<g>
			<path fill="#20202A" d="M31.82,30.33l-0.221-0.118c-1.675-0.894-2.716-2.623-2.716-4.514c0-2.297,1.506-4.261,3.63-4.901
				c0.067-3.393,2.848-6.132,6.256-6.132c1.801,0,3.481,0.766,4.659,2.086c0.757-0.383,1.589-0.582,2.45-0.582
				c2.518,0,4.665,1.721,5.285,4.074c0.053-0.002,0.105-0.003,0.158-0.003c2.917,0,5.291,2.373,5.291,5.29
				c0,1.975-1.092,3.771-2.849,4.687l-0.217,0.113H31.82z"/>
			<path fill="#F9F9F9" d="M38.769,15.665c1.854,0,3.48,0.962,4.416,2.412c0.75-0.567,1.681-0.908,2.693-0.908
				c2.374,0,4.311,1.852,4.458,4.19c0.317-0.075,0.646-0.119,0.986-0.119c2.369,0,4.29,1.921,4.29,4.29
				c0,1.654-0.939,3.085-2.31,3.8H32.07c-1.299-0.693-2.187-2.056-2.187-3.632c0-2.126,1.611-3.876,3.678-4.097
				c-0.029-0.223-0.049-0.448-0.049-0.679C33.512,18.018,35.866,15.665,38.769,15.665 M38.769,13.665
				c-3.717,0-6.791,2.81-7.209,6.417c-2.184,0.946-3.678,3.116-3.678,5.616c0,2.26,1.243,4.328,3.245,5.396l0.441,0.236h0.5h21.232
				h0.49l0.435-0.227c2.088-1.089,3.386-3.224,3.386-5.574c0-3.276-2.517-5.975-5.719-6.264c-0.952-2.407-3.302-4.097-6.016-4.097
				c-0.768,0-1.515,0.133-2.22,0.392C42.338,14.352,40.607,13.665,38.769,13.665L38.769,13.665z"/>
		</g>
	</g>
</g>
<g>
	<polygon fill="#20202A" points="14.555,17.807 14.555,32.193 2.116,25 	"/>
	<path fill="#F9F9F9" d="M13.455,30.331L4.146,25l9.308-5.331V30.331 M15.571,34.055V15.945L0,25L15.571,34.055L15.571,34.055z"/>
</g>
</svg>
