<?xml version="1.0" encoding="utf-8"?>
<!-- Generator: Adobe Illustrator 24.3.0, SVG Export Plug-In . SVG Version: 6.00 Build 0)  -->
<svg version="1.1" id="Layer_1" xmlns="http://www.w3.org/2000/svg" xmlns:xlink="http://www.w3.org/1999/xlink" x="0px" y="0px"
	 viewBox="0 0 31 42" enable-background="new 0 0 31 42" xml:space="preserve">
<g id="Artwork_7_1_">
	<g>
		<defs>
			<rect id="SVGID_1_" x="0.9087982" y="1" width="29.1824036" height="40"/>
		</defs>
		<clipPath id="SVGID_2_">
			<use xlink:href="#SVGID_1_"  overflow="visible"/>
		</clipPath>
		<g clip-path="url(#SVGID_2_)">
			<defs>
				<rect id="SVGID_3_" x="0.9087982" y="1" width="29.1819992" height="40"/>
			</defs>
			<clipPath id="SVGID_4_">
				<use xlink:href="#SVGID_3_"  overflow="visible"/>
			</clipPath>
			<path clip-path="url(#SVGID_4_)" d="M28.4857979,8.4914017c-1.4720001-2.6749992-3.4790001-4.6819992-6.2880001-6.0199966
				c-2.2740002-1.0700035-4.5480003-1.4710007-7.0900002-1.4710007c-2.408,0.1339989-4.5480003,0.5349998-6.5550003,1.6049995
				c-3.8789997,2.007-6.2880001,5.0839996-7.223999,9.230999c-0.5349998,2.2740002-0.5349998,4.5480003-0.1340008,6.8219986
				c0.401001,2.007,1.2040005,3.8800011,2.2740002,5.6190014c1.0710011,1.4719982,2.1410007,3.0769997,3.2110004,4.5489979
				c2.2740002,2.9420013,4.5489998,5.7519989,6.5549994,8.6949997c0.8030005,1.0709991,1.4720001,2.2750015,2.2740002,3.4790001
				c0.1339998-0.1339989,0.1339998-0.2679977,0.2680006-0.4020004c0.9370003-1.4709969,1.8729992-2.942997,2.9429989-4.4149971
				c1.8729992-2.5419998,3.8789997-5.2160015,5.7520008-7.7580013c1.2039986-1.6060009,2.4089985-3.2110004,3.4789982-4.9510002
				c1.3380013-2.4069996,2.1400013-4.9489994,2.1400013-7.625C30.0907974,13.3074017,29.6897964,10.7654018,28.4857979,8.4914017"/>
		</g>
	</g>
</g>
<g>
	<path fill="#FFFFFF" d="M12.6000004,13.8000002c0.1000004,0.1000004,0,0.1000004,0.1999998,0.1999998
		c0.1000004,0.3000002,0.3999996,0.3999996,0.5,0.5c0.3000002,0.3000002,0.3999996,0.6999998,0.1000004,0.8999996
		c-0.3000002,0.3000002-0.6999998,0.3000002-1-0.1000004c-0.3000002-0.3000002-0.6999998-0.6000004-1-0.8999996
		c-0.3000002-0.3000002-0.3999996-0.3000002-0.6999998-0.1999998c-0.6999998,0.3999996-1.1999998,0.3000002-1.8000002-0.5
		c-0.5-0.3999996-0.5-0.8000002,0-1.3000002C11.4000006,9.7999992,14.5,8.5,18.2000008,8.1999998
		c1-0.1000004,1.3999996,0.1000004,1.3999996,1c0.1000004,1.1999998-0.1000004,1.6000004-1.2999992,1.6999998
		c-1.6000004,0.1000004-3,0.5-4.3000002,1.1999998c-0.5,0.1000004-0.6999998,0.3000002-0.3000002,0.8000002
		c0.3000002,0.3000002,0.3999996,0.6999998,0,0.8999996c-0.3000002,0.3000002-0.6999998,0.3000002-0.8999996,0
		C12.8999996,13.6999998,12.8000002,13.8000002,12.6000004,13.8000002L12.6000004,13.8000002z M13.5,13.6000004
		C13.5,13.6000004,13.5,13.5,13.5,13.6000004c0.1000004-0.3000002,0.1000004-0.3000002,0-0.3999996
		c-0.6999998-0.8000002-0.5-1.1999998,0.3999996-1.6000004c1.3999996-0.6999998,2.8999996-1,4.3999996-1.1999998
		c0.7999992,0,0.8999996-0.3000002,0.7999992-1c0-0.6999998-0.1000004-0.8000002-0.8999996-0.6999998
		c-3.3999996,0-6.3999996,1.3999996-8.8999996,3.8999996c-0.3000002,0.3000002-0.3000002,0.3999996,0,0.8000002
		c0.6999998,0.6999998,0.6000004,0.6000004,1.1000004,0.3999996C10.7999992,13.4000006,11.2999992,13.6999998,11.6999998,14
		c0.3000002,0.3000002,0.5,0.5,0.8999996,0.8999996C12.6999998,15,12.6999998,15,12.7999992,15.1999998l0.1000004-0.1000004
		c-0.3000002-0.3000002-0.6000004-0.5-0.8000002-0.8000002s-0.3000002-0.5,0-0.8999996
		c0.3000002-0.3000002,0.5-0.3000002,0.8000002,0C13.1000004,13.3999996,13.3000002,13.5,13.5,13.6000004z"/>
	<path fill="#FFFFFF" d="M19.3999996,23.7999992c-0.2999992,0-0.3999996-0.1000004-0.5-0.1000004l0,0L10.5,15
		c-0.1000004-0.1000004-0.1000004-0.3000002,0-0.3999996c0.1000004-0.1000004,0.3000002-0.1000004,0.3999996,0l8.1999989,8.5
		c0.1000004,0,0.2999992,0,0.3999996,0S19.5999985,23,19.7999973,22.8000011c0-1.2999992-1-11.6000004-1-11.6000004
		c0-0.1000004,0.1000004-0.3000002,0.2999992-0.3000002c0.1000004,0,0.2999992,0.1000004,0.2999992,0.3000002
		c0,0.3999996,1,10.7000008,1,11.7000008v0.1000004c-0.1000004,0.3999996-0.3999996,0.5-0.5,0.7000008
		C19.7999992,23.7999992,19.5,23.7999992,19.3999996,23.7999992z"/>
	<path fill="#FFFFFF" d="M16.7999992,14.1000004c-0.7000008,0-1.1999998-0.5-1.1999998-1.1999998
		s0.499999-1.1999998,1.1999998-1.1999998S18,12.2000008,18,12.9000006
		C17.8999996,13.6000004,17.6000004,14.1000004,16.7999992,14.1000004z M16.7999992,12.3000002
		c-0.3999996,0-0.7000008,0.3000002-0.7000008,0.6999998s0.2999992,0.6999998,0.7000008,0.6999998S17.5,13.3999996,17.5,13
		C17.6000004,12.6000004,17.2000008,12.3000002,16.7999992,12.3000002z"/>
	<path fill="#FFFFFF" d="M14.8000002,17.7000008c-0.6999998,0-1.1999998-0.5-1.1999998-1.2000008
		c0-0.6999998,0.5-1.1999998,1.1999998-1.1999998S16,15.8000002,16,16.5C16,17.1000004,15.5,17.7000008,14.8000002,17.7000008z
		 M14.8000002,15.8000002c-0.3999996,0-0.6999998,0.3000002-0.6999998,0.6999998s0.3000002,0.7000008,0.6999998,0.7000008
		S15.5,16.9000015,15.5,16.5S15.1999998,15.8000002,14.8000002,15.8000002z"/>
	<path fill="#FFFFFF" d="M18.2000008,20.7000008c-0.5,0-1-0.5-1-1s0.5-1,1-1s1,0.5,1,1
		C19.2000008,20.1000004,18.7000008,20.7000008,18.2000008,20.7000008z M18.2000008,19.1000004c-0.2999992,0-0.5,0.2999992-0.5,0.5
		c0,0.2999992,0.2999992,0.5,0.5,0.5c0.2999992,0,0.5-0.2999992,0.5-0.5
		C18.7000008,19.2999992,18.5,19.1000004,18.2000008,19.1000004z"/>
	<path fill="#FFFFFF" d="M17.7000008,17.3999996C17,17.3999996,16.5,16.8999996,16.5,16.1999989
		c0-0.6999998,0.5-1.1999998,1.2000008-1.1999998s1.2000008,0.5,1.2000008,1.1999998
		C18.8999996,16.8999996,18.2999992,17.3999996,17.7000008,17.3999996z M17.7000008,15.6999998
		C17.4000015,15.6999998,17,16,17,16.3999996s0.2999992,0.7000008,0.7000008,0.7000008s0.7000008-0.2999992,0.7000008-0.7000008
		C18.2999992,16,18.1000004,15.6999998,17.7000008,15.6999998z"/>
</g>
</svg>
