<?xml version="1.0" encoding="utf-8"?>
<!-- Generator: Adobe Illustrator 25.2.1, SVG Export Plug-In . SVG Version: 6.00 Build 0)  -->
<svg version="1.1" id="Layer_1" xmlns="http://www.w3.org/2000/svg" xmlns:xlink="http://www.w3.org/1999/xlink" x="0px" y="0px"
	 viewBox="0 0 31 42" enable-background="new 0 0 31 42" xml:space="preserve">
<g id="Artwork_2_1_">
	<g>
		<g>
			<g>
				<defs>
					<rect id="SVGID_1_" x="0.9" y="1" width="29.2" height="40"/>
				</defs>
				<clipPath id="SVGID_2_">
					<use xlink:href="#SVGID_1_"  overflow="visible"/>
				</clipPath>
				<g clip-path="url(#SVGID_2_)">
					<g>
						<g>
							<defs>
								<rect id="SVGID_3_" x="0.9" y="1" width="29.2" height="40"/>
							</defs>
							<clipPath id="SVGID_4_">
								<use xlink:href="#SVGID_3_"  overflow="visible"/>
							</clipPath>
							<path clip-path="url(#SVGID_4_)" fill="#BA1E1A" d="M28.5,8.5c-1.5-2.7-3.5-4.7-6.3-6C19.9,1.4,17.6,1,15.1,1
								c-2.4,0.1-4.5,0.5-6.6,1.6c-3.9,2-6.3,5.1-7.2,9.2c-0.5,2.3-0.5,4.5-0.1,6.8c0.4,2,1.2,3.9,2.3,5.6c1.1,1.5,2.1,3.1,3.2,4.5
								c2.3,2.9,4.5,5.8,6.6,8.7c0.8,1.1,1.5,2.3,2.3,3.5c0.1-0.1,0.1-0.3,0.3-0.4c0.9-1.5,1.9-2.9,2.9-4.4c1.9-2.5,3.9-5.2,5.8-7.8
								c1.2-1.6,2.4-3.2,3.5-5c1.3-2.4,2.1-4.9,2.1-7.6C30.1,13.3,29.7,10.8,28.5,8.5"/>
						</g>
					</g>
					<g>
						<g>
							<defs>
								<rect id="SVGID_5_" x="0.9" y="1" width="29.2" height="40"/>
							</defs>
							<clipPath id="SVGID_6_">
								<use xlink:href="#SVGID_5_"  overflow="visible"/>
							</clipPath>
							<path clip-path="url(#SVGID_6_)" fill="#FFFFFF" d="M15.5,5.9c5.3,0,9.6,4.3,9.6,9.6s-4.3,9.6-9.6,9.6s-9.6-4.3-9.6-9.6
								C5.9,10.2,10.2,5.9,15.5,5.9"/>
						</g>
					</g>
				</g>
			</g>
		</g>
	</g>
</g>
<g>
	<path d="M17.3,8.1c0.7,0.7,1.5,1.5,2.2,2.2c-0.1,0.1-0.1,0.1-0.2,0.2c-0.5,0.3-0.3,0.8-0.1,1c0.2,0.2,0.8,0.3,1.1-0.1
		c0.1-0.1,0.1-0.1,0.2-0.2c0.7,0.7,1.5,1.5,2.2,2.2c-3,3-6.1,6.1-9.1,9.1c-0.7-0.7-1.5-1.5-2.2-2.2c0.1-0.1,0.1-0.1,0.2-0.2
		c0.3-0.3,0.3-0.7,0-1c-0.2-0.2-0.7-0.2-1,0c-0.1,0.1-0.1,0.2-0.2,0.2c-0.7-0.7-1.5-1.5-2.2-2.2C11.2,14.2,14.2,11.1,17.3,8.1z
		 M13.5,21.5c2.6-2.6,5.3-5.3,8-8c-0.3-0.3-0.7-0.7-1-1c0,0,0,0-0.1-0.1l0,0c-0.6,0.3-1.3,0.2-1.7-0.2c-0.5-0.5-0.6-1.1-0.3-1.7
		c0-0.1,0-0.1,0-0.1c-0.2-0.1-0.5-0.3-0.7-0.6c-0.1-0.1-0.2-0.2-0.5-0.5c-2.6,2.6-5.3,5.3-8,8c0.3,0.3,0.7,0.7,1.1,1.1
		c0.7-0.3,1.3-0.2,1.7,0.2c0.6,0.6,0.7,1.1,0.3,1.8C12.9,20.8,13.2,21.1,13.5,21.5z"/>
	<path d="M16.4,12.8c0.2,0.2,0.3,0.3,0.6,0.6c-0.2,0.2-0.3,0.3-0.6,0.6c-0.2-0.2-0.3-0.3-0.6-0.6C16.1,13.2,16.2,12.9,16.4,12.8z"/>
	<path d="M16.1,12.4c-0.2,0.2-0.3,0.3-0.6,0.6c-0.2-0.2-0.3-0.3-0.6-0.6c0.2-0.2,0.3-0.3,0.6-0.6C15.6,12,15.8,12.3,16.1,12.4z"/>
	<path d="M17.8,15.4c0.2-0.2,0.3-0.3,0.6-0.6c0.2,0.2,0.3,0.3,0.6,0.6c-0.2,0.2-0.3,0.3-0.6,0.6C18.1,15.7,18,15.5,17.8,15.4z"/>
	<path d="M17.3,14.9c-0.2-0.2-0.3-0.3-0.6-0.6c0.2-0.2,0.3-0.3,0.6-0.6c0.2,0.2,0.3,0.3,0.6,0.6C17.8,14.6,17.6,14.7,17.3,14.9z"/>
</g>
</svg>
