<?xml version="1.0" encoding="utf-8"?>
<!-- Generator: Adobe Illustrator 25.2.1, SVG Export Plug-In . SVG Version: 6.00 Build 0)  -->
<svg version="1.1" id="Layer_1" xmlns="http://www.w3.org/2000/svg" xmlns:xlink="http://www.w3.org/1999/xlink" x="0px" y="0px"
	 viewBox="0 0 31 42" enable-background="new 0 0 31 42" xml:space="preserve">
<g id="Artwork_7_1_">
	<g>
		<g>
			<defs>
				<rect id="SVGID_1_" x="0.909" y="1" width="29.182" height="40"/>
			</defs>
			<clipPath id="SVGID_2_">
				<use xlink:href="#SVGID_1_"  overflow="visible"/>
			</clipPath>
			<g clip-path="url(#SVGID_2_)">
				<g>
					<defs>
						<rect id="SVGID_3_" x="0.909" y="1" width="29.182" height="40"/>
					</defs>
					<clipPath id="SVGID_4_">
						<use xlink:href="#SVGID_3_"  overflow="visible"/>
					</clipPath>
					<path clip-path="url(#SVGID_4_)" d="M28.486,8.491c-1.472-2.675-3.479-4.682-6.288-6.02C19.924,1.401,17.65,1,15.108,1
						C12.7,1.134,10.56,1.535,8.553,2.605c-3.879,2.007-6.288,5.084-7.224,9.231c-0.535,2.274-0.535,4.548-0.134,6.822
						c0.401,2.007,1.204,3.88,2.274,5.619c1.071,1.472,2.141,3.077,3.211,4.549c2.274,2.942,4.549,5.752,6.555,8.695
						c0.803,1.071,1.472,2.275,2.274,3.479c0.134-0.134,0.134-0.268,0.268-0.402c0.937-1.471,1.873-2.943,2.943-4.415
						c1.873-2.542,3.879-5.216,5.752-7.758c1.204-1.606,2.409-3.211,3.479-4.951c1.338-2.407,2.14-4.949,2.14-7.625
						C30.091,13.307,29.69,10.765,28.486,8.491"/>
				</g>
			</g>
		</g>
	</g>
</g>
<g>
	<path fill="#FFFFFF" d="M12.6,13.8c0.1,0.1,0,0.1,0.2,0.2c0.1,0.3,0.4,0.4,0.5,0.5c0.3,0.3,0.4,0.7,0.1,0.9c-0.3,0.3-0.7,0.3-1-0.1
		c-0.3-0.3-0.7-0.6-1-0.9c-0.3-0.3-0.4-0.3-0.7-0.2c-0.7,0.4-1.2,0.3-1.8-0.5c-0.5-0.4-0.5-0.8,0-1.3c2.5-2.6,5.6-3.9,9.3-4.2
		c1-0.1,1.4,0.1,1.4,1c0.1,1.2-0.1,1.6-1.3,1.7c-1.6,0.1-3,0.5-4.3,1.2c-0.5,0.1-0.7,0.3-0.3,0.8c0.3,0.3,0.4,0.7,0,0.9
		c-0.3,0.3-0.7,0.3-0.9,0C12.9,13.7,12.8,13.8,12.6,13.8L12.6,13.8z M13.5,13.6C13.5,13.6,13.5,13.5,13.5,13.6
		c0.1-0.3,0.1-0.3,0-0.4c-0.7-0.8-0.5-1.2,0.4-1.6c1.4-0.7,2.9-1,4.4-1.2c0.8,0,0.9-0.3,0.8-1c0-0.7-0.1-0.8-0.9-0.7
		c-3.4,0-6.4,1.4-8.9,3.9C9,12.9,9,13,9.3,13.4c0.7,0.7,0.6,0.6,1.1,0.4c0.4-0.4,0.9-0.1,1.3,0.2c0.3,0.3,0.5,0.5,0.9,0.9
		c0.1,0.1,0.1,0.1,0.2,0.3l0.1-0.1c-0.3-0.3-0.6-0.5-0.8-0.8s-0.3-0.5,0-0.9c0.3-0.3,0.5-0.3,0.8,0C13.1,13.4,13.3,13.5,13.5,13.6z"
		/>
	<path fill="#FFFFFF" d="M19.4,23.8c-0.3,0-0.4-0.1-0.5-0.1l0,0L10.5,15c-0.1-0.1-0.1-0.3,0-0.4c0.1-0.1,0.3-0.1,0.4,0l8.2,8.5
		c0.1,0,0.3,0,0.4,0s0.1-0.1,0.3-0.3c0-1.3-1-11.6-1-11.6c0-0.1,0.1-0.3,0.3-0.3c0.1,0,0.3,0.1,0.3,0.3c0,0.4,1,10.7,1,11.7V23
		c-0.1,0.4-0.4,0.5-0.5,0.7C19.8,23.8,19.5,23.8,19.4,23.8z"/>
	<path fill="#FFFFFF" d="M16.8,14.1c-0.7,0-1.2-0.5-1.2-1.2s0.5-1.2,1.2-1.2s1.2,0.5,1.2,1.2C17.9,13.6,17.6,14.1,16.8,14.1z
		 M16.8,12.3c-0.4,0-0.7,0.3-0.7,0.7s0.3,0.7,0.7,0.7s0.7-0.3,0.7-0.7C17.6,12.6,17.2,12.3,16.8,12.3z"/>
	<path fill="#FFFFFF" d="M14.8,17.7c-0.7,0-1.2-0.5-1.2-1.2c0-0.7,0.5-1.2,1.2-1.2s1.2,0.5,1.2,1.2C16,17.1,15.5,17.7,14.8,17.7z
		 M14.8,15.8c-0.4,0-0.7,0.3-0.7,0.7s0.3,0.7,0.7,0.7s0.7-0.3,0.7-0.7S15.2,15.8,14.8,15.8z"/>
	<path fill="#FFFFFF" d="M18.2,20.7c-0.5,0-1-0.5-1-1s0.5-1,1-1s1,0.5,1,1C19.2,20.1,18.7,20.7,18.2,20.7z M18.2,19.1
		c-0.3,0-0.5,0.3-0.5,0.5c0,0.3,0.3,0.5,0.5,0.5c0.3,0,0.5-0.3,0.5-0.5C18.7,19.3,18.5,19.1,18.2,19.1z"/>
	<path fill="#FFFFFF" d="M17.7,17.4c-0.7,0-1.2-0.5-1.2-1.2c0-0.7,0.5-1.2,1.2-1.2s1.2,0.5,1.2,1.2C18.9,16.9,18.3,17.4,17.7,17.4z
		 M17.7,15.7c-0.3,0-0.7,0.3-0.7,0.7s0.3,0.7,0.7,0.7s0.7-0.3,0.7-0.7C18.3,16,18.1,15.7,17.7,15.7z"/>
</g>
</svg>
