<?xml version="1.0" encoding="utf-8"?>
<!-- Generator: Adobe Illustrator 25.2.1, SVG Export Plug-In . SVG Version: 6.00 Build 0)  -->
<svg version="1.1" id="Layer_1" xmlns="http://www.w3.org/2000/svg" xmlns:xlink="http://www.w3.org/1999/xlink" x="0px" y="0px"
	 viewBox="0 0 31 42" enable-background="new 0 0 31 42" xml:space="preserve">
<g>
	<g>
		<path fill="#BA1E1A" d="M28.5,8.5c-1.5-2.7-3.5-4.7-6.3-6C20,1.4,17.7,1,15.2,1c-2.4,0.1-4.5,0.5-6.6,1.6c-3.9,2-6.3,5.1-7.2,9.2
			c-0.5,2.3-0.5,4.5-0.1,6.8c0.4,2,1.2,3.9,2.3,5.6c1.1,1.5,2.1,3.1,3.2,4.5c2.3,2.9,4.5,5.8,6.6,8.7c0.8,1.1,1.5,2.3,2.3,3.5
			c0.1-0.1,0.1-0.3,0.3-0.4c0.9-1.5,1.9-2.9,2.9-4.4c1.9-2.5,3.9-5.2,5.8-7.8c1.2-1.6,2.4-3.2,3.5-4.9c1.3-2.4,2.1-4.9,2.1-7.6
			C30.1,13.3,29.7,10.8,28.5,8.5z"/>
	</g>
	<circle fill="#FFFFFF" cx="15.6" cy="15.5" r="9.6"/>
</g>
<g>
	<path fill="#081A3F" d="M12.6,13.5c0.1,0.1,0,0.1,0.2,0.2c0.1,0.2,0.4,0.4,0.5,0.5c0.2,0.2,0.4,0.6,0.1,0.8
		c-0.2,0.2-0.7,0.3-0.9-0.1c-0.2-0.2-0.6-0.5-0.9-0.9c-0.2-0.2-0.4-0.3-0.6-0.2c-0.6,0.4-1.1,0.2-1.7-0.5c-0.5-0.4-0.5-0.7,0-1.2
		c2.3-2.4,5.2-3.6,8.5-3.8c1-0.1,1.3,0.1,1.3,1c0.1,1.1-0.1,1.4-1.2,1.6c-1.4,0.1-2.8,0.5-4,1.1c-0.5,0.1-0.6,0.2-0.2,0.7
		c0.2,0.2,0.4,0.6,0,0.8c-0.2,0.2-0.6,0.2-0.8,0C12.9,13.5,12.8,13.5,12.6,13.5L12.6,13.5z M13.5,13.4
		C13.5,13.4,13.5,13.2,13.5,13.4c0.1-0.2,0.1-0.2,0-0.4c-0.6-0.7-0.5-1.1,0.4-1.4c1.3-0.6,2.6-1,4.1-1.1c0.7,0,0.8-0.2,0.7-1
		c0-0.6-0.1-0.7-0.8-0.6c-3.1,0-5.9,1.3-8.2,3.6c-0.2,0.2-0.2,0.3,0,0.7c0.6,0.6,0.5,0.6,1,0.3c0.4-0.4,0.8-0.1,1.2,0.1
		c0.2,0.2,0.5,0.5,0.9,0.9c0.1,0.1,0.1,0.1,0.2,0.2l0.1-0.1c-0.2-0.2-0.5-0.5-0.8-0.7c-0.2-0.2-0.2-0.5,0-0.8c0.2-0.2,0.5-0.2,0.7,0
		C13.1,13.1,13.2,13.2,13.5,13.4z"/>
	<path fill="#081A3F" d="M18.9,22.7c-0.2,0-0.4-0.1-0.5-0.1l0,0l-7.7-7.9c-0.1-0.1-0.1-0.2,0-0.4c0.1-0.1,0.2-0.1,0.4,0l7.6,7.8
		c0.1,0,0.2,0,0.4,0s0.1-0.1,0.2-0.2c0-1.2-1-10.7-1-10.7c0-0.1,0.1-0.2,0.2-0.2s0.2,0.1,0.2,0.2c0,0.4,1,9.9,1,10.8v0.1
		c-0.1,0.4-0.4,0.5-0.5,0.6C19.2,22.7,19,22.7,18.9,22.7z"/>
	<path fill="#081A3F" d="M16.5,13.8c-0.6,0-1.1-0.5-1.1-1.1s0.5-1.1,1.1-1.1s1.1,0.5,1.1,1.1C17.5,13.4,17.2,13.8,16.5,13.8z
		 M16.5,12.2c-0.4,0-0.6,0.2-0.6,0.6c0,0.4,0.2,0.6,0.6,0.6s0.6-0.2,0.6-0.6C17.2,12.4,16.8,12.2,16.5,12.2z"/>
	<path fill="#081A3F" d="M14.7,17.1c-0.6,0-1.1-0.5-1.1-1.1s0.5-1.1,1.1-1.1s1.1,0.5,1.1,1.1S15.3,17.1,14.7,17.1z M14.7,15.4
		c-0.4,0-0.6,0.2-0.6,0.6c0,0.4,0.2,0.6,0.6,0.6c0.4,0,0.6-0.2,0.6-0.6S15,15.4,14.7,15.4z"/>
	<path fill="#081A3F" d="M17.8,19.9c-0.5,0-1-0.5-1-1s0.5-1,1-1s1,0.5,1,1C18.7,19.4,18.3,19.9,17.8,19.9z M17.8,18.4
		c-0.2,0-0.5,0.2-0.5,0.5c0,0.2,0.2,0.5,0.5,0.5c0.2,0,0.5-0.2,0.5-0.5C18.3,18.7,18,18.4,17.8,18.4z"/>
	<path fill="#081A3F" d="M17.3,16.9c-0.6,0-1.1-0.5-1.1-1.1s0.5-1.1,1.1-1.1s1.1,0.5,1.1,1.1S17.9,16.9,17.3,16.9z M17.3,15.3
		c-0.2,0-0.6,0.2-0.6,0.6s0.2,0.6,0.6,0.6s0.6-0.2,0.6-0.6S17.7,15.3,17.3,15.3z"/>
</g>
</svg>
