<?xml version="1.0" encoding="utf-8"?>
<!-- Generator: Adobe Illustrator 25.2.1, SVG Export Plug-In . SVG Version: 6.00 Build 0)  -->
<svg version="1.1" id="Layer_1" xmlns="http://www.w3.org/2000/svg" xmlns:xlink="http://www.w3.org/1999/xlink" x="0px" y="0px"
	 viewBox="0 0 32.5 38.461" enable-background="new 0 0 32.5 38.461" xml:space="preserve">
<g>
	<path fill="#BA1E1A" d="M32.495,5.273l-1.496-0.217c-0.392-0.055-0.774-0.108-1.154-0.174C28,4.562,26.166,4.097,24.393,3.497
		c-1.83-0.618-3.682-1.401-5.502-2.327l-0.81-0.42c-0.389-0.203-0.779-0.406-1.176-0.604c-0.38-0.188-0.88-0.196-1.273-0.019
		c-0.214,0.096-0.422,0.205-0.629,0.315c-0.111,0.058-0.222,0.118-0.335,0.174l-0.902,0.453c-0.741,0.373-1.48,0.747-2.237,1.092
		c-1.485,0.678-3.088,1.272-4.762,1.766C5.276,4.364,3.875,4.686,2.48,4.908C2.137,4.963,1.793,5.013,1.443,5.064l-1.44,0.214
		L0.002,20.335C0,20.966-0.002,21.595,0.005,22.227l0.001,0.137c0.003,0.378,0.007,0.807,0.085,1.246
		c0.29,1.601,0.98,3.162,2.11,4.77c0.799,1.135,1.751,2.207,2.91,3.276c1.374,1.268,2.887,2.416,4.498,3.413
		c0.997,0.618,2.083,1.243,3.521,2.03c0.654,0.358,1.331,0.677,1.984,0.985l0.51,0.241c0.189,0.091,0.405,0.136,0.621,0.136
		c0.196,0,0.392-0.037,0.57-0.111c0.335-0.14,0.659-0.296,0.984-0.455c1.783-0.869,3.323-1.713,4.709-2.579
		c2.229-1.392,4.048-2.803,5.561-4.314c1.788-1.786,3.019-3.561,3.764-5.425c0.315-0.789,0.639-1.737,0.655-2.789
		c0.014-0.949,0.011-1.899,0.008-2.848L32.495,5.273z"/>
	<g>
		
			<rect x="7.825" y="12.551" fill="#F9F9F9" stroke="#20202A" stroke-width="1.6" stroke-miterlimit="10" width="16.851" height="10.088"/>
		<g>
			<path fill="#20202A" d="M12.563,19.785c-0.472,0-0.943,0.024-1.415,0c-0.375-0.024-0.629-0.302-0.617-0.689
				c0.012-0.327,0.06-0.641,0.133-0.968c0.048-0.169,0.151-0.298,0.271-0.431c0.218-0.266,0.544-0.29,0.822-0.097
				c0.29,0.206,0.618,0.34,0.969,0.243c0.218-0.048,0.433-0.149,0.627-0.258c0.278-0.145,0.57-0.154,0.775,0.076
				c0.115,0.119,0.234,0.338,0.297,0.48c0.085,0.302,0.133,0.617,0.157,0.919c0.024,0.423-0.29,0.726-0.762,0.726
				C13.398,19.785,12.974,19.785,12.563,19.785L12.563,19.785z"/>
			<path fill="#20202A" d="M12.563,17.596c-0.629,0-1.089-0.484-1.089-1.125c0-0.593,0.496-1.076,1.089-1.076
				c0.617,0,1.089,0.496,1.089,1.125C13.652,17.112,13.168,17.596,12.563,17.596z"/>
		</g>
		<g>
			<line fill="none" stroke="#20202A" stroke-miterlimit="10" x1="16.795" y1="15.937" x2="21.402" y2="15.937"/>
			<line fill="none" stroke="#20202A" stroke-miterlimit="10" x1="16.795" y1="17.595" x2="21.402" y2="17.595"/>
			<line fill="none" stroke="#20202A" stroke-miterlimit="10" x1="16.795" y1="19.254" x2="21.402" y2="19.254"/>
		</g>
	</g>
</g>
</svg>
