<?xml version="1.0" encoding="utf-8"?>
<!-- Generator: Adobe Illustrator 24.3.0, SVG Export Plug-In . SVG Version: 6.00 Build 0)  -->
<svg version="1.1" id="Layer_1" xmlns="http://www.w3.org/2000/svg" xmlns:xlink="http://www.w3.org/1999/xlink" x="0px" y="0px"
	 viewBox="0 0 31 42" enable-background="new 0 0 31 42" xml:space="preserve">
<g id="Artwork_7_1_">
	<g>
		<defs>
			<rect id="SVGID_1_" x="0.9087982" y="1" width="29.1824036" height="40"/>
		</defs>
		<clipPath id="SVGID_2_">
			<use xlink:href="#SVGID_1_"  overflow="visible"/>
		</clipPath>
		<g clip-path="url(#SVGID_2_)">
			<defs>
				<rect id="SVGID_3_" x="0.9087982" y="1" width="29.1819992" height="40"/>
			</defs>
			<clipPath id="SVGID_4_">
				<use xlink:href="#SVGID_3_"  overflow="visible"/>
			</clipPath>
			<path clip-path="url(#SVGID_4_)" d="M28.4857979,8.4914017c-1.4720001-2.6749992-3.4790001-4.6819992-6.2880001-6.0199966
				c-2.2740002-1.0700035-4.5480003-1.4710007-7.0900002-1.4710007c-2.408,0.1339989-4.5480003,0.5349998-6.5550003,1.6049995
				c-3.8789997,2.007-6.2880001,5.0839996-7.223999,9.230999c-0.5349998,2.2740002-0.5349998,4.5480003-0.1340008,6.8219986
				c0.401001,2.007,1.2040005,3.8800011,2.2740002,5.6190014c1.0710011,1.4719982,2.1410007,3.0769997,3.2110004,4.5489979
				c2.2740002,2.9420013,4.5489998,5.7519989,6.5549994,8.6949997c0.8030005,1.0709991,1.4720001,2.2750015,2.2740002,3.4790001
				c0.1339998-0.1339989,0.1339998-0.2679977,0.2680006-0.4020004c0.9370003-1.4709969,1.8729992-2.942997,2.9429989-4.4149971
				c1.8729992-2.5419998,3.8789997-5.2160015,5.7520008-7.7580013c1.2039986-1.6060009,2.4089985-3.2110004,3.4789982-4.9510002
				c1.3380013-2.4069996,2.1400013-4.9489994,2.1400013-7.625C30.0907974,13.3074017,29.6897964,10.7654018,28.4857979,8.4914017"/>
		</g>
	</g>
</g>
<path fill="#FFFFFF" d="M12.4223633,20.5619411c0-3.4631004,0-7.0647287,0-10.6663532
	c3.1860542-0.5540962,6.6491566-0.9696684,9.6966839-1.6622887v0.1385241c0,3.8786736,0,7.8958712,0,11.7745466
	c0,0.5540962-0.4155712,0.9696674-0.6926193,1.2467155c-0.5540962,0.6926212-1.2467155,0.8311462-2.0778618,1.1081924
	c-0.6926193,0.138525-1.2467155,0.138525-1.9393349-0.1385231c-0.27705-0.138525-0.4155731-0.138525-0.5540962-0.2770481
	c-0.5540962-0.4155731-0.6926193-0.8311462-0.4155731-1.5237656c0.138525-0.2770481,0.4155731-0.6926193,0.6926193-0.6926193
	c0.9696693-0.8311462,2.3549099-1.1081944,3.3245792-0.9696693c0.138525,0,0.5540962,0.138525,0.6926212,0.138525
	c0-2.493433,0-4.986866,0-7.4802999c-0.4155731,0.1385231-0.6926212,0.1385231-1.1081924,0.1385231
	c-1.8008137,0.2770481-3.4631023,0.5540962-5.263916,0.8311453c-0.4155722,0-0.6926193,0.1385241-1.1081924,0.1385241
	c-0.1385241,0-0.1385241,0-0.1385241,0.138526c0,0.2770472,0,0.5540953,0,0.6926193c0,2.631958,0,5.4024391,0,8.0343971
	c0,0.4155712-0.1385241,0.6926193-0.4155731,1.1081924c-0.5540953,0.5540962-0.9696684,0.8311443-1.8008127,1.1081905
	c-0.6926203,0.2770519-2.0778618,0.138525-2.3549089,0c-0.2770481-0.138525-1.5237646-0.5540981-1.1081929-1.6622906
	c0.2770476-0.4155731,0.5540957-0.6926212,0.8311439-0.9696674c0.9696693-0.6926212,2.631958-0.6926212,2.9090061-0.6926212
	C11.868268,20.2848911,12.2838392,20.4234161,12.4223633,20.5619411z"/>
</svg>
