<?xml version="1.0" encoding="utf-8"?>
<!-- Generator: Adobe Illustrator 25.2.1, SVG Export Plug-In . SVG Version: 6.00 Build 0)  -->
<svg version="1.1" id="Layer_1" xmlns="http://www.w3.org/2000/svg" xmlns:xlink="http://www.w3.org/1999/xlink" x="0px" y="0px"
	 viewBox="0 0 31 42" style="enable-background:new 0 0 31 42;" xml:space="preserve">
<style type="text/css">
	.st0{fill:#FFFFFF;}
</style>
<g id="Artwork_7_1_">
	<g>
		<g>
			<g>
				<g>
					<g>
						<g>
							<path d="M28.5,8.5c-1.5-2.7-3.5-4.7-6.3-6C19.9,1.4,17.6,1,15.1,1c-2.4,0.1-4.5,0.5-6.6,1.6c-3.9,2-6.3,5.1-7.2,9.2
								c-0.5,2.3-0.5,4.5-0.1,6.8c0.4,2,1.2,3.9,2.3,5.6c1.1,1.5,2.1,3.1,3.2,4.5c2.3,2.9,4.5,5.8,6.6,8.7c0.8,1.1,1.5,2.3,2.3,3.5
								c0.1-0.1,0.1-0.3,0.3-0.4c0.9-1.5,1.9-2.9,2.9-4.4c1.9-2.5,3.9-5.2,5.8-7.8c1.2-1.6,2.4-3.2,3.5-5c1.3-2.4,2.1-4.9,2.1-7.6
								C30.1,13.3,29.7,10.8,28.5,8.5"/>
						</g>
					</g>
				</g>
			</g>
		</g>
	</g>
</g>
<g>
	<g>
		<path class="st0" d="M22.5,19.1c-0.5,0-0.9,0-1.4,0c-0.1,1.2-0.1,2.5-0.2,3.7c-0.7,0-1.5,0-2.2,0c0-0.5-0.1-1-0.1-1.4
			c0-0.7-0.1-1.4-0.1-2.1c0-0.2-0.1-0.2-0.2-0.2c-0.4,0-0.7,0-1.1,0c0.4-1.7,0.7-3.5,1-5.2c-0.2-0.1-0.2,0-0.4,0.2
			c-0.2,1.1-0.5,2.2-0.6,3.4c0,0,0,0.1,0,0.2c-0.4,0-0.7-0.1-1.1-0.1c0.1-0.4,0.1-0.7,0.2-1.1c0.2-1.2,0.5-2.5,0.7-3.7
			c0.1-0.6,0.4-0.7,0.9-0.7c1.4,0,2.7,0,4.1,0c0.5,0,0.7,0.2,0.9,0.7c0.2,1.5,0.6,3.1,0.9,4.6c0,0.1,0,0.2,0,0.4
			c-0.4,0-0.7,0.1-1.1,0.1c-0.1-0.7-0.2-1.4-0.4-2c-0.1-0.5-0.2-1.1-0.2-1.6c0-0.2-0.1-0.2-0.4-0.2C21.9,15.5,22.1,17.2,22.5,19.1z"
			/>
		<path class="st0" d="M21.3,9.8c0,0.9-0.6,1.6-1.5,1.6s-1.5-0.7-1.5-1.6s0.6-1.6,1.5-1.6C20.6,8.1,21.3,8.9,21.3,9.8z"/>
	</g>
	<g>
		<path class="st0" d="M13.8,13.8c-0.2-0.1-0.4,0-0.4,0.2c-0.2,2.6-0.5,5.2-0.6,7.9c0,0.2,0,0.5-0.1,0.7c0,0.1-0.1,0.2-0.2,0.2
			c-0.6,0-1.4,0-2,0c-0.2-3-0.5-6.1-0.7-9.1c-0.1,0-0.2,0-0.2,0c0,1.2,0,2.5,0,3.7c-0.4,0-0.9,0-1.2,0c0-0.1,0-0.2,0-0.4
			c0-1.5,0-3,0-4.4c0-0.6,0.2-1,1-1c1.7,0,3.4,0,5.1,0c0.6,0,0.9,0.4,0.9,1c0,1.6,0,3.1,0,4.7c-0.4,0-0.9,0-1.2,0
			C13.8,16.2,13.8,15,13.8,13.8z"/>
		<path class="st0" d="M11.5,11.4c-0.9,0-1.5-0.7-1.5-1.6s0.6-1.6,1.5-1.6c0.9,0,1.5,0.7,1.5,1.6C13,10.6,12.4,11.4,11.5,11.4z"/>
	</g>
</g>
</svg>
