<?xml version="1.0" encoding="utf-8"?>
<!-- Generator: Adobe Illustrator 25.2.1, SVG Export Plug-In . SVG Version: 6.00 Build 0)  -->
<svg version="1.1" id="Layer_1" xmlns="http://www.w3.org/2000/svg" xmlns:xlink="http://www.w3.org/1999/xlink" x="0px" y="0px"
	 viewBox="0 0 30 30" enable-background="new 0 0 30 30" xml:space="preserve">
<rect x="0.5" y="0.5" fill="#BA1E1A" width="29" height="29"/>
<rect x="3" y="3" fill="#FFFFFF" width="24" height="24"/>
<g>
	<path d="M6.2,14.5c0.4-0.2,0.9-0.4,1.2-0.7c3.7-1.9,7.4-3.9,11.1-5.9c0.2-0.1,0.6-0.3,0.8-0.4c0.2-0.1,0.3-0.1,0.6,0.1
		c0.6,1.1,1.2,2.2,1.8,3.4c0,0.1,0.1,0.2,0.1,0.2c0.1,0.2,0.1,0.4-0.1,0.6c-2.7,1.5-5.5,2.9-8.2,4.4c-0.8,0.4-1.6,0.8-2.2,1.2h-0.1
		C9.3,16.4,7.8,15.5,6.2,14.5C6.2,14.6,6.2,14.5,6.2,14.5z"/>
	<path d="M17.4,17.9c-0.2-0.4-0.4-0.9-0.7-1.3c-2.1,1.1-4.1,2.2-6.3,3.4c-0.6-1-1.1-2.1-1.7-3.1c0,0,0.1,0,0.1,0.1
		c0.7,0.4,1.5,0.9,2.1,1.2c0.1,0,0.1,0,0.2,0c3.1-1.7,6.4-3.5,9.6-5.3c0,0,0.1,0,0.1-0.1c0.2,0.3,0.4,0.8,0.6,1.1
		c-1.2,0.7-2.5,1.3-3.7,2c0.2,0.4,0.4,0.9,0.7,1.3c-0.2,0.1-0.4,0.1-0.7,0.2C17.7,17.7,17.5,17.8,17.4,17.9z"/>
	<path d="M21.9,15.8c0.8,0,1.5,0,2.1,0c0,2.2,0,4.4,0,6.6c-0.7,0-1.5,0-2.1,0c0-0.9,0-1.7,0-2.6c-0.4,0-0.9,0-1.5,0
		c0.2-0.4,0.2-0.9,0-1.5c0.4,0,0.9,0,1.5,0C21.9,17.4,21.9,16.7,21.9,15.8z"/>
	<path d="M9.1,19.6c-0.4,0.2-0.8,0.4-1.2,0.7c-0.6-1.1-1.2-2.2-1.8-3.4c0.4-0.2,0.8-0.4,1.2-0.7C7.9,17.3,8.4,18.5,9.1,19.6z"/>
	<path d="M18.9,17.9c0.7,0,1.2,0.6,1.2,1.2s-0.6,1.2-1.2,1.2s-1.2-0.6-1.2-1.2C17.6,18.3,18.2,17.9,18.9,17.9z"/>
</g>
</svg>
