<?xml version="1.0" encoding="utf-8"?>
<!-- Generator: Adobe Illustrator 25.2.1, SVG Export Plug-In . SVG Version: 6.00 Build 0)  -->
<svg version="1.1" id="Layer_1" xmlns="http://www.w3.org/2000/svg" xmlns:xlink="http://www.w3.org/1999/xlink" x="0px" y="0px"
	 viewBox="0 0 30 35.894" enable-background="new 0 0 30 35.894" xml:space="preserve">
<g>
	<path fill="#BA1E1A" d="M29.996,17.547c0-4.089,0-8.178-0.001-12.268c0-0.073,0-0.146,0-0.21c-0.598-0.088-1.168-0.159-1.732-0.257
		c-1.895-0.328-3.745-0.799-5.554-1.41c-1.933-0.653-3.79-1.449-5.586-2.362c-0.652-0.333-1.295-0.68-1.952-1.006
		c-0.091-0.045-0.252-0.044-0.346-0.001c-0.313,0.14-0.608,0.313-0.915,0.465c-1.043,0.518-2.074,1.057-3.136,1.541
		c-1.564,0.714-3.185,1.309-4.853,1.8C4.49,4.26,3.034,4.604,1.549,4.841C1.042,4.922,0.531,4.993,0.003,5.071
		c0,0.063,0,0.124,0,0.187c0,4.316,0,8.632,0,12.949c0,0.897-0.008,1.794,0.002,2.692c0.004,0.397-0.002,0.8,0.069,1.189
		c0.281,1.556,0.977,2.968,1.908,4.292c0.783,1.114,1.707,2.126,2.728,3.069c1.312,1.21,2.741,2.296,4.286,3.252
		c1.119,0.693,2.272,1.343,3.432,1.978c0.783,0.429,1.605,0.8,2.416,1.186c0.081,0.039,0.219,0.037,0.304,0.002
		c0.311-0.129,0.614-0.276,0.916-0.423c1.566-0.764,3.095-1.582,4.559-2.497c1.93-1.205,3.735-2.542,5.31-4.116
		c1.486-1.484,2.727-3.108,3.485-5.004c0.308-0.769,0.56-1.553,0.572-2.376C30.009,20.15,29.996,18.848,29.996,17.547z"/>
	<path fill="none" stroke="#F9F9F9" stroke-width="1.6" stroke-miterlimit="10" d="M25.545,17.666c0-2.875,0-5.751-0.001-8.627
		c0-0.051,0-0.102,0-0.148c-0.421-0.062-0.821-0.112-1.218-0.181c-1.333-0.231-2.634-0.562-3.905-0.992
		c-1.359-0.459-2.665-1.019-3.928-1.661c-0.459-0.234-0.911-0.478-1.373-0.708c-0.064-0.032-0.177-0.031-0.244-0.001
		c-0.22,0.098-0.427,0.22-0.643,0.327c-0.734,0.364-1.458,0.743-2.205,1.084c-1.099,0.502-2.24,0.92-3.412,1.266
		C7.609,8.323,6.586,8.564,5.542,8.731C5.185,8.788,4.825,8.838,4.454,8.893c0,0.044,0,0.087,0,0.131c0,3.035,0,6.07,0,9.106
		c0,0.631-0.005,1.262,0.001,1.893c0.003,0.279-0.001,0.562,0.048,0.836c0.198,1.094,0.687,2.087,1.342,3.018
		c0.551,0.783,1.2,1.495,1.919,2.158c0.922,0.851,1.928,1.615,3.014,2.287c0.787,0.487,1.597,0.945,2.414,1.391
		c0.551,0.301,1.128,0.562,1.699,0.834c0.057,0.027,0.154,0.026,0.214,0.001c0.219-0.091,0.432-0.194,0.644-0.298
		c1.101-0.537,2.176-1.113,3.206-1.756c1.357-0.848,2.626-1.788,3.734-2.895c1.045-1.043,1.917-2.186,2.45-3.519
		c0.216-0.541,0.394-1.092,0.402-1.671C25.554,19.496,25.545,18.581,25.545,17.666z"/>
</g>
</svg>
