<?xml version="1.0" encoding="utf-8"?>
<!-- Generator: Adobe Illustrator 25.2.1, SVG Export Plug-In . SVG Version: 6.00 Build 0)  -->
<svg version="1.1" id="Layer_1" xmlns="http://www.w3.org/2000/svg" xmlns:xlink="http://www.w3.org/1999/xlink" x="0px" y="0px"
	 viewBox="0 0 29.168 34.898" enable-background="new 0 0 29.168 34.898" xml:space="preserve">
<g>
	<path fill="#20202A" d="M29.164,17.06c0-3.975,0-7.951-0.001-11.927c0-0.071,0-0.142,0-0.204c-0.582-0.086-1.135-0.155-1.684-0.25
		c-1.843-0.319-3.641-0.777-5.4-1.371c-1.879-0.635-3.685-1.408-5.431-2.297c-0.634-0.323-1.259-0.661-1.898-0.978
		c-0.088-0.044-0.245-0.043-0.337-0.001c-0.304,0.136-0.591,0.304-0.889,0.452c-1.014,0.503-2.016,1.028-3.049,1.498
		c-1.52,0.694-3.097,1.273-4.718,1.75C4.365,4.142,2.95,4.476,1.506,4.706c-0.493,0.079-0.99,0.148-1.503,0.224
		c0,0.061,0,0.121,0,0.182c0,4.196,0,8.393,0,12.59c0,0.873-0.008,1.744,0.002,2.617c0.004,0.386-0.002,0.778,0.067,1.156
		c0.273,1.513,0.95,2.885,1.855,4.173c0.762,1.083,1.659,2.067,2.653,2.984c1.275,1.177,2.665,2.233,4.167,3.162
		c1.088,0.673,2.209,1.306,3.337,1.924c0.762,0.417,1.56,0.778,2.349,1.153c0.078,0.038,0.213,0.036,0.296,0.002
		c0.303-0.126,0.597-0.268,0.89-0.412c1.523-0.743,3.009-1.539,4.432-2.428c1.877-1.172,3.631-2.472,5.163-4.002
		c1.444-1.443,2.651-3.022,3.388-4.866c0.299-0.748,0.544-1.51,0.556-2.31C29.176,19.591,29.164,18.325,29.164,17.06z"/>
	<g>
		<rect x="6.482" y="10.997" fill="#F9F9F9" width="16.204" height="9.7"/>
		<path fill="#20202A" d="M11.038,17.953c-0.454,0-0.907,0.023-1.361,0c-0.361-0.023-0.605-0.291-0.593-0.663
			c0.012-0.314,0.058-0.616,0.128-0.93c0.047-0.163,0.145-0.287,0.261-0.415c0.209-0.256,0.523-0.279,0.791-0.093
			c0.279,0.198,0.594,0.327,0.931,0.234c0.209-0.047,0.417-0.144,0.603-0.248c0.268-0.14,0.548-0.148,0.745,0.073
			c0.111,0.114,0.225,0.325,0.286,0.461c0.081,0.291,0.128,0.593,0.151,0.884c0.023,0.407-0.279,0.698-0.733,0.698
			C11.841,17.953,11.434,17.953,11.038,17.953L11.038,17.953z"/>
		<path fill="#20202A" d="M11.038,15.848c-0.605,0-1.047-0.465-1.047-1.082c0-0.57,0.477-1.035,1.047-1.035
			c0.593,0,1.047,0.477,1.047,1.082C12.085,15.383,11.62,15.848,11.038,15.848z"/>
		<line fill="none" stroke="#20202A" stroke-miterlimit="10" x1="15.108" y1="14.253" x2="19.537" y2="14.253"/>
		<line fill="none" stroke="#20202A" stroke-miterlimit="10" x1="15.108" y1="15.847" x2="19.537" y2="15.847"/>
		<line fill="none" stroke="#20202A" stroke-miterlimit="10" x1="15.108" y1="17.442" x2="19.537" y2="17.442"/>
	</g>
</g>
</svg>
