<?xml version="1.0" encoding="utf-8"?>
<!-- Generator: Adobe Illustrator 24.3.0, SVG Export Plug-In . SVG Version: 6.00 Build 0)  -->
<svg version="1.1" id="Layer_1" xmlns="http://www.w3.org/2000/svg" xmlns:xlink="http://www.w3.org/1999/xlink" x="0px" y="0px"
	 viewBox="0 0 30 30" enable-background="new 0 0 30 30" xml:space="preserve">
<rect x="0.5" y="0.5" width="29" height="29"/>
<g>
	<path fill="#F2F2F2" d="M21.919857,16.2560177c-0.3068104-0.6136198-1.2272415-1.5340509-1.8408604-1.6874571
		c-1.8408623-0.1534052-3.3749142-0.1534052-5.2157774,0c-0.7670259,0-1.687458,0.767025-1.9942675,1.8408613
		c-0.4602156,0.9204311-0.9204311,1.9942665-1.0738354,2.9146976c-0.3068094,1.687458-0.4602165,3.0681038,0,5.2157764
		c0.7670259,0,1.687458,0,2.454483,0c0.1534052-0.3068104,0.3068104-0.767025,0.4602165-1.2272415
		c1.6874561,0,3.3749123,0,5.2157745,0c0.1534081,0.3068104,0.3068123,0.767025,0.4602165,1.2272415
		c0.7670269,0,1.687458,0,2.454483,0c0.1534061-0.4602165,0.3068104-1.0738354,0.3068104-1.5340519
		C23.7607193,20.7047672,22.9936924,18.5570946,21.919857,16.2560177z M18.8517532,15.3355875
		c1.8408623,0.1534052,2.6078892,1.2272406,2.9146976,3.2215071c-2.9146976,0-5.6759892,0-8.5906897,0
		C13.6359787,15.6423979,15.1700296,15.1821814,18.8517532,15.3355875z M14.8632193,21.318388l-1.687458-0.4602165
		l0.1534061-0.6136189l1.8408623,0.4602146L14.8632193,21.318388z M20.2324009,21.4717941
		c0,0-0.1534061-0.4602165-0.3068123-0.6136208c0.6136208-0.1534061,1.2272434-0.3068085,1.8408623-0.4602146
		c0,0.3068085,0.1534061,0.4602146,0.1534061,0.7670269C21.3062363,21.1649857,20.8460197,21.318388,20.2324009,21.4717941z"/>
	<g>
		<path fill="#F2F2F2" d="M9.3406343,13.8015366v4.6021538H6.5793409V5.3642516h5.0623693
			c0.9204302,0,1.8408623,0.1534047,2.6078873,0.6136208c0.7670259,0.4602151,1.3806467,0.9204311,1.687458,1.5340509
			c0.3068104,0.6136212,0.6136189,1.3806472,0.6136189,2.3010783c0,1.2272415-0.4602146,2.3010769-1.3806448,3.0681028
			c-0.9204302,0.767025-1.9942684,0.9204321-3.5283184,0.9204321H9.3406343z M9.3406343,11.6538639h2.4544821
			c0.7670259,0,1.2272415-0.1534052,1.687458-0.4602165c0.4602146-0.3068104,0.6136189-0.767025,0.6136189-1.3806458
			c0-0.6136217-0.1534052-1.2272425-0.6136189-1.5340519c-0.4602156-0.3068104-0.9204321-0.6136198-1.5340538-0.6136198H9.3406343
			V11.6538639z"/>
	</g>
</g>
</svg>
