<?xml version="1.0" encoding="utf-8"?>
<!-- Generator: Adobe Illustrator 25.2.1, SVG Export Plug-In . SVG Version: 6.00 Build 0)  -->
<svg version="1.1" id="Layer_1" xmlns="http://www.w3.org/2000/svg" xmlns:xlink="http://www.w3.org/1999/xlink" x="0px" y="0px"
	 viewBox="0 0 31 42" enable-background="new 0 0 31 42" xml:space="preserve">
<g id="Artwork_7_1_">
	<g>
		<g>
			<defs>
				<rect id="SVGID_1_" x="0.909" y="1" width="29.182" height="40"/>
			</defs>
			<clipPath id="SVGID_2_">
				<use xlink:href="#SVGID_1_"  overflow="visible"/>
			</clipPath>
			<g clip-path="url(#SVGID_2_)">
				<g>
					<defs>
						<rect id="SVGID_3_" x="0.909" y="1" width="29.182" height="40"/>
					</defs>
					<clipPath id="SVGID_4_">
						<use xlink:href="#SVGID_3_"  overflow="visible"/>
					</clipPath>
					<path clip-path="url(#SVGID_4_)" d="M28.486,8.491c-1.472-2.675-3.479-4.682-6.288-6.02C19.924,1.401,17.65,1,15.108,1
						C12.7,1.134,10.56,1.535,8.553,2.605c-3.879,2.007-6.288,5.084-7.224,9.231c-0.535,2.274-0.535,4.548-0.134,6.822
						c0.401,2.007,1.204,3.88,2.274,5.619c1.071,1.472,2.141,3.077,3.211,4.549c2.274,2.942,4.549,5.752,6.555,8.695
						c0.803,1.071,1.472,2.275,2.274,3.479c0.134-0.134,0.134-0.268,0.268-0.402c0.937-1.471,1.873-2.943,2.943-4.415
						c1.873-2.542,3.879-5.216,5.752-7.758c1.204-1.606,2.409-3.211,3.479-4.951c1.338-2.407,2.14-4.949,2.14-7.625
						C30.091,13.307,29.69,10.765,28.486,8.491"/>
				</g>
			</g>
		</g>
	</g>
</g>
<path fill="#FFFFFF" d="M12.422,20.562c0-3.463,0-7.065,0-10.666c3.186-0.554,6.649-0.97,9.697-1.662v0.139
	c0,3.879,0,7.896,0,11.775c0,0.554-0.416,0.97-0.693,1.247c-0.554,0.693-1.247,0.831-2.078,1.108
	c-0.693,0.139-1.247,0.139-1.939-0.139c-0.277-0.139-0.416-0.139-0.554-0.277c-0.554-0.416-0.693-0.831-0.416-1.524
	c0.139-0.277,0.416-0.693,0.693-0.693c0.97-0.831,2.355-1.108,3.325-0.97c0.139,0,0.554,0.139,0.693,0.139c0-2.493,0-4.987,0-7.48
	c-0.416,0.139-0.693,0.139-1.108,0.139c-1.801,0.277-3.463,0.554-5.264,0.831c-0.416,0-0.693,0.139-1.108,0.139
	c-0.139,0-0.139,0-0.139,0.139c0,0.277,0,0.554,0,0.693c0,2.632,0,5.402,0,8.034c0,0.416-0.139,0.693-0.416,1.108
	c-0.554,0.554-0.97,0.831-1.801,1.108c-0.693,0.277-2.078,0.139-2.355,0c-0.277-0.139-1.524-0.554-1.108-1.662
	c0.277-0.416,0.554-0.693,0.831-0.97c0.97-0.693,2.632-0.693,2.909-0.693C11.868,20.285,12.284,20.423,12.422,20.562z"/>
</svg>
