<?xml version="1.0" encoding="utf-8"?>
<!-- Generator: Adobe Illustrator 24.3.0, SVG Export Plug-In . SVG Version: 6.00 Build 0)  -->
<svg version="1.1" id="Layer_1" xmlns="http://www.w3.org/2000/svg" xmlns:xlink="http://www.w3.org/1999/xlink" x="0px" y="0px"
	 viewBox="0 0 31 42" enable-background="new 0 0 31 42" xml:space="preserve">
<g>
	<g>
		<path fill="#BA1E1A" d="M28.5,8.5c-1.5-2.6999998-3.5-4.6999998-6.2999992-6C19.8999996,1.4,17.6000004,1,15.1000004,1
			c-2.3999996,0.1-4.5,0.5-6.6000004,1.5999999c-3.9000001,2-6.3000002,5.0999999-7.1999998,9.1999989
			c-0.5,2.3000002-0.5,4.5-0.1,6.7999992c0.4,2,1.1999999,3.8999996,2.2999997,5.6000004
			c1.0999999,1.5,2.0999999,3.1000004,3.1999998,4.5C9,31.5999985,11.1999998,34.5,13.2999992,37.3999977
			c0.8000002,1.0999985,1.5,2.2999992,2.3000002,3.5c0.1000004-0.0999985,0.1000004-0.2999992,0.3000002-0.4000015
			c0.8999996-1.5,1.8999996-2.9000015,2.8999996-4.4000015c1.8999996-2.5,3.8999996-5.2000008,5.7999992-7.7999992
			c1.2000008-1.6000004,2.3999996-3.2000008,3.5-4.8999996c1.2999992-2.3999996,2.1000004-4.8999996,2.1000004-7.6000004
			C30.1000004,13.3000002,29.7000008,10.8000002,28.5,8.5z"/>
	</g>
	<circle fill="#FFFFFF" cx="15.5" cy="15.5" r="9.6000004"/>
</g>
<path fill="#000500" d="M14.8000002,21.7999992L12.6000004,23h5.6999989l-2.1000004-1.2000008v-4.3999996l4.1999989-5.1000004h-2.5
	l0.7000008-1.3000002h0.1000004c0.3999996,0,0.6000004-0.3000002,0.6000004-0.6000004
	c0-0.1999998-0.1000004-0.3000002-0.2000008-0.5l0.1000004-0.1999998h0.1000004
	c0.3999996,0,0.6000004-0.3000002,0.6000004-0.6000004c0-0.1999998-0.1000004-0.3000002-0.2000008-0.3999996L20.1000004,8
	L20,7.8000002L19.6000004,8.5C19.5,8.5,19.5,8.5,19.3999996,8.5C19,8.5,18.7999992,8.8000002,18.7999992,9.1000004
	c0,0.1999998,0.1000004,0.3999996,0.2000008,0.5l-0.1000004,0.1999998c-0.1000004,0-0.1000004,0-0.2000008,0
	c-0.3999996,0-0.6000004,0.3000002-0.6000004,0.6000004c0,0.1999998,0.1000004,0.3000002,0.2000008,0.5l-0.7000008,1.3999996h-7
	l4.1999998,5.0999994C14.7999983,17.3999996,14.7999983,21.7999992,14.8000002,21.7999992z M17.6000004,13.6000004l-1,1.1999998
	l0.6000004-1.1999998H17.6000004z M14.3000002,14.8000002l-1-1.1999998h3.499999l-0.6000004,1.1999998H14.3000002z"/>
</svg>
