<?xml version="1.0" encoding="utf-8"?>
<!-- Generator: Adobe Illustrator 24.3.0, SVG Export Plug-In . SVG Version: 6.00 Build 0)  -->
<svg version="1.1" id="Layer_1" xmlns="http://www.w3.org/2000/svg" xmlns:xlink="http://www.w3.org/1999/xlink" x="0px" y="0px"
	 viewBox="0 0 31 42" enable-background="new 0 0 31 42" xml:space="preserve">
<g id="Artwork_2_1_">
	<g>
		<g>
			<defs>
				<rect id="SVGID_1_" x="0.9" y="1" width="29.2000008" height="40"/>
			</defs>
			<clipPath id="SVGID_2_">
				<use xlink:href="#SVGID_1_"  overflow="visible"/>
			</clipPath>
			<g clip-path="url(#SVGID_2_)">
				<g>
					<defs>
						<rect id="SVGID_3_" x="0.9" y="1" width="29.2000008" height="40"/>
					</defs>
					<clipPath id="SVGID_4_">
						<use xlink:href="#SVGID_3_"  overflow="visible"/>
					</clipPath>
					<path clip-path="url(#SVGID_4_)" fill="#BA1E1A" d="M28.5,8.5c-1.5-2.6999998-3.5-4.6999998-6.2999992-6
						C19.8999996,1.4,17.6000004,1,15.1000004,1c-2.3999996,0.1-4.5,0.5-6.6000004,1.5999999
						c-3.9000001,2-6.3000002,5.0999999-7.1999998,9.1999989c-0.5,2.3000002-0.5,4.5-0.1,6.7999992
						c0.4,2,1.1999999,3.8999996,2.2999997,5.6000004c1.0999999,1.5,2.0999999,3.1000004,3.1999998,4.5
						C9,31.5999985,11.1999998,34.5,13.2999992,37.3999977c0.8000002,1.0999985,1.5,2.2999992,2.3000002,3.5
						c0.1000004-0.0999985,0.1000004-0.2999992,0.3000002-0.4000015c0.8999996-1.5,1.8999996-2.9000015,2.8999996-4.4000015
						c1.8999996-2.5,3.8999996-5.2000008,5.7999992-7.7999992c1.2000008-1.6000004,2.3999996-3.2000008,3.5-5
						c1.2999992-2.3999996,2.1000004-4.8999996,2.1000004-7.6000004C30.1000004,13.3000002,29.7000008,10.8000002,28.5,8.5"/>
				</g>
				<g>
					<defs>
						<rect id="SVGID_5_" x="0.9" y="1" width="29.2000008" height="40"/>
					</defs>
					<clipPath id="SVGID_6_">
						<use xlink:href="#SVGID_5_"  overflow="visible"/>
					</clipPath>
					<path clip-path="url(#SVGID_6_)" fill="#FFFFFF" d="M15.5,5.9000001c5.2999992,0,9.6000004,4.3000007,9.6000004,9.6000004
						S20.7999992,25.1000004,15.5,25.1000004S5.8999996,20.7999992,5.8999996,15.5
						C5.9000001,10.1999998,10.1999998,5.9000001,15.5,5.9000001"/>
				</g>
			</g>
		</g>
	</g>
</g>
<g>
	<g>
		<path d="M20.7999992,18.2999992c-0.3999996,0-0.7000008,0-1.1000004,0c-0.1000004,1-0.1000004,2-0.2000008,3
			c-0.6000004,0-1.2000008,0-1.7999992,0c0-0.3999996-0.1000004-0.7999992-0.1000004-1.1000004
			c0-0.6000004-0.1000004-1.1000004-0.1000004-1.7000008c0-0.2000008-0.1000004-0.2000008-0.2000008-0.2000008
			c-0.2999992,0-0.6000004,0-0.8999996,0c0.2999992-1.3999996,0.6000004-2.8000002,0.7999992-4.1999998
			c-0.2000008-0.1000004-0.2000008,0-0.2999992,0.1999998c-0.2000008,0.8999996-0.3999996,1.7999992-0.5,2.7000008
			c0,0,0,0.1000004,0,0.2000008c-0.2999992,0-0.6000004-0.1000004-0.8999996-0.1000004
			c0.1000004-0.2999992,0.1000004-0.6000004,0.1999998-0.8999996c0.1999998-1,0.4000006-2,0.5999994-3
			c0.1000004-0.5,0.2999992-0.6000004,0.7000008-0.6000004c1.1000004,0,2.2000008,0,3.2999992,0
			c0.3999996,0,0.6000004,0.1999998,0.7000008,0.6000004c0.2000008,1.1999998,0.5,2.5,0.7000008,3.7000008
			c0,0.1000004,0,0.2000008,0,0.2999992c-0.2999992,0-0.6000004,0.1000004-0.8999996,0.1000004
			C20.6999989,16.6999989,20.5999985,16.1999989,20.5,15.6999989c-0.1000004-0.3999996-0.2000008-0.8999996-0.2000008-1.3000002
			c0-0.1999998-0.1000004-0.1999998-0.2999992-0.1999998C20.2999992,15.3999996,20.5,16.7999992,20.7999992,18.2999992z"/>
		<path d="M19.7999992,10.8000002c0,0.6999998-0.5,1.3000002-1.2000008,1.3000002S17.3999977,11.5,17.3999977,10.8000002
			S17.8999977,9.5,18.5999985,9.5S19.7999992,10.1000004,19.7999992,10.8000002z"/>
	</g>
	<g>
		<path d="M13.8000002,14C13.6000004,13.8999996,13.5,14,13.5,14.1999998C13.3000002,16.2999992,13.1000004,18.3999996,13,20.5
			c0,0.2000008,0,0.3999996-0.1000004,0.6000004c0,0.1000004-0.1000004,0.2000008-0.1999998,0.2000008
			c-0.5,0-1.1000004,0-1.6000004,0c-0.1999998-2.3999996-0.3999996-4.8999996-0.6000004-7.3000002
			c-0.1000004,0-0.1999998,0-0.1999998,0c0,1,0,1.999999,0,2.999999c-0.3000002,0-0.6999998,0-1,0
			c0-0.1000004,0-0.2000008,0-0.2999992c0-1.1999998,0-2.3999996,0-3.5c0-0.5,0.1999998-0.8000002,0.8000002-0.8000002
			c1.3999996,0,2.6999998,0,4.0999994,0c0.5,0,0.6999998,0.3000002,0.6999998,0.8000002c0,1.3000002,0,2.5,0,3.7999992
			c-0.3000002,0-0.6999998,0-1,0C13.8000002,16,13.8000002,15,13.8000002,14z"/>
		<path d="M12,12.1000004c-0.6999998,0-1.1999998-0.6000004-1.1999998-1.3000002S11.3000002,9.5,12,9.5
			s1.1999998,0.6000004,1.1999998,1.3000002S12.6999998,12.1000004,12,12.1000004z"/>
	</g>
</g>
</svg>
