<?xml version="1.0" encoding="utf-8"?>
<!-- Generator: Adobe Illustrator 24.3.0, SVG Export Plug-In . SVG Version: 6.00 Build 0)  -->
<svg version="1.1" id="Layer_1" xmlns="http://www.w3.org/2000/svg" xmlns:xlink="http://www.w3.org/1999/xlink" x="0px" y="0px"
	 viewBox="0 0 31 42" enable-background="new 0 0 31 42" xml:space="preserve">
<g id="Artwork_2_1_">
	<g>
		<g>
			<defs>
				<rect id="SVGID_1_" x="0.9" y="1" width="29.2000008" height="40"/>
			</defs>
			<clipPath id="SVGID_2_">
				<use xlink:href="#SVGID_1_"  overflow="visible"/>
			</clipPath>
			<g clip-path="url(#SVGID_2_)">
				<g>
					<defs>
						<rect id="SVGID_3_" x="0.9" y="1" width="29.2000008" height="40"/>
					</defs>
					<clipPath id="SVGID_4_">
						<use xlink:href="#SVGID_3_"  overflow="visible"/>
					</clipPath>
					<path clip-path="url(#SVGID_4_)" fill="#BA1E1A" d="M28.5,8.5c-1.5-2.6999998-3.5-4.6999998-6.2999992-6
						C19.8999996,1.4,17.6000004,1,15.1000004,1c-2.3999996,0.1-4.5,0.5-6.6000004,1.5999999
						c-3.9000001,2-6.3000002,5.0999999-7.1999998,9.1999989c-0.5,2.3000002-0.5,4.5-0.1,6.7999992
						c0.4,2,1.1999999,3.8999996,2.2999997,5.6000004c1.0999999,1.5,2.0999999,3.1000004,3.1999998,4.5
						C9,31.5999985,11.1999998,34.5,13.2999992,37.3999977c0.8000002,1.0999985,1.5,2.2999992,2.3000002,3.5
						c0.1000004-0.0999985,0.1000004-0.2999992,0.3000002-0.4000015c0.8999996-1.5,1.8999996-2.9000015,2.8999996-4.4000015
						c1.8999996-2.5,3.8999996-5.2000008,5.7999992-7.7999992c1.2000008-1.6000004,2.3999996-3.2000008,3.5-5
						c1.2999992-2.3999996,2.1000004-4.8999996,2.1000004-7.6000004C30.1000004,13.3000002,29.7000008,10.8000002,28.5,8.5"/>
				</g>
				<g>
					<defs>
						<rect id="SVGID_5_" x="0.9" y="1" width="29.2000008" height="40"/>
					</defs>
					<clipPath id="SVGID_6_">
						<use xlink:href="#SVGID_5_"  overflow="visible"/>
					</clipPath>
					<path clip-path="url(#SVGID_6_)" fill="#FFFFFF" d="M15.5,5.9000001c5.2999992,0,9.6000004,4.3000007,9.6000004,9.6000004
						S20.7999992,25.1000004,15.5,25.1000004S5.8999996,20.7999992,5.8999996,15.5
						C5.9000001,10.1999998,10.1999998,5.9000001,15.5,5.9000001"/>
				</g>
			</g>
		</g>
	</g>
</g>
<g>
	<path d="M17.2999992,8.1000004c0.7000008,0.6999998,1.5,1.5,2.2000008,2.1999998
		C19.3999996,10.4000006,19.3999996,10.4000006,19.2999992,10.5c-0.5,0.3000002-0.2999992,0.8000002-0.1000004,1
		c0.2000008,0.1999998,0.7999992,0.3000002,1.1000004-0.1000004c0.1000004-0.1000004,0.1000004-0.1000004,0.2000008-0.1999998
		c0.7000008,0.6999998,1.5,1.5,2.2000008,2.1999998c-3,3-6.1000004,6.1000004-9.1000004,9.1000004
		c-0.6999998-0.7000008-1.5-1.5-2.1999998-2.2000008c0.1000004-0.1000004,0.1000004-0.1000004,0.1999998-0.2000008
		c0.3000002-0.2999992,0.3000002-0.7000008,0-1c-0.1999998-0.2000008-0.6999998-0.2000008-1,0
		C10.5,19.1999989,10.5,19.2999992,10.4000006,19.2999992c-0.6999998-0.7000008-1.5-1.5-2.1999998-2.2000008
		C11.1999998,14.1999998,14.1999998,11.1000004,17.2999992,8.1000004z M13.5,21.5c2.6000004-2.6000004,5.2999992-5.2999992,8-8
		c-0.2999992-0.3000002-0.7000008-0.6999998-1-1c0,0,0,0-0.1000004-0.1000004l0,0
		c-0.6000004,0.3000002-1.2999992,0.1999998-1.7000008-0.1999998c-0.5-0.5-0.6000004-1.1000004-0.2999992-1.6999998
		c0-0.1000004,0-0.1000004,0-0.1000004c-0.2000008-0.1000004-0.5-0.3000002-0.7000008-0.6000004
		c-0.1000004-0.1000004-0.2000008-0.1999998-0.5-0.5c-2.6000004,2.6000004-5.3000002,5.3000002-8,8
		C9.499999,17.5999985,9.8999987,18,10.2999992,18.3999996c0.6999998-0.2999992,1.3000002-0.2000008,1.6999998,0.2000008
		c0.6000004,0.6000004,0.6999998,1.1000004,0.3000002,1.7999992C12.8999996,20.7999992,13.1999998,21.1000004,13.5,21.5z"/>
	<path d="M16.3999996,12.8000002C16.6000004,13,16.6999989,13.1000004,17,13.4000006
		c-0.2000008,0.1999998-0.2999992,0.3000002-0.6000004,0.6000004c-0.2000008-0.1999998-0.2999992-0.3000002-0.6000004-0.6000004
		C16.1000004,13.1999998,16.2000008,12.8999996,16.3999996,12.8000002z"/>
	<path d="M16.1000004,12.3999996C15.9000006,12.5999994,15.8000002,12.6999998,15.5,13
		c-0.1999998-0.1999998-0.3000002-0.3000002-0.6000004-0.6000004c0.1999998-0.1999998,0.3000002-0.3000002,0.6000004-0.6000004
		C15.6000004,12,15.8000002,12.3000002,16.1000004,12.3999996z"/>
	<path d="M17.7999992,15.3999996C18,15.1999998,18.0999985,15.0999994,18.3999996,14.7999992
		C18.6000004,14.999999,18.6999989,15.0999994,19,15.3999996C18.7999992,15.5999994,18.7000008,15.6999998,18.3999996,16
		C18.1000004,15.6999998,18,15.5,17.7999992,15.3999996z"/>
	<path d="M17.2999992,14.8999996C17.0999985,14.6999998,17,14.5999994,16.6999989,14.2999992
		c0.2000008-0.1999998,0.2999992-0.3000002,0.6000004-0.6000004C17.5,13.8999987,17.5999985,13.999999,17.8999996,14.2999992
		C17.7999992,14.6000004,17.6000004,14.6999998,17.2999992,14.8999996z"/>
</g>
</svg>
