<?xml version="1.0" encoding="utf-8"?>
<!-- Generator: Adobe Illustrator 25.2.1, SVG Export Plug-In . SVG Version: 6.00 Build 0)  -->
<svg version="1.1" id="Layer_1" xmlns="http://www.w3.org/2000/svg" xmlns:xlink="http://www.w3.org/1999/xlink" x="0px" y="0px"
	 viewBox="0 0 31 42" enable-background="new 0 0 31 42" xml:space="preserve">
<g id="Artwork_7_1_">
	<g>
		<g>
			<defs>
				<rect id="SVGID_1_" x="0.909" y="1" width="29.182" height="40"/>
			</defs>
			<clipPath id="SVGID_2_">
				<use xlink:href="#SVGID_1_"  overflow="visible"/>
			</clipPath>
			<g clip-path="url(#SVGID_2_)">
				<g>
					<defs>
						<rect id="SVGID_3_" x="0.909" y="1" width="29.182" height="40"/>
					</defs>
					<clipPath id="SVGID_4_">
						<use xlink:href="#SVGID_3_"  overflow="visible"/>
					</clipPath>
					<path clip-path="url(#SVGID_4_)" d="M28.486,8.491c-1.472-2.675-3.479-4.682-6.288-6.02C19.924,1.401,17.65,1,15.108,1
						C12.7,1.134,10.56,1.535,8.553,2.605c-3.879,2.007-6.288,5.084-7.224,9.231c-0.535,2.274-0.535,4.548-0.134,6.822
						c0.401,2.007,1.204,3.88,2.274,5.619c1.071,1.472,2.141,3.077,3.211,4.549c2.274,2.942,4.549,5.752,6.555,8.695
						c0.803,1.071,1.472,2.275,2.274,3.479c0.134-0.134,0.134-0.268,0.268-0.402c0.937-1.471,1.873-2.943,2.943-4.415
						c1.873-2.542,3.879-5.216,5.752-7.758c1.204-1.606,2.409-3.211,3.479-4.951c1.338-2.407,2.14-4.949,2.14-7.625
						C30.091,13.307,29.69,10.765,28.486,8.491"/>
				</g>
			</g>
		</g>
	</g>
</g>
<g>
	<g>
		<path fill="#FFFFFF" d="M22.509,19.116c-0.499,0-0.873,0-1.372,0c-0.125,1.247-0.125,2.494-0.249,3.741c-0.748,0-1.496,0-2.245,0
			c0-0.499-0.125-0.998-0.125-1.372c0-0.748-0.125-1.372-0.125-2.12c0-0.249-0.125-0.249-0.249-0.249c-0.374,0-0.748,0-1.122,0
			c0.374-1.746,0.748-3.492,0.998-5.238c-0.249-0.125-0.249,0-0.374,0.249c-0.249,1.122-0.499,2.245-0.624,3.367
			c0,0,0,0.125,0,0.249c-0.374,0-0.748-0.125-1.122-0.125c0.125-0.374,0.125-0.748,0.249-1.122c0.249-1.247,0.499-2.494,0.748-3.741
			c0.125-0.624,0.374-0.748,0.873-0.748c1.372,0,2.743,0,4.115,0c0.499,0,0.748,0.249,0.873,0.748
			c0.249,1.496,0.624,3.118,0.873,4.614c0,0.125,0,0.249,0,0.374c-0.374,0-0.748,0.125-1.122,0.125
			c-0.125-0.748-0.249-1.372-0.374-1.995c-0.125-0.499-0.249-1.122-0.249-1.621c0-0.249-0.125-0.249-0.374-0.249
			C21.886,15.5,22.135,17.246,22.509,19.116z"/>
		<path fill="#FFFFFF" d="M21.262,9.764c0,0.873-0.624,1.621-1.496,1.621s-1.496-0.748-1.496-1.621c0-0.873,0.624-1.621,1.496-1.621
			C20.639,8.143,21.262,8.891,21.262,9.764z"/>
	</g>
	<g>
		<path fill="#FFFFFF" d="M13.78,13.754c-0.249-0.125-0.374,0-0.374,0.249c-0.249,2.619-0.499,5.238-0.624,7.856
			c0,0.249,0,0.499-0.125,0.748c0,0.125-0.125,0.249-0.249,0.249c-0.624,0-1.372,0-1.995,0c-0.249-2.993-0.499-6.11-0.748-9.103
			c-0.125,0-0.249,0-0.249,0c0,1.247,0,2.494,0,3.741c-0.374,0-0.873,0-1.247,0c0-0.125,0-0.249,0-0.374c0-1.496,0-2.993,0-4.365
			c0-0.624,0.249-0.998,0.998-0.998c1.746,0,3.367,0,5.113,0c0.624,0,0.873,0.374,0.873,0.998c0,1.621,0,3.118,0,4.739
			c-0.374,0-0.873,0-1.247,0C13.78,16.248,13.78,15.001,13.78,13.754z"/>
		<path fill="#FFFFFF" d="M11.535,11.385c-0.873,0-1.496-0.748-1.496-1.621c0-0.873,0.624-1.621,1.496-1.621
			c0.873,0,1.496,0.748,1.496,1.621C13.032,10.637,12.408,11.385,11.535,11.385z"/>
	</g>
</g>
</svg>
