<?xml version="1.0" encoding="utf-8"?>
<!-- Generator: Adobe Illustrator 24.3.0, SVG Export Plug-In . SVG Version: 6.00 Build 0)  -->
<svg version="1.1" id="Layer_1" xmlns="http://www.w3.org/2000/svg" xmlns:xlink="http://www.w3.org/1999/xlink" x="0px" y="0px"
	 viewBox="0 0 31 42" enable-background="new 0 0 31 42" xml:space="preserve">
<path d="M28.5,8.5c-1.5-2.6999998-3.5-4.6999998-6.2999992-6C19.8999996,1.4,17.6000004,1,15.1000004,1
	c-2.3999996,0.1-4.5,0.5-6.6000004,1.5999999c-3.9000001,2-6.3000002,5.0999999-7.1999998,9.1999989
	c-0.5,2.3000002-0.5,4.5-0.1,6.7999992c0.4,2,1.1999999,3.8999996,2.2999997,5.6000004
	c1.0999999,1.5,2.0999999,3.1000004,3.1999998,4.5C9,31.5999985,11.1999998,34.5,13.2999992,37.3999977
	c0.8000002,1.0999985,1.5,2.2999992,2.3000002,3.5c0.1000004-0.0999985,0.1000004-0.2999992,0.3000002-0.4000015
	c0.8999996-1.5,1.8999996-2.9000015,2.8999996-4.4000015c1.8999996-2.5,3.8999996-5.2000008,5.7999992-7.7999992
	c1.2000008-1.6000004,2.3999996-3.2000008,3.5-4.8999996c1.2999992-2.3999996,2.1000004-4.8999996,2.1000004-7.6000004
	C30.1000004,13.3000002,29.7000008,10.8000002,28.5,8.5z"/>
<path fill="#FFFFFF" d="M21.7000008,10.1999998C19.4000015,10.5,17.3000011,9.5,15.500001,7.8999996
	c-1.6999998,1.5-3.9000006,2.3999996-6.1999998,2.3000002c0,0,0,4.0999994,0,6.4000006c0,0.5,0,0.8999996,0.1000004,1.5
	c0.1000004,0.7999992,0.5,1.5,1.1000004,2.1000004c0.5,0.7999992,1.1999998,1.2999992,2,1.8999996
	c0.8000002,0.5,1.6999998,0.8999996,2.5,1.2999992c0.3000002,0.1000004,0.3999996,0.1000004,0.6999998,0
	C16.6000023,23,17.4000015,22.6000004,18.2000008,22.1000004c0.8999996-0.7000008,1.7000008-1.2999992,2.3999996-2.2999992
	c0.5-0.7999992,0.7999992-1.7000008,0.8999996-2.7999992c0-0.5,0-0.8999996,0-1.5
	C21.7000008,13.6999998,21.7000008,10.1999998,21.7000008,10.1999998z M19.7999992,15.6999998c0,0.4000006,0,0.6999998,0,1.0999994
	c0,0.7000008-0.2999992,1.2999992-0.7000008,2S18.1999989,20,17.4999981,20.3999996
	c-0.5,0.3999996-1.2000008,0.7000008-1.8999996,0.8999996c-0.1000004,0-0.3000002,0-0.3999996,0
	c-0.6999998-0.2999992-1.1999998-0.5-1.8999996-0.8999996c-0.5-0.3999996-1.1000004-0.7999992-1.5-1.2999992
	c-0.3999996-0.3999996-0.5-0.8999996-0.6999998-1.5C10.999999,17.3000011,10.999999,16.8999996,10.999999,16.5
	c0-1.6000004,0-4.5,0-4.5c1.6999998,0.1000004,3.1999998-0.5,4.4000006-1.6000004
	C16.6000004,11.5,18.1000004,12.0999994,19.7000008,12C19.7999992,12,19.7999992,14.3999996,19.7999992,15.6999998z"/>
</svg>
