<?xml version="1.0" encoding="utf-8"?>
<!-- Generator: Adobe Illustrator 25.2.1, SVG Export Plug-In . SVG Version: 6.00 Build 0)  -->
<svg version="1.1" id="Layer_1" xmlns="http://www.w3.org/2000/svg" xmlns:xlink="http://www.w3.org/1999/xlink" x="0px" y="0px"
	 viewBox="0 0 31 42" style="enable-background:new 0 0 31 42;" xml:space="preserve">
<style type="text/css">
	.st0{fill:#FFFFFF;}
</style>
<g id="Artwork_7_1_">
	<g>
		<g>
			<g>
				<g>
					<g>
						<g>
							<path d="M28.5,8.5c-1.5-2.7-3.5-4.7-6.3-6C19.9,1.4,17.6,1,15.1,1c-2.4,0.1-4.5,0.5-6.6,1.6c-3.9,2-6.3,5.1-7.2,9.2
								c-0.5,2.3-0.5,4.5-0.1,6.8c0.4,2,1.2,3.9,2.3,5.6c1.1,1.5,2.1,3.1,3.2,4.5c2.3,2.9,4.5,5.8,6.6,8.7c0.8,1.1,1.5,2.3,2.3,3.5
								c0.1-0.1,0.1-0.3,0.3-0.4c0.9-1.5,1.9-2.9,2.9-4.4c1.9-2.5,3.9-5.2,5.8-7.8c1.2-1.6,2.4-3.2,3.5-5c1.3-2.4,2.1-4.9,2.1-7.6
								C30.1,13.3,29.7,10.8,28.5,8.5"/>
						</g>
					</g>
				</g>
			</g>
		</g>
	</g>
</g>
<path class="st0" d="M12.4,20.6c0-3.5,0-7.1,0-10.7c3.2-0.6,6.6-1,9.7-1.7v0.1c0,3.9,0,7.9,0,11.8c0,0.6-0.4,1-0.7,1.2
	c-0.6,0.7-1.2,0.8-2.1,1.1c-0.7,0.1-1.2,0.1-1.9-0.1c-0.3-0.1-0.4-0.1-0.6-0.3c-0.6-0.4-0.7-0.8-0.4-1.5c0.1-0.3,0.4-0.7,0.7-0.7
	c1-0.8,2.4-1.1,3.3-1c0.1,0,0.6,0.1,0.7,0.1c0-2.5,0-5,0-7.5c-0.4,0.1-0.7,0.1-1.1,0.1c-1.8,0.3-3.5,0.6-5.3,0.8
	c-0.4,0-0.7,0.1-1.1,0.1c-0.1,0-0.1,0-0.1,0.1c0,0.3,0,0.6,0,0.7c0,2.6,0,5.4,0,8c0,0.4-0.1,0.7-0.4,1.1c-0.6,0.6-1,0.8-1.8,1.1
	c-0.7,0.3-2.1,0.1-2.4,0s-1.5-0.6-1.1-1.7c0.3-0.4,0.6-0.7,0.8-1c1-0.7,2.6-0.7,2.9-0.7C11.9,20.3,12.3,20.4,12.4,20.6z"/>
</svg>
