<?xml version="1.0" encoding="utf-8"?>
<!-- Generator: Adobe Illustrator 25.2.1, SVG Export Plug-In . SVG Version: 6.00 Build 0)  -->
<svg version="1.1" id="Layer_1" xmlns="http://www.w3.org/2000/svg" xmlns:xlink="http://www.w3.org/1999/xlink" x="0px" y="0px"
	 viewBox="0 0 31 42" enable-background="new 0 0 31 42" xml:space="preserve">
<g>
	<path d="M28.444,8.55c-1.5-2.7-3.5-4.7-6.3-6c-2.3-1.1-4.6-1.5-7.1-1.5c-2.4,0.1-4.5,0.5-6.6,1.6c-3.9,2-6.3,5.1-7.2,9.2
		c-0.5,2.3-0.5,4.5-0.1,6.8c0.4,2,1.2,3.9,2.3,5.6c1.1,1.5,2.1,3.1,3.2,4.5c2.3,2.9,4.5,5.8,6.6,8.7c0.8,1.1,1.5,2.3,2.3,3.5
		c0.1-0.1,0.1-0.3,0.3-0.4c0.9-1.5,1.9-2.9,2.9-4.4c1.9-2.5,3.9-5.2,5.8-7.8c1.2-1.6,2.4-3.2,3.5-4.9c1.3-2.4,2.1-4.9,2.1-7.6
		C30.044,13.35,29.644,10.85,28.444,8.55z"/>
	<circle fill="#FFFFFF" cx="15.444" cy="15.55" r="9.6"/>
</g>
</svg>
