<?xml version="1.0" encoding="utf-8"?>
<!-- Generator: Adobe Illustrator 24.3.0, SVG Export Plug-In . SVG Version: 6.00 Build 0)  -->
<svg version="1.1" id="Layer_1" xmlns="http://www.w3.org/2000/svg" xmlns:xlink="http://www.w3.org/1999/xlink" x="0px" y="0px"
	 viewBox="0 0 31 42" enable-background="new 0 0 31 42" xml:space="preserve">
<g>
	<path d="M28.444273,8.5500011c-1.5-2.6999998-3.5-4.6999998-6.2999992-6c-2.3000011-1.1-4.6000004-1.5-7.1000013-1.5
		c-2.3999996,0.1-4.5,0.5-6.6000004,1.5999999c-3.8999996,2-6.3000002,5.0999999-7.1999993,9.1999989
		c-0.5,2.3000002-0.5,4.5-0.1,6.7999992c0.4,2,1.1999998,3.8999996,2.2999997,5.6000004c1.1000001,1.5,2.1000001,3.1000004,3.2,4.5
		c2.2999997,2.8999996,4.4999995,5.8000031,6.599999,8.6999969c0.8000002,1.0999985,1.5,2.3000031,2.3000002,3.5
		c0.1000004-0.0999985,0.1000004-0.2999954,0.3000002-0.4000015c0.9000006-1.5,1.9000006-2.9000015,2.9000006-4.4000015
		c1.8999996-2.5,3.8999996-5.1999989,5.7999992-7.7999973c1.2000008-1.6000004,2.3999996-3.2000008,3.5-4.8999996
		c1.2999992-2.3999996,2.1000004-4.8999996,2.1000004-7.6000004C30.0442734,13.3500013,29.6442738,10.8500013,28.444273,8.5500011z"
		/>
	<circle fill="#FFFFFF" cx="15.444272" cy="15.5500011" r="9.6000004"/>
</g>
</svg>
