<?xml version="1.0" encoding="utf-8"?>
<!-- Generator: Adobe Illustrator 24.3.0, SVG Export Plug-In . SVG Version: 6.00 Build 0)  -->
<svg version="1.1" id="Layer_1" xmlns="http://www.w3.org/2000/svg" xmlns:xlink="http://www.w3.org/1999/xlink" x="0px" y="0px"
	 viewBox="0 0 30 30" enable-background="new 0 0 30 30" xml:space="preserve">
<g id="Artwork_1_1_">
	<g>
		<defs>
			<rect id="SVGID_1_" x="0.5" y="0.5" width="29" height="29"/>
		</defs>
		<clipPath id="SVGID_2_">
			<use xlink:href="#SVGID_1_"  overflow="visible"/>
		</clipPath>
		<rect x="0.5" y="0.5" clip-path="url(#SVGID_2_)" fill="#BA1E1A" width="29" height="29"/>
		<rect x="3" y="3" clip-path="url(#SVGID_2_)" fill="#FFFFFF" width="24" height="24"/>
	</g>
</g>
<rect x="5.6155825" y="5.6155825" fill="#FFFFFF" width="18.7688351" height="18.7688351"/>
<g>
	<path fill="#050000" d="M20.2909508,15.9930277c-0.233654-0.4673061-0.9346161-1.1682673-1.4019203-1.2850952
		c-1.4019203-0.116827-2.5701904-0.116827-3.9721107,0c-0.5841341,0-1.2850952,0.5841341-1.5187483,1.4019213
		c-0.3504801,0.7009602-0.7009611,1.5187473-0.8177872,2.2197094c-0.2336531,1.2850952-0.3504801,2.3365364,0,3.9721107
		c0.5841341,0,1.2850952,0,1.8692293,0c0.116827-0.233654,0.2336531-0.5841331,0.3504801-0.9346123
		c1.2850962,0,2.5701876,0,3.9721117,0c0.1168251,0.233654,0.233654,0.5841331,0.3504791,0.9346123
		c0.5841331,0,1.2850952,0,1.8692284,0c0.1168289-0.3504791,0.233654-0.8177872,0.233654-1.1682701
		C21.6928711,19.3810043,21.1087379,17.74543,20.2909508,15.9930277z M17.9544144,15.2920666
		c1.4019203,0.116827,1.9860573,0.9346142,2.2197075,2.4533634c-2.2197075,0-4.3225889,0-6.5422974,0
		C13.9823046,15.5257196,15.1505718,15.1752396,17.9544144,15.2920666z M14.9169188,19.8483124l-1.2850952-0.3504829
		l0.116827-0.4673042l1.4019213,0.3504791L14.9169188,19.8483124z M19.0058556,19.9651375
		c0,0-0.1168251-0.3504791-0.233654-0.467308c0.467308-0.1168251,0.9346161-0.2336502,1.4019203-0.3504791
		c0,0.233654,0.1168289,0.3504791,0.1168289,0.5841331C19.8236427,19.7314835,19.4731636,19.8483124,19.0058556,19.9651375z"/>
	<g>
		<path fill="#050000" d="M10.7111549,14.1237993v3.5048018H8.6082726v-9.930275h3.8552847
			c0.7009611,0,1.4019213,0.1168265,1.9860544,0.4673071c0.5841341,0.3504801,1.0514412,0.7009611,1.2850952,1.1682682
			c0.233655,0.4673071,0.467308,1.0514412,0.467308,1.7524014c0,0.9346142-0.350482,1.7524014-1.0514421,2.3365355
			c-0.7009592,0.5841331-1.5187483,0.7009611-2.6870155,0.7009611H10.7111549z M10.7111549,12.488224h1.8692284
			c0.5841341,0,0.9346142-0.116827,1.2850952-0.3504801c0.3504801-0.2336531,0.4673061-0.5841341,0.4673061-1.0514412
			s-0.116827-0.9346142-0.4673061-1.1682673c-0.3504801-0.233654-0.7009611-0.467308-1.1682682-0.467308h-1.9860554V12.488224z"/>
	</g>
</g>
</svg>
