<?xml version="1.0" encoding="utf-8"?>
<!-- Generator: Adobe Illustrator 24.3.0, SVG Export Plug-In . SVG Version: 6.00 Build 0)  -->
<svg version="1.1" id="Layer_1" xmlns="http://www.w3.org/2000/svg" xmlns:xlink="http://www.w3.org/1999/xlink" x="0px" y="0px"
	 viewBox="0 0 31 42" enable-background="new 0 0 31 42" xml:space="preserve">
<g>
	<g>
		<path fill="#BA1E1A" d="M28.5,8.5c-1.5-2.6999998-3.5-4.6999998-6.2999992-6C19.8999996,1.4,17.6000004,1,15.1000004,1
			c-2.3999996,0.1-4.5,0.5-6.6000004,1.5999999c-3.9000001,2-6.3000002,5.0999999-7.1999998,9.1999989
			c-0.5,2.3000002-0.5,4.5-0.1,6.7999992c0.4,2,1.1999999,3.8999996,2.2999997,5.6000004
			c1.0999999,1.5,2.0999999,3.1000004,3.1999998,4.5C9,31.5999985,11.1999998,34.5,13.2999992,37.3999977
			c0.8000002,1.0999985,1.5,2.2999992,2.3000002,3.5c0.1000004-0.0999985,0.1000004-0.2999992,0.3000002-0.4000015
			c0.8999996-1.5,1.8999996-2.9000015,2.8999996-4.4000015c1.8999996-2.5,3.8999996-5.2000008,5.7999992-7.7999992
			c1.2000008-1.6000004,2.3999996-3.2000008,3.5-4.8999996c1.2999992-2.3999996,2.1000004-4.8999996,2.1000004-7.6000004
			C30.1000004,13.3000002,29.7000008,10.8000002,28.5,8.5z"/>
	</g>
	<circle fill="#FFFFFF" cx="15.5" cy="15.5" r="9.6000004"/>
</g>
<g>
	<path fill="#081A3F" d="M14.5,14.6000004c0,0.1999998,0,0.6000004,0.1000004,0.8000002c1.5,0,3,0,4.3000011,0l0,0l0,0
		c0.6000004,1.4000006,1.2999992,2.8000002,1.7999992,4.1999998c0.5-0.1000004,0.8999996-0.2999992,1.3999996-0.5
		C22.2000008,19.3999996,22.3000011,19.7000008,22.3999996,20c-0.7999992,0.2999992-1.7000008,0.7000008-2.5,1
		c0-0.1000004-0.1000004-0.2000008-0.1000004-0.2999992c-0.6000004-1.3999996-1.1000004-2.6000004-1.7000008-4
		c0-0.1000004-0.1000004-0.1000004-0.1000004-0.1000004c-1.5,0-3,0-4.3999996,0c-0.1000004,0-0.1000004,0-0.1000004-0.1000004
		c0-0.2999992,0-0.6000004-0.1000004-0.8999996c0-0.3000002-0.1000004-0.8000002-0.1000004-1.1000004c0-0.5,0-0.8000002,0-1.1000004
		s-0.1000004-0.8000002-0.1000004-1.1000004s0-0.6000004-0.1000004-0.8999996c0-0.3000002,0-0.6999998-0.1000004-1
		c0,0,0,0,0-0.1000004c-0.3000002-0.8000002,0.1000004-1.6000004,1-1.8000002c0.6999998-0.1000004,1.3999996,0.3000002,1.5,1
		s-0.3000002,1.3999996-1,1.5h-0.1000004c0,0.8000002,0.1000004,1.6999998,0.1000004,2.5c1,0,2.2000008,0,3.2000008,0
		c0,0.5,0,0.8000002,0,1.3000002C16.6000004,14.6000004,15.6000004,14.6000004,14.5,14.6000004z"/>
	<path fill="#081A3F" d="M18.1000004,18.2000008C18.2000008,18.4000015,18.3000011,18.8000011,18.3999996,19
		c0.1000004,0.2000008,0.2000008,0.6000004,0.5,0.7999992v0.1000004C18.1999989,21.1999989,17.1999989,22,15.7999992,22.2999992
		c-2.5,0.6000004-4.8999996-0.8999996-5.6000004-3.3999996c-0.3000002-1.6000004,0-3,1-4.1999998
		c0.5-0.3000002,0.8999996-0.8000002,1.5-1c0,0,0,0,0.1000004,0l0,0c0,0.1000004,0,0.1000004,0,0.1999998
		c0,0.3000002,0,0.6000004,0.1000004,0.8999996c0,0.1000004,0,0.1000004,0,0.1999998v0.1000004
		c-0.8000002,0.6000004-1.3000002,1.3000002-1.5,2.3000002C11.1999998,18.5,11.5,19.5,12.1999998,20.1999989
		c0.6000004,0.6000004,1.1000004,0.8999996,1.8999996,1c1.1000004,0.1000004,2.0999994-0.1000004,2.8000002-0.8999996
		c0.6000004-0.5,0.7999992-1.1000004,0.8999996-1.7999992C18.1000004,18.2999992,18.1000004,18.2999992,18.1000004,18.2000008
		L18.1000004,18.2000008z"/>
</g>
</svg>
