<?xml version="1.0" encoding="utf-8"?>
<!-- Generator: Adobe Illustrator 25.2.1, SVG Export Plug-In . SVG Version: 6.00 Build 0)  -->
<svg version="1.1" id="Layer_1" xmlns="http://www.w3.org/2000/svg" xmlns:xlink="http://www.w3.org/1999/xlink" x="0px" y="0px"
	 viewBox="0 0 31 42" enable-background="new 0 0 31 42" xml:space="preserve">
<g>
	<g>
		<path fill="#BA1E1A" d="M28.5,8.5c-1.5-2.7-3.5-4.7-6.3-6C19.9,1.4,17.6,1,15.1,1c-2.4,0.1-4.5,0.5-6.6,1.6
			c-3.9,2-6.3,5.1-7.2,9.2c-0.5,2.3-0.5,4.5-0.1,6.8c0.4,2,1.2,3.9,2.3,5.6c1.1,1.5,2.1,3.1,3.2,4.5c2.3,2.9,4.5,5.8,6.6,8.7
			c0.8,1.1,1.5,2.3,2.3,3.5c0.1-0.1,0.1-0.3,0.3-0.4c0.9-1.5,1.9-2.9,2.9-4.4c1.9-2.5,3.9-5.2,5.8-7.8c1.2-1.6,2.4-3.2,3.5-4.9
			c1.3-2.4,2.1-4.9,2.1-7.6C30.1,13.3,29.7,10.8,28.5,8.5z"/>
	</g>
	<circle fill="#FFFFFF" cx="15.5" cy="15.5" r="9.6"/>
</g>
<g>
	<path fill="#081A3F" d="M14.5,14.6c0,0.2,0,0.6,0.1,0.8c1.5,0,3,0,4.3,0l0,0l0,0c0.6,1.4,1.3,2.8,1.8,4.2c0.5-0.1,0.9-0.3,1.4-0.5
		c0.1,0.3,0.2,0.6,0.3,0.9c-0.8,0.3-1.7,0.7-2.5,1c0-0.1-0.1-0.2-0.1-0.3c-0.6-1.4-1.1-2.6-1.7-4c0-0.1-0.1-0.1-0.1-0.1
		c-1.5,0-3,0-4.4,0c-0.1,0-0.1,0-0.1-0.1c0-0.3,0-0.6-0.1-0.9c0-0.3-0.1-0.8-0.1-1.1c0-0.5,0-0.8,0-1.1s-0.1-0.8-0.1-1.1
		s0-0.6-0.1-0.9c0-0.3,0-0.7-0.1-1c0,0,0,0,0-0.1c-0.3-0.8,0.1-1.6,1-1.8c0.7-0.1,1.4,0.3,1.5,1s-0.3,1.4-1,1.5h-0.1
		c0,0.8,0.1,1.7,0.1,2.5c1,0,2.2,0,3.2,0c0,0.5,0,0.8,0,1.3C16.6,14.6,15.6,14.6,14.5,14.6z"/>
	<path fill="#081A3F" d="M18.1,18.2c0.1,0.2,0.2,0.6,0.3,0.8c0.1,0.2,0.2,0.6,0.5,0.8v0.1c-0.7,1.3-1.7,2.1-3.1,2.4
		c-2.5,0.6-4.9-0.9-5.6-3.4c-0.3-1.6,0-3,1-4.2c0.5-0.3,0.9-0.8,1.5-1c0,0,0,0,0.1,0l0,0c0,0.1,0,0.1,0,0.2c0,0.3,0,0.6,0.1,0.9
		c0,0.1,0,0.1,0,0.2v0.1c-0.8,0.6-1.3,1.3-1.5,2.3c-0.2,1.1,0.1,2.1,0.8,2.8c0.6,0.6,1.1,0.9,1.9,1c1.1,0.1,2.1-0.1,2.8-0.9
		c0.6-0.5,0.8-1.1,0.9-1.8C18.1,18.3,18.1,18.3,18.1,18.2L18.1,18.2z"/>
</g>
</svg>
