<?xml version="1.0" encoding="utf-8"?>
<!-- Generator: Adobe Illustrator 24.3.0, SVG Export Plug-In . SVG Version: 6.00 Build 0)  -->
<svg version="1.1" id="Layer_1" xmlns="http://www.w3.org/2000/svg" xmlns:xlink="http://www.w3.org/1999/xlink" x="0px" y="0px"
	 viewBox="0 0 31 42" enable-background="new 0 0 31 42" xml:space="preserve">
<g>
	<g>
		<path fill="#BA1E1A" d="M28.5,8.5c-1.5-2.6999998-3.5-4.6999998-6.2999992-6C20,1.4,17.7000008,1,15.1999998,1
			c-2.4000006,0.1-4.5,0.5-6.5999994,1.5999999c-3.9000001,2-6.3000002,5.0999999-7.1999998,9.1999989
			c-0.5,2.3000002-0.5,4.5-0.1,6.7999992c0.4,2,1.1999999,3.8999996,2.2999997,5.6000004
			c1.0999999,1.5,2.0999999,3.1000004,3.1999998,4.5c2.3000002,2.8999996,4.5,5.8000011,6.5999994,8.6999989
			c0.8000002,1.0999985,1.5,2.2999992,2.3000002,3.5C15.8000002,40.7999992,15.8000002,40.5999985,16,40.4999962
			c0.8999996-1.5,1.8999996-2.9000015,2.8999996-4.4000015c1.8999996-2.5,3.8999996-5.2000008,5.8000011-7.7999992
			c1.2000008-1.6000004,2.3999996-3.2000008,3.5-4.8999996c1.2999992-2.3999996,2.1000004-4.8999996,2.1000004-7.6000004
			C30.1000004,13.3000002,29.7000008,10.8000002,28.5,8.5z"/>
	</g>
	<circle fill="#FFFFFF" cx="15.6000004" cy="15.5" r="9.6000004"/>
</g>
<g>
	<path fill="#081A3F" d="M12.6000004,13.5c0.1000004,0.1000004,0,0.1000004,0.1999998,0.1999998
		c0.1000004,0.1999998,0.3999996,0.3999996,0.5,0.5C13.5,14.3999996,13.6999998,14.8000002,13.4000006,15
		c-0.1999998,0.1999998-0.6999998,0.3000002-0.8999996-0.1000004c-0.1999998-0.1999998-0.6000004-0.5-0.8999996-0.8999996
		c-0.1999998-0.1999998-0.3999996-0.3000002-0.6000004-0.1999998c-0.6000004,0.3999996-1.1000004,0.1999998-1.6999998-0.5
		c-0.5-0.3999996-0.5-0.6999998,0-1.1999998c2.3000002-2.3999996,5.1999998-3.6000004,8.5-3.8000002
		c1-0.1000004,1.2999992,0.1000004,1.2999992,1C19.2000008,10.4000006,19,10.6999998,17.8999996,10.9000006
		c-1.3999996,0.1000004-2.8000002,0.5-4,1.1000004c-0.5,0.1000004-0.6000004,0.1999998-0.1999998,0.6999998
		c0.1999998,0.1999998,0.3999996,0.6000004,0,0.8000002c-0.1999998,0.1999998-0.6000004,0.1999998-0.8000002,0
		C12.8999996,13.5,12.8000002,13.5,12.6000004,13.5L12.6000004,13.5z M13.5,13.3999996
		C13.5,13.3999996,13.5,13.1999998,13.5,13.3999996c0.1000004-0.1999998,0.1000004-0.1999998,0-0.3999996
		c-0.6000004-0.6999998-0.5-1.1000004,0.3999996-1.3999996C15.1999998,11,16.5,10.6000004,18,10.5
		c0.7000008,0,0.7999992-0.1999998,0.7000008-1c0-0.6000004-0.1000004-0.6999998-0.7999992-0.6000004
		c-3.1000004,0-5.8999996,1.3000002-8.1999998,3.6000004c-0.1999998,0.1999998-0.1999998,0.3000002,0,0.6999998
		c0.6000004,0.6000004,0.5,0.6000004,1,0.3000002c0.3999996-0.3999996,0.8000002-0.1000004,1.1999998,0.1000004
		c0.1999998,0.1999998,0.5,0.5,0.8999996,0.8999996c0.1000004,0.1000004,0.1000004,0.1000004,0.1999998,0.1999998
		l0.1000004-0.1000004c-0.1999998-0.1999998-0.5-0.5-0.8000002-0.6999998c-0.1999998-0.1999998-0.1999998-0.5,0-0.8000002
		c0.1999998-0.1999998,0.5-0.1999998,0.6999998,0C13.1000004,13.1000004,13.1999998,13.1999998,13.5,13.3999996z"/>
	<path fill="#081A3F" d="M18.8999996,22.7000008c-0.2000008,0-0.3999996-0.1000004-0.5-0.1000004l0,0l-7.6999998-7.8999996
		c-0.1000004-0.1000004-0.1000004-0.1999998,0-0.3999996c0.1000004-0.1000004,0.1999998-0.1000004,0.3999996,0l7.5999994,7.8000011
		c0.1000004,0,0.2000008,0,0.3999996,0s0.1000004-0.1000004,0.2000008-0.2000008c0-1.2000008-1-10.6999998-1-10.6999998
		c0-0.1000004,0.1000004-0.1999998,0.2000008-0.1999998s0.2000008,0.1000004,0.2000008,0.1999998
		c0,0.3999996,1,9.9000006,1,10.8000002v0.1000004c-0.1000004,0.3999996-0.3999996,0.5-0.5,0.6000004
		C19.2000008,22.7000008,19,22.7000008,18.8999996,22.7000008z"/>
	<path fill="#081A3F" d="M16.5,13.8000002c-0.6000004,0-1.1000004-0.5-1.1000004-1.1000004s0.5-1.1000004,1.1000004-1.1000004
		s1.1000004,0.5,1.1000004,1.1000004C17.5,13.3999996,17.2000008,13.8000002,16.5,13.8000002z M16.5,12.1999998
		c-0.3999996,0-0.6000004,0.1999998-0.6000004,0.6000004c0,0.3999996,0.2000008,0.6000004,0.6000004,0.6000004
		s0.6000004-0.1999998,0.6000004-0.6000004C17.2000008,12.3999996,16.7999992,12.1999998,16.5,12.1999998z"/>
	<path fill="#081A3F" d="M14.6999998,17.1000004c-0.6000004,0-1.1000004-0.5-1.1000004-1.1000004s0.5-1.1000004,1.1000004-1.1000004
		s1.1000004,0.5,1.1000004,1.1000004S15.3000002,17.1000004,14.6999998,17.1000004z M14.6999998,15.3999996
		c-0.3999996,0-0.6000004,0.1999998-0.6000004,0.6000004c0,0.3999996,0.1999998,0.6000004,0.6000004,0.6000004
		c0.3999996,0,0.6000004-0.2000008,0.6000004-0.6000004S15,15.3999996,14.6999998,15.3999996z"/>
	<path fill="#081A3F" d="M17.7999992,19.8999996c-0.5,0-1-0.5-1-1s0.5-1,1-1s1,0.5,1,1
		C18.7000008,19.3999996,18.2999992,19.8999996,17.7999992,19.8999996z M17.7999992,18.3999996c-0.2000008,0-0.5,0.2000008-0.5,0.5
		c0,0.2000008,0.2000008,0.5,0.5,0.5c0.2000008,0,0.5-0.2000008,0.5-0.5C18.2999992,18.7000008,18,18.3999996,17.7999992,18.3999996
		z"/>
	<path fill="#081A3F" d="M17.2999992,16.8999996c-0.6000004,0-1.1000004-0.5-1.1000004-1.1000004s0.5-1.1000004,1.1000004-1.1000004
		s1.1000004,0.5,1.1000004,1.1000004S17.8999996,16.8999996,17.2999992,16.8999996z M17.2999992,15.3000002
		c-0.2000008,0-0.6000004,0.1999998-0.6000004,0.6000004S16.8999996,16.5,17.2999992,16.5s0.6000004-0.2000008,0.6000004-0.6000004
		S17.7000008,15.3000002,17.2999992,15.3000002z"/>
</g>
</svg>
