<?xml version="1.0" encoding="utf-8"?>
<!-- Generator: Adobe Illustrator 25.2.1, SVG Export Plug-In . SVG Version: 6.00 Build 0)  -->
<svg version="1.1" id="Layer_1" xmlns="http://www.w3.org/2000/svg" xmlns:xlink="http://www.w3.org/1999/xlink" x="0px" y="0px"
	 viewBox="0 0 31 42" enable-background="new 0 0 31 42" xml:space="preserve">
<g>
	<g>
		<g>
			<path fill="#BA1E1A" d="M28.5,8.5c-1.5-2.7-3.5-4.7-6.3-6C19.9,1.4,17.6,1,15.1,1c-2.4,0.1-4.5,0.5-6.6,1.6
				c-3.9,2-6.3,5.1-7.2,9.2c-0.5,2.3-0.5,4.5-0.1,6.8c0.4,2,1.2,3.9,2.3,5.6c1.1,1.5,2.1,3.1,3.2,4.5c2.3,2.9,4.5,5.8,6.6,8.7
				c0.8,1.1,1.5,2.3,2.3,3.5c0.1-0.1,0.1-0.3,0.3-0.4c0.9-1.5,1.9-2.9,2.9-4.4c1.9-2.5,3.9-5.2,5.8-7.8c1.2-1.6,2.4-3.2,3.5-4.9
				c1.3-2.4,2.1-4.9,2.1-7.6C30.1,13.3,29.7,10.8,28.5,8.5z"/>
		</g>
		<circle fill="#FFFFFF" cx="15.5" cy="15.5" r="9.6"/>
	</g>
	<g>
		<path d="M16.6,17.3c0-0.3-0.1-0.6-0.3-0.8c-0.2-0.2-0.5-0.4-0.9-0.5c-0.4-0.2-0.8-0.3-1.2-0.5s-0.7-0.4-0.9-0.6
			c-0.3-0.2-0.5-0.5-0.6-0.8s-0.2-0.7-0.2-1.1c0-0.7,0.2-1.3,0.7-1.8s1.1-0.7,2-0.8V9h1v1.4c0.8,0.1,1.4,0.4,1.8,1
			c0.4,0.5,0.7,1.2,0.7,2h-2.2c0-0.4-0.1-0.8-0.3-1C16,12.2,15.8,12,15.5,12s-0.5,0.1-0.7,0.3s-0.2,0.4-0.2,0.7s0.1,0.6,0.3,0.8
			s0.5,0.4,0.9,0.5c0.4,0.2,0.8,0.3,1.1,0.5c0.4,0.2,0.7,0.4,0.9,0.6c0.3,0.2,0.5,0.5,0.6,0.8c0.1,0.3,0.2,0.7,0.2,1.1
			c0,0.7-0.2,1.3-0.7,1.8s-1.1,0.7-1.9,0.8v1.3h-1v-1.3c-0.9-0.1-1.7-0.4-2.1-1s-0.7-1.3-0.7-2.1h2.2c0,0.5,0.1,0.9,0.3,1.1
			s0.5,0.4,0.9,0.4c0.3,0,0.5-0.1,0.7-0.3C16.5,17.9,16.6,17.6,16.6,17.3z"/>
	</g>
</g>
</svg>
