<?xml version="1.0" encoding="utf-8"?>
<!-- Generator: Adobe Illustrator 25.2.1, SVG Export Plug-In . SVG Version: 6.00 Build 0)  -->
<svg version="1.1" id="Layer_1" xmlns="http://www.w3.org/2000/svg" xmlns:xlink="http://www.w3.org/1999/xlink" x="0px" y="0px"
	 viewBox="0 0 31 42" enable-background="new 0 0 31 42" xml:space="preserve">
<g id="Artwork_7_1_">
	<g>
		<g>
			<defs>
				<rect id="SVGID_1_" x="0.909" y="1" width="29.182" height="40"/>
			</defs>
			<clipPath id="SVGID_2_">
				<use xlink:href="#SVGID_1_"  overflow="visible"/>
			</clipPath>
			<g clip-path="url(#SVGID_2_)">
				<g>
					<defs>
						<rect id="SVGID_3_" x="0.909" y="1" width="29.182" height="40"/>
					</defs>
					<clipPath id="SVGID_4_">
						<use xlink:href="#SVGID_3_"  overflow="visible"/>
					</clipPath>
					<path clip-path="url(#SVGID_4_)" d="M28.486,8.491c-1.472-2.675-3.479-4.682-6.288-6.02C19.924,1.401,17.65,1,15.108,1
						C12.7,1.134,10.56,1.535,8.553,2.605c-3.879,2.007-6.288,5.084-7.224,9.231c-0.535,2.274-0.535,4.548-0.134,6.822
						c0.401,2.007,1.204,3.88,2.274,5.619c1.071,1.472,2.141,3.077,3.211,4.549c2.274,2.942,4.549,5.752,6.555,8.695
						c0.803,1.071,1.472,2.275,2.274,3.479c0.134-0.134,0.134-0.268,0.268-0.402c0.937-1.471,1.873-2.943,2.943-4.415
						c1.873-2.542,3.879-5.216,5.752-7.758c1.204-1.606,2.409-3.211,3.479-4.951c1.338-2.407,2.14-4.949,2.14-7.625
						C30.091,13.307,29.69,10.765,28.486,8.491"/>
				</g>
			</g>
		</g>
	</g>
</g>
<g>
	<path fill="#FFFFFF" d="M15.5,19.8l2.9-9.6h3L16.9,23h-2.7L9.6,10.2h3L15.5,19.8z"/>
</g>
</svg>
