<?xml version="1.0" encoding="utf-8"?>
<!-- Generator: Adobe Illustrator 25.2.1, SVG Export Plug-In . SVG Version: 6.00 Build 0)  -->
<svg version="1.1" id="Layer_1" xmlns="http://www.w3.org/2000/svg" xmlns:xlink="http://www.w3.org/1999/xlink" x="0px" y="0px"
	 viewBox="0 0 31 42" enable-background="new 0 0 31 42" xml:space="preserve">
<g>
	<path d="M28.5,8.5c-1.5-2.7-3.5-4.7-6.3-6C19.9,1.4,17.6,1,15.1,1c-2.4,0.1-4.5,0.5-6.6,1.6c-3.9,2-6.3,5.1-7.2,9.2
		c-0.5,2.3-0.5,4.5-0.1,6.8c0.4,2,1.2,3.9,2.3,5.6c1.1,1.5,2.1,3.1,3.2,4.5c2.3,2.9,4.5,5.8,6.6,8.7c0.8,1.1,1.5,2.3,2.3,3.5
		c0.1-0.1,0.1-0.3,0.3-0.4c0.9-1.5,1.9-2.9,2.9-4.4c1.9-2.5,3.9-5.2,5.8-7.8c1.2-1.6,2.4-3.2,3.5-4.9c1.3-2.4,2.1-4.9,2.1-7.6
		C30.1,13.3,29.7,10.8,28.5,8.5z"/>
</g>
<g>
	<path fill="#F2F2F2" d="M13.9,14.6c0,0.3,0,0.7,0.1,0.9c1.7,0,3.4,0,5,0l0,0l0,0c0.7,1.6,1.4,3.3,2.1,4.9c0.5-0.1,1.1-0.4,1.6-0.5
		c0.1,0.4,0.3,0.7,0.4,1.1c-0.9,0.4-2,0.8-2.9,1.2c0-0.1-0.1-0.3-0.1-0.4c-0.7-1.6-1.3-3-2-4.6c0-0.1-0.1-0.1-0.1-0.1
		c-1.7,0-3.4,0-5.1,0c-0.1,0-0.1,0-0.1-0.1c0-0.4,0-0.7-0.1-1.1c0-0.4-0.1-0.9-0.1-1.3c0-0.5,0-0.9,0-1.3c0-0.4-0.1-0.9-0.1-1.3
		s0-0.7-0.1-1.1c0-0.4,0-0.8-0.1-1.2c0,0,0,0,0-0.1c-0.4-0.9,0.1-1.8,1.2-2.1c0.5-0.3,1.3,0.2,1.5,1s-0.4,1.6-1.2,1.7h-0.1
		c0,0.9,0.1,2,0.1,2.9c1.2,0,2.5,0,3.7,0c0,0.5,0,0.9,0,1.4C16.3,14.6,15.1,14.6,13.9,14.6z"/>
	<path fill="#F2F2F2" d="M18,18.8c0.1,0.3,0.3,0.7,0.4,0.9c0.1,0.3,0.3,0.7,0.5,0.9v0.1c-0.8,1.4-2,2.4-3.6,2.8
		c-2.9,0.7-5.7-1.1-6.4-3.9c-0.4-1.8,0-3.4,1.2-4.9c0.5-0.4,1.1-0.9,1.7-1.2c0,0,0,0,0.1,0l0,0c0,0.1,0,0.1,0,0.3
		c0,0.4,0,0.7,0.1,1.1c0,0.1,0,0.1,0,0.3v0.1c-0.9,0.7-1.4,1.4-1.7,2.6c-0.3,1.3,0.1,2.4,0.9,3.3c0.7,0.7,1.3,1.1,2.2,1.2
		c1.3,0.1,2.4-0.1,3.3-1.1c0.7-0.5,0.9-1.3,1.1-2.1C18,18.9,18,18.9,18,18.8L18,18.8z"/>
</g>
</svg>
