<?xml version="1.0" encoding="utf-8"?>
<!-- Generator: Adobe Illustrator 25.2.1, SVG Export Plug-In . SVG Version: 6.00 Build 0)  -->
<svg version="1.1" id="Layer_1" xmlns="http://www.w3.org/2000/svg" xmlns:xlink="http://www.w3.org/1999/xlink" x="0px" y="0px"
	 viewBox="0 0 31 42" style="enable-background:new 0 0 31 42;" xml:space="preserve">
<style type="text/css">
	.st0{fill:#FFFFFF;}
</style>
<g id="Artwork_7_1_">
	<g>
		<g>
			<g>
				<g>
					<g>
						<g>
							<path d="M28.5,8.5c-1.5-2.7-3.5-4.7-6.3-6C19.9,1.4,17.6,1,15.1,1c-2.4,0.1-4.5,0.5-6.6,1.6c-3.9,2-6.3,5.1-7.2,9.2
								c-0.5,2.3-0.5,4.5-0.1,6.8c0.4,2,1.2,3.9,2.3,5.6c1.1,1.5,2.1,3.1,3.2,4.5c2.3,2.9,4.5,5.8,6.6,8.7c0.8,1.1,1.5,2.3,2.3,3.5
								c0.1-0.1,0.1-0.3,0.3-0.4c0.9-1.5,1.9-2.9,2.9-4.4c1.9-2.5,3.9-5.2,5.8-7.8c1.2-1.6,2.4-3.2,3.5-5c1.3-2.4,2.1-4.9,2.1-7.6
								C30.1,13.3,29.7,10.8,28.5,8.5"/>
						</g>
					</g>
				</g>
			</g>
		</g>
	</g>
</g>
<g>
	<path class="st0" d="M16.9,17.8c0-0.4-0.1-0.8-0.3-1s-0.6-0.5-1.1-0.7c-0.5-0.2-1-0.4-1.5-0.7c-0.5-0.2-0.8-0.5-1.2-0.8
		c-0.3-0.3-0.6-0.6-0.7-1c-0.2-0.4-0.3-0.9-0.3-1.4c0-0.9,0.3-1.7,0.9-2.3c0.6-0.6,1.4-0.9,2.5-1V7.3h1.3V9c1,0.1,1.8,0.6,2.3,1.2
		s0.8,1.5,0.8,2.5h-2.7c0-0.6-0.1-1-0.3-1.3c-0.2-0.3-0.5-0.5-0.9-0.5s-0.6,0.1-0.8,0.3s-0.3,0.5-0.3,0.9s0.1,0.7,0.3,1
		s0.6,0.5,1.1,0.7c0.5,0.2,1,0.4,1.4,0.7c0.4,0.2,0.8,0.5,1.2,0.8s0.6,0.6,0.8,1c0.2,0.4,0.3,0.9,0.3,1.4c0,0.9-0.3,1.7-0.9,2.3
		c-0.6,0.6-1.4,0.9-2.4,1v1.6H15V21c-1.2-0.1-2.1-0.5-2.7-1.2c-0.6-0.7-0.9-1.6-0.9-2.7h2.7c0,0.6,0.1,1.1,0.4,1.4s0.7,0.5,1.2,0.5
		c0.4,0,0.7-0.1,0.9-0.3C16.8,18.5,16.9,18.2,16.9,17.8z"/>
</g>
</svg>
