<?xml version="1.0" encoding="utf-8"?>
<!-- Generator: Adobe Illustrator 25.2.1, SVG Export Plug-In . SVG Version: 6.00 Build 0)  -->
<svg version="1.1" id="Layer_1" xmlns="http://www.w3.org/2000/svg" xmlns:xlink="http://www.w3.org/1999/xlink" x="0px" y="0px"
	 viewBox="0 0 32.5 38.461" enable-background="new 0 0 32.5 38.461" xml:space="preserve">
<g>
	<path fill="#BA1E1A" d="M32.495,5.273l-1.496-0.217c-0.392-0.055-0.774-0.108-1.154-0.174C28,4.562,26.166,4.097,24.393,3.497
		c-1.829-0.618-3.681-1.401-5.503-2.327l-0.798-0.414c-0.393-0.205-0.786-0.411-1.187-0.61c-0.379-0.188-0.88-0.196-1.273-0.019
		c-0.214,0.096-0.422,0.205-0.629,0.315c-0.111,0.058-0.222,0.118-0.335,0.174l-0.901,0.452c-0.741,0.373-1.482,0.747-2.239,1.093
		c-1.485,0.678-3.088,1.272-4.762,1.766c-1.491,0.438-2.893,0.76-4.288,0.983C2.135,4.963,1.79,5.014,1.439,5.065L0.003,5.278
		L0.002,20.335C0,20.966-0.002,21.595,0.005,22.227l0.001,0.137c0.003,0.378,0.007,0.807,0.085,1.246
		c0.29,1.604,0.98,3.164,2.11,4.77c0.796,1.133,1.749,2.206,2.91,3.276c1.374,1.268,2.887,2.416,4.498,3.413
		c0.997,0.618,2.083,1.243,3.521,2.03c0.654,0.358,1.331,0.677,1.984,0.985l0.51,0.241c0.189,0.091,0.405,0.136,0.621,0.136
		c0.196,0,0.392-0.037,0.57-0.111c0.335-0.14,0.659-0.296,0.984-0.455c1.78-0.868,3.32-1.712,4.708-2.579
		c2.23-1.393,4.049-2.804,5.562-4.314c1.786-1.785,3.017-3.559,3.764-5.425c0.315-0.789,0.639-1.737,0.655-2.789
		c0.014-0.949,0.011-1.899,0.008-2.848L32.495,5.273z"/>
	<g>
		<path fill="#F9F9F9" stroke="#20202A" stroke-width="1.6" stroke-miterlimit="10" d="M23.23,13.847
			c-0.027,0.032-0.054,0.063-0.084,0.092c-0.567,0.567-1.485,0.567-2.052,0c-0.567-0.567-0.567-1.485,0-2.052
			c0.03-0.03,0.061-0.057,0.092-0.084l-2.545-2.545L6.726,21.175l2.545,2.545c0.027-0.032,0.054-0.063,0.084-0.092
			c0.567-0.567,1.485-0.567,2.052,0c0.567,0.567,0.567,1.485,0,2.052c-0.03,0.03-0.061,0.057-0.092,0.084l2.545,2.545l11.915-11.915
			L23.23,13.847z"/>
		<g>
			
				<rect x="15.444" y="14.829" transform="matrix(0.7071 0.7071 -0.7071 0.7071 15.6335 -6.836)" fill="#20202A" width="1.249" height="1.249"/>
			
				<rect x="16.614" y="15.999" transform="matrix(0.7071 0.7071 -0.7071 0.7071 16.8042 -7.3209)" fill="#20202A" width="1.249" height="1.249"/>
			
				<rect x="17.785" y="17.17" transform="matrix(0.7071 0.7071 -0.7071 0.7071 17.9748 -7.8058)" fill="#20202A" width="1.249" height="1.249"/>
			
				<rect x="18.956" y="18.341" transform="matrix(0.7071 0.7071 -0.7071 0.7071 19.1455 -8.2907)" fill="#20202A" width="1.249" height="1.249"/>
		</g>
	</g>
</g>
</svg>
