<?xml version="1.0" encoding="utf-8"?>
<!-- Generator: Adobe Illustrator 25.2.1, SVG Export Plug-In . SVG Version: 6.00 Build 0)  -->
<svg version="1.1" id="Layer_1" xmlns="http://www.w3.org/2000/svg" xmlns:xlink="http://www.w3.org/1999/xlink" x="0px" y="0px"
	 viewBox="0 0 30 30" enable-background="new 0 0 30 30" xml:space="preserve">
<rect x="0.5" y="0.5" width="29" height="29"/>
<g>
	<path fill="#F2F2F2" d="M21.92,16.256c-0.307-0.614-1.227-1.534-1.841-1.687c-1.841-0.153-3.375-0.153-5.216,0
		c-0.767,0-1.687,0.767-1.994,1.841c-0.46,0.92-0.92,1.994-1.074,2.915c-0.307,1.687-0.46,3.068,0,5.216c0.767,0,1.687,0,2.454,0
		c0.153-0.307,0.307-0.767,0.46-1.227c1.687,0,3.375,0,5.216,0c0.153,0.307,0.307,0.767,0.46,1.227c0.767,0,1.687,0,2.454,0
		c0.153-0.46,0.307-1.074,0.307-1.534C23.761,20.705,22.994,18.557,21.92,16.256z M18.852,15.336
		c1.841,0.153,2.608,1.227,2.915,3.222c-2.915,0-5.676,0-8.591,0C13.636,15.642,15.17,15.182,18.852,15.336z M14.863,21.318
		l-1.687-0.46l0.153-0.614l1.841,0.46L14.863,21.318z M20.232,21.472c0,0-0.153-0.46-0.307-0.614
		c0.614-0.153,1.227-0.307,1.841-0.46c0,0.307,0.153,0.46,0.153,0.767C21.306,21.165,20.846,21.318,20.232,21.472z"/>
	<g>
		<path fill="#F2F2F2" d="M9.341,13.802v4.602H6.579V5.364h5.062c0.92,0,1.841,0.153,2.608,0.614c0.767,0.46,1.381,0.92,1.687,1.534
			c0.307,0.614,0.614,1.381,0.614,2.301c0,1.227-0.46,2.301-1.381,3.068c-0.92,0.767-1.994,0.92-3.528,0.92H9.341z M9.341,11.654
			h2.454c0.767,0,1.227-0.153,1.687-0.46c0.46-0.307,0.614-0.767,0.614-1.381c0-0.614-0.153-1.227-0.614-1.534
			c-0.46-0.307-0.92-0.614-1.534-0.614H9.341V11.654z"/>
	</g>
</g>
</svg>
