<?xml version="1.0" encoding="utf-8"?>
<!-- Generator: Adobe Illustrator 24.3.0, SVG Export Plug-In . SVG Version: 6.00 Build 0)  -->
<svg version="1.1" id="Layer_1" xmlns="http://www.w3.org/2000/svg" xmlns:xlink="http://www.w3.org/1999/xlink" x="0px" y="0px"
	 viewBox="0 0 30 30" enable-background="new 0 0 30 30" xml:space="preserve">
<g id="Artwork_8_1_">
	<g>
		<defs>
			<rect id="SVGID_1_" x="0.5" y="0.5" width="29" height="29"/>
		</defs>
		<clipPath id="SVGID_2_">
			<use xlink:href="#SVGID_1_"  overflow="visible"/>
		</clipPath>
		<rect x="0.5" y="0.5" clip-path="url(#SVGID_2_)" width="29" height="29"/>
	</g>
</g>
<g>
	<path fill="#FFFFFF" d="M3.8,14.3000002C4.4000001,14,5,13.6999998,5.4000001,13.3999996c4.7000003-2.3999996,9.3000011-5,14-7.5
		c0.2999992-0.0999999,0.7000008-0.4000001,1-0.5999999c0.2999992-0.0999999,0.3999996-0.0999999,0.7000008,0.0999999
		c0.7000008,1.4000001,1.6000004,2.8000002,2.2999992,4.1999998C23.3999996,9.6999998,23.5,9.8999996,23.5,9.8999996
		c0.1000004,0.3000002,0.1000004,0.6000004-0.1000004,0.6999998C20,12.3999996,16.5,14.2999992,13.0999994,16.0999985
		c-1,0.6000004-2,1-2.8000002,1.6000004H10C7.8000002,16.7000008,5.8000002,15.6000004,3.8,14.3000002
		C3.8,14.3999996,3.8,14.3000002,3.8,14.3000002z"/>
	<path fill="#FFFFFF" d="M18,18.5c-0.2999992-0.6000004-0.6000004-1.1000004-0.7999992-1.7000008
		C14.500001,18.1999989,12.000001,19.5999985,9.3000011,21c-0.6999998-1.2999992-1.4000001-2.7000008-2.0999999-4
		c0,0,0.0999999,0,0.0999999,0.1000004c0.8000002,0.6000004,1.8000002,1.1000004,2.6999998,1.6000004
		c0.1000004,0,0.1000004,0,0.3000002,0c4-2.1000004,8.1000004-4.3999996,12.1999989-6.6000004c0,0,0.1000004,0,0.1000004-0.1000004
		c0.2999992,0.3999996,0.6000004,1,0.7000008,1.3999996c-1.6000004,0.8000002-3.1000004,1.6999998-4.6999989,2.5
		C18.9000015,16.5,19.2000027,17,19.4000015,17.6000004c-0.2999992,0.1000004-0.6000004,0.1000004-0.7999992,0.2999992
		C18.3999996,18.2999992,18.1000004,18.3999996,18,18.5z"/>
	<path fill="#FFFFFF" d="M23.6000004,15.8999996c1,0,1.7999992,0,2.7000008,0c0,2.7999992,0,5.5,0,8.3000011
		c-0.7999992,0-1.7999992,0-2.7000008,0c0-1.1000004,0-2.1000004,0-3.2999992c-0.6000004,0-1.1000004,0-1.7999992,0
		c0.2999992-0.6000004,0.2999992-1.1000004,0-1.7999992c0.6000004,0,1.1000004,0,1.7999992,0
		C23.6000004,18,23.6000004,17,23.6000004,15.8999996z"/>
	<path fill="#FFFFFF" d="M7.5,20.7000008C6.9000001,21,6.5,21.3000011,5.9000001,21.5
		c-0.6999998-1.3999996-1.5999999-2.7999992-2.3-4.2000008C4.2000003,17,4.6000004,16.6999989,5.2000003,16.5
		C5.9000001,17.7999992,6.6999998,19.2000008,7.5,20.7000008z"/>
	<path fill="#FFFFFF" d="M19.7999992,18.5c0.7999992,0,1.6000004,0.7000008,1.6000004,1.6000004
		s-0.7000008,1.6000004-1.6000004,1.6000004S18.1999989,21,18.1999989,20.1000004C18.2999992,19.1000004,19,18.5,19.7999992,18.5z"
		/>
</g>
</svg>
