<?xml version="1.0" encoding="utf-8"?>
<!-- Generator: Adobe Illustrator 25.2.1, SVG Export Plug-In . SVG Version: 6.00 Build 0)  -->
<svg version="1.1" id="Layer_1" xmlns="http://www.w3.org/2000/svg" xmlns:xlink="http://www.w3.org/1999/xlink" x="0px" y="0px"
	 viewBox="0 0 31 42" style="enable-background:new 0 0 31 42;" xml:space="preserve">
<style type="text/css">
	.st0{fill:#FFFFFF;}
</style>
<g id="Artwork_7_1_">
	<g>
		<g>
			<g>
				<g>
					<g>
						<g>
							<path d="M28.5,8.5c-1.5-2.7-3.5-4.7-6.3-6C19.9,1.4,17.6,1,15.1,1c-2.4,0.1-4.5,0.5-6.6,1.6c-3.9,2-6.3,5.1-7.2,9.2
								c-0.5,2.3-0.5,4.5-0.1,6.8c0.4,2,1.2,3.9,2.3,5.6c1.1,1.5,2.1,3.1,3.2,4.5c2.3,2.9,4.5,5.8,6.6,8.7c0.8,1.1,1.5,2.3,2.3,3.5
								c0.1-0.1,0.1-0.3,0.3-0.4c0.9-1.5,1.9-2.9,2.9-4.4c1.9-2.5,3.9-5.2,5.8-7.8c1.2-1.6,2.4-3.2,3.5-5c1.3-2.4,2.1-4.9,2.1-7.6
								C30.1,13.3,29.7,10.8,28.5,8.5"/>
						</g>
					</g>
				</g>
			</g>
		</g>
	</g>
</g>
<g>
	<path class="st0" d="M12.6,13.8c0.1,0.1,0,0.1,0.2,0.2c0.1,0.3,0.4,0.4,0.5,0.5c0.3,0.3,0.4,0.7,0.1,0.9c-0.3,0.3-0.7,0.3-1-0.1
		c-0.3-0.3-0.7-0.6-1-0.9c-0.3-0.3-0.4-0.3-0.7-0.2c-0.7,0.4-1.2,0.3-1.8-0.5c-0.5-0.4-0.5-0.8,0-1.3c2.5-2.6,5.6-3.9,9.3-4.2
		c1-0.1,1.4,0.1,1.4,1c0.1,1.2-0.1,1.6-1.3,1.7c-1.6,0.1-3,0.5-4.3,1.2c-0.5,0.1-0.7,0.3-0.3,0.8c0.3,0.3,0.4,0.7,0,0.9
		c-0.3,0.3-0.7,0.3-0.9,0C12.9,13.7,12.8,13.8,12.6,13.8L12.6,13.8z M13.5,13.6C13.5,13.6,13.5,13.5,13.5,13.6
		c0.1-0.3,0.1-0.3,0-0.4c-0.7-0.8-0.5-1.2,0.4-1.6c1.4-0.7,2.9-1,4.4-1.2c0.8,0,0.9-0.3,0.8-1c0-0.7-0.1-0.8-0.9-0.7
		c-3.4,0-6.4,1.4-8.9,3.9C9,12.9,9,13,9.3,13.4c0.7,0.7,0.6,0.6,1.1,0.4c0.4-0.4,0.9-0.1,1.3,0.2c0.3,0.3,0.5,0.5,0.9,0.9
		c0.1,0.1,0.1,0.1,0.2,0.3l0.1-0.1c-0.3-0.3-0.6-0.5-0.8-0.8s-0.3-0.5,0-0.9c0.3-0.3,0.5-0.3,0.8,0C13.1,13.4,13.3,13.5,13.5,13.6z"
		/>
	<path class="st0" d="M19.4,23.8c-0.3,0-0.4-0.1-0.5-0.1l0,0L10.5,15c-0.1-0.1-0.1-0.3,0-0.4c0.1-0.1,0.3-0.1,0.4,0l8.2,8.5
		c0.1,0,0.3,0,0.4,0s0.1-0.1,0.3-0.3c0-1.3-1-11.6-1-11.6c0-0.1,0.1-0.3,0.3-0.3c0.1,0,0.3,0.1,0.3,0.3c0,0.4,1,10.7,1,11.7V23
		c-0.1,0.4-0.4,0.5-0.5,0.7C19.8,23.8,19.5,23.8,19.4,23.8z"/>
	<path class="st0" d="M16.8,14.1c-0.7,0-1.2-0.5-1.2-1.2s0.5-1.2,1.2-1.2s1.2,0.5,1.2,1.2C17.9,13.6,17.6,14.1,16.8,14.1z
		 M16.8,12.3c-0.4,0-0.7,0.3-0.7,0.7s0.3,0.7,0.7,0.7s0.7-0.3,0.7-0.7C17.6,12.6,17.2,12.3,16.8,12.3z"/>
	<path class="st0" d="M14.8,17.7c-0.7,0-1.2-0.5-1.2-1.2c0-0.7,0.5-1.2,1.2-1.2s1.2,0.5,1.2,1.2C16,17.1,15.5,17.7,14.8,17.7z
		 M14.8,15.8c-0.4,0-0.7,0.3-0.7,0.7s0.3,0.7,0.7,0.7s0.7-0.3,0.7-0.7S15.2,15.8,14.8,15.8z"/>
	<path class="st0" d="M18.2,20.7c-0.5,0-1-0.5-1-1s0.5-1,1-1s1,0.5,1,1C19.2,20.1,18.7,20.7,18.2,20.7z M18.2,19.1
		c-0.3,0-0.5,0.3-0.5,0.5c0,0.3,0.3,0.5,0.5,0.5c0.3,0,0.5-0.3,0.5-0.5C18.7,19.3,18.5,19.1,18.2,19.1z"/>
	<path class="st0" d="M17.7,17.4c-0.7,0-1.2-0.5-1.2-1.2c0-0.7,0.5-1.2,1.2-1.2s1.2,0.5,1.2,1.2C18.9,16.9,18.3,17.4,17.7,17.4z
		 M17.7,15.7c-0.3,0-0.7,0.3-0.7,0.7s0.3,0.7,0.7,0.7s0.7-0.3,0.7-0.7C18.3,16,18.1,15.7,17.7,15.7z"/>
</g>
</svg>
