<?xml version="1.0" encoding="utf-8"?>
<!-- Generator: Adobe Illustrator 24.3.0, SVG Export Plug-In . SVG Version: 6.00 Build 0)  -->
<svg version="1.1" id="Layer_1" xmlns="http://www.w3.org/2000/svg" xmlns:xlink="http://www.w3.org/1999/xlink" x="0px" y="0px"
	 viewBox="0 0 31 42" enable-background="new 0 0 31 42" xml:space="preserve">
<g id="Artwork_7_1_">
	<g>
		<defs>
			<rect id="SVGID_1_" x="0.9087982" y="1" width="29.1824036" height="40"/>
		</defs>
		<clipPath id="SVGID_2_">
			<use xlink:href="#SVGID_1_"  overflow="visible"/>
		</clipPath>
		<g clip-path="url(#SVGID_2_)">
			<defs>
				<rect id="SVGID_3_" x="0.9087982" y="1" width="29.1819992" height="40"/>
			</defs>
			<clipPath id="SVGID_4_">
				<use xlink:href="#SVGID_3_"  overflow="visible"/>
			</clipPath>
			<path clip-path="url(#SVGID_4_)" d="M28.4857979,8.4914017c-1.4720001-2.6749992-3.4790001-4.6819992-6.2880001-6.0199966
				c-2.2740002-1.0700035-4.5480003-1.4710007-7.0900002-1.4710007c-2.408,0.1339989-4.5480003,0.5349998-6.5550003,1.6049995
				c-3.8789997,2.007-6.2880001,5.0839996-7.223999,9.230999c-0.5349998,2.2740002-0.5349998,4.5480003-0.1340008,6.8219986
				c0.401001,2.007,1.2040005,3.8800011,2.2740002,5.6190014c1.0710011,1.4719982,2.1410007,3.0769997,3.2110004,4.5489979
				c2.2740002,2.9420013,4.5489998,5.7519989,6.5549994,8.6949997c0.8030005,1.0709991,1.4720001,2.2750015,2.2740002,3.4790001
				c0.1339998-0.1339989,0.1339998-0.2679977,0.2680006-0.4020004c0.9370003-1.4709969,1.8729992-2.942997,2.9429989-4.4149971
				c1.8729992-2.5419998,3.8789997-5.2160015,5.7520008-7.7580013c1.2039986-1.6060009,2.4089985-3.2110004,3.4789982-4.9510002
				c1.3380013-2.4069996,2.1400013-4.9489994,2.1400013-7.625C30.0907974,13.3074017,29.6897964,10.7654018,28.4857979,8.4914017"/>
		</g>
	</g>
</g>
<g>
	<path fill="#FFFFFF" d="M17.7999992,7.5999999c0.7999992,0.7999997,1.7000008,1.7000003,2.5,2.5000005
		C20.1999989,10.2000008,20.1999989,10.2000008,20,10.4000006c-0.5,0.3999996-0.3999996,0.8999996-0.1000004,1.1999998
		S20.7999992,12,21.1999989,11.5c0.1000004-0.1000004,0.1000004-0.1000004,0.2999992-0.3000002
		c0.7999992,0.8000002,1.7000008,1.6999998,2.5,2.5c-3.5,3.500001-7.1000004,7.0999994-10.6000004,10.5999994
		c-0.8000002-0.7999992-1.6999998-1.7000008-2.5-2.5c0.1000004-0.1000004,0.1000004-0.1000004,0.3000002-0.2999992
		c0.3999996-0.3999996,0.3999996-0.7999992,0-1.2000008C10.8999977,20,10.3999977,20,9.9999981,20.2999992
		c-0.1000004,0.1000004-0.1000004,0.2999992-0.3000002,0.2999992c-0.8000002-0.7999992-1.6999998-1.7000008-2.5-2.5
		C10.8000002,14.6999998,14.1999998,11.1000004,17.7999992,7.5999999z M13.3999996,23.1000004
		C16.5,20,19.5,17,22.7999992,13.7000008C22.3999996,13.3000011,22,12.9000006,21.5999985,12.500001c0,0,0,0-0.1000004-0.1000004
		l0,0c-0.7000008,0.3999996-1.5,0.3000002-2-0.3000002c-0.5-0.5-0.7000008-1.3000002-0.3999996-2
		c0-0.1000004,0-0.1000004,0-0.1000004c-0.2999992-0.1000004-0.5-0.3999996-0.7999992-0.6999998
		C18.1999989,9.1999998,18,9,17.7999992,8.8000002c-3.1000004,3.0999994-6.1000004,6.0999994-9.3999996,9.4000006
		C8.7999992,18.6000004,9.1999998,19,9.6999998,19.5c0.8000002-0.3999996,1.5-0.2999992,2,0.2999992
		C12.3999996,20.5,12.5,21.0999985,12.0999994,21.8999996C12.6000004,22.2999992,13,22.7000008,13.3999996,23.1000004z"/>
	<path fill="#FFFFFF" d="M16.7999992,13.1000004C17.0999985,13.4000006,17.1999989,13.5,17.5,13.8000002
		C17.2000008,14.1000004,17.1000004,14.1999998,16.7999992,14.5C16.5,14.1999998,16.3999996,14.1000004,16.0999985,13.8000002
		C16.3999996,13.5,16.5,13.3000002,16.7999992,13.1000004z"/>
	<path fill="#FFFFFF" d="M16.3999996,12.6000004C16.1000004,12.9000006,16,13,15.6999998,13.3000002
		C15.3999996,13,15.3000002,12.9000006,15,12.6000004c0.3000002-0.3000002,0.3999996-0.3999996,0.6999998-0.6999998
		C15.8000002,12.1999998,16.1000004,12.5,16.3999996,12.6000004z"/>
	<path fill="#FFFFFF" d="M18.3999996,16.1000004c0.2999992-0.3000002,0.3999996-0.3999996,0.7000008-0.6999998
		c0.2999992,0.3000002,0.3999996,0.3999996,0.7000008,0.6999998C19.5000019,16.3999996,19.4000015,16.5,19.1000004,16.8000011
		C18.7999992,16.5,18.6000004,16.2000008,18.3999996,16.1000004z"/>
	<path fill="#FFFFFF" d="M17.7999992,15.5C17.5,15.1999998,17.3999996,15.1000004,17.0999985,14.8000002
		c0.2999992-0.3000002,0.3999996-0.3999996,0.7000008-0.6999998C18.0999985,14.4000006,18.1999989,14.5,18.5,14.8000002
		C18.3999996,15.1000004,18.1000004,15.3000002,17.7999992,15.5z"/>
</g>
</svg>
