<?xml version="1.0" encoding="utf-8"?>
<!-- Generator: Adobe Illustrator 25.2.1, SVG Export Plug-In . SVG Version: 6.00 Build 0)  -->
<svg version="1.1" id="Layer_1" xmlns="http://www.w3.org/2000/svg" xmlns:xlink="http://www.w3.org/1999/xlink" x="0px" y="0px"
	 viewBox="0 0 31 42" style="enable-background:new 0 0 31 42;" xml:space="preserve">
<style type="text/css">
	.st0{fill:#FFFFFF;}
</style>
<g id="Artwork_7_1_">
	<g>
		<g>
			<g>
				<g>
					<g>
						<g>
							<path d="M28.5,8.5c-1.5-2.7-3.5-4.7-6.3-6C19.9,1.4,17.6,1,15.1,1c-2.4,0.1-4.5,0.5-6.6,1.6c-3.9,2-6.3,5.1-7.2,9.2
								c-0.5,2.3-0.5,4.5-0.1,6.8c0.4,2,1.2,3.9,2.3,5.6c1.1,1.5,2.1,3.1,3.2,4.5c2.3,2.9,4.5,5.8,6.6,8.7c0.8,1.1,1.5,2.3,2.3,3.5
								c0.1-0.1,0.1-0.3,0.3-0.4c0.9-1.5,1.9-2.9,2.9-4.4c1.9-2.5,3.9-5.2,5.8-7.8c1.2-1.6,2.4-3.2,3.5-5c1.3-2.4,2.1-4.9,2.1-7.6
								C30.1,13.3,29.7,10.8,28.5,8.5"/>
						</g>
					</g>
				</g>
			</g>
		</g>
	</g>
</g>
<g>
	<path class="st0" d="M11,13.3H7.7v1.3h3v1h-3v1.7h3.5v1H6.5v-6.1H11V13.3z"/>
	<path class="st0" d="M13.3,18.3h-1.6l1.9-3.1l-1.8-3.1h1.6l1,2.1l1-2.1h1.4l-1.8,3l2.1,3.1h-1.6l-1.2-2.1L13.3,18.3z"/>
	<path class="st0" d="M19.3,18.3H18v-6.1h1.3V18.3z"/>
	<path class="st0" d="M24.9,12.3v1h-1.8v5h-1.3v-5H20v-1.2L24.9,12.3L24.9,12.3z"/>
</g>
</svg>
