<?xml version="1.0" encoding="utf-8"?>
<!-- Generator: Adobe Illustrator 25.2.1, SVG Export Plug-In . SVG Version: 6.00 Build 0)  -->
<svg version="1.1" id="Layer_1" xmlns="http://www.w3.org/2000/svg" xmlns:xlink="http://www.w3.org/1999/xlink" x="0px" y="0px"
	 viewBox="0 0 30 35.894" enable-background="new 0 0 30 35.894" xml:space="preserve">
<g>
	<path fill="#20202A" d="M29.996,17.547c0-4.089,0-8.178-0.001-12.268c0-0.073,0-0.146,0-0.21c-0.598-0.088-1.168-0.159-1.732-0.257
		c-1.895-0.328-3.745-0.799-5.554-1.41c-1.933-0.653-3.79-1.449-5.586-2.362c-0.652-0.333-1.295-0.68-1.952-1.006
		c-0.091-0.045-0.252-0.044-0.346-0.001c-0.313,0.14-0.608,0.313-0.915,0.465c-1.043,0.518-2.074,1.057-3.136,1.541
		c-1.564,0.714-3.185,1.309-4.853,1.8C4.49,4.26,3.034,4.604,1.549,4.841C1.042,4.922,0.531,4.993,0.003,5.071
		c0,0.063,0,0.124,0,0.187c0,4.316,0,8.632,0,12.949c0,0.897-0.008,1.794,0.002,2.692c0.004,0.397-0.002,0.8,0.069,1.189
		c0.281,1.556,0.977,2.968,1.908,4.292c0.783,1.114,1.707,2.126,2.728,3.069c1.312,1.21,2.741,2.296,4.286,3.252
		c1.119,0.693,2.272,1.343,3.432,1.978c0.783,0.429,1.605,0.8,2.416,1.186c0.081,0.039,0.219,0.037,0.304,0.002
		c0.311-0.129,0.614-0.276,0.916-0.423c1.566-0.764,3.095-1.582,4.559-2.497c1.93-1.205,3.735-2.542,5.31-4.116
		c1.486-1.484,2.727-3.108,3.485-5.004c0.308-0.769,0.56-1.553,0.572-2.376C30.009,20.15,29.996,18.848,29.996,17.547z"/>
	<path fill="#F9F9F9" d="M21.903,12.623c-0.026,0.031-0.053,0.062-0.083,0.091c-0.56,0.56-1.469,0.56-2.03,0
		c-0.56-0.56-0.56-1.469,0-2.03c0.029-0.029,0.06-0.056,0.091-0.083l-2.517-2.517L5.58,19.87l2.517,2.517
		c0.026-0.031,0.053-0.062,0.083-0.091c0.56-0.56,1.469-0.56,2.03,0c0.56,0.56,0.56,1.469,0,2.03
		c-0.029,0.029-0.06,0.056-0.091,0.083l2.517,2.517L24.42,15.141L21.903,12.623z"/>
	<g>
		
			<rect x="14.202" y="13.594" transform="matrix(0.7071 0.7071 -0.7071 0.7071 14.39 -6.3169)" fill="#20202A" width="1.236" height="1.236"/>
		
			<rect x="15.36" y="14.752" transform="matrix(0.7071 0.7071 -0.7071 0.7071 15.5478 -6.7965)" fill="#20202A" width="1.236" height="1.236"/>
		
			<rect x="16.518" y="15.909" transform="matrix(0.7071 0.7071 -0.7071 0.7071 16.7056 -7.2761)" fill="#20202A" width="1.236" height="1.236"/>
		
			<rect x="17.676" y="17.067" transform="matrix(0.7071 0.7071 -0.7071 0.7071 17.8634 -7.7557)" fill="#20202A" width="1.236" height="1.236"/>
	</g>
</g>
</svg>
