<?xml version="1.0" encoding="utf-8"?>
<!-- Generator: Adobe Illustrator 25.2.1, SVG Export Plug-In . SVG Version: 6.00 Build 0)  -->
<svg version="1.1" id="Layer_1" xmlns="http://www.w3.org/2000/svg" xmlns:xlink="http://www.w3.org/1999/xlink" x="0px" y="0px"
	 viewBox="0 0 32.5 38.461" enable-background="new 0 0 32.5 38.461" xml:space="preserve">
<g>
	<path fill="#BA1E1A" d="M32.495,5.273l-1.495-0.217c-0.392-0.055-0.774-0.108-1.155-0.174c-1.845-0.32-3.68-0.785-5.453-1.385
		c-1.83-0.618-3.682-1.401-5.502-2.327l-0.81-0.42c-0.389-0.203-0.779-0.406-1.176-0.604c-0.381-0.188-0.882-0.196-1.274-0.019
		c-0.213,0.096-0.42,0.204-0.626,0.313c-0.111,0.059-0.223,0.118-0.337,0.174l-0.902,0.453c-0.741,0.373-1.48,0.747-2.237,1.092
		c-1.485,0.678-3.088,1.272-4.762,1.766C5.276,4.364,3.875,4.686,2.48,4.908C2.137,4.963,1.793,5.013,1.443,5.064l-1.44,0.214
		L0.002,20.335C0,20.966-0.002,21.595,0.005,22.227l0.001,0.137c0.003,0.378,0.007,0.807,0.085,1.246
		c0.29,1.601,0.98,3.162,2.11,4.77c0.799,1.135,1.751,2.207,2.91,3.276c1.374,1.268,2.887,2.416,4.498,3.413
		c0.997,0.618,2.083,1.243,3.521,2.03c0.654,0.358,1.331,0.677,1.984,0.985l0.51,0.241c0.189,0.091,0.405,0.136,0.621,0.136
		c0.196,0,0.392-0.037,0.57-0.111c0.335-0.14,0.661-0.297,0.984-0.455c1.783-0.869,3.323-1.713,4.709-2.579
		c2.229-1.392,4.048-2.803,5.561-4.314c1.788-1.786,3.019-3.561,3.764-5.425c0.316-0.791,0.64-1.74,0.655-2.789
		c0.014-0.949,0.011-1.899,0.008-2.848L32.495,5.273z"/>
	<g>
		<circle fill="#F9F9F9" stroke="#20202A" stroke-width="1.6" stroke-miterlimit="10" cx="14.972" cy="17.951" r="5.685"/>
		<g>
			
				<line fill="none" stroke="#20202A" stroke-width="1.6" stroke-miterlimit="10" x1="18.929" y1="21.908" x2="23.214" y2="26.193"/>
		</g>
	</g>
</g>
</svg>
