<?xml version="1.0" encoding="utf-8"?>
<!-- Generator: Adobe Illustrator 24.3.0, SVG Export Plug-In . SVG Version: 6.00 Build 0)  -->
<svg version="1.1" id="Layer_1" xmlns="http://www.w3.org/2000/svg" xmlns:xlink="http://www.w3.org/1999/xlink" x="0px" y="0px"
	 viewBox="0 0 31 42" enable-background="new 0 0 31 42" xml:space="preserve">
<g id="Artwork_2_1_">
	<g>
		<defs>
			<rect id="SVGID_1_" x="0.9087982" y="1" width="29.1824036" height="40"/>
		</defs>
		<clipPath id="SVGID_2_">
			<use xlink:href="#SVGID_1_"  overflow="visible"/>
		</clipPath>
		<g clip-path="url(#SVGID_2_)">
			<defs>
				<rect id="SVGID_3_" x="0.9087982" y="1" width="29.1819992" height="40"/>
			</defs>
			<clipPath id="SVGID_4_">
				<use xlink:href="#SVGID_3_"  overflow="visible"/>
			</clipPath>
			<path clip-path="url(#SVGID_4_)" fill="#BA1E1A" d="M28.4854984,8.4915009
				c-1.4720001-2.6749992-3.4780006-4.6819992-6.2870007-6.0199966c-2.2749996-1.0700035-4.5489998-1.4720001-7.0899992-1.4720001
				c-2.4090004,0.1339989-4.5490007,0.5349998-6.5560007,1.605999c-3.8789997,2.007-6.2869987,5.0830002-7.223999,9.230999
				c-0.5349998,2.2740002-0.5349998,4.5480003-0.1340008,6.8219986c0.4020004,2.007,1.2049999,3.8800011,2.2740002,5.6190014
				c1.0710011,1.4719982,2.1410007,3.0769997,3.2110004,4.5489979c2.2749996,2.9420013,4.5489998,5.7519989,6.5559998,8.6949997
				c0.802,1.0709991,1.4709997,2.2750015,2.2740002,3.4790001c0.1339998-0.1339989,0.1339998-0.2679977,0.2679996-0.4020004
				c0.9359989-1.4709969,1.8719997-2.942997,2.9419994-4.4149971c1.8729992-2.5419998,3.8799992-5.217001,5.7530003-7.7580013
				c1.2040005-1.6060009,2.407999-3.2110004,3.4779987-4.9510002c1.3380013-2.407999,2.1400013-4.9489994,2.1400013-7.625
				C30.090498,13.3075008,29.689497,10.765501,28.4854984,8.4915009"/>
			<path clip-path="url(#SVGID_4_)" fill="#FFFFFF" d="M15.5001984,5.8694c5.3119984,0,9.6189995,4.3070011,9.6189995,9.6190014
				c0,5.3129997-4.3070011,9.6189995-9.6189995,9.6189995s-9.6190004-4.3059998-9.6190004-9.6189995
				C5.8811979,10.1764011,10.1881981,5.8694,15.5001984,5.8694"/>
		</g>
	</g>
</g>
</svg>
