<?xml version="1.0" encoding="utf-8"?>
<!-- Generator: Adobe Illustrator 25.2.0, SVG Export Plug-In . SVG Version: 6.00 Build 0)  -->
<svg version="1.1" id="Layer_1" xmlns="http://www.w3.org/2000/svg" xmlns:xlink="http://www.w3.org/1999/xlink" x="0px" y="0px"
	 viewBox="0 0 29.2 40" style="enable-background:new 0 0 29.2 40;" xml:space="preserve">
<style type="text/css">
	.st0{fill:#BA1E1A;}
	.st1{fill:#FFFFFF;}
</style>
<g>
	<path class="st0" d="M27.6,7.5c-1.5-2.7-3.5-4.7-6.3-6C19,0.5,16.8,0,14.2,0c-2.4,0.1-4.6,0.5-6.5,1.6c-3.9,2-6.3,5-7.3,9.2
		c-0.5,2.3-0.5,4.6-0.1,6.8c0.4,2,1.2,3.9,2.3,5.6c1,1.5,2.2,3.1,3.2,4.6c2.3,2.9,4.6,5.8,6.5,8.7c0.8,1,1.5,2.3,2.3,3.5
		c0.1-0.1,0.1-0.3,0.3-0.4c0.9-1.5,1.9-2.9,2.9-4.4c1.9-2.5,3.9-5.2,5.8-7.8c1.2-1.6,2.4-3.2,3.5-5c1.3-2.4,2.2-5,2.2-7.6
		C29.2,12.3,28.8,9.7,27.6,7.5z"/>
</g>
<circle class="st1" cx="14.6" cy="14.5" r="9.6"/>
<path d="M11.8,17.7v-7.6c2.3-0.4,4.7-0.7,6.9-1.2v8.4c0,0.4-0.2,0.7-0.5,0.9c-0.4,0.4-0.9,0.7-1.4,0.8c-0.5,0.1-1,0.1-1.4-0.1
	c-0.2-0.1-0.3-0.1-0.4-0.2c-0.4-0.2-0.5-0.7-0.3-1.1l0,0c0.1-0.2,0.3-0.5,0.5-0.5c0.7-0.5,1.4-0.8,2.3-0.7c0.1,0,0.4,0.1,0.5,0.1
	v-5.3c-0.3,0.1-0.5,0.1-0.8,0.1c-1.3,0.2-2.4,0.4-3.7,0.6c-0.3,0-0.5,0.1-0.8,0.1c-0.1,0-0.1,0-0.1,0.1v6.2c0,0.3-0.1,0.6-0.3,0.8
	c-0.4,0.4-0.8,0.7-1.3,0.8c-0.6,0.2-1.1,0.2-1.7,0c-0.2-0.1-1.1-0.4-0.8-1.2c0.2-0.3,0.4-0.5,0.6-0.7c0.7-0.4,1.4-0.5,2-0.5
	C11.4,17.5,11.6,17.6,11.8,17.7z"/>
</svg>
