<?xml version="1.0" encoding="utf-8"?>
<!-- Generator: Adobe Illustrator 24.3.0, SVG Export Plug-In . SVG Version: 6.00 Build 0)  -->
<svg version="1.1" id="Layer_1" xmlns="http://www.w3.org/2000/svg" xmlns:xlink="http://www.w3.org/1999/xlink" x="0px" y="0px"
	 viewBox="0 0 31 42" enable-background="new 0 0 31 42" xml:space="preserve">
<g id="Artwork_7_1_">
	<g>
		<defs>
			<rect id="SVGID_1_" x="0.9087982" y="1" width="29.1824036" height="40"/>
		</defs>
		<clipPath id="SVGID_2_">
			<use xlink:href="#SVGID_1_"  overflow="visible"/>
		</clipPath>
		<g clip-path="url(#SVGID_2_)">
			<defs>
				<rect id="SVGID_3_" x="0.9087982" y="1" width="29.1819992" height="40"/>
			</defs>
			<clipPath id="SVGID_4_">
				<use xlink:href="#SVGID_3_"  overflow="visible"/>
			</clipPath>
			<path clip-path="url(#SVGID_4_)" d="M28.4857979,8.4914017c-1.4720001-2.6749992-3.4790001-4.6819992-6.2880001-6.0199966
				c-2.2740002-1.0700035-4.5480003-1.4710007-7.0900002-1.4710007c-2.408,0.1339989-4.5480003,0.5349998-6.5550003,1.6049995
				c-3.8789997,2.007-6.2880001,5.0839996-7.223999,9.230999c-0.5349998,2.2740002-0.5349998,4.5480003-0.1340008,6.8219986
				c0.401001,2.007,1.2040005,3.8800011,2.2740002,5.6190014c1.0710011,1.4719982,2.1410007,3.0769997,3.2110004,4.5489979
				c2.2740002,2.9420013,4.5489998,5.7519989,6.5549994,8.6949997c0.8030005,1.0709991,1.4720001,2.2750015,2.2740002,3.4790001
				c0.1339998-0.1339989,0.1339998-0.2679977,0.2680006-0.4020004c0.9370003-1.4709969,1.8729992-2.942997,2.9429989-4.4149971
				c1.8729992-2.5419998,3.8789997-5.2160015,5.7520008-7.7580013c1.2039986-1.6060009,2.4089985-3.2110004,3.4789982-4.9510002
				c1.3380013-2.4069996,2.1400013-4.9489994,2.1400013-7.625C30.0907974,13.3074017,29.6897964,10.7654018,28.4857979,8.4914017"/>
		</g>
	</g>
</g>
<g>
	<g>
		<path fill="#FFFFFF" d="M22.5092659,19.1163902c-0.4988117,0-0.8729229,0-1.3717346,0
			c-0.1247044,1.2470303-0.1247044,2.4940605-0.2494068,3.7410927c-0.7482204,0-1.496439,0-2.2446556,0
			c0-0.4988117-0.1247044-0.9976234-0.1247044-1.3717346c0-0.7482185-0.1247025-1.3717346-0.1247025-2.1199532
			c0-0.2494087-0.1247044-0.2494087-0.2494068-0.2494087c-0.3741093,0-0.7482204,0-1.1223278,0
			c0.3741074-1.745842,0.7482185-3.4916868,0.9976234-5.2375298c-0.2494068-0.1247034-0.2494068,0-0.3741093,0.2494059
			c-0.2494068,1.1223278-0.4988117,2.2446547-0.6235142,3.3669844c0,0,0,0.1247044,0,0.2494087
			c-0.3741093,0-0.7482204-0.1247044-1.1223278-0.1247044c0.1247025-0.3741093,0.1247025-0.7482185,0.2494068-1.1223278
			c0.2494068-1.2470303,0.4988117-2.4940615,0.7482185-3.7410927c0.1247044-0.6235161,0.3741093-0.7482195,0.8729229-0.7482195
			c1.3717346,0,2.7434692,0,4.115202,0c0.4988117,0,0.7482185,0.2494059,0.8729229,0.7482195
			c0.2494068,1.4964371,0.6235161,3.1175776,0.8729229,4.6140156c0,0.1247044,0,0.2494068,0,0.3741093
			c-0.3741093,0-0.7482185,0.1247025-1.1223278,0.1247025c-0.1247044-0.7482185-0.2494068-1.3717346-0.3741093-1.9952497
			c-0.1247025-0.4988117-0.2494068-1.1223278-0.2494068-1.6211405c0-0.2494059-0.1247025-0.2494059-0.3741074-0.2494059
			C21.8857498,15.5,22.1351547,17.245842,22.5092659,19.1163902z"/>
		<path fill="#FFFFFF" d="M21.2622337,9.7636566c0,0.872921-0.6235142,1.6211405-1.4964371,1.6211405
			s-1.496439-0.7482195-1.496439-1.6211405c0-0.8729219,0.6235161-1.6211405,1.496439-1.6211405
			C20.6387196,8.1425171,21.2622337,8.8907347,21.2622337,9.7636566z"/>
	</g>
	<g>
		<path fill="#FFFFFF" d="M13.7800465,13.7541571c-0.2494059-0.1247034-0.3741093,0-0.3741093,0.2494059
			c-0.2494059,2.6187649-0.4988117,5.2375298-0.6235151,7.8562965c0,0.2494068,0,0.4988117-0.1247044,0.7482185
			c0,0.1247044-0.1247034,0.2494068-0.2494059,0.2494068c-0.6235151,0-1.3717346,0-1.9952497,0
			c-0.2494059-2.9928741-0.4988117-6.1104507-0.7482195-9.1033268c-0.1247034,0-0.2494059,0-0.2494059,0
			c0,1.2470312,0,2.4940624,0,3.7410946c-0.3741093,0-0.872921,0-1.2470312,0c0-0.1247044,0-0.2494068,0-0.3741093
			c0-1.4964361,0-2.9928732,0-4.3646078c0-0.6235161,0.2494059-0.9976254,0.9976254-0.9976254c1.7458429,0,3.3669834,0,5.1128263,0
			c0.6235161,0,0.8729219,0.3741093,0.8729219,0.9976254c0,1.6211405,0,3.1175776,0,4.7387171c-0.3741093,0-0.8729219,0-1.2470312,0
			C13.7800465,16.2482185,13.7800465,15.0011883,13.7800465,13.7541571z"/>
		<path fill="#FFFFFF" d="M11.5353909,11.3847971c-0.8729219,0-1.4964371-0.7482195-1.4964371-1.6211405
			c0-0.8729219,0.6235151-1.6211405,1.4964371-1.6211405c0.872921,0,1.4964371,0.7482185,1.4964371,1.6211405
			C13.0318289,10.6365795,12.4083138,11.3847971,11.5353909,11.3847971z"/>
	</g>
</g>
</svg>
