<?xml version="1.0" encoding="utf-8"?>
<!-- Generator: Adobe Illustrator 25.2.1, SVG Export Plug-In . SVG Version: 6.00 Build 0)  -->
<svg version="1.1" id="Layer_1" xmlns="http://www.w3.org/2000/svg" xmlns:xlink="http://www.w3.org/1999/xlink" x="0px" y="0px"
	 viewBox="0 0 31 42" style="enable-background:new 0 0 31 42;" xml:space="preserve">
<style type="text/css">
	.st0{fill:#FFFFFF;}
</style>
<g id="Artwork_7_1_">
	<g>
		<g>
			<g>
				<g>
					<g>
						<g>
							<path d="M28.5,8.5c-1.5-2.7-3.5-4.7-6.3-6C19.9,1.4,17.6,1,15.1,1c-2.4,0.1-4.5,0.5-6.6,1.6c-3.9,2-6.3,5.1-7.2,9.2
								c-0.5,2.3-0.5,4.5-0.1,6.8c0.4,2,1.2,3.9,2.3,5.6c1.1,1.5,2.1,3.1,3.2,4.5c2.3,2.9,4.5,5.8,6.6,8.7c0.8,1.1,1.5,2.3,2.3,3.5
								c0.1-0.1,0.1-0.3,0.3-0.4c0.9-1.5,1.9-2.9,2.9-4.4c1.9-2.5,3.9-5.2,5.8-7.8c1.2-1.6,2.4-3.2,3.5-5c1.3-2.4,2.1-4.9,2.1-7.6
								C30.1,13.3,29.7,10.8,28.5,8.5"/>
						</g>
					</g>
				</g>
			</g>
		</g>
	</g>
</g>
<g>
	<path class="st0" d="M17.8,7.6c0.8,0.8,1.7,1.7,2.5,2.5c-0.1,0.1-0.1,0.1-0.3,0.3c-0.5,0.4-0.4,0.9-0.1,1.2s0.9,0.4,1.3-0.1
		c0.1-0.1,0.1-0.1,0.3-0.3c0.8,0.8,1.7,1.7,2.5,2.5c-3.5,3.5-7.1,7.1-10.6,10.6c-0.8-0.8-1.7-1.7-2.5-2.5c0.1-0.1,0.1-0.1,0.3-0.3
		c0.4-0.4,0.4-0.8,0-1.2c-0.3-0.3-0.8-0.3-1.2,0c-0.1,0.1-0.1,0.3-0.3,0.3c-0.8-0.8-1.7-1.7-2.5-2.5C10.8,14.7,14.2,11.1,17.8,7.6z
		 M13.4,23.1c3.1-3.1,6.1-6.1,9.4-9.4c-0.4-0.4-0.8-0.8-1.2-1.2c0,0,0,0-0.1-0.1l0,0c-0.7,0.4-1.5,0.3-2-0.3c-0.5-0.5-0.7-1.3-0.4-2
		c0-0.1,0-0.1,0-0.1c-0.3-0.1-0.5-0.4-0.8-0.7C18.2,9.2,18,9,17.8,8.8c-3.1,3.1-6.1,6.1-9.4,9.4c0.4,0.4,0.8,0.8,1.3,1.3
		c0.8-0.4,1.5-0.3,2,0.3c0.7,0.7,0.8,1.3,0.4,2.1C12.6,22.3,13,22.7,13.4,23.1z"/>
	<path class="st0" d="M16.8,13.1c0.3,0.3,0.4,0.4,0.7,0.7c-0.3,0.3-0.4,0.4-0.7,0.7c-0.3-0.3-0.4-0.4-0.7-0.7
		C16.4,13.5,16.5,13.3,16.8,13.1z"/>
	<path class="st0" d="M16.4,12.6c-0.3,0.3-0.4,0.4-0.7,0.7c-0.3-0.3-0.4-0.4-0.7-0.7c0.3-0.3,0.4-0.4,0.7-0.7
		C15.8,12.2,16.1,12.5,16.4,12.6z"/>
	<path class="st0" d="M18.4,16.1c0.3-0.3,0.4-0.4,0.7-0.7c0.3,0.3,0.4,0.4,0.7,0.7c-0.3,0.3-0.4,0.4-0.7,0.7
		C18.8,16.5,18.6,16.2,18.4,16.1z"/>
	<path class="st0" d="M17.8,15.5c-0.3-0.3-0.4-0.4-0.7-0.7c0.3-0.3,0.4-0.4,0.7-0.7c0.3,0.3,0.4,0.4,0.7,0.7
		C18.4,15.1,18.1,15.3,17.8,15.5z"/>
</g>
</svg>
