<?xml version="1.0" encoding="utf-8"?>
<!-- Generator: Adobe Illustrator 25.2.1, SVG Export Plug-In . SVG Version: 6.00 Build 0)  -->
<svg version="1.1" id="Layer_1" xmlns="http://www.w3.org/2000/svg" xmlns:xlink="http://www.w3.org/1999/xlink" x="0px" y="0px"
	 viewBox="0 0 31 42" enable-background="new 0 0 31 42" xml:space="preserve">
<g>
	<g>
		<path fill="#BA1E1A" d="M28.5,8.5c-1.5-2.7-3.5-4.7-6.3-6C19.9,1.4,17.6,1,15.1,1c-2.4,0.1-4.5,0.5-6.6,1.6
			c-3.9,2-6.3,5.1-7.2,9.2c-0.5,2.3-0.5,4.5-0.1,6.8c0.4,2,1.2,3.9,2.3,5.6c1.1,1.5,2.1,3.1,3.2,4.5c2.3,2.9,4.5,5.8,6.6,8.7
			c0.8,1.1,1.5,2.3,2.3,3.5c0.1-0.1,0.1-0.3,0.3-0.4c0.9-1.5,1.9-2.9,2.9-4.4c1.9-2.5,3.9-5.2,5.8-7.8c1.2-1.6,2.4-3.2,3.5-4.9
			c1.3-2.4,2.1-4.9,2.1-7.6C30.1,13.3,29.7,10.8,28.5,8.5z"/>
	</g>
	<circle fill="#FFFFFF" cx="15.5" cy="15.5" r="9.6"/>
</g>
<path fill="#000500" d="M14.8,21.8L12.6,23h5.7l-2.1-1.2v-4.4l4.2-5.1h-2.5l0.7-1.3h0.1c0.4,0,0.6-0.3,0.6-0.6
	c0-0.2-0.1-0.3-0.2-0.5l0.1-0.2h0.1c0.4,0,0.6-0.3,0.6-0.6c0-0.2-0.1-0.3-0.2-0.4L20.1,8L20,7.8l-0.4,0.7c-0.1,0-0.1,0-0.2,0
	c-0.4,0-0.6,0.3-0.6,0.6c0,0.2,0.1,0.4,0.2,0.5l-0.1,0.2c-0.1,0-0.1,0-0.2,0c-0.4,0-0.6,0.3-0.6,0.6c0,0.2,0.1,0.3,0.2,0.5l-0.7,1.4
	h-7l4.2,5.1C14.8,17.4,14.8,21.8,14.8,21.8z M17.6,13.6l-1,1.2l0.6-1.2H17.6z M14.3,14.8l-1-1.2h3.5l-0.6,1.2H14.3z"/>
</svg>
