<?xml version="1.0" encoding="utf-8"?>
<!-- Generator: Adobe Illustrator 24.3.0, SVG Export Plug-In . SVG Version: 6.00 Build 0)  -->
<svg version="1.1" id="Layer_1" xmlns="http://www.w3.org/2000/svg" xmlns:xlink="http://www.w3.org/1999/xlink" x="0px" y="0px"
	 viewBox="0 0 31 42" enable-background="new 0 0 31 42" xml:space="preserve">
<g>
	<path d="M28.5,8.5c-1.5-2.6999998-3.5-4.6999998-6.2999992-6C19.8999996,1.4,17.6000004,1,15.1000004,1
		c-2.3999996,0.1-4.5,0.5-6.6000004,1.5999999c-3.9000001,2-6.3000002,5.0999999-7.1999998,9.1999989
		c-0.5,2.3000002-0.5,4.5-0.1,6.7999992c0.4,2,1.1999999,3.8999996,2.2999997,5.6000004
		c1.0999999,1.5,2.0999999,3.1000004,3.1999998,4.5C9,31.5999985,11.1999998,34.5,13.2999992,37.3999977
		c0.8000002,1.0999985,1.5,2.2999992,2.3000002,3.5c0.1000004-0.0999985,0.1000004-0.2999992,0.3000002-0.4000015
		c0.8999996-1.5,1.8999996-2.9000015,2.8999996-4.4000015c1.8999996-2.5,3.8999996-5.2000008,5.7999992-7.7999992
		c1.2000008-1.6000004,2.3999996-3.2000008,3.5-4.8999996c1.2999992-2.3999996,2.1000004-4.8999996,2.1000004-7.6000004
		C30.1000004,13.3000002,29.7000008,10.8000002,28.5,8.5z"/>
</g>
<g>
	<path fill="#F2F2F2" d="M13.8999996,14.6000004c0,0.3000002,0,0.6999998,0.1000004,0.8999996c1.6999998,0,3.3999996,0,5,0l0,0l0,0
		c0.7000008,1.6000004,1.3999996,3.2999992,2.1000004,4.8999996c0.5-0.1000004,1.1000004-0.3999996,1.6000004-0.5
		C22.8000011,20.2999992,23,20.6000004,23.1000004,21c-0.8999996,0.3999996-2,0.7999992-2.8999996,1.2000008
		c0-0.1000004-0.1000004-0.2999992-0.1000004-0.3999996c-0.7000008-1.6000004-1.2999992-3-2-4.6000004
		C18.1000004,17.1000004,18,17.1000004,18,17.1000004c-1.7000008,0-3.3999996,0-5.1000004,0
		c-0.1000004,0-0.1000004,0-0.1000004-0.1000004c0-0.3999996,0-0.7000008-0.1000004-1.1000004
		c0-0.3999996-0.1000004-0.8999996-0.1000004-1.3000002c0-0.5,0-0.8999996,0-1.3000002
		c0-0.3999996-0.1000004-0.8999996-0.1000004-1.3000002s0-0.6999998-0.1000004-1.1000004
		c0-0.3999996,0-0.8000002-0.1000004-1.1999998c0,0,0,0,0-0.1000004c-0.3999996-0.8999996,0.1000004-1.8000002,1.1999998-2.0999999
		c0.5-0.3000002,1.3000002,0.1999998,1.5,0.9999995s-0.3999996,1.6000004-1.1999998,1.6999998h-0.1000004
		c0,0.8999996,0.1000004,2,0.1000004,2.9000006c1.1999998,0,2.5,0,3.7000008,0c0,0.5,0,0.8999996,0,1.3999996
		C16.2999992,14.6000004,15.1000004,14.6000004,13.8999996,14.6000004z"/>
	<path fill="#F2F2F2" d="M18,18.7999992c0.1000004,0.2999992,0.2999992,0.7000008,0.3999996,0.8999996
		c0.1000004,0.2999992,0.2999992,0.7000008,0.5,0.8999996v0.1000004c-0.7999992,1.3999996-2,2.3999996-3.6000004,2.7999992
		c-2.8999996,0.7000008-5.6999998-1.1000004-6.3999996-3.8999996c-0.3999996-1.7999992,0-3.3999996,1.1999998-4.8999996
		c0.5-0.3999996,1.1000004-0.8999996,1.6999998-1.1999998c0,0,0,0,0.1000004,0l0,0c0,0.1000004,0,0.1000004,0,0.3000002
		c0,0.3999996,0,0.6999998,0.1000004,1.1000004C12,15,12,15,12,15.1999998v0.1000004
		C11.1000004,16,10.6000004,16.7000008,10.3000002,17.8999996C10,19.1999989,10.4000006,20.2999992,11.1999998,21.1999989
		c0.6999998,0.7000008,1.3000002,1.1000004,2.1999998,1.2000008c1.3000002,0.1000004,2.3999996-0.1000004,3.2999992-1.1000004
		c0.7000008-0.5,0.8999996-1.2999992,1.1000004-2.1000004C18,18.8999996,18,18.8999996,18,18.7999992L18,18.7999992z"/>
</g>
</svg>
