<?xml version="1.0" encoding="utf-8"?>
<!-- Generator: Adobe Illustrator 25.2.1, SVG Export Plug-In . SVG Version: 6.00 Build 0)  -->
<svg version="1.1" id="Layer_1" xmlns="http://www.w3.org/2000/svg" xmlns:xlink="http://www.w3.org/1999/xlink" x="0px" y="0px"
	 viewBox="0 0 31 42" enable-background="new 0 0 31 42" xml:space="preserve">
<g id="Artwork_2_1_">
	<g>
		<g>
			<g>
				<defs>
					<rect id="SVGID_1_" x="0.9" y="1" width="29.2" height="40"/>
				</defs>
				<clipPath id="SVGID_2_">
					<use xlink:href="#SVGID_1_"  overflow="visible"/>
				</clipPath>
				<g clip-path="url(#SVGID_2_)">
					<g>
						<g>
							<defs>
								<rect id="SVGID_3_" x="0.9" y="1" width="29.2" height="40"/>
							</defs>
							<clipPath id="SVGID_4_">
								<use xlink:href="#SVGID_3_"  overflow="visible"/>
							</clipPath>
							<path clip-path="url(#SVGID_4_)" fill="#BA1E1A" d="M28.5,8.5c-1.5-2.7-3.5-4.7-6.3-6C19.9,1.4,17.6,1,15.1,1
								c-2.4,0.1-4.5,0.5-6.6,1.6c-3.9,2-6.3,5.1-7.2,9.2c-0.5,2.3-0.5,4.5-0.1,6.8c0.4,2,1.2,3.9,2.3,5.6c1.1,1.5,2.1,3.1,3.2,4.5
								c2.3,2.9,4.5,5.8,6.6,8.7c0.8,1.1,1.5,2.3,2.3,3.5c0.1-0.1,0.1-0.3,0.3-0.4c0.9-1.5,1.9-2.9,2.9-4.4c1.9-2.5,3.9-5.2,5.8-7.8
								c1.2-1.6,2.4-3.2,3.5-5c1.3-2.4,2.1-4.9,2.1-7.6C30.1,13.3,29.7,10.8,28.5,8.5"/>
						</g>
					</g>
					<g>
						<g>
							<defs>
								<rect id="SVGID_5_" x="0.9" y="1" width="29.2" height="40"/>
							</defs>
							<clipPath id="SVGID_6_">
								<use xlink:href="#SVGID_5_"  overflow="visible"/>
							</clipPath>
							<path clip-path="url(#SVGID_6_)" fill="#FFFFFF" d="M15.5,5.9c5.3,0,9.6,4.3,9.6,9.6s-4.3,9.6-9.6,9.6s-9.6-4.3-9.6-9.6
								C5.9,10.2,10.2,5.9,15.5,5.9"/>
						</g>
					</g>
				</g>
			</g>
		</g>
	</g>
</g>
<g>
	<g>
		<path d="M20.8,18.3c-0.4,0-0.7,0-1.1,0c-0.1,1-0.1,2-0.2,3c-0.6,0-1.2,0-1.8,0c0-0.4-0.1-0.8-0.1-1.1c0-0.6-0.1-1.1-0.1-1.7
			c0-0.2-0.1-0.2-0.2-0.2c-0.3,0-0.6,0-0.9,0c0.3-1.4,0.6-2.8,0.8-4.2c-0.2-0.1-0.2,0-0.3,0.2c-0.2,0.9-0.4,1.8-0.5,2.7
			c0,0,0,0.1,0,0.2c-0.3,0-0.6-0.1-0.9-0.1c0.1-0.3,0.1-0.6,0.2-0.9c0.2-1,0.4-2,0.6-3c0.1-0.5,0.3-0.6,0.7-0.6c1.1,0,2.2,0,3.3,0
			c0.4,0,0.6,0.2,0.7,0.6c0.2,1.2,0.5,2.5,0.7,3.7c0,0.1,0,0.2,0,0.3c-0.3,0-0.6,0.1-0.9,0.1c-0.1-0.6-0.2-1.1-0.3-1.6
			c-0.1-0.4-0.2-0.9-0.2-1.3c0-0.2-0.1-0.2-0.3-0.2C20.3,15.4,20.5,16.8,20.8,18.3z"/>
		<path d="M19.8,10.8c0,0.7-0.5,1.3-1.2,1.3s-1.2-0.6-1.2-1.3s0.5-1.3,1.2-1.3S19.8,10.1,19.8,10.8z"/>
	</g>
	<g>
		<path d="M13.8,14c-0.2-0.1-0.3,0-0.3,0.2c-0.2,2.1-0.4,4.2-0.5,6.3c0,0.2,0,0.4-0.1,0.6c0,0.1-0.1,0.2-0.2,0.2c-0.5,0-1.1,0-1.6,0
			c-0.2-2.4-0.4-4.9-0.6-7.3c-0.1,0-0.2,0-0.2,0c0,1,0,2,0,3c-0.3,0-0.7,0-1,0c0-0.1,0-0.2,0-0.3c0-1.2,0-2.4,0-3.5
			c0-0.5,0.2-0.8,0.8-0.8c1.4,0,2.7,0,4.1,0c0.5,0,0.7,0.3,0.7,0.8c0,1.3,0,2.5,0,3.8c-0.3,0-0.7,0-1,0C13.8,16,13.8,15,13.8,14z"/>
		<path d="M12,12.1c-0.7,0-1.2-0.6-1.2-1.3s0.5-1.3,1.2-1.3s1.2,0.6,1.2,1.3S12.7,12.1,12,12.1z"/>
	</g>
</g>
</svg>
