<?xml version="1.0" encoding="utf-8"?>
<!-- Generator: Adobe Illustrator 24.3.0, SVG Export Plug-In . SVG Version: 6.00 Build 0)  -->
<svg version="1.1" id="Layer_1" xmlns="http://www.w3.org/2000/svg" xmlns:xlink="http://www.w3.org/1999/xlink" x="0px" y="0px"
	 viewBox="0 0 31 42" enable-background="new 0 0 31 42" xml:space="preserve">
<path fill="#BA1E1A" d="M28.5,8.5c-1.5-2.6999998-3.5-4.6999998-6.2999992-6C19.8999996,1.4,17.6000004,1,15.1000004,1
	c-2.3999996,0.1-4.5,0.5-6.6000004,1.5999999c-3.9000001,2-6.3000002,5.0999999-7.1999998,9.1999989
	c-0.5,2.3000002-0.5,4.5-0.1,6.7999992c0.4,2,1.1999999,3.8999996,2.2999997,5.6000004
	c1.0999999,1.5,2.0999999,3.1000004,3.1999998,4.5C9,31.5999985,11.1999998,34.5,13.2999992,37.3999977
	c0.8000002,1.0999985,1.5,2.2999992,2.3000002,3.5c0.1000004-0.0999985,0.1000004-0.2999992,0.3000002-0.4000015
	c0.8999996-1.5,1.8999996-2.9000015,2.8999996-4.4000015c1.8999996-2.5,3.8999996-5.2000008,5.7999992-7.7999992
	c1.2000008-1.6000004,2.3999996-3.2000008,3.5-4.8999996c1.2999992-2.3999996,2.1000004-4.8999996,2.1000004-7.6000004
	C30.1000004,13.3000002,29.7000008,10.8000002,28.5,8.5z"/>
<circle fill="#FFFFFF" cx="15.5" cy="15.5" r="9.6000004"/>
<path d="M21.2999992,10.3000002C19.0999985,10.5,17.1999989,9.6999998,15.499999,8.2000008
	c-1.6999998,1.5-3.5999994,2.3000002-5.8000002,2.1000004c0,0.1000004,0,4,0,6.1000004
	c0,0.5,0.1000004,0.8999996,0.1999998,1.3999996c0.1999998,0.7000008,0.5,1.3999996,0.8999996,2
	c0.5,0.7000008,1.1999998,1.2999992,1.8999996,1.7999992c0.8000002,0.5,1.6000004,0.8999996,2.5,1.2000008
	c0.1999998,0.1000004,0.3999996,0.1000004,0.6000004,0c0.9000006-0.2999992,1.6999998-0.7000008,2.4000006-1.2000008
	C19.0999985,21,19.8999996,20.3000011,20.3999996,19.3999996c0.5-0.7999992,0.7999992-1.7000008,0.7999992-2.6000004
	c0-0.5,0-0.8999996,0-1.3999996C21.2999992,13.6000004,21.2999992,10.3000002,21.2999992,10.3000002z M19.6000004,15.5
	c0,0.3000002,0,0.6000004,0,1c0,0.7000008-0.2000008,1.2999992-0.6000004,1.7999992
	c-0.3999996,0.6000004-0.8999996,1.1000004-1.6000004,1.5c-0.5,0.3999996-1.1000004,0.6000004-1.6999998,0.7999992
	c-0.1999998,0.1000004-0.3000002,0.1000004-0.3999996,0c-0.6000004-0.2000008-1.1999998-0.5-1.6999998-0.8999996
	c-0.5-0.2999992-1-0.7999992-1.3999996-1.2999992C11.9000006,18,11.7000008,17.5,11.500001,17
	c-0.1000004-0.2999992-0.1000004-0.6000004-0.1000004-1c0-1.5,0-4.1999998,0-4.3000002c1.5,0.1000004,2.9000006-0.5,4.0999994-1.5
	c1.2000008,1,2.5,1.6000004,4.1000004,1.5C19.6000004,12,19.6000004,14.3000002,19.6000004,15.5z"/>
</svg>
