<?xml version="1.0" encoding="utf-8"?>
<!-- Generator: Adobe Illustrator 25.2.1, SVG Export Plug-In . SVG Version: 6.00 Build 0)  -->
<svg version="1.1" id="Layer_1" xmlns="http://www.w3.org/2000/svg" xmlns:xlink="http://www.w3.org/1999/xlink" x="0px" y="0px"
	 viewBox="0 0 31 42" enable-background="new 0 0 31 42" xml:space="preserve">
<path d="M28.5,8.5c-1.5-2.7-3.5-4.7-6.3-6C19.9,1.4,17.6,1,15.1,1c-2.4,0.1-4.5,0.5-6.6,1.6c-3.9,2-6.3,5.1-7.2,9.2
	c-0.5,2.3-0.5,4.5-0.1,6.8c0.4,2,1.2,3.9,2.3,5.6c1.1,1.5,2.1,3.1,3.2,4.5c2.3,2.9,4.5,5.8,6.6,8.7c0.8,1.1,1.5,2.3,2.3,3.5
	c0.1-0.1,0.1-0.3,0.3-0.4c0.9-1.5,1.9-2.9,2.9-4.4c1.9-2.5,3.9-5.2,5.8-7.8c1.2-1.6,2.4-3.2,3.5-4.9c1.3-2.4,2.1-4.9,2.1-7.6
	C30.1,13.3,29.7,10.8,28.5,8.5z"/>
<path fill="#FFFFFF" d="M21.7,10.2c-2.3,0.3-4.4-0.7-6.2-2.3c-1.7,1.5-3.9,2.4-6.2,2.3c0,0,0,4.1,0,6.4c0,0.5,0,0.9,0.1,1.5
	c0.1,0.8,0.5,1.5,1.1,2.1c0.5,0.8,1.2,1.3,2,1.9c0.8,0.5,1.7,0.9,2.5,1.3c0.3,0.1,0.4,0.1,0.7,0c0.9-0.4,1.7-0.8,2.5-1.3
	c0.9-0.7,1.7-1.3,2.4-2.3c0.5-0.8,0.8-1.7,0.9-2.8c0-0.5,0-0.9,0-1.5C21.7,13.7,21.7,10.2,21.7,10.2z M19.8,15.7c0,0.4,0,0.7,0,1.1
	c0,0.7-0.3,1.3-0.7,2s-0.9,1.2-1.6,1.6c-0.5,0.4-1.2,0.7-1.9,0.9c-0.1,0-0.3,0-0.4,0c-0.7-0.3-1.2-0.5-1.9-0.9
	c-0.5-0.4-1.1-0.8-1.5-1.3c-0.4-0.4-0.5-0.9-0.7-1.5C11,17.3,11,16.9,11,16.5c0-1.6,0-4.5,0-4.5c1.7,0.1,3.2-0.5,4.4-1.6
	c1.2,1.1,2.7,1.7,4.3,1.6C19.8,12,19.8,14.4,19.8,15.7z"/>
</svg>
