<?xml version="1.0" encoding="utf-8"?>
<!-- Generator: Adobe Illustrator 25.2.1, SVG Export Plug-In . SVG Version: 6.00 Build 0)  -->
<svg version="1.1" id="Layer_1" xmlns="http://www.w3.org/2000/svg" xmlns:xlink="http://www.w3.org/1999/xlink" x="0px" y="0px"
	 viewBox="0 0 45.8 62.8" enable-background="new 0 0 45.8 62.8" xml:space="preserve">
<g>
	<path fill="#BA1E1A" d="M42.8,12.3c-2.3-4.1-5.3-7.2-9.6-9.2c-3.5-1.6-7-2.3-10.9-2.3c-3.7,0.2-7,0.8-10,2.5
		c-6,3-9.6,7.7-11.1,14.1c-0.8,3.5-0.8,7-0.2,10.4c0.6,3.1,1.8,5.9,3.5,8.6c1.6,2.3,3.3,4.7,4.9,7c3.5,4.5,7,8.8,10,13.3
		c1.2,1.6,2.3,3.5,3.5,5.3c0.2-0.2,0.2-0.4,0.4-0.6c1.4-2.3,2.9-4.5,4.5-6.8c2.9-3.9,5.9-8,8.8-11.9c1.8-2.5,3.7-4.9,5.3-7.6
		c2-3.7,3.3-7.6,3.3-11.7C45.3,19.6,44.7,15.7,42.8,12.3z"/>
</g>
<circle fill="#FFFFFF" cx="22.9" cy="23" r="14.7"/>
<path d="M18.61,27.881V16.292c3.477-0.579,7.185-1.043,10.546-1.854v12.863c0,0.579-0.348,1.043-0.695,1.391
	c-0.579,0.579-1.391,1.043-2.202,1.159c-0.695,0.116-1.507,0.116-2.086-0.116c-0.348-0.116-0.464-0.116-0.579-0.348
	c-0.579-0.348-0.695-1.043-0.464-1.622l0,0c0.116-0.348,0.464-0.695,0.695-0.695c1.043-0.695,2.202-1.159,3.593-1.043
	c0.116,0,0.579,0.116,0.695,0.116v-8.112c-0.464,0.116-0.695,0.116-1.159,0.116c-1.97,0.348-3.708,0.579-5.678,0.927
	c-0.464,0-0.695,0.116-1.159,0.116C20,19.19,20,19.19,20,19.306v9.503c0,0.464-0.116,0.927-0.464,1.159
	c-0.579,0.579-1.159,1.043-1.97,1.159c-0.927,0.348-1.622,0.348-2.55,0c-0.348-0.116-1.622-0.579-1.159-1.854
	c0.348-0.464,0.579-0.695,0.927-1.043c1.043-0.579,2.086-0.695,3.129-0.695C18.03,27.649,18.262,27.765,18.61,27.881z"/>
</svg>
