<?xml version="1.0" encoding="utf-8"?>
<!-- Generator: Adobe Illustrator 24.3.0, SVG Export Plug-In . SVG Version: 6.00 Build 0)  -->
<svg version="1.1" id="Layer_1" xmlns="http://www.w3.org/2000/svg" xmlns:xlink="http://www.w3.org/1999/xlink" x="0px" y="0px"
	 viewBox="0 0 31 42" enable-background="new 0 0 31 42" xml:space="preserve">
<g>
	<g>
		<g>
			<path fill="#BA1E1A" d="M28.5,8.5c-1.5-2.6999998-3.5-4.6999998-6.2999992-6C19.8999996,1.4,17.6000004,1,15.1000004,1
				c-2.3999996,0.1-4.5,0.5-6.6000004,1.5999999c-3.9000001,2-6.3000002,5.0999999-7.1999998,9.1999989
				c-0.5,2.3000002-0.5,4.5-0.1,6.7999992c0.4,2,1.1999999,3.8999996,2.2999997,5.6000004
				c1.0999999,1.5,2.0999999,3.1000004,3.1999998,4.5C9,31.5999985,11.1999998,34.5,13.2999992,37.3999977
				c0.8000002,1.0999985,1.5,2.2999992,2.3000002,3.5c0.1000004-0.0999985,0.1000004-0.2999992,0.3000002-0.4000015
				c0.8999996-1.5,1.8999996-2.9000015,2.8999996-4.4000015c1.8999996-2.5,3.8999996-5.2000008,5.7999992-7.7999992
				c1.2000008-1.6000004,2.3999996-3.2000008,3.5-4.8999996c1.2999992-2.3999996,2.1000004-4.8999996,2.1000004-7.6000004
				C30.1000004,13.3000002,29.7000008,10.8000002,28.5,8.5z"/>
		</g>
		<circle fill="#FFFFFF" cx="15.5" cy="15.5" r="9.6000004"/>
	</g>
	<g>
		<path d="M16.6000004,17.2999992C16.6000004,17,16.5,16.6999989,16.3000011,16.5c-0.2000008-0.2000008-0.5-0.3999996-0.8999996-0.5
			c-0.3999996-0.1999998-0.8000002-0.3000002-1.1999998-0.5s-0.6999998-0.3999996-0.8999996-0.6000004
			c-0.3000002-0.1999998-0.5-0.5-0.6000004-0.8000002s-0.1999998-0.6999998-0.1999998-1.1000004
			c0-0.6999998,0.1999998-1.3000002,0.6999998-1.8000002s1.1000004-0.6999998,2-0.8000002V9h0.999999v1.3999996
			C17,10.5,17.6000004,10.7999992,18,11.3999996c0.3999996,0.5,0.7000008,1.1999998,0.7000008,2H16.5
			c0-0.3999996-0.1000004-0.8000002-0.2999992-1C16,12.1999998,15.8000011,12,15.500001,12s-0.5,0.1000004-0.6999998,0.3000002
			S14.6000013,12.6999998,14.6000013,13s0.1000004,0.6000004,0.3000002,0.8000002s0.5,0.3999996,0.8999996,0.5
			c0.3999996,0.1999998,0.7999992,0.3000002,1.1000004,0.5C17.3000011,15,17.6000023,15.1999998,17.8000011,15.4000006
			c0.2999992,0.1999998,0.5,0.5,0.6000004,0.8000002c0.1000004,0.2999992,0.2000008,0.7000008,0.2000008,1.1000004
			c0,0.7000008-0.2000008,1.2999992-0.7000008,1.7999992s-1.1000004,0.7000008-1.8999996,0.7999992v1.2999992h-1v-1.2999992
			c-0.8999996-0.1000004-1.6999998-0.3999996-2.1000004-1s-0.6999998-1.2999992-0.6999998-2.1000004h2.1999998
			c0,0.5,0.1000004,0.8999996,0.3000002,1.1000004s0.5,0.3999996,0.8999996,0.3999996
			c0.3000002,0,0.500001-0.1000004,0.6999998-0.2999992C16.5,17.8999996,16.6000004,17.6000004,16.6000004,17.2999992z"/>
	</g>
</g>
</svg>
