<?xml version="1.0" encoding="utf-8"?>
<!-- Generator: Adobe Illustrator 25.2.1, SVG Export Plug-In . SVG Version: 6.00 Build 0)  -->
<svg version="1.1" id="Layer_1" xmlns="http://www.w3.org/2000/svg" xmlns:xlink="http://www.w3.org/1999/xlink" x="0px" y="0px"
	 viewBox="0 0 30 30" enable-background="new 0 0 30 30" xml:space="preserve">
<g id="Artwork_8_1_">
	<g>
		<g>
			<defs>
				<rect id="SVGID_1_" x="0.5" y="0.5" width="29" height="29"/>
			</defs>
			<clipPath id="SVGID_2_">
				<use xlink:href="#SVGID_1_"  overflow="visible"/>
			</clipPath>
			<rect x="0.5" y="0.5" clip-path="url(#SVGID_2_)" width="29" height="29"/>
		</g>
	</g>
</g>
<g>
	<path fill="#FFFFFF" d="M3.8,14.3C4.4,14,5,13.7,5.4,13.4c4.7-2.4,9.3-5,14-7.5c0.3-0.1,0.7-0.4,1-0.6c0.3-0.1,0.4-0.1,0.7,0.1
		c0.7,1.4,1.6,2.8,2.3,4.2c0,0.1,0.1,0.3,0.1,0.3c0.1,0.3,0.1,0.6-0.1,0.7c-3.4,1.8-6.9,3.7-10.3,5.5c-1,0.6-2,1-2.8,1.6H10
		C7.8,16.7,5.8,15.6,3.8,14.3C3.8,14.4,3.8,14.3,3.8,14.3z"/>
	<path fill="#FFFFFF" d="M18,18.5c-0.3-0.6-0.6-1.1-0.8-1.7c-2.7,1.4-5.2,2.8-7.9,4.2c-0.7-1.3-1.4-2.7-2.1-4c0,0,0.1,0,0.1,0.1
		c0.8,0.6,1.8,1.1,2.7,1.6c0.1,0,0.1,0,0.3,0c4-2.1,8.1-4.4,12.2-6.6c0,0,0.1,0,0.1-0.1c0.3,0.4,0.6,1,0.7,1.4
		c-1.6,0.8-3.1,1.7-4.7,2.5c0.3,0.6,0.6,1.1,0.8,1.7c-0.3,0.1-0.6,0.1-0.8,0.3C18.4,18.3,18.1,18.4,18,18.5z"/>
	<path fill="#FFFFFF" d="M23.6,15.9c1,0,1.8,0,2.7,0c0,2.8,0,5.5,0,8.3c-0.8,0-1.8,0-2.7,0c0-1.1,0-2.1,0-3.3c-0.6,0-1.1,0-1.8,0
		c0.3-0.6,0.3-1.1,0-1.8c0.6,0,1.1,0,1.8,0C23.6,18,23.6,17,23.6,15.9z"/>
	<path fill="#FFFFFF" d="M7.5,20.7c-0.6,0.3-1,0.6-1.6,0.8c-0.7-1.4-1.6-2.8-2.3-4.2c0.6-0.3,1-0.6,1.6-0.8
		C5.9,17.8,6.7,19.2,7.5,20.7z"/>
	<path fill="#FFFFFF" d="M19.8,18.5c0.8,0,1.6,0.7,1.6,1.6s-0.7,1.6-1.6,1.6s-1.6-0.7-1.6-1.6C18.3,19.1,19,18.5,19.8,18.5z"/>
</g>
</svg>
