<?xml version="1.0" encoding="utf-8"?>
<!-- Generator: Adobe Illustrator 25.2.1, SVG Export Plug-In . SVG Version: 6.00 Build 0)  -->
<svg version="1.1" id="Layer_1" xmlns="http://www.w3.org/2000/svg" xmlns:xlink="http://www.w3.org/1999/xlink" x="0px" y="0px"
	 viewBox="0 0 30 30" enable-background="new 0 0 30 30" xml:space="preserve">
<g id="Artwork_1_1_">
	<g>
		<g>
			<defs>
				<rect id="SVGID_1_" x="0.5" y="0.5" width="29" height="29"/>
			</defs>
			<clipPath id="SVGID_2_">
				<use xlink:href="#SVGID_1_"  overflow="visible"/>
			</clipPath>
			<rect x="0.5" y="0.5" clip-path="url(#SVGID_2_)" fill="#BA1E1A" width="29" height="29"/>
		</g>
		<g>
			<defs>
				<rect id="SVGID_3_" x="0.5" y="0.5" width="29" height="29"/>
			</defs>
			<clipPath id="SVGID_4_">
				<use xlink:href="#SVGID_3_"  overflow="visible"/>
			</clipPath>
			<rect x="3" y="3" clip-path="url(#SVGID_4_)" fill="#FFFFFF" width="24" height="24"/>
		</g>
	</g>
</g>
<rect x="5.616" y="5.616" fill="#FFFFFF" width="18.769" height="18.769"/>
<g>
	<path fill="#050000" d="M20.291,15.993c-0.234-0.467-0.935-1.168-1.402-1.285c-1.402-0.117-2.57-0.117-3.972,0
		c-0.584,0-1.285,0.584-1.519,1.402c-0.35,0.701-0.701,1.519-0.818,2.22c-0.234,1.285-0.35,2.337,0,3.972c0.584,0,1.285,0,1.869,0
		c0.117-0.234,0.234-0.584,0.35-0.935c1.285,0,2.57,0,3.972,0c0.117,0.234,0.234,0.584,0.35,0.935c0.584,0,1.285,0,1.869,0
		c0.117-0.35,0.234-0.818,0.234-1.168C21.693,19.381,21.109,17.745,20.291,15.993z M17.954,15.292
		c1.402,0.117,1.986,0.935,2.22,2.453c-2.22,0-4.323,0-6.542,0C13.982,15.526,15.151,15.175,17.954,15.292z M14.917,19.848
		l-1.285-0.35l0.117-0.467l1.402,0.35L14.917,19.848z M19.006,19.965c0,0-0.117-0.35-0.234-0.467
		c0.467-0.117,0.935-0.234,1.402-0.35c0,0.234,0.117,0.35,0.117,0.584C19.824,19.731,19.473,19.848,19.006,19.965z"/>
	<g>
		<path fill="#050000" d="M10.711,14.124v3.505H8.608v-9.93h3.855c0.701,0,1.402,0.117,1.986,0.467
			c0.584,0.35,1.051,0.701,1.285,1.168c0.234,0.467,0.467,1.051,0.467,1.752c0,0.935-0.35,1.752-1.051,2.337
			c-0.701,0.584-1.519,0.701-2.687,0.701H10.711z M10.711,12.488h1.869c0.584,0,0.935-0.117,1.285-0.35
			c0.35-0.234,0.467-0.584,0.467-1.051s-0.117-0.935-0.467-1.168c-0.35-0.234-0.701-0.467-1.168-0.467h-1.986V12.488z"/>
	</g>
</g>
</svg>
