<?xml version="1.0" encoding="utf-8"?>
<!-- Generator: Adobe Illustrator 25.2.1, SVG Export Plug-In . SVG Version: 6.00 Build 0)  -->
<svg version="1.1" id="Layer_1" xmlns="http://www.w3.org/2000/svg" xmlns:xlink="http://www.w3.org/1999/xlink" x="0px" y="0px"
	 viewBox="0 0 31 42" enable-background="new 0 0 31 42" xml:space="preserve">
<g id="Artwork_2_1_">
	<g>
		<g>
			<defs>
				<rect id="SVGID_1_" x="0.909" y="1" width="29.182" height="40"/>
			</defs>
			<clipPath id="SVGID_2_">
				<use xlink:href="#SVGID_1_"  overflow="visible"/>
			</clipPath>
			<g clip-path="url(#SVGID_2_)">
				<g>
					<defs>
						<rect id="SVGID_3_" x="0.909" y="1" width="29.182" height="40"/>
					</defs>
					<clipPath id="SVGID_4_">
						<use xlink:href="#SVGID_3_"  overflow="visible"/>
					</clipPath>
					<path clip-path="url(#SVGID_4_)" fill="#BA1E1A" d="M28.485,8.492c-1.472-2.675-3.478-4.682-6.287-6.02
						C19.923,1.402,17.649,1,15.108,1c-2.409,0.134-4.549,0.535-6.556,1.606c-3.879,2.007-6.287,5.083-7.224,9.231
						c-0.535,2.274-0.535,4.548-0.134,6.822c0.402,2.007,1.205,3.88,2.274,5.619c1.071,1.472,2.141,3.077,3.211,4.549
						c2.275,2.942,4.549,5.752,6.556,8.695c0.802,1.071,1.471,2.275,2.274,3.479c0.134-0.134,0.134-0.268,0.268-0.402
						c0.936-1.471,1.872-2.943,2.942-4.415c1.873-2.542,3.88-5.217,5.753-7.758c1.204-1.606,2.408-3.211,3.478-4.951
						c1.338-2.408,2.14-4.949,2.14-7.625C30.09,13.308,29.689,10.766,28.485,8.492"/>
				</g>
				<g>
					<defs>
						<rect id="SVGID_5_" x="0.909" y="1" width="29.182" height="40"/>
					</defs>
					<clipPath id="SVGID_6_">
						<use xlink:href="#SVGID_5_"  overflow="visible"/>
					</clipPath>
					<path clip-path="url(#SVGID_6_)" fill="#FFFFFF" d="M15.5,5.869c5.312,0,9.619,4.307,9.619,9.619
						c0,5.313-4.307,9.619-9.619,9.619s-9.619-4.306-9.619-9.619C5.881,10.176,10.188,5.869,15.5,5.869"/>
				</g>
			</g>
		</g>
	</g>
</g>
</svg>
