<?xml version="1.0" encoding="utf-8"?>
<!-- Generator: Adobe Illustrator 24.3.0, SVG Export Plug-In . SVG Version: 6.00 Build 0)  -->
<svg version="1.1" id="Layer_1" xmlns="http://www.w3.org/2000/svg" xmlns:xlink="http://www.w3.org/1999/xlink" x="0px" y="0px"
	 viewBox="0 0 31 42" enable-background="new 0 0 31 42" xml:space="preserve">
<g id="Artwork_7_1_">
	<g>
		<defs>
			<rect id="SVGID_1_" x="0.9087982" y="1" width="29.1824036" height="40"/>
		</defs>
		<clipPath id="SVGID_2_">
			<use xlink:href="#SVGID_1_"  overflow="visible"/>
		</clipPath>
		<g clip-path="url(#SVGID_2_)">
			<defs>
				<rect id="SVGID_3_" x="0.9087982" y="1" width="29.1819992" height="40"/>
			</defs>
			<clipPath id="SVGID_4_">
				<use xlink:href="#SVGID_3_"  overflow="visible"/>
			</clipPath>
			<path clip-path="url(#SVGID_4_)" d="M28.4857979,8.4914017c-1.4720001-2.6749992-3.4790001-4.6819992-6.2880001-6.0199966
				c-2.2740002-1.0700035-4.5480003-1.4710007-7.0900002-1.4710007c-2.408,0.1339989-4.5480003,0.5349998-6.5550003,1.6049995
				c-3.8789997,2.007-6.2880001,5.0839996-7.223999,9.230999c-0.5349998,2.2740002-0.5349998,4.5480003-0.1340008,6.8219986
				c0.401001,2.007,1.2040005,3.8800011,2.2740002,5.6190014c1.0710011,1.4719982,2.1410007,3.0769997,3.2110004,4.5489979
				c2.2740002,2.9420013,4.5489998,5.7519989,6.5549994,8.6949997c0.8030005,1.0709991,1.4720001,2.2750015,2.2740002,3.4790001
				c0.1339998-0.1339989,0.1339998-0.2679977,0.2680006-0.4020004c0.9370003-1.4709969,1.8729992-2.942997,2.9429989-4.4149971
				c1.8729992-2.5419998,3.8789997-5.2160015,5.7520008-7.7580013c1.2039986-1.6060009,2.4089985-3.2110004,3.4789982-4.9510002
				c1.3380013-2.4069996,2.1400013-4.9489994,2.1400013-7.625C30.0907974,13.3074017,29.6897964,10.7654018,28.4857979,8.4914017"/>
		</g>
	</g>
</g>
<g>
	<path fill="#FFFFFF" d="M16.8999996,17.7999992c0-0.3999996-0.1000004-0.7999992-0.2999992-1S16,16.2999992,15.5,16.0999985
		c-0.5-0.1999998-1-0.3999996-1.5-0.6999998c-0.5-0.1999998-0.8000002-0.5-1.1999998-0.8000002
		c-0.3000002-0.3000002-0.6000004-0.6000004-0.6999998-1c-0.1999998-0.3999996-0.3000002-0.8999996-0.3000002-1.3999996
		c0-0.8999996,0.3000002-1.6999998,0.8999996-2.3000002c0.6000004-0.6000004,1.3999996-0.8999996,2.5-1V7.3000002H16.5V9
		c1,0.1000004,1.7999992,0.6000004,2.2999992,1.1999998s0.7999992,1.5,0.7999992,2.5h-2.7000008
		c0-0.6000004-0.1000004-1-0.2999992-1.3000002c-0.2000008-0.3000002-0.5-0.5-0.8999996-0.5S15.0999985,11,14.8999987,11.1999998
		s-0.3000002,0.5-0.3000002,0.8999996s0.1000004,0.6999998,0.3000002,1s0.6000004,0.5,1.1000004,0.6999998
		C16.5,13.999999,17,14.1999989,17.3999996,14.499999c0.3999996,0.1999998,0.7999992,0.5,1.2000008,0.8000002
		s0.6000004,0.6000004,0.7999992,1c0.2000008,0.3999996,0.2999992,0.8999996,0.2999992,1.3999996
		c0,0.8999996-0.2999992,1.7000008-0.8999996,2.2999992c-0.6000004,0.6000004-1.3999996,0.8999996-2.3999996,1v1.6000004H15
		v-1.6000004c-1.1999998-0.1000004-2.1000004-0.5-2.6999998-1.2000008
		c-0.6000004-0.7000008-0.8999996-1.6000004-0.8999996-2.7000008h2.6999998c0,0.6000004,0.1000004,1.1000004,0.3999996,1.3999996
		s0.6999998,0.5,1.1999998,0.5c0.4000006,0,0.6999998-0.1000004,0.9000006-0.2999992
		C16.7999992,18.5,16.8999996,18.2000008,16.8999996,17.7999992z"/>
</g>
</svg>
