<?xml version="1.0" encoding="utf-8"?>
<!-- Generator: Adobe Illustrator 24.3.0, SVG Export Plug-In . SVG Version: 6.00 Build 0)  -->
<svg version="1.1" id="Layer_1" xmlns="http://www.w3.org/2000/svg" xmlns:xlink="http://www.w3.org/1999/xlink" x="0px" y="0px"
	 viewBox="0 0 30 30" enable-background="new 0 0 30 30" xml:space="preserve">
<rect x="0.5" y="0.5" fill="#BA1E1A" width="29" height="29"/>
<rect x="3" y="3" fill="#FFFFFF" width="24" height="24"/>
<g>
	<path d="M6.1999998,14.5c0.4000001-0.1999998,0.9000001-0.3999996,1.1999998-0.6999998
		C11.0999994,11.9000006,14.7999992,9.8999996,18.5,7.9000001C18.7000008,7.8000002,19.1000004,7.5999999,19.2999992,7.5
		C19.5,7.4000001,19.5999985,7.4000001,19.8999996,7.5999999C20.5,8.6999998,21.1000004,9.8000002,21.6999989,11
		c0,0.1000004,0.1000004,0.1999998,0.1000004,0.1999998c0.1000004,0.1999998,0.1000004,0.3999996-0.1000004,0.6000004
		c-2.7000008,1.5-5.5,2.9000006-8.1999998,4.4000006C12.6999989,16.6000004,11.8999987,17,11.2999992,17.4000015h-0.1000004
		C9.3000002,16.3999996,7.8000002,15.5,6.1999998,14.5C6.1999998,14.6000004,6.1999998,14.5,6.1999998,14.5z"/>
	<path d="M17.3999996,17.8999996C17.1999989,17.5,17,17,16.6999989,16.6000004
		C14.5999985,17.7000008,12.5999985,18.8000011,10.3999987,20c-0.6000004-1-1.1000004-2.1000004-1.6999998-3.1000004
		c0,0,0.1000004,0,0.1000004,0.1000004c0.6999998,0.3999996,1.5,0.8999996,2.1000004,1.2000008c0.1000004,0,0.1000004,0,0.1999998,0
		c3.0999994-1.7000008,6.4000006-3.5,9.6000013-5.3000002c0,0,0.1000004,0,0.1000004-0.1000004
		c0.2000008,0.3000002,0.3999996,0.8000002,0.6000004,1.1000004c-1.2000008,0.6999998-2.5,1.3000002-3.7000008,2
		c0.2000008,0.4000006,0.3999996,0.9000006,0.7000008,1.3000002c-0.2000008,0.1000004-0.3999996,0.1000004-0.7000008,0.2000008
		C17.7000008,17.7000008,17.5,17.7999992,17.3999996,17.8999996z"/>
	<path d="M21.8999996,15.8000002c0.7999992,0,1.5,0,2.1000004,0C24,18,24,20.2000008,24,22.3999996c-0.7000008,0-1.5,0-2.1000004,0
		c0-0.8999996,0-1.7000008,0-2.6000004c-0.3999996,0-0.8999996,0-1.5,0c0.2000008-0.3999996,0.2000008-0.8999996,0-1.5
		c0.3999996,0,0.8999996,0,1.5,0C21.8999996,17.3999996,21.8999996,16.7000008,21.8999996,15.8000002z"/>
	<path d="M9.1000004,19.6000004C8.7000008,19.8000011,8.3000002,20,7.9000006,20.3000011
		c-0.5999999-1.1000004-1.1999998-2.2000008-1.8000002-3.3999996c0.4000001-0.2000008,0.8000002-0.3999996,1.1999998-0.7000008
		C7.9000001,17.2999992,8.3999996,18.5,9.1000004,19.6000004z"/>
	<path d="M18.8999996,17.8999996c0.7000008,0,1.2000008,0.6000004,1.2000008,1.2000008S19.5,20.3000011,18.8999996,20.3000011
		s-1.2000008-0.6000004-1.2000008-1.2000008C17.6000004,18.2999992,18.2000008,17.8999996,18.8999996,17.8999996z"/>
</g>
</svg>
