<?xml version="1.0" encoding="utf-8"?>
<!-- Generator: Adobe Illustrator 25.2.3, SVG Export Plug-In . SVG Version: 6.00 Build 0)  -->
<svg version="1.1" id="Layer_1" xmlns="http://www.w3.org/2000/svg" xmlns:xlink="http://www.w3.org/1999/xlink" x="0px" y="0px"
	 viewBox="0 0 1416 873.3556519" enable-background="new 0 0 1416 873.3556519" xml:space="preserve">
<g>
	<g>
		<defs>
			<polyline id="SVGID_1_" points="1400.3704834,13.2220755 10.3704367,13.2220755 10.3704367,845.22229 1400.3704834,845.22229 
				1400.3704834,13.2220755 			"/>
		</defs>
		<clipPath id="SVGID_2_">
			<use xlink:href="#SVGID_1_"  overflow="visible"/>
		</clipPath>
		<g clip-path="url(#SVGID_2_)">
			
				<image overflow="visible" width="1001" height="836" xlink:href="8D991F5CF2AFE232.jpg"  transform="matrix(1 0 0 1 8.3703699 11.2222223)">
			</image>
		</g>
		<g clip-path="url(#SVGID_2_)">
			
				<image overflow="visible" width="395" height="836" xlink:href="8D991F5CF2AFE236.jpg"  transform="matrix(1 0 0 1 1007.3703613 11.2222223)">
			</image>
		</g>
	</g>
	<path fill="#FFFFFF" d="M1368.4104004,826.8550415H36.4782791c-7.5458965,0-13.6635723-6.1181641-13.6635723-13.6640625V39.3301315
		c0-7.5458984,6.1176758-13.6635742,13.6635723-13.6635742h1331.9321289c7.5458984,0,13.6640625,6.1176758,13.6640625,13.6635742
		V813.190979C1382.0744629,820.7368774,1375.9562988,826.8550415,1368.4104004,826.8550415z"/>
</g>
<g>
	<path fill="#043C3F" d="M82.0202713,102.9390182h3.6538086l12.7260742,29.7358475h-4.7041016l-2.9819336-7.3501053H76.5603104
		l-2.9399414,7.3501053h-4.7041016L82.0202713,102.9390182z M89.2443924,121.7969284l-5.5439453-13.6499023h-0.0839844
		l-5.628418,13.6499023H89.2443924z"/>
	<path fill="#043C3F" d="M112.3693924,117.7647018c-0.4482422-0.5595703-1.0014648-1.0288086-1.6591797-1.4067383
		c-0.6582031-0.3779297-1.4633789-0.5668945-2.4145508-0.5668945c-0.8964844,0-1.6738281,0.1889648-2.3310547,0.5668945
		c-0.6582031,0.3779297-0.9873047,0.9311523-0.9873047,1.6586914c0,0.5883789,0.1889648,1.0644531,0.5673828,1.4282227
		c0.3779297,0.3642578,0.8251953,0.6582031,1.34375,0.8818359c0.5175781,0.2246094,1.0708008,0.3925781,1.6591797,0.5039062
		c0.5878906,0.1123047,1.0917969,0.2104492,1.5117188,0.2944336c0.8120117,0.1958008,1.5751953,0.434082,2.2890625,0.7138672
		c0.7138672,0.2802734,1.3295898,0.6445312,1.8481445,1.0917969c0.5175781,0.4482422,0.9238281,0.9941406,1.2177734,1.6381836
		c0.2939453,0.6445312,0.440918,1.4277344,0.440918,2.3520508c0,1.1201248-0.237793,2.0791092-0.7138672,2.8769608
		c-0.4765625,0.7978516-1.0917969,1.4487305-1.8481445,1.953125c-0.7558594,0.5039062-1.6166992,0.8681641-2.5830078,1.0917969
		c-0.9658203,0.2236328-1.9389648,0.3359375-2.9189453,0.3359375c-1.6523438,0-3.1010742-0.2519531-4.3466797-0.7558594
		c-1.246582-0.5039062-2.359375-1.4282227-3.3393555-2.7719727l2.8564453-2.3520584
		c0.6152344,0.6162109,1.3017578,1.162117,2.0576172,1.6381912c0.7563477,0.4760742,1.6801758,0.7138672,2.7719727,0.7138672
		c0.4760742,0,0.9589844-0.0488281,1.4492188-0.1469727c0.4897461-0.0976562,0.9238281-0.2519531,1.3017578-0.4619141
		c0.378418-0.2099609,0.6860352-0.4760742,0.9243164-0.7983398c0.2373047-0.3212967,0.3569336-0.6928787,0.3569336-1.1128006
		c0-0.5600586-0.175293-1.0219727-0.5249023-1.3862305c-0.3505859-0.3632812-0.7705078-0.6508789-1.2602539-0.8608398
		c-0.4902344-0.2099609-1.0078125-0.3779297-1.5537109-0.5039062c-0.5463867-0.1259766-1.0292969-0.230957-1.4492188-0.3149414
		c-0.8125-0.1958008-1.5820312-0.4199219-2.3100586-0.6723633c-0.7285156-0.2519531-1.3720703-0.5878906-1.9321289-1.0078125
		s-1.0078125-0.9516602-1.34375-1.5961914c-0.3359375-0.6435547-0.5039062-1.4414062-0.5039062-2.3935547
		c0-1.0356445,0.2163086-1.9389648,0.6508789-2.7089844c0.4335938-0.7700195,1.0078125-1.4072266,1.722168-1.9111328
		c0.7138672-0.5039062,1.5253906-0.8823242,2.4360352-1.1342773c0.9091797-0.2519531,1.8266602-0.3779297,2.7509766-0.3779297
		c1.34375,0,2.6313477,0.2519531,3.8637695,0.7563477c1.2319336,0.5039062,2.2114258,1.34375,2.9399414,2.5195312
		L112.3693924,117.7647018z"/>
	<path fill="#043C3F" d="M130.9113922,117.7647018c-0.4482422-0.5595703-1.0014648-1.0288086-1.6591797-1.4067383
		c-0.6582031-0.3779297-1.4633865-0.5668945-2.4145584-0.5668945c-0.8964844,0-1.6738281,0.1889648-2.3310547,0.5668945
		c-0.6582031,0.3779297-0.9873047,0.9311523-0.9873047,1.6586914c0,0.5883789,0.1889648,1.0644531,0.5673828,1.4282227
		c0.3779297,0.3642578,0.8251953,0.6582031,1.34375,0.8818359c0.5175781,0.2246094,1.0708008,0.3925781,1.6591797,0.5039062
		c0.5878906,0.1123047,1.0918045,0.2104492,1.5117264,0.2944336c0.8120117,0.1958008,1.5751953,0.434082,2.2890625,0.7138672
		c0.7138672,0.2802734,1.3295898,0.6445312,1.8481445,1.0917969c0.5175781,0.4482422,0.9238281,0.9941406,1.2177734,1.6381836
		c0.2939453,0.6445312,0.440918,1.4277344,0.440918,2.3520508c0,1.1201248-0.237793,2.0791092-0.7138672,2.8769608
		c-0.4765625,0.7978516-1.0917969,1.4487305-1.8481445,1.953125c-0.7558594,0.5039062-1.6166992,0.8681641-2.5830078,1.0917969
		c-0.9658203,0.2236328-1.9389725,0.3359375-2.9189529,0.3359375c-1.6523438,0-3.1010742-0.2519531-4.3466797-0.7558594
		c-1.246582-0.5039062-2.359375-1.4282227-3.3393555-2.7719727l2.8564453-2.3520584
		c0.6152344,0.6162109,1.3017578,1.162117,2.0576172,1.6381912c0.7563477,0.4760742,1.6801758,0.7138672,2.7719727,0.7138672
		c0.4760742,0,0.9589844-0.0488281,1.4492188-0.1469727c0.4897537-0.0976562,0.9238358-0.2519531,1.3017654-0.4619141
		c0.378418-0.2099609,0.6860352-0.4760742,0.9243164-0.7983398c0.2373047-0.3212967,0.3569336-0.6928787,0.3569336-1.1128006
		c0-0.5600586-0.175293-1.0219727-0.5249023-1.3862305c-0.3505859-0.3632812-0.7705078-0.6508789-1.2602539-0.8608398
		c-0.4902344-0.2099609-1.0078201-0.3779297-1.5537186-0.5039062c-0.5463867-0.1259766-1.0292969-0.230957-1.4492188-0.3149414
		c-0.8125-0.1958008-1.5820312-0.4199219-2.3100586-0.6723633c-0.7285156-0.2519531-1.3720703-0.5878906-1.9321289-1.0078125
		s-1.0078125-0.9516602-1.34375-1.5961914c-0.3359375-0.6435547-0.5039062-1.4414062-0.5039062-2.3935547
		c0-1.0356445,0.2163086-1.9389648,0.6508789-2.7089844c0.4335938-0.7700195,1.0078125-1.4072266,1.722168-1.9111328
		c0.7138672-0.5039062,1.5253906-0.8823242,2.4360352-1.1342773c0.9091797-0.2519531,1.8266602-0.3779297,2.7509766-0.3779297
		c1.3437576,0,2.6313553,0.2519531,3.8637772,0.7563477c1.2319336,0.5039062,2.2114258,1.34375,2.9399414,2.5195312
		L130.9113922,117.7647018z"/>
	<path fill="#043C3F" d="M141.482193,124.106987c0,0.8681641,0.1889648,1.6586914,0.5668945,2.3730469
		c0.378418,0.7138672,0.875,1.3227539,1.4912109,1.8266678c0.6157227,0.5043945,1.3295898,0.8964844,2.1420898,1.1762695
		c0.8115234,0.2802734,1.6518555,0.4199219,2.5200195,0.4199219c1.1757812,0,2.1977539-0.2729492,3.065918-0.8188477
		c0.8676758-0.5463867,1.6655273-1.2666092,2.394043-2.1630936l2.855957,2.1840897
		c-2.1000977,2.7158203-5.0400391,4.0737305-8.8198242,4.0737305c-1.5688477,0-2.9892578-0.2661133-4.2631836-0.7978516
		c-1.2744141-0.5317383-2.3520508-1.2666016-3.2338867-2.2050781c-0.8823242-0.9379883-1.5615234-2.043457-2.0371094-3.3178787
		c-0.4765625-1.2739258-0.7138672-2.652832-0.7138672-4.137207c0-1.4838867,0.2583008-2.8623047,0.7768555-4.1367188
		c0.5175781-1.2739258,1.2319336-2.3798828,2.1420898-3.3183594c0.909668-0.9375,1.9951172-1.6723633,3.2548828-2.2045898
		c1.2597656-0.5317383,2.6313477-0.7983398,4.1162109-0.7983398c1.7636719,0,3.2548828,0.3085938,4.4726562,0.9243164
		c1.2182617,0.6162109,2.21875,1.4213867,3.0029297,2.4145508c0.7836914,0.9946289,1.3505859,2.1147461,1.7011719,3.3603516
		c0.3496094,1.2460938,0.5249023,2.5131836,0.5249023,3.8007812v1.3442383H141.482193z M153.4104156,121.0830612
		c-0.0283203-0.840332-0.1616211-1.6098633-0.3989258-2.3100586c-0.2382812-0.699707-0.5952148-1.3085938-1.0712891-1.8271484
		c-0.4765625-0.5175781-1.0708008-0.9238281-1.7851562-1.2177734c-0.7138672-0.2944336-1.5473633-0.4414062-2.4985352-0.4414062
		c-0.9243164,0-1.7714844,0.175293-2.5410156,0.5253906c-0.7705078,0.3500977-1.421875,0.8051758-1.953125,1.3647461
		c-0.5322266,0.5605469-0.9453125,1.1831055-1.2392578,1.8691406c-0.2939453,0.6865234-0.440918,1.3647461-0.440918,2.0371094
		H153.4104156z"/>
	<path fill="#043C3F" d="M172.6042633,116.0430222h-5.4179688v9.0297852c0,0.5605469,0.0136719,1.1132812,0.0419922,1.6591797
		c0.027832,0.5458984,0.1328125,1.0361328,0.3149414,1.4697342c0.1821289,0.4345703,0.4619141,0.7841797,0.840332,1.050293
		c0.3779297,0.2661133,0.9301758,0.3989258,1.6586914,0.3989258c0.4477539,0,0.909668-0.0419922,1.3862305-0.1259766
		c0.4755859-0.0839844,0.9091797-0.237793,1.3017578-0.4619141v3.4438477
		c-0.4482422,0.2519531-1.0288086,0.4267578-1.7426758,0.5249023c-0.7143555,0.0976562-1.2675781,0.1469727-1.6591797,0.1469727
		c-1.4560547,0-2.5830078-0.203125-3.3808594-0.6088867c-0.7983398-0.4057617-1.3862305-0.9306641-1.7641602-1.5751953
		c-0.3779297-0.6435547-0.6025391-1.3647461-0.671875-2.1625977c-0.0703125-0.7983398-0.1049805-1.603035-0.1049805-2.4150467
		v-10.3740234h-4.3681641v-3.2763672h4.3681641v-5.5859375h3.7797852v5.5859375h5.4179688V116.0430222z"/>
	<path fill="#043C3F" d="M188.0432281,117.7647018c-0.4482422-0.5595703-1.0014648-1.0288086-1.6591797-1.4067383
		c-0.6582031-0.3779297-1.4633789-0.5668945-2.4145508-0.5668945c-0.8964844,0-1.6738281,0.1889648-2.3310547,0.5668945
		c-0.6582031,0.3779297-0.9873047,0.9311523-0.9873047,1.6586914c0,0.5883789,0.1889648,1.0644531,0.5673828,1.4282227
		c0.3779297,0.3642578,0.8251953,0.6582031,1.34375,0.8818359c0.5175781,0.2246094,1.0708008,0.3925781,1.6591797,0.5039062
		c0.5878906,0.1123047,1.0917969,0.2104492,1.5117188,0.2944336c0.8120117,0.1958008,1.5751953,0.434082,2.2890625,0.7138672
		c0.7138672,0.2802734,1.3295898,0.6445312,1.8481445,1.0917969c0.5175781,0.4482422,0.9238281,0.9941406,1.2177734,1.6381836
		c0.2939453,0.6445312,0.440918,1.4277344,0.440918,2.3520508c0,1.1201248-0.237793,2.0791092-0.7138672,2.8769608
		c-0.4765625,0.7978516-1.0917969,1.4487305-1.8481445,1.953125c-0.7558594,0.5039062-1.6166992,0.8681641-2.5830078,1.0917969
		c-0.9658203,0.2236328-1.9389648,0.3359375-2.9189453,0.3359375c-1.6523438,0-3.1010742-0.2519531-4.3466797-0.7558594
		c-1.246582-0.5039062-2.359375-1.4282227-3.3393555-2.7719727l2.8564453-2.3520584
		c0.6152344,0.6162109,1.3017578,1.162117,2.0576172,1.6381912c0.7563477,0.4760742,1.6801758,0.7138672,2.7719727,0.7138672
		c0.4760742,0,0.9589844-0.0488281,1.4492188-0.1469727c0.4897461-0.0976562,0.9238281-0.2519531,1.3017578-0.4619141
		c0.378418-0.2099609,0.6860352-0.4760742,0.9243164-0.7983398c0.2373047-0.3212967,0.3569336-0.6928787,0.3569336-1.1128006
		c0-0.5600586-0.175293-1.0219727-0.5249023-1.3862305c-0.3505859-0.3632812-0.7705078-0.6508789-1.2602539-0.8608398
		c-0.4902344-0.2099609-1.0078125-0.3779297-1.5537109-0.5039062c-0.5463867-0.1259766-1.0292969-0.230957-1.4492188-0.3149414
		c-0.8125-0.1958008-1.5820312-0.4199219-2.3100586-0.6723633c-0.7285156-0.2519531-1.3720703-0.5878906-1.9321289-1.0078125
		s-1.0078125-0.9516602-1.34375-1.5961914c-0.3359375-0.6435547-0.5039062-1.4414062-0.5039062-2.3935547
		c0-1.0356445,0.2163086-1.9389648,0.6508789-2.7089844c0.4335938-0.7700195,1.0078125-1.4072266,1.722168-1.9111328
		c0.7138672-0.5039062,1.5253906-0.8823242,2.4360352-1.1342773c0.9091797-0.2519531,1.8266602-0.3779297,2.7509766-0.3779297
		c1.34375,0,2.6313477,0.2519531,3.8637695,0.7563477c1.2319336,0.5039062,2.2114258,1.34375,2.9399414,2.5195312
		L188.0432281,117.7647018z"/>
	<path fill="#043C3F" d="M208.0764313,102.9390182h10.3740234c2.1000977,0,3.940918,0.2382812,5.5229492,0.7138672
		c1.581543,0.4765625,2.9541016,1.112793,4.1162109,1.9111328c1.1616211,0.7978516,2.1274414,1.715332,2.8979492,2.7509766
		c0.7695312,1.0361328,1.3789062,2.1000977,1.8271484,3.1918945c0.4472656,1.0917969,0.7695312,2.184082,0.9658203,3.2758789
		c0.1958008,1.0922852,0.2939453,2.1000977,0.2939453,3.0239258c0,1.9047852-0.3505859,3.7456055-1.0498047,5.5229492
		c-0.7001953,1.7788086-1.7368164,3.3603516-3.1079102,4.7461014c-1.3725586,1.3862305-3.0732422,2.4990234-5.1030273,3.3393555
		c-2.0307617,0.8398438-4.3754883,1.2597656-7.0351562,1.2597656h-9.7021484V102.9390182z M212.1086578,128.8950806h5.0820312
		c1.7075195,0,3.3242188-0.2314453,4.8510742-0.6933594c1.5253906-0.4619217,2.8623047-1.1547928,4.0107422-2.0786209
		c1.1479492-0.9243164,2.0581055-2.0791016,2.7299805-3.465332c0.671875-1.3857422,1.0078125-3.0029297,1.0078125-4.8510742
		c0-0.9511719-0.1538086-2.0644531-0.4619141-3.3388672c-0.3081055-1.2739258-0.8891602-2.484375-1.7426758-3.6328125
		c-0.8544922-1.1479492-2.0371094-2.1210938-3.5493164-2.9189453c-1.5117188-0.7983398-3.472168-1.1972656-5.8798828-1.1972656
		h-6.0478516V128.8950806z"/>
	<path fill="#043C3F" d="M237.8757477,105.6270065c0-0.7563477,0.2729492-1.4072266,0.8188477-1.953125
		s1.1972656-0.8188477,1.953125-0.8188477s1.4067383,0.2729492,1.953125,0.8188477
		c0.5458984,0.5458984,0.8188477,1.1967773,0.8188477,1.953125c0,0.7558594-0.2729492,1.4067383-0.8188477,1.9526367
		c-0.5463867,0.5463867-1.1972656,0.8193359-1.953125,0.8193359s-1.4072266-0.2729492-1.953125-0.8193359
		C238.1486969,107.0337448,237.8757477,106.3828659,237.8757477,105.6270065z M238.7575836,112.766655h3.7802734v19.9082108
		h-3.7802734V112.766655z"/>
	<path fill="#043C3F" d="M248.1569977,112.766655h3.7802734v3.0664062h0.0839844
		c0.2519531-0.5317383,0.5878906-1.0146484,1.0078125-1.4492188c0.4199219-0.4335938,0.8886719-0.8046875,1.4067383-1.112793
		s1.0849609-0.5527344,1.7011566-0.7353516c0.6157227-0.1816406,1.2319336-0.2729492,1.8481445-0.2729492
		c0.6157227,0,1.1757812,0.0839844,1.6796875,0.2519531l-0.1679688,4.0742188
		c-0.3081055-0.0839844-0.6162109-0.1538086-0.9238281-0.2099609c-0.3085938-0.0556641-0.6162109-0.0839844-0.9238281-0.0839844
		c-1.8481293,0-3.2621918,0.5185547-4.2421722,1.5537109c-0.9804688,1.0366211-1.4697266,2.6459961-1.4697266,4.8300781v9.9961014
		h-3.7802734V112.766655z"/>
	<path fill="#043C3F" d="M265.7883301,124.106987c0,0.8681641,0.1889648,1.6586914,0.5668945,2.3730469
		c0.378418,0.7138672,0.875,1.3227539,1.4912109,1.8266678c0.6157227,0.5043945,1.3295898,0.8964844,2.1420898,1.1762695
		c0.8115234,0.2802734,1.6518555,0.4199219,2.5200195,0.4199219c1.1757812,0,2.1977539-0.2729492,3.065918-0.8188477
		c0.8676758-0.5463867,1.6655273-1.2666092,2.394043-2.1630936l2.855957,2.1840897
		c-2.1000977,2.7158203-5.0400391,4.0737305-8.8198242,4.0737305c-1.5688477,0-2.9892578-0.2661133-4.2631836-0.7978516
		c-1.2744141-0.5317383-2.3520508-1.2666016-3.2338867-2.2050781c-0.8823242-0.9379883-1.5615234-2.043457-2.0371094-3.3178787
		c-0.4765625-1.2739258-0.7138672-2.652832-0.7138672-4.137207c0-1.4838867,0.2583008-2.8623047,0.7768555-4.1367188
		c0.5175781-1.2739258,1.2319336-2.3798828,2.1420898-3.3183594c0.909668-0.9375,1.9951172-1.6723633,3.2548828-2.2045898
		c1.2597656-0.5317383,2.6313477-0.7983398,4.1162109-0.7983398c1.7636719,0,3.2548828,0.3085938,4.4726562,0.9243164
		c1.2182617,0.6162109,2.21875,1.4213867,3.0029297,2.4145508c0.7836914,0.9946289,1.3505859,2.1147461,1.7011719,3.3603516
		c0.3496094,1.2460938,0.5249023,2.5131836,0.5249023,3.8007812v1.3442383H265.7883301z M277.7165527,121.0830612
		c-0.0283203-0.840332-0.1616211-1.6098633-0.3989258-2.3100586c-0.2382812-0.699707-0.5952148-1.3085938-1.0712891-1.8271484
		c-0.4765625-0.5175781-1.0708008-0.9238281-1.7851562-1.2177734c-0.7138672-0.2944336-1.5473633-0.4414062-2.4985352-0.4414062
		c-0.9243164,0-1.7714844,0.175293-2.5410156,0.5253906c-0.7705078,0.3500977-1.421875,0.8051758-1.953125,1.3647461
		c-0.5322266,0.5605469-0.9453125,1.1831055-1.2392578,1.8691406c-0.2939453,0.6865234-0.440918,1.3647461-0.440918,2.0371094
		H277.7165527z"/>
	<path fill="#043C3F" d="M300.2409668,118.0586472c-0.7006836-0.7275391-1.4355469-1.2807617-2.2050781-1.6586914
		c-0.7705078-0.3779297-1.6875-0.5668945-2.7509766-0.5668945c-1.0366211,0-1.9394531,0.1889648-2.7089844,0.5668945
		c-0.7705078,0.3779297-1.4145508,0.8964844-1.9321289,1.5537109c-0.5185547,0.6582031-0.9101562,1.4145508-1.1762695,2.2680664
		c-0.2661133,0.8544922-0.3989258,1.7431641-0.3989258,2.6669922c0,0.9243164,0.1538086,1.7998047,0.4619141,2.625
		c0.3081055,0.8261719,0.7416992,1.5473633,1.3022461,2.1630859c0.5595703,0.6162186,1.2319336,1.0991287,2.0161133,1.4492264
		c0.7832031,0.3500977,1.6655273,0.5249023,2.6459961,0.5249023c1.0634766,0,1.9736328-0.1889648,2.7299805-0.5668945
		c0.7558594-0.378418,1.4555664-0.9306641,2.1000977-1.6591873l2.6879883,2.6879959
		c-0.9804688,1.0917969-2.1210938,1.8764648-3.4233398,2.3520508c-1.3017578,0.4755859-2.6811523,0.7138672-4.1367188,0.7138672
		c-1.5405273,0-2.9472656-0.2519531-4.2211914-0.7558594c-1.2744141-0.5039062-2.3730469-1.2109375-3.296875-2.1210938
		c-0.9243164-0.909668-1.6381836-2.0014648-2.1420898-3.2758865c-0.5039062-1.2739258-0.7558594-2.6806641-0.7558594-4.2211914
		c0-1.5395508,0.2519531-2.9536133,0.7558594-4.2416992c0.5039062-1.2875977,1.2109375-2.394043,2.1210938-3.3183594
		c0.909668-0.9238281,2.0014648-1.6445312,3.2758789-2.1625977c1.2739258-0.5180664,2.6948242-0.7773438,4.2631836-0.7773438
		c1.4555664,0,2.8486328,0.2592773,4.1787109,0.7773438c1.3295898,0.5180664,2.4848633,1.309082,3.465332,2.3725586
		L300.2409668,118.0586472z"/>
	<path fill="#043C3F" d="M318.3762207,116.0430222h-5.4179688v9.0297852c0,0.5605469,0.0136719,1.1132812,0.0419922,1.6591797
		c0.027832,0.5458984,0.1328125,1.0361328,0.3149414,1.4697342c0.1821289,0.4345703,0.4619141,0.7841797,0.840332,1.050293
		c0.3779297,0.2661133,0.9301758,0.3989258,1.6586914,0.3989258c0.4477539,0,0.909668-0.0419922,1.3862305-0.1259766
		c0.4755859-0.0839844,0.9091797-0.237793,1.3017578-0.4619141v3.4438477
		c-0.4482422,0.2519531-1.0288086,0.4267578-1.7426758,0.5249023c-0.7143555,0.0976562-1.2675781,0.1469727-1.6591797,0.1469727
		c-1.4560547,0-2.5830078-0.203125-3.3808594-0.6088867c-0.7983398-0.4057617-1.3862305-0.9306641-1.7641602-1.5751953
		c-0.3779297-0.6435547-0.6025391-1.3647461-0.671875-2.1625977c-0.0703125-0.7983398-0.1049805-1.603035-0.1049805-2.4150467
		v-10.3740234h-4.3681641v-3.2763672h4.3681641v-5.5859375h3.7797852v5.5859375h5.4179688V116.0430222z"/>
	<path fill="#043C3F" d="M321.0095215,122.7207565c0-1.4555664,0.2729492-2.8139648,0.8188477-4.0737305
		c0.5458984-1.2602539,1.2949219-2.3657227,2.2470703-3.3183594c0.9516602-0.9511719,2.0717773-1.7006836,3.3598633-2.246582
		c1.2875977-0.5463867,2.6738281-0.8193359,4.1582031-0.8193359c1.4838867,0,2.8696289,0.2729492,4.1577148,0.8193359
		c1.2875977,0.5458984,2.4077148,1.2954102,3.3603516,2.246582c0.9511719,0.9526367,1.7006836,2.0581055,2.246582,3.3183594
		c0.5463867,1.2597656,0.8193359,2.6181641,0.8193359,4.0737305c0,1.456543-0.2729492,2.8212891-0.8193359,4.0952148
		c-0.5458984,1.2744217-1.2954102,2.3798904-2.246582,3.3178787c-0.9526367,0.9384766-2.0727539,1.6801758-3.3603516,2.2260742
		c-1.2880859,0.5458984-2.6738281,0.8188477-4.1577148,0.8188477c-1.484375,0-2.8706055-0.2729492-4.1582031-0.8188477
		c-1.2880859-0.5458984-2.4082031-1.2875977-3.3598633-2.2260742c-0.9521484-0.9379883-1.7011719-2.043457-2.2470703-3.3178787
		C321.2824707,125.5420456,321.0095215,124.1772995,321.0095215,122.7207565z M325.0412598,122.7207565
		c0,1.0083008,0.1538086,1.9394531,0.4619141,2.7929688c0.3081055,0.8544922,0.7416992,1.5825195,1.3022461,2.184082
		c0.5595703,0.6025467,1.2456055,1.0781326,2.0581055,1.4282303c0.8115234,0.3500977,1.7216797,0.5249023,2.7299805,0.5249023
		c1.0078125,0,1.9174805-0.1748047,2.7299805-0.5249023c0.8115234-0.3500977,1.4975586-0.8256836,2.0581055-1.4282303
		c0.5595703-0.6015625,0.9931641-1.3295898,1.3017578-2.184082c0.3076172-0.8535156,0.4619141-1.784668,0.4619141-2.7929688
		c0-1.0078125-0.1542969-1.9384766-0.4619141-2.7929688c-0.3085938-0.8535156-0.7421875-1.581543-1.3017578-2.184082
		c-0.5605469-0.6015625-1.246582-1.0776367-2.0581055-1.4277344c-0.8125-0.3500977-1.722168-0.5249023-2.7299805-0.5249023
		c-1.0083008,0-1.918457,0.1748047-2.7299805,0.5249023c-0.8125,0.3500977-1.4985352,0.8261719-2.0581055,1.4277344
		c-0.5605469,0.6025391-0.9941406,1.3305664-1.3022461,2.184082
		C325.1950684,120.78228,325.0412598,121.712944,325.0412598,122.7207565z"/>
	<path fill="#043C3F" d="M346.6037598,112.766655h3.7802734v3.0664062h0.0839844
		c0.2519531-0.5317383,0.5878906-1.0146484,1.0078125-1.4492188c0.4199219-0.4335938,0.8886719-0.8046875,1.4067383-1.112793
		s1.0849609-0.5527344,1.7011719-0.7353516c0.6157227-0.1816406,1.2319336-0.2729492,1.8481445-0.2729492
		c0.6157227,0,1.1757812,0.0839844,1.6796875,0.2519531l-0.1679688,4.0742188
		c-0.3081055-0.0839844-0.6162109-0.1538086-0.9238281-0.2099609c-0.3085938-0.0556641-0.6162109-0.0839844-0.9238281-0.0839844
		c-1.8481445,0-3.262207,0.5185547-4.2421875,1.5537109c-0.9804688,1.0366211-1.4697266,2.6459961-1.4697266,4.8300781v9.9961014
		h-3.7802734V112.766655z"/>
	<path fill="#043C3F" d="M360.4802246,112.766655h4.3681641l5.8950195,15.5400467h0.0844727l5.6542969-15.5400467h4.0322266
		l-9.4501953,24.1923904c-0.3344727,0.8671875-0.6835938,1.6586914-1.0458984,2.3730469
		c-0.3623047,0.7138672-0.7949219,1.3227539-1.2963867,1.8266602c-0.5019531,0.5039062-1.1083984,0.8959961-1.8193359,1.1762695
		c-0.7114258,0.2792969-1.5825195,0.4199219-2.6142578,0.4199219c-0.5576172,0-1.1225586-0.0356445-1.6943359-0.1049805
		c-0.5712891-0.0703125-1.1220703-0.2172852-1.6518555-0.440918l0.4594727-3.4443359
		c0.7509766,0.3081055,1.5024414,0.4619141,2.253418,0.4619141c0.5844727,0,1.0776367-0.0771484,1.4814453-0.230957
		c0.402832-0.1538086,0.7504883-0.3779297,1.043457-0.671875c0.2919922-0.2939453,0.5356445-0.637207,0.7304688-1.0288086
		c0.1943359-0.3925781,0.3891602-0.840332,0.5839844-1.3442383l1.2236328-3.1499023L360.4802246,112.766655z"/>
</g>
<g>
	<g>
		<path fill="#4F4F4F" d="M310.4315796,770.9575195H78.1935883c-5.1468887,0-9.3192673-4.1724243-9.3192673-9.3192749v-66.5089111
			c0-5.1469116,4.1723785-9.3192749,9.3192673-9.3192749h232.2379913c5.1469116,0,9.3192749,4.1723633,9.3192749,9.3192749
			v66.5089111C319.7508545,766.7850952,315.5784912,770.9575195,310.4315796,770.9575195z"/>
	</g>
	<g>
		<g>
			<path fill="#FFFFFF" d="M111.2590408,713.144104h10.3359375c0.8862305,0,1.8237305,0.1015625,2.8120117,0.3037109
				c0.987793,0.203125,1.9692383,0.5263672,2.9448242,0.96875c0.9751053,0.4433594,1.9126053,1.0205078,2.8120193,1.7294922
				c0.8989258,0.7089844,1.690918,1.5644531,2.375,2.5644531c0.684082,1.0009766,1.2285156,2.1533203,1.6342773,3.4580078
				c0.4047852,1.3056641,0.6079102,2.7802734,0.6079102,4.4267578c0,1.6474609-0.203125,3.1230469-0.6079102,4.4277344
				c-0.4057617,1.3046875-0.9501953,2.4570312-1.6342773,3.4580078s-1.4760742,1.8554688-2.375,2.5644531
				c-0.8994141,0.7099609-1.8369141,1.2861328-2.8120193,1.7294922c-0.9755859,0.4433594-1.9570312,0.7666016-2.9448242,0.96875
				c-0.9882812,0.203125-1.9257812,0.3037109-2.8120117,0.3037109h-10.3359375V713.144104z M114.4509354,737.0835571h6.0800781
				c1.5449219,0,2.9765625-0.2021484,4.2939453-0.6074219c1.3168945-0.4052734,2.4570312-1.0322266,3.4199295-1.8818359
				c0.9624023-0.8476562,1.7226562-1.9306641,2.2802734-3.2490234c0.5566406-1.3164062,0.8359375-2.9003906,0.8359375-4.75
				c0-1.8486328-0.2792969-3.4316406-0.8359375-4.75c-0.5576172-1.3164062-1.3178711-2.3994141-2.2802734-3.2490234
				c-0.9628983-0.8476562-2.103035-1.4746094-3.4199295-1.8808594c-1.3173828-0.4042969-2.7490234-0.6074219-4.2939453-0.6074219
				h-6.0800781V737.0835571z"/>
			<path fill="#FFFFFF" d="M138.1174469,731.1558228c0-1.3935547,0.2402344-2.6601562,0.7216797-3.7998047
				c0.480957-1.140625,1.1401367-2.1220703,1.9760742-2.9453125s1.8364258-1.4628906,3.0019531-1.9189453
				c1.1650391-0.4560547,2.4321289-0.6845703,3.800293-0.6845703c1.3676758,0,2.6342773,0.2285156,3.7998047,0.6845703
				c1.1650391,0.4560547,2.1660156,1.0957031,3.0019531,1.9189453s1.4946289,1.8046875,1.9760742,2.9453125
				c0.480957,1.1396484,0.722168,2.40625,0.722168,3.7998047s-0.2412109,2.6601562-0.722168,3.7998047
				c-0.4814453,1.1396484-1.1401367,2.1220703-1.9760742,2.9453125s-1.8369141,1.4628906-3.0019531,1.9189453
				c-1.1655273,0.4560547-2.4321289,0.6835938-3.7998047,0.6835938c-1.3681641,0-2.6352539-0.2275391-3.800293-0.6835938
				c-1.1655273-0.4560547-2.1660156-1.0957031-3.0019531-1.9189453s-1.4951172-1.8056641-1.9760742-2.9453125
				C138.3576813,733.815979,138.1174469,732.5493774,138.1174469,731.1558228z M141.3093414,731.1558228
				c0,0.9375,0.1455078,1.8046875,0.4370117,2.6025391c0.2910156,0.7978516,0.715332,1.4951172,1.2729492,2.0898438
				c0.5571289,0.5957031,1.222168,1.0644531,1.9951172,1.40625c0.7724609,0.3417969,1.6396484,0.5136719,2.6030273,0.5136719
				c0.9624023,0,1.8295898-0.171875,2.6030273-0.5136719c0.7724609-0.3417969,1.4375-0.8105469,1.9946289-1.40625
				c0.5571289-0.5947266,0.9814453-1.2919922,1.2734375-2.0898438c0.2905273-0.7978516,0.4370117-1.6650391,0.4370117-2.6025391
				s-0.1464844-1.8046875-0.4370117-2.6035156c-0.2919922-0.7978516-0.7163086-1.4941406-1.2734375-2.0898438
				c-0.5571289-0.5947266-1.222168-1.0634766-1.9946289-1.40625c-0.7734375-0.3417969-1.640625-0.5126953-2.6030273-0.5126953
				c-0.9633789,0-1.8305664,0.1708984-2.6030273,0.5126953c-0.7729492,0.3427734-1.4379883,0.8115234-1.9951172,1.40625
				c-0.5576172,0.5957031-0.9819336,1.2919922-1.2729492,2.0898438
				C141.4548492,729.3511353,141.3093414,730.2183228,141.3093414,731.1558228z"/>
			<path fill="#FFFFFF" d="M180.1301422,740.0474243h-2.9262695l-5.0537109-13.6796875h-0.0761719l-4.4838867,13.6796875h-3.0400391
				l-5.7758789-17.7841797h3.2675781l4.0664062,13.6806641h0.0756836l4.5981445-13.6806641h3.1157227l4.6743164,13.6806641
				h0.0756836l4.0283203-13.6806641h3.1918945L180.1301422,740.0474243z"/>
			<path fill="#FFFFFF" d="M189.0788727,726.4819946c0-0.8105469-0.0253906-1.5703125-0.0761719-2.2802734
				c-0.0507812-0.7089844-0.0756836-1.3554688-0.0756836-1.9384766h2.8120117c0,0.4824219,0.012207,0.9638672,0.0375977,1.4443359
				c0.0253906,0.4814453,0.0380859,0.9755859,0.0380859,1.4824219h0.0761719
				c0.2026367-0.4306641,0.4873047-0.8486328,0.8549805-1.2539062c0.3666992-0.4052734,0.8037109-0.7666016,1.3110352-1.0830078
				c0.5063477-0.3164062,1.0766602-0.5703125,1.7099609-0.7607422c0.6328125-0.1894531,1.3168945-0.2851562,2.0517578-0.2851562
				c1.1650391,0,2.1723633,0.1777344,3.0214844,0.5322266c0.8481445,0.3554688,1.5512695,0.8496094,2.1088867,1.4824219
				c0.5566406,0.6337891,0.96875,1.3994141,1.2348633,2.2988281s0.3989258,1.8808594,0.3989258,2.9453125v10.9814453h-2.9638672
				v-10.6777344c0-1.4941406-0.3295898-2.6728516-0.9882812-3.5341797
				c-0.6586914-0.8603516-1.6850586-1.2919922-3.0776367-1.2919922c-0.9633789,0-1.7924805,0.1650391-2.4892578,0.4941406
				s-1.2670898,0.7978516-1.7099609,1.40625c-0.4433594,0.6074219-0.7729492,1.3300781-0.987793,2.1660156
				c-0.2158203,0.8359375-0.3232422,1.7607422-0.3232422,2.7734375v8.6640625h-2.9638672V726.4819946z"/>
			<path fill="#FFFFFF" d="M209.9524078,711.3198853h2.9638672v28.7275391h-2.9638672V711.3198853z"/>
			<path fill="#FFFFFF" d="M217.3581696,731.1558228c0-1.3935547,0.2402344-2.6601562,0.7216797-3.7998047
				c0.480957-1.140625,1.1401367-2.1220703,1.9760742-2.9453125s1.8364258-1.4628906,3.0019531-1.9189453
				c1.1650391-0.4560547,2.4321289-0.6845703,3.800293-0.6845703c1.3676758,0,2.6342773,0.2285156,3.7998047,0.6845703
				c1.1650391,0.4560547,2.1660156,1.0957031,3.0019531,1.9189453s1.4946289,1.8046875,1.9760742,2.9453125
				c0.480957,1.1396484,0.722168,2.40625,0.722168,3.7998047s-0.2412109,2.6601562-0.722168,3.7998047
				c-0.4814453,1.1396484-1.1401367,2.1220703-1.9760742,2.9453125s-1.8369141,1.4628906-3.0019531,1.9189453
				c-1.1655273,0.4560547-2.4321289,0.6835938-3.7998047,0.6835938c-1.3681641,0-2.6352539-0.2275391-3.800293-0.6835938
				c-1.1655273-0.4560547-2.1660156-1.0957031-3.0019531-1.9189453s-1.4951172-1.8056641-1.9760742-2.9453125
				C217.5984039,733.815979,217.3581696,732.5493774,217.3581696,731.1558228z M220.5500641,731.1558228
				c0,0.9375,0.1455078,1.8046875,0.4370117,2.6025391c0.2910156,0.7978516,0.715332,1.4951172,1.2729492,2.0898438
				c0.5571289,0.5957031,1.222168,1.0644531,1.9951172,1.40625c0.7724609,0.3417969,1.6396484,0.5136719,2.6030273,0.5136719
				c0.9624023,0,1.8295898-0.171875,2.6030273-0.5136719c0.7724609-0.3417969,1.4375-0.8105469,1.9946289-1.40625
				c0.5571289-0.5947266,0.9814453-1.2919922,1.2734375-2.0898438c0.2905273-0.7978516,0.4370117-1.6650391,0.4370117-2.6025391
				s-0.1464844-1.8046875-0.4370117-2.6035156c-0.2919922-0.7978516-0.7163086-1.4941406-1.2734375-2.0898438
				c-0.5571289-0.5947266-1.222168-1.0634766-1.9946289-1.40625c-0.7734375-0.3417969-1.640625-0.5126953-2.6030273-0.5126953
				c-0.9633789,0-1.8305664,0.1708984-2.6030273,0.5126953c-0.7729492,0.3427734-1.4379883,0.8115234-1.9951172,1.40625
				c-0.5576172,0.5957031-0.9819336,1.2919922-1.2729492,2.0898438
				C220.6955719,729.3511353,220.5500641,730.2183228,220.5500641,731.1558228z"/>
			<path fill="#FFFFFF" d="M240.2375641,724.5435181c0.9121094-0.9365234,1.9951172-1.6269531,3.2490234-2.0712891
				c1.2539062-0.4423828,2.5268555-0.6650391,3.8188477-0.6650391c2.6347656,0,4.534668,0.6210938,5.7001953,1.8623047
				c1.1650391,1.2421875,1.7480469,3.1289062,1.7480469,5.6621094v7.6376953c0,0.5078125,0.0249023,1.0332031,0.0756836,1.5771484
				c0.0507812,0.5449219,0.1142578,1.0449219,0.1904297,1.5009766h-2.8500977
				c-0.1015625-0.4042969-0.1586914-0.8544922-0.1708984-1.3486328c-0.0131836-0.4941406-0.019043-0.9306641-0.019043-1.3115234
				h-0.0761719c-0.5830078,0.9121094-1.3623047,1.6601562-2.3369141,2.2421875
				c-0.9755859,0.5830078-2.1469727,0.8740234-3.5151367,0.8740234c-0.9121094,0-1.7670898-0.1142578-2.5649414-0.3417969
				s-1.4951172-0.5634766-2.0898438-1.0068359c-0.5957031-0.4433594-1.0708008-0.9941406-1.425293-1.6533203
				c-0.3549805-0.6582031-0.5317383-1.4179688-0.5317383-2.2802734c0-1.46875,0.3798828-2.6220703,1.1396484-3.4580078
				c0.7602539-0.8359375,1.7036133-1.4560547,2.8310547-1.8613281c1.1269531-0.4052734,2.3432617-0.6591797,3.6479492-0.7597656
				c1.3046875-0.1015625,2.5014648-0.1523438,3.5913086-0.1523438h1.1401367v-0.5322266
				c0-1.2919922-0.3867188-2.2666016-1.1591797-2.9257812c-0.7729492-0.6582031-1.855957-0.9882812-3.2490234-0.9882812
				c-0.9628906,0-1.9067383,0.1582031-2.8310547,0.4755859c-0.9248047,0.3164062-1.7421875,0.8037109-2.4511719,1.4628906
				L240.2375641,724.5435181z M248.8254547,731.4976196c-1.8999023,0-3.4072266,0.265625-4.5219727,0.7978516
				s-1.671875,1.40625-1.671875,2.6220703c0,1.1152344,0.3735352,1.90625,1.1210938,2.375
				c0.746582,0.46875,1.6777344,0.703125,2.7929688,0.703125c0.8608398,0,1.6147461-0.1455078,2.2607422-0.4365234
				s1.184082-0.6777344,1.6152344-1.1591797c0.4301758-0.4814453,0.7597656-1.0449219,0.987793-1.6914062
				c0.2280273-0.6455078,0.3544922-1.3359375,0.3803711-2.0712891v-1.1396484H248.8254547z"/>
			<path fill="#FFFFFF" d="M274.5935059,736.894104h-0.0761719c-0.5576172,1.0126953-1.4379883,1.8681641-2.6411133,2.5644531
				c-1.2036133,0.6962891-2.6030273,1.0449219-4.1987305,1.0449219c-1.2416992,0-2.4072266-0.234375-3.4960938-0.703125
				c-1.0898438-0.4677734-2.0332031-1.1210938-2.8310547-1.9570312s-1.425293-1.8232422-1.8808594-2.9638672
				c-0.4560547-1.1396484-0.684082-2.3808594-0.684082-3.7236328s0.2280273-2.5839844,0.684082-3.7246094
				c0.4555664-1.1396484,1.0888672-2.1279297,1.8999023-2.9638672c0.8105469-0.8359375,1.7919922-1.4873047,2.9448242-1.9570312
				c1.1523438-0.4677734,2.425293-0.703125,3.8188477-0.703125c1.2919922,0,2.4760742,0.2666016,3.5532227,0.7988281
				c1.0766602,0.53125,2.0200195,1.2792969,2.8310547,2.2412109h0.0761719v-13.5273438h2.9638672v28.7275391h-2.9638672V736.894104z
				 M274.5935059,731.1558228c0-0.9375-0.1464844-1.8046875-0.4370117-2.6035156
				c-0.2919922-0.7978516-0.7163086-1.4941406-1.2734375-2.0898438c-0.5571289-0.5947266-1.222168-1.0634766-1.9946289-1.40625
				c-0.7734375-0.3417969-1.640625-0.5126953-2.6030273-0.5126953c-0.9633789,0-1.8305664,0.1708984-2.6030273,0.5126953
				c-0.7729492,0.3427734-1.4379883,0.8115234-1.9951172,1.40625c-0.5576172,0.5957031-0.9819336,1.2919922-1.2729492,2.0898438
				c-0.2915039,0.7988281-0.4370117,1.6660156-0.4370117,2.6035156s0.1455078,1.8046875,0.4370117,2.6025391
				c0.2910156,0.7978516,0.715332,1.4951172,1.2729492,2.0898438c0.5571289,0.5957031,1.222168,1.0644531,1.9951172,1.40625
				c0.7724609,0.3417969,1.6396484,0.5136719,2.6030273,0.5136719c0.9624023,0,1.8295898-0.171875,2.6030273-0.5136719
				c0.7724609-0.3417969,1.4375-0.8105469,1.9946289-1.40625c0.5571289-0.5947266,0.9814453-1.2919922,1.2734375-2.0898438
				C274.4470215,732.9605103,274.5935059,732.0933228,274.5935059,731.1558228z"/>
		</g>
	</g>
</g>
<g>
	<rect x="68.874321" y="175.5345917" fill="#2C1ED5" width="1278.2513428" height="1.9839276"/>
</g>
<g>
	<polygon fill="#4F4F4F" points="1347.1257324,53.7734375 1343.3522949,50 1327.5612793,65.7909546 1311.7703857,50 
		1307.9969482,53.7734375 1323.7878418,69.5643311 1307.9969482,85.3552856 1311.7703857,89.1287231 1327.5612793,73.3377686 
		1343.3522949,89.1287231 1347.1257324,85.3552856 1331.3347168,69.5643311 	"/>
</g>
<g>
	<g>
		<path fill="#2C1ED5" d="M1336.6937256,211.8560486c5.2008057,0,9.4320068,4.2311554,9.4320068,9.4319458v49.1360474
			c0,5.2008057-4.2312012,9.4320068-9.4320068,9.4320068H975.171936c-5.2008057,0-9.4320068-4.2312012-9.4320068-9.4320068
			v-49.1360474c0-5.2007904,4.2312012-9.4319458,9.4320068-9.4319458H1336.6937256 M1336.6937256,210.8560486H975.171936
			c-5.7614136,0-10.4320068,4.6705475-10.4320068,10.4319458v49.1360474c0,5.7614441,4.6705933,10.4320068,10.4320068,10.4320068
			h361.5217896c5.7613525,0,10.4320068-4.6705627,10.4320068-10.4320068v-49.1360474
			C1347.1257324,215.5265961,1342.4550781,210.8560486,1336.6937256,210.8560486L1336.6937256,210.8560486z"/>
		<g>
			<g>
				<path fill="#4F4F4F" d="M1013.3811035,235.3657837c-0.5322266-0.8613281-1.2412109-1.4882812-2.1279297-1.8813477
					c-0.8867188-0.3920898-1.8115234-0.5888672-2.7744141-0.5888672c-0.7089844,0-1.4052734,0.0888672-2.0898438,0.2661133
					c-0.6835938,0.1772461-1.2988281,0.4433594-1.8427734,0.7978516c-0.5449219,0.3549805-0.9824219,0.8237305-1.3115234,1.40625
					c-0.3291016,0.5830078-0.4931641,1.2670898-0.4931641,2.0517578c0,0.6079102,0.0947266,1.1464844,0.2841797,1.6152344
					c0.1904297,0.46875,0.5,0.8925781,0.9316406,1.2729492c0.4306641,0.3798828,1.0126953,0.7348633,1.7480469,1.0639648
					c0.734375,0.3295898,1.6337891,0.6591797,2.6972656,0.987793c1.0390625,0.3295898,2.0458984,0.684082,3.0214844,1.0639648
					c0.9746094,0.3803711,1.8369141,0.8618164,2.5839844,1.4443359c0.7470703,0.5830078,1.3427734,1.3110352,1.7861328,2.1845703
					c0.4423828,0.8740234,0.6650391,1.9702148,0.6650391,3.2871094c0,1.3432617-0.2666016,2.5083008-0.7978516,3.4960938
					c-0.5322266,0.987793-1.2353516,1.8051758-2.109375,2.4511719s-1.8808594,1.1274414-3.0205078,1.4438477
					c-1.140625,0.3164062-2.3183594,0.4750977-3.5341797,0.4750977c-0.7861328,0-1.5712891-0.0703125-2.3564453-0.2089844
					c-0.7851562-0.1396484-1.5390625-0.3549805-2.2607422-0.6459961s-1.4003906-0.6708984-2.0332031-1.1401367
					c-0.6337891-0.4682617-1.1777344-1.0449219-1.6337891-1.7290039l2.7363281-2.2421875
					c0.5820312,0.9882812,1.3925781,1.7358398,2.4316406,2.2421875c1.0380859,0.5073242,2.140625,0.7602539,3.3056641,0.7602539
					c0.6845703,0,1.3740234-0.1010742,2.0712891-0.3041992c0.6962891-0.2026367,1.3232422-0.5,1.8808594-0.8930664
					c0.5566406-0.3925781,1.0126953-0.8798828,1.3681641-1.4628906c0.3544922-0.5825195,0.5322266-1.2539062,0.5322266-2.0141602
					c0-0.8359375-0.1396484-1.5131836-0.4179688-2.0327148c-0.2792969-0.519043-0.7099609-0.9692383-1.2919922-1.3491211
					c-0.5830078-0.3798828-1.3173828-0.722168-2.2041016-1.0258789c-0.8876953-0.3041992-1.9257812-0.6586914-3.1162109-1.0639648
					c-0.9628906-0.3041992-1.8496094-0.6523438-2.6601562-1.0454102c-0.8105469-0.3920898-1.5136719-0.8740234-2.1083984-1.4438477
					c-0.5957031-0.5698242-1.0644531-1.2539062-1.40625-2.0517578c-0.3417969-0.7983398-0.5136719-1.7539062-0.5136719-2.8691406
					c0-1.2919922,0.2539062-2.4189453,0.7607422-3.3818359c0.5058594-0.9628906,1.1904297-1.7670898,2.0517578-2.4130859
					s1.8369141-1.1337891,2.9257812-1.4633789c1.0888672-0.3286133,2.2294922-0.4936523,3.4199219-0.4936523
					c1.5205078,0,2.9072266,0.234375,4.1611328,0.703125s2.375,1.2856445,3.3632812,2.4506836L1013.3811035,235.3657837z"/>
				<path fill="#4F4F4F" d="M1036.7814941,254.2896118c-1.0644531,1.3681641-2.2294922,2.324707-3.4960938,2.8691406
					s-2.7363281,0.8168945-4.4082031,0.8168945c-1.3935547,0-2.6474609-0.2470703-3.7617188-0.7412109
					c-1.1152344-0.4936523-2.0585938-1.1586914-2.8310547-1.9946289c-0.7734375-0.8364258-1.3681641-1.8242188-1.7861328-2.9643555
					c-0.4179688-1.1396484-0.6269531-2.355957-0.6269531-3.6479492c0-1.3676758,0.2285156-2.6279297,0.6845703-3.7807617
					c0.4550781-1.152832,1.0888672-2.140625,1.8994141-2.9643555c0.8105469-0.8227539,1.7734375-1.4628906,2.8876953-1.9189453
					c1.1152344-0.4560547,2.3310547-0.684082,3.6484375-0.684082c1.2412109,0,2.3808594,0.2094727,3.4199219,0.6274414
					c1.0380859,0.4179688,1.9316406,1.0258789,2.6787109,1.8237305s1.3242188,1.7734375,1.7294922,2.9262695
					s0.6074219,2.4638672,0.6074219,3.9326172v0.9501953h-14.3632812c0.0498047,0.7597656,0.2333984,1.4882812,0.5507812,2.1850586
					c0.3164062,0.6967773,0.7275391,1.3051758,1.2353516,1.8237305c0.5058594,0.5195312,1.1015625,0.9311523,1.7851562,1.2353516
					c0.6845703,0.3037109,1.4316406,0.4560547,2.2421875,0.4560547c1.2919922,0,2.3808594-0.2280273,3.2685547-0.684082
					c0.8857422-0.4560547,1.6845703-1.1269531,2.3935547-2.0141602L1036.7814941,254.2896118z M1034.2355957,247.0317993
					c-0.0507812-1.5200195-0.5449219-2.7363281-1.4824219-3.6484375c-0.9375-0.9116211-2.2294922-1.3676758-3.8759766-1.3676758
					s-2.9765625,0.4560547-3.9902344,1.3676758c-1.0126953,0.9121094-1.6210938,2.128418-1.8232422,3.6484375H1034.2355957z"/>
				<path fill="#4F4F4F" d="M1041.1516113,242.015686c0.9121094-0.9370117,1.9951172-1.6274414,3.2490234-2.0712891
					c1.2539062-0.4428711,2.5263672-0.6650391,3.8183594-0.6650391c2.6347656,0,4.5351562,0.6210938,5.7001953,1.8623047
					c1.1650391,1.2416992,1.7480469,3.1289062,1.7480469,5.6621094v7.6376953c0,0.5073242,0.0253906,1.0327148,0.0761719,1.5771484
					c0.0507812,0.5449219,0.1142578,1.0449219,0.1904297,1.5009766h-2.8505859
					c-0.1015625-0.4047852-0.1582031-0.8549805-0.1708984-1.3491211c-0.0126953-0.4936523-0.0185547-0.9306641-0.0185547-1.3110352
					h-0.0761719c-0.5830078,0.9121094-1.3623047,1.659668-2.3369141,2.2421875
					c-0.9755859,0.5825195-2.1474609,0.8740234-3.515625,0.8740234c-0.9121094,0-1.7666016-0.1142578-2.5644531-0.3422852
					c-0.7978516-0.2275391-1.4951172-0.5634766-2.0898438-1.0068359c-0.5957031-0.4428711-1.0712891-0.9936523-1.4257812-1.652832
					c-0.3544922-0.6586914-0.53125-1.418457-0.53125-2.2802734c0-1.46875,0.3798828-2.6220703,1.1396484-3.4580078
					s1.703125-1.4560547,2.8310547-1.8618164c1.1269531-0.4047852,2.3427734-0.6586914,3.6474609-0.7597656
					s2.5019531-0.1523438,3.5917969-0.1523438h1.1396484v-0.5317383c0-1.2919922-0.3867188-2.2670898-1.1591797-2.9262695
					c-0.7724609-0.6582031-1.8554688-0.987793-3.2490234-0.987793c-0.9628906,0-1.90625,0.1582031-2.8310547,0.4750977
					s-1.7421875,0.8041992-2.4511719,1.4628906L1041.1516113,242.015686z M1049.739502,248.9697876
					c-1.9003906,0-3.4072266,0.265625-4.5224609,0.7978516c-1.1142578,0.5317383-1.671875,1.4057617-1.671875,2.6220703
					c0,1.1147461,0.3740234,1.90625,1.1210938,2.375s1.6777344,0.703125,2.7929688,0.703125
					c0.8613281,0,1.6152344-0.1455078,2.2607422-0.4370117c0.6464844-0.2910156,1.1845703-0.6777344,1.6152344-1.1591797
					c0.4306641-0.480957,0.7597656-1.0449219,0.9882812-1.690918c0.2275391-0.6459961,0.3544922-1.3359375,0.3798828-2.0712891
					v-1.1396484H1049.739502z"/>
				<path fill="#4F4F4F" d="M1060.7785645,243.9536743c0-0.8105469-0.0253906-1.5703125-0.0761719-2.2802734
					c-0.0507812-0.7089844-0.0761719-1.3549805-0.0761719-1.9379883h2.8125c0,0.4819336,0.0117188,0.9633789,0.0371094,1.4443359
					c0.0253906,0.4814453,0.0380859,0.9755859,0.0380859,1.4819336h0.0761719
					c0.203125-0.4306641,0.4873047-0.8486328,0.8554688-1.2539062c0.3662109-0.4052734,0.8037109-0.7661133,1.3105469-1.0830078
					c0.5068359-0.3164062,1.0771484-0.5703125,1.7099609-0.7602539s1.3173828-0.2851562,2.0517578-0.2851562
					c0.203125,0,0.4052734,0.0131836,0.6083984,0.0380859c0.2021484,0.0258789,0.4052734,0.0761719,0.6083984,0.1523438
					l-0.1904297,3.0019531c-0.5068359-0.1523438-1.0390625-0.2280273-1.5957031-0.2280273
					c-1.8242188,0-3.1484375,0.5888672-3.9707031,1.7670898c-0.8242188,1.1777344-1.2353516,2.7929688-1.2353516,4.8447266
					v8.6640625h-2.9638672V243.9536743z"/>
				<path fill="#4F4F4F" d="M1086.1574707,244.1817017c-0.6328125-0.7602539-1.3173828-1.3110352-2.0517578-1.6533203
					c-0.7353516-0.3417969-1.5449219-0.5126953-2.4316406-0.5126953c-0.9882812,0-1.8623047,0.1708984-2.6220703,0.5126953
					c-0.7597656,0.3422852-1.3867188,0.8173828-1.8808594,1.425293s-0.8681641,1.3110352-1.1210938,2.1088867
					c-0.2539062,0.7978516-0.3798828,1.652832-0.3798828,2.5649414s0.1455078,1.7670898,0.4365234,2.5649414
					c0.2910156,0.7983398,0.6962891,1.5009766,1.2158203,2.109375c0.5195312,0.6079102,1.1464844,1.0830078,1.8818359,1.4248047
					c0.734375,0.3417969,1.5576172,0.5131836,2.4697266,0.5131836c1.9501953,0,3.4580078-0.7348633,4.5214844-2.2041016
					l2.2041016,2.0898438c-0.8613281,0.9882812-1.875,1.7099609-3.0400391,2.1660156s-2.3935547,0.684082-3.6855469,0.684082
					c-1.3681641,0-2.6220703-0.2280273-3.7617188-0.684082c-1.140625-0.4560547-2.109375-1.1020508-2.9072266-1.9379883
					s-1.4189453-1.8242188-1.8623047-2.9638672c-0.4433594-1.1401367-0.6650391-2.394043-0.6650391-3.762207
					c0-1.3422852,0.2216797-2.5839844,0.6650391-3.7241211c0.4433594-1.1396484,1.0703125-2.1279297,1.8808594-2.9638672
					s1.7792969-1.487793,2.9072266-1.9570312c1.1269531-0.4682617,2.375-0.703125,3.7431641-0.703125
					c1.3164062,0,2.5644531,0.2280273,3.7431641,0.684082c1.1777344,0.4560547,2.2099609,1.1655273,3.0966797,2.1279297
					L1086.1574707,244.1817017z"/>
				<path fill="#4F4F4F" d="M1091.6066895,228.7915649h2.9638672v13.4140625h0.0761719
					c0.203125-0.3544922,0.4814453-0.703125,0.8359375-1.0449219c0.3544922-0.3422852,0.7792969-0.6518555,1.2734375-0.9311523
					c0.4941406-0.2783203,1.0449219-0.5063477,1.6523438-0.684082c0.6083984-0.1767578,1.2548828-0.2661133,1.9384766-0.2661133
					c1.1650391,0,2.171875,0.1777344,3.0214844,0.5322266c0.8476562,0.3549805,1.5507812,0.8491211,2.1083984,1.4819336
					c0.5566406,0.6337891,0.96875,1.3999023,1.2353516,2.2993164c0.265625,0.8994141,0.3984375,1.8808594,0.3984375,2.9448242
					v10.9819336h-2.9638672v-10.6782227c0-1.4941406-0.3291016-2.6723633-0.9882812-3.5336914
					c-0.6582031-0.8608398-1.6845703-1.2919922-3.0771484-1.2919922c-0.9638672,0-1.7929688,0.1650391-2.4892578,0.4941406
					c-0.6972656,0.3291016-1.2675781,0.7978516-1.7099609,1.4057617c-0.4433594,0.6079102-0.7734375,1.3300781-0.9882812,2.1660156
					c-0.2158203,0.8359375-0.3232422,1.7612305-0.3232422,2.7739258v8.6640625h-2.9638672V228.7915649z"/>
				<path fill="#4F4F4F" d="M1114.4680176,253.187561c0.6328125,0,1.171875,0.222168,1.6152344,0.6650391
					c0.4423828,0.4433594,0.6650391,0.9819336,0.6650391,1.6152344s-0.234375,1.171875-0.703125,1.6147461
					s-0.9951172,0.6650391-1.5771484,0.6650391c-0.5830078,0-1.1083984-0.222168-1.5771484-0.6650391
					s-0.703125-0.9814453-0.703125-1.6147461s0.2216797-1.171875,0.6650391-1.6152344
					C1113.2961426,253.409729,1113.8342285,253.187561,1114.4680176,253.187561z"/>
				<path fill="#4F4F4F" d="M1123.4318848,253.187561c0.6328125,0,1.171875,0.222168,1.6152344,0.6650391
					c0.4423828,0.4433594,0.6650391,0.9819336,0.6650391,1.6152344s-0.234375,1.171875-0.703125,1.6147461
					s-0.9951172,0.6650391-1.5771484,0.6650391c-0.5830078,0-1.1083984-0.222168-1.5771484-0.6650391
					s-0.703125-0.9814453-0.703125-1.6147461s0.2216797-1.171875,0.6650391-1.6152344
					C1122.2600098,253.409729,1122.7980957,253.187561,1123.4318848,253.187561z"/>
				<path fill="#4F4F4F" d="M1132.3967285,253.187561c0.6328125,0,1.1708984,0.222168,1.6142578,0.6650391
					c0.4433594,0.4433594,0.6650391,0.9819336,0.6650391,1.6152344s-0.234375,1.171875-0.703125,1.6147461
					s-0.9941406,0.6650391-1.5761719,0.6650391c-0.5839844,0-1.109375-0.222168-1.5771484-0.6650391
					c-0.4697266-0.4428711-0.703125-0.9814453-0.703125-1.6147461s0.2216797-1.171875,0.6650391-1.6152344
					C1131.223877,253.409729,1131.7629395,253.187561,1132.3967285,253.187561z"/>
				<path fill="#4F4F4F" d="M1141.3605957,253.187561c0.6328125,0,1.171875,0.222168,1.6152344,0.6650391
					c0.4423828,0.4433594,0.6650391,0.9819336,0.6650391,1.6152344s-0.234375,1.171875-0.703125,1.6147461
					s-0.9951172,0.6650391-1.5771484,0.6650391c-0.5830078,0-1.1083984-0.222168-1.5771484-0.6650391
					s-0.703125-0.9814453-0.703125-1.6147461s0.2216797-1.171875,0.6650391-1.6152344
					C1140.1887207,253.409729,1140.7268066,253.187561,1141.3605957,253.187561z"/>
			</g>
		</g>
	</g>
	<g>
		<path fill="#2C1ED5" d="M1296.7456055,228.8881989c7.178833,0,13.019165,5.8403778,13.019165,13.0191498
			s-5.840332,13.0191498-13.019165,13.0191498s-13.019165-5.8403778-13.019165-13.0191498
			S1289.5667725,228.8881989,1296.7456055,228.8881989 M1296.7456055,225.8881989
			c-8.8470459,0-16.019165,7.1720276-16.019165,16.0191498c0,8.8471375,7.1721191,16.0191345,16.019165,16.0191345
			c8.847168,0,16.019165-7.1719971,16.019165-16.0191345
			C1312.7647705,233.0602264,1305.5927734,225.8881989,1296.7456055,225.8881989L1296.7456055,225.8881989z"/>
		
			<rect x="1312.9608154" y="249.6441345" transform="matrix(0.7071196 -0.7070939 0.7070939 0.7071196 201.7561951 1005.3388672)" fill="#2C1ED5" width="2.9996796" height="18.9555035"/>
	</g>
</g>
<g id="ehmKlv.tif">
	
		<image overflow="visible" width="678" height="156" id="Layer_0" xlink:href="8D991F5CF2AFE236.png"  transform="matrix(1.8853265 0 0 1.8853265 68.874321 314.057373)">
	</image>
</g>
</svg>
