<?xml version="1.0" encoding="utf-8"?>
<!-- Generator: Adobe Illustrator 25.2.3, SVG Export Plug-In . SVG Version: 6.00 Build 0)  -->
<svg version="1.1" id="Layer_1" xmlns="http://www.w3.org/2000/svg" xmlns:xlink="http://www.w3.org/1999/xlink" x="0px" y="0px"
	 viewBox="0 0 1416 1030.7507324" enable-background="new 0 0 1416 1030.7507324" xml:space="preserve">
<g>
	<g>
		<defs>
			<polyline id="SVGID_1_" points="1400.3704834,13.2220755 10.3704367,13.2220755 10.3704367,1007.222168 
				1400.3704834,1007.222168 1400.3704834,13.2220755 			"/>
		</defs>
		<clipPath id="SVGID_2_">
			<use xlink:href="#SVGID_1_"  overflow="visible"/>
		</clipPath>
		<g clip-path="url(#SVGID_2_)">
			
				<image overflow="visible" width="930" height="891" xlink:href="160875C433CA79A0.jpg"  transform="matrix(1 0 0 1 8.3703699 11.2222223)">
			</image>
		</g>
		<g clip-path="url(#SVGID_2_)">
			
				<image overflow="visible" width="466" height="998" xlink:href="160875C433CA79A1.jpg"  transform="matrix(1 0 0 1 936.3703613 11.2222223)">
			</image>
		</g>
		<g clip-path="url(#SVGID_2_)">
			
				<image overflow="visible" width="930" height="109" xlink:href="160875C433CA79A7.jpg"  transform="matrix(1 0 0 1 8.3703699 900.222229)">
			</image>
		</g>
	</g>
	<path fill="#FFFFFF" d="M1367.0969238,988.3599243H37.792244c-8.2719707,0-14.9775372-6.7060547-14.9775372-14.9775391V40.6440964
		c0-8.2719727,6.7055664-14.9775391,14.9775372-14.9775391h1329.3046875c8.2714844,0,14.9775391,6.7055664,14.9775391,14.9775391
		v932.7382812C1382.0744629,981.6538696,1375.3684082,988.3599243,1367.0969238,988.3599243z"/>
</g>
<g>
	<path fill="#043C3F" d="M78.9123611,106.7188034h-9.5761719v-3.7797852h23.184082v3.7797852h-9.5761719v25.9560623h-4.0317383
		V106.7188034z"/>
	<path fill="#043C3F" d="M92.0031815,115.2026901c1.0639648-0.9794922,2.2954102-1.7148438,3.6962891-2.2045898
		c1.3994141-0.4897461,2.7993164-0.7353516,4.199707-0.7353516c1.4555664,0,2.7089844,0.1826172,3.7592773,0.5458984
		c1.0498047,0.3642578,1.9106445,0.8544922,2.5830078,1.4702148c0.671875,0.6162109,1.168457,1.3227539,1.4907227,2.1210938
		c0.3217773,0.7978516,0.4829102,1.6313477,0.4829102,2.4990234v10.1640701c0,0.7001953,0.0141602,1.34375,0.0419922,1.9316406
		c0.027832,0.5883789,0.0698242,1.1484375,0.1259766,1.6801758h-3.3598633
		c-0.0839844-1.0078125-0.1259766-2.0161133-0.1259766-3.0239258h-0.0839844
		c-0.8398438,1.2880859-1.8339844,2.1982422-2.9819336,2.7299805c-1.1484375,0.5317383-2.4780273,0.7978516-3.9902344,0.7978516
		c-0.9238281,0-1.8056641-0.1259766-2.6459961-0.3779297c-0.8398438-0.2519531-1.574707-0.6298828-2.2050781-1.1337891
		c-0.6298828-0.5043945-1.1269531-1.1269531-1.4907227-1.8691406c-0.3642578-0.7416992-0.5458984-1.6025391-0.5458984-2.5830154
		c0-1.2875977,0.2866211-2.3657227,0.8608398-3.2338867c0.5737305-0.8676758,1.3579102-1.5751953,2.3520508-2.1210938
		c0.9936523-0.5458984,2.1557617-0.9379883,3.4858398-1.1762695c1.3295898-0.2373047,2.7509766-0.3569336,4.2631836-0.3569336
		h2.7719727v-0.8398438c0-0.5039062-0.0986328-1.0078125-0.2939453-1.512207
		c-0.1962891-0.5039062-0.4902344-0.9584961-0.8818359-1.3647461c-0.3925781-0.4057617-0.8823242-0.7280273-1.4702148-0.9658203
		s-1.2880859-0.3574219-2.1000977-0.3574219c-0.7285156,0-1.3647461,0.0703125-1.9111328,0.2099609
		c-0.5458984,0.140625-1.043457,0.3154297-1.4907227,0.5253906c-0.4482422,0.2099609-0.8544922,0.4550781-1.2182617,0.7348633
		c-0.3642578,0.2802734-0.7138672,0.5458984-1.0498047,0.7978516L92.0031815,115.2026901z M102.6711502,123.0986862
		c-0.8964844,0-1.8129883,0.0493164-2.7509766,0.1469727c-0.9384766,0.0986328-1.7919922,0.2875977-2.5620117,0.5673828
		c-0.7705078,0.2802734-1.4003906,0.671875-1.8901367,1.1757812c-0.4902344,0.5039062-0.7348633,1.1484375-0.7348633,1.9321289
		c0,1.1484451,0.3847656,1.9741287,1.1552734,2.478035c0.7695312,0.5039062,1.8125,0.7558594,3.1289062,0.7558594
		c1.0356445,0,1.9174805-0.1743164,2.6459961-0.5249023c0.7275391-0.3500977,1.315918-0.8046875,1.7636719-1.3652344
		c0.4477539-0.5595779,0.7700195-1.1826248,0.9663086-1.86866c0.1953125-0.6860352,0.2939453-1.3652344,0.2939453-2.0371094
		v-1.2602539H102.6711502z"/>
	<path fill="#043C3F" d="M124.0529861,117.7647018c-0.4482422-0.5595703-1.0014648-1.0288086-1.6591797-1.4067383
		c-0.6582031-0.3779297-1.4633789-0.5668945-2.4145508-0.5668945c-0.8964844,0-1.6738281,0.1889648-2.3310547,0.5668945
		c-0.6582031,0.3779297-0.9873047,0.9311523-0.9873047,1.6586914c0,0.5883789,0.1889648,1.0644531,0.5673828,1.4282227
		c0.3779297,0.3642578,0.8251953,0.6582031,1.34375,0.8818359c0.5175781,0.2246094,1.0708008,0.3925781,1.6591797,0.5039062
		c0.5878906,0.1123047,1.0917969,0.2104492,1.5117188,0.2944336c0.8120117,0.1958008,1.5751953,0.434082,2.2890625,0.7138672
		c0.7138672,0.2802734,1.3295898,0.6445312,1.8481445,1.0917969c0.5175781,0.4482422,0.9238281,0.9941406,1.2177734,1.6381836
		c0.2939453,0.6445312,0.440918,1.4277344,0.440918,2.3520508c0,1.1201248-0.237793,2.0791092-0.7138672,2.8769608
		c-0.4765625,0.7978516-1.0917969,1.4487305-1.8481445,1.953125c-0.7558594,0.5039062-1.6166992,0.8681641-2.5830078,1.0917969
		c-0.9658203,0.2236328-1.9389648,0.3359375-2.9189453,0.3359375c-1.6523438,0-3.1010742-0.2519531-4.3466797-0.7558594
		c-1.246582-0.5039062-2.359375-1.4282227-3.3393555-2.7719727l2.8564453-2.3520584
		c0.6152344,0.6162109,1.3017578,1.162117,2.0576172,1.6381912c0.7563477,0.4760742,1.6801758,0.7138672,2.7719727,0.7138672
		c0.4760742,0,0.9589844-0.0488281,1.4492188-0.1469727c0.4897461-0.0976562,0.9238281-0.2519531,1.3017578-0.4619141
		c0.378418-0.2099609,0.6860352-0.4760742,0.9243164-0.7983398c0.2373047-0.3212967,0.3569336-0.6928787,0.3569336-1.1128006
		c0-0.5600586-0.175293-1.0219727-0.5249023-1.3862305c-0.3505859-0.3632812-0.7705078-0.6508789-1.2602539-0.8608398
		c-0.4902344-0.2099609-1.0078125-0.3779297-1.5537109-0.5039062c-0.5463867-0.1259766-1.0292969-0.230957-1.4492188-0.3149414
		c-0.8125-0.1958008-1.5820312-0.4199219-2.3100586-0.6723633c-0.7285156-0.2519531-1.3720703-0.5878906-1.9321289-1.0078125
		s-1.0078125-0.9516602-1.34375-1.5961914c-0.3359375-0.6435547-0.5039062-1.4414062-0.5039062-2.3935547
		c0-1.0356445,0.2163086-1.9389648,0.6508789-2.7089844c0.4335938-0.7700195,1.0078125-1.4072266,1.722168-1.9111328
		c0.7138672-0.5039062,1.5253906-0.8823242,2.4360352-1.1342773c0.9091797-0.2519531,1.8266602-0.3779297,2.7509766-0.3779297
		c1.34375,0,2.6313477,0.2519531,3.8637695,0.7563477c1.2319336,0.5039062,2.2114258,1.34375,2.9399414,2.5195312
		L124.0529861,117.7647018z"/>
	<path fill="#043C3F" d="M131.8352203,100.922905h3.7802734v20.4960938l8.5678711-8.6103516h5.25l-9.2822266,9.0302734
		l10.0800781,10.8359451h-5.3759766l-9.2397461-10.3320389v10.3320389h-3.7802734V100.922905z"/>
	<path fill="#043C3F" d="M165.9807281,102.9390182h6.0063477l9.449707,22.5117188h0.1679688l9.3662109-22.5117188h6.0058594
		v29.7358475h-4.0317383v-24.4438553h-0.0839844l-10.0380859,24.4438553h-2.6879883l-10.0380859-24.4438553h-0.0839844v24.4438553
		h-4.0322266V102.9390182z"/>
	<path fill="#043C3F" d="M203.0202789,115.2026901c1.0639648-0.9794922,2.2954102-1.7148438,3.6962891-2.2045898
		c1.3994141-0.4897461,2.7993164-0.7353516,4.199707-0.7353516c1.4555664,0,2.7089844,0.1826172,3.7592773,0.5458984
		c1.0498047,0.3642578,1.9106445,0.8544922,2.5830078,1.4702148c0.671875,0.6162109,1.168457,1.3227539,1.4907227,2.1210938
		c0.3217773,0.7978516,0.4829102,1.6313477,0.4829102,2.4990234v10.1640701c0,0.7001953,0.0141602,1.34375,0.0419922,1.9316406
		c0.027832,0.5883789,0.0698242,1.1484375,0.1259766,1.6801758h-3.3598633
		c-0.0839844-1.0078125-0.1259766-2.0161133-0.1259766-3.0239258h-0.0839844
		c-0.8398438,1.2880859-1.8339844,2.1982422-2.9819336,2.7299805c-1.1484375,0.5317383-2.4780273,0.7978516-3.9902344,0.7978516
		c-0.9238281,0-1.8056641-0.1259766-2.6459961-0.3779297c-0.8398438-0.2519531-1.574707-0.6298828-2.2050781-1.1337891
		c-0.6298828-0.5043945-1.1269531-1.1269531-1.4907227-1.8691406c-0.3642578-0.7416992-0.5458984-1.6025391-0.5458984-2.5830154
		c0-1.2875977,0.2866211-2.3657227,0.8608398-3.2338867c0.5737305-0.8676758,1.3579102-1.5751953,2.3520508-2.1210938
		c0.9936523-0.5458984,2.1557617-0.9379883,3.4858398-1.1762695c1.3295898-0.2373047,2.7509766-0.3569336,4.2631836-0.3569336
		h2.7719727v-0.8398438c0-0.5039062-0.0986328-1.0078125-0.2939453-1.512207
		c-0.1962891-0.5039062-0.4902344-0.9584961-0.8818359-1.3647461c-0.3925781-0.4057617-0.8823242-0.7280273-1.4702148-0.9658203
		s-1.2880859-0.3574219-2.1000977-0.3574219c-0.7285156,0-1.3647461,0.0703125-1.9111328,0.2099609
		c-0.5458984,0.140625-1.043457,0.3154297-1.4907227,0.5253906c-0.4482422,0.2099609-0.8544922,0.4550781-1.2182617,0.7348633
		c-0.3642578,0.2802734-0.7138672,0.5458984-1.0498047,0.7978516L203.0202789,115.2026901z M213.6882477,123.0986862
		c-0.8964844,0-1.8129883,0.0493164-2.7509766,0.1469727c-0.9384766,0.0986328-1.7919922,0.2875977-2.5620117,0.5673828
		c-0.7705078,0.2802734-1.4003906,0.671875-1.8901367,1.1757812c-0.4902344,0.5039062-0.7348633,1.1484375-0.7348633,1.9321289
		c0,1.1484451,0.3847656,1.9741287,1.1552734,2.478035c0.7695312,0.5039062,1.8125,0.7558594,3.1289062,0.7558594
		c1.0356445,0,1.9174805-0.1743164,2.6459961-0.5249023c0.7275391-0.3500977,1.315918-0.8046875,1.7636719-1.3652344
		c0.4477539-0.5595779,0.7700195-1.1826248,0.9663086-1.86866c0.1953125-0.6860352,0.2939453-1.3652344,0.2939453-2.0371094
		v-1.2602539H213.6882477z"/>
	<path fill="#043C3F" d="M224.5617828,112.766655h3.7802734v3.0664062h0.0839844
		c0.4755859-1.0639648,1.3017578-1.9248047,2.4780273-2.5830078c1.1757812-0.6577148,2.5336914-0.9873047,4.0737305-0.9873047
		c0.9516602,0,1.8691406,0.1469727,2.7509766,0.440918c0.8818359,0.2944336,1.6518555,0.7495117,2.3100586,1.3652344
		c0.6577148,0.6162109,1.1826172,1.4067383,1.5751953,2.3730469c0.3916016,0.9658203,0.5878906,2.1069336,0.5878906,3.4228516
		v12.8100662h-3.7802734v-11.7597733c0-0.9243164-0.1259766-1.7148438-0.3779297-2.3730469
		c-0.2519531-0.6577148-0.5878906-1.1899414-1.0078125-1.5961914c-0.4199219-0.4057617-0.9033203-0.699707-1.4492188-0.8818359
		s-1.112793-0.2729492-1.7006836-0.2729492c-0.7841797,0-1.512207,0.1259766-2.184082,0.3779297
		s-1.2602539,0.6508789-1.7641602,1.1967773s-0.8964844,1.2392578-1.1757812,2.0791016
		c-0.2802734,0.8398438-0.4199219,1.8339844-0.4199219,2.9819336v10.2480545h-3.7802734V112.766655z"/>
	<path fill="#043C3F" d="M247.4690094,115.2026901c1.0639648-0.9794922,2.2954102-1.7148438,3.6962891-2.2045898
		c1.3994141-0.4897461,2.7993164-0.7353516,4.199707-0.7353516c1.4555511,0,2.7089691,0.1826172,3.7592621,0.5458984
		c1.0498047,0.3642578,1.9106445,0.8544922,2.5830078,1.4702148c0.671875,0.6162109,1.168457,1.3227539,1.4907227,2.1210938
		c0.3217773,0.7978516,0.4829102,1.6313477,0.4829102,2.4990234v10.1640701c0,0.7001953,0.0141602,1.34375,0.0419922,1.9316406
		c0.027832,0.5883789,0.0698242,1.1484375,0.1259766,1.6801758h-3.3598633
		c-0.0839844-1.0078125-0.1259766-2.0161133-0.1259766-3.0239258h-0.0839844
		c-0.8398438,1.2880859-1.8339844,2.1982422-2.9819336,2.7299805c-1.1484375,0.5317383-2.4780121,0.7978516-3.9902191,0.7978516
		c-0.9238281,0-1.8056641-0.1259766-2.6459961-0.3779297c-0.8398438-0.2519531-1.574707-0.6298828-2.2050781-1.1337891
		c-0.6298828-0.5043945-1.1269531-1.1269531-1.4907227-1.8691406c-0.3642578-0.7416992-0.5458984-1.6025391-0.5458984-2.5830154
		c0-1.2875977,0.2866211-2.3657227,0.8608398-3.2338867c0.5737305-0.8676758,1.3579102-1.5751953,2.3520508-2.1210938
		c0.9936523-0.5458984,2.1557617-0.9379883,3.4858398-1.1762695c1.3295898-0.2373047,2.7509766-0.3569336,4.2631683-0.3569336
		h2.7719727v-0.8398438c0-0.5039062-0.0986328-1.0078125-0.2939453-1.512207
		c-0.1962891-0.5039062-0.4902344-0.9584961-0.8818359-1.3647461c-0.3925781-0.4057617-0.8823242-0.7280273-1.4702148-0.9658203
		s-1.2880859-0.3574219-2.1000824-0.3574219c-0.7285156,0-1.3647461,0.0703125-1.9111328,0.2099609
		c-0.5458984,0.140625-1.043457,0.3154297-1.4907227,0.5253906c-0.4482422,0.2099609-0.8544922,0.4550781-1.2182617,0.7348633
		c-0.3642578,0.2802734-0.7138672,0.5458984-1.0498047,0.7978516L247.4690094,115.2026901z M258.1369629,123.0986862
		c-0.8964844,0-1.8129883,0.0493164-2.7509613,0.1469727c-0.9384766,0.0986328-1.7919922,0.2875977-2.5620117,0.5673828
		c-0.7705078,0.2802734-1.4003906,0.671875-1.8901367,1.1757812c-0.4902344,0.5039062-0.7348633,1.1484375-0.7348633,1.9321289
		c0,1.1484451,0.3847656,1.9741287,1.1552734,2.478035c0.7695312,0.5039062,1.8125,0.7558594,3.1289062,0.7558594
		c1.0356445,0,1.9174652-0.1743164,2.6459808-0.5249023c0.7275391-0.3500977,1.315918-0.8046875,1.7636719-1.3652344
		c0.4477539-0.5595779,0.7700195-1.1826248,0.9663086-1.86866c0.1953125-0.6860352,0.2939453-1.3652344,0.2939453-2.0371094
		v-1.2602539H258.1369629z"/>
	<path fill="#043C3F" d="M288.8640137,132.506897c0,1.512207-0.2592773,2.890625-0.7773438,4.137207
		c-0.5180664,1.2451172-1.253418,2.3237305-2.2045898,3.2338867c-0.9526367,0.909668-2.1000977,1.6166992-3.4443359,2.1210938
		c-1.34375,0.5039062-2.828125,0.7558594-4.4516602,0.7558594c-1.9047852,0-3.6474609-0.2666016-5.2290039-0.7978516
		c-1.5825195-0.5322266-3.0874023-1.456543-4.5151367-2.7724609l2.5620117-3.1918945
		c0.9794922,1.0639648,2.043457,1.8691406,3.1918945,2.4150391c1.1479492,0.5458984,2.449707,0.8188477,3.90625,0.8188477
		c1.3994141,0,2.5615234-0.203125,3.4858398-0.6088867c0.9238281-0.40625,1.6586914-0.9311523,2.2050781-1.574707
		c0.5458984-0.6445312,0.9301758-1.3793945,1.1547852-2.2050781c0.2236328-0.8261719,0.3359375-1.6591797,0.3359375-2.4990234
		v-2.9399414h-0.1259766c-0.7285156,1.2041016-1.715332,2.0932617-2.9609375,2.6669922
		c-1.2460938,0.5742188-2.5551758,0.8608398-3.9267578,0.8608398c-1.456543,0-2.8076172-0.2583008-4.0532227-0.7768555
		c-1.2460938-0.5180664-2.3173828-1.2319336-3.2128906-2.1420898c-0.8964844-0.909668-1.5961914-1.987793-2.1000977-3.2338943
		c-0.5039062-1.2456055-0.7558594-2.5966797-0.7558594-4.0532227c0-1.4555664,0.2373047-2.8203125,0.7138672-4.0947266
		c0.4755859-1.2739258,1.1547852-2.3867188,2.0371094-3.3393555c0.8818359-0.9511719,1.9458008-1.6933594,3.1918945-2.2255859
		c1.2456055-0.5317383,2.6386719-0.7983398,4.1791992-0.7983398c1.34375,0,2.6523438,0.2939453,3.9267578,0.8823242
		c1.2739258,0.5878906,2.2744141,1.4140625,3.0029297,2.4780273h0.0839844v-2.8564453h3.7802734V132.506897z
		 M278.5319824,115.791069c-1.0083008,0-1.918457,0.1748047-2.7299805,0.5249023
		c-0.8125,0.3500977-1.4985352,0.8261719-2.0581055,1.4277344c-0.5605469,0.6025391-0.9941406,1.3305664-1.3022461,2.184082
		c-0.3081055,0.8544922-0.4619141,1.7851562-0.4619141,2.7929688c0,2.0161133,0.5878906,3.6333008,1.7641602,4.8510742
		c1.1757812,1.2182693,2.7719727,1.8271561,4.7880859,1.8271561s3.6118164-0.6088867,4.7880859-1.8271561
		c1.1757812-1.2177734,1.7636719-2.8349609,1.7636719-4.8510742c0-1.0078125-0.1542969-1.9384766-0.4619141-2.7929688
		c-0.3085938-0.8535156-0.7421875-1.581543-1.3017578-2.184082c-0.5605469-0.6015625-1.246582-1.0776367-2.0581055-1.4277344
		C280.4494629,115.9658737,279.5397949,115.791069,278.5319824,115.791069z"/>
	<path fill="#043C3F" d="M297.2424316,124.106987c0,0.8681641,0.1889648,1.6586914,0.5668945,2.3730469
		c0.378418,0.7138672,0.875,1.3227539,1.4912109,1.8266678c0.6157227,0.5043945,1.3295898,0.8964844,2.1420898,1.1762695
		c0.8115234,0.2802734,1.6518555,0.4199219,2.5200195,0.4199219c1.1757812,0,2.1977539-0.2729492,3.065918-0.8188477
		c0.8676758-0.5463867,1.6655273-1.2666092,2.394043-2.1630936l2.855957,2.1840897
		c-2.1000977,2.7158203-5.0400391,4.0737305-8.8198242,4.0737305c-1.5688477,0-2.9892578-0.2661133-4.2631836-0.7978516
		c-1.2744141-0.5317383-2.3520508-1.2666016-3.2338867-2.2050781c-0.8823242-0.9379883-1.5615234-2.043457-2.0371094-3.3178787
		c-0.4765625-1.2739258-0.7138672-2.652832-0.7138672-4.137207c0-1.4838867,0.2583008-2.8623047,0.7768555-4.1367188
		c0.5175781-1.2739258,1.2319336-2.3798828,2.1420898-3.3183594c0.909668-0.9375,1.9951172-1.6723633,3.2548828-2.2045898
		c1.2597656-0.5317383,2.6313477-0.7983398,4.1162109-0.7983398c1.7636719,0,3.2548828,0.3085938,4.4726562,0.9243164
		c1.2182617,0.6162109,2.21875,1.4213867,3.0029297,2.4145508c0.7836914,0.9946289,1.3505859,2.1147461,1.7011719,3.3603516
		c0.3496094,1.2460938,0.5249023,2.5131836,0.5249023,3.8007812v1.3442383H297.2424316z M309.1706543,121.0830612
		c-0.0283203-0.840332-0.1616211-1.6098633-0.3989258-2.3100586c-0.2382812-0.699707-0.5952148-1.3085938-1.0712891-1.8271484
		c-0.4765625-0.5175781-1.0708008-0.9238281-1.7851562-1.2177734c-0.7138672-0.2944336-1.5473633-0.4414062-2.4985352-0.4414062
		c-0.9243164,0-1.7714844,0.175293-2.5410156,0.5253906c-0.7705078,0.3500977-1.421875,0.8051758-1.953125,1.3647461
		c-0.5322266,0.5605469-0.9453125,1.1831055-1.2392578,1.8691406c-0.2939453,0.6865234-0.440918,1.3647461-0.440918,2.0371094
		H309.1706543z"/>
	<path fill="#043C3F" d="M317.5495605,112.766655h3.7802734v3.0664062h0.0839844
		c0.2519531-0.5317383,0.5878906-1.0146484,1.0078125-1.4492188c0.4199219-0.4335938,0.8886719-0.8046875,1.4067383-1.112793
		s1.0849609-0.5527344,1.7011719-0.7353516c0.6157227-0.1816406,1.2319336-0.2729492,1.8481445-0.2729492
		c0.6157227,0,1.1757812,0.0839844,1.6796875,0.2519531l-0.1679688,4.0742188
		c-0.3081055-0.0839844-0.6162109-0.1538086-0.9238281-0.2099609c-0.3085938-0.0556641-0.6162109-0.0839844-0.9238281-0.0839844
		c-1.8481445,0-3.262207,0.5185547-4.2421875,1.5537109c-0.9804688,1.0366211-1.4697266,2.6459961-1.4697266,4.8300781v9.9961014
		h-3.7802734V112.766655z"/>
</g>
<g>
	<g>
		<path fill="#2C1ED5" d="M291.0639648,288.4297485H77.8194046c-4.9402313,0-8.9450836-4.0048523-8.9450836-8.9450684v-67.2572937
			c0-4.9402313,4.0048523-8.9450836,8.9450836-8.9450836h213.2445679c4.9402161,0,8.9450684,4.0048523,8.9450684,8.9450836
			v67.2572937C300.0090332,284.4248962,296.0041809,288.4297485,291.0639648,288.4297485z"/>
	</g>
	<g>
		<g>
			<path fill="#FFFFFF" d="M107.1711502,230.6157837h4.027832l15.5800781,22.34375h0.0756836v-22.34375h3.1923904v26.9038086
				h-4.0283279l-15.5800781-22.3442383h-0.0756836v22.3442383h-3.1918945V230.6157837z"/>
			<path fill="#FFFFFF" d="M151.7942047,254.2896118c-1.0639648,1.3681641-2.2294922,2.324707-3.4956055,2.8691406
				c-1.2670898,0.5444336-2.7363281,0.8168945-4.4082031,0.8168945c-1.3935547,0-2.6474609-0.2470703-3.762207-0.7412109
				c-1.1147461-0.4936523-2.0581055-1.1586914-2.8305664-1.9946289c-0.7734375-0.8364258-1.3681641-1.8242188-1.7861328-2.9643555
				c-0.4179688-1.1396484-0.6269531-2.355957-0.6269531-3.6479492c0-1.3676758,0.2280273-2.6279297,0.684082-3.7807617
				c0.4555664-1.152832,1.0888672-2.140625,1.8999023-2.9643555c0.8105469-0.8227539,1.7729492-1.4628906,2.8876953-1.9189453
				s2.3305664-0.684082,3.6479492-0.684082c1.2412109,0,2.3813477,0.2094727,3.4204102,0.6274414
				c1.0380859,0.4179688,1.9311523,1.0258789,2.6787109,1.8237305c0.7470703,0.7978516,1.3237305,1.7734375,1.7290039,2.9262695
				s0.6079102,2.4638672,0.6079102,3.9326172v0.9501953h-14.3637695c0.050293,0.7597656,0.2338867,1.4882812,0.5507812,2.1850586
				s0.7280273,1.3051758,1.2353516,1.8237305c0.5063477,0.5195312,1.1020508,0.9311523,1.7856445,1.2353516
				c0.684082,0.3037109,1.4311523,0.4560547,2.2421875,0.4560547c1.2919922,0,2.3808594-0.2280273,3.2680664-0.684082
				c0.8862305-0.4560547,1.6845703-1.1269531,2.394043-2.0141602L151.7942047,254.2896118z M149.2483063,247.0317993
				c-0.0507812-1.5200195-0.5449219-2.7363281-1.4819336-3.6484375c-0.9375-0.9116211-2.2294922-1.3676758-3.8759766-1.3676758
				c-1.6469727,0-2.9770508,0.4560547-3.9902344,1.3676758c-1.0131836,0.9121094-1.6210938,2.128418-1.8237305,3.6484375
				H149.2483063z"/>
			<path fill="#FFFFFF" d="M175.4343414,257.5195923h-2.9262695l-5.0537109-13.6801758h-0.0761719l-4.4838867,13.6801758h-3.0400391
				l-5.7758789-17.7841797h3.2675781l4.0664062,13.6801758h0.0756836l4.5981445-13.6801758h3.1157227l4.6743164,13.6801758
				h0.0756836l4.0283203-13.6801758h3.1918945L175.4343414,257.5195923z"/>
			<path fill="#FFFFFF" d="M213.6618805,233.5796509h-8.8920898v23.9399414h-3.1918945v-23.9399414h-8.8920898v-2.9638672
				h20.9760742V233.5796509z"/>
			<path fill="#FFFFFF" d="M213.0188141,242.015686c0.9121094-0.9370117,1.9951172-1.6274414,3.2490234-2.0712891
				c1.2539062-0.4428711,2.5268555-0.6650391,3.8188477-0.6650391c2.6347656,0,4.534668,0.6210938,5.7001953,1.8623047
				c1.1650391,1.2416992,1.7480469,3.1289062,1.7480469,5.6621094v7.6376953c0,0.5073242,0.0249023,1.0327148,0.0756836,1.5771484
				c0.0507812,0.5449219,0.1142578,1.0449219,0.1904297,1.5009766h-2.8500977
				c-0.1015625-0.4047852-0.1586914-0.8549805-0.1708984-1.3491211c-0.0131836-0.4936523-0.019043-0.9306641-0.019043-1.3110352
				h-0.0761719c-0.5830078,0.9121094-1.3623047,1.659668-2.3369141,2.2421875
				c-0.9755859,0.5825195-2.1469727,0.8740234-3.5151367,0.8740234c-0.9121094,0-1.7670898-0.1142578-2.5649414-0.3422852
				c-0.7978516-0.2275391-1.4951172-0.5634766-2.0898438-1.0068359c-0.5957031-0.4428711-1.0708008-0.9936523-1.425293-1.652832
				c-0.3549805-0.6586914-0.5317383-1.418457-0.5317383-2.2802734c0-1.46875,0.3798828-2.6220703,1.1396484-3.4580078
				c0.7602539-0.8359375,1.7036133-1.4560547,2.8310547-1.8618164c1.1269531-0.4047852,2.3432617-0.6586914,3.6479492-0.7597656
				s2.5014648-0.1523438,3.5913086-0.1523438h1.1401367v-0.5317383c0-1.2919922-0.3867188-2.2670898-1.1591797-2.9262695
				c-0.7729492-0.6582031-1.855957-0.987793-3.2490234-0.987793c-0.9628906,0-1.9067383,0.1582031-2.8310547,0.4750977
				c-0.9248047,0.3168945-1.7421875,0.8041992-2.4511719,1.4628906L213.0188141,242.015686z M221.6067047,248.9697876
				c-1.8999023,0-3.4072266,0.265625-4.5219727,0.7978516c-1.1147461,0.5317383-1.671875,1.4057617-1.671875,2.6220703
				c0,1.1147461,0.3735352,1.90625,1.1210938,2.375c0.746582,0.46875,1.6777344,0.703125,2.7929688,0.703125
				c0.8608398,0,1.6147461-0.1455078,2.2607422-0.4370117c0.6459961-0.2910156,1.184082-0.6777344,1.6152344-1.1591797
				c0.4301758-0.480957,0.7597656-1.0449219,0.987793-1.690918s0.3544922-1.3359375,0.3803711-2.0712891v-1.1396484H221.6067047z"/>
			<path fill="#FFFFFF" d="M233.2155914,252.8457642c0.5825195,0.7348633,1.222168,1.3173828,1.9189453,1.7480469
				s1.5771484,0.6459961,2.6411133,0.6459961c0.4560547,0,0.9179688-0.0507812,1.387207-0.1523438
				c0.4682617-0.1005859,0.8930664-0.2661133,1.2729492-0.4936523c0.3798828-0.2280273,0.684082-0.5131836,0.9121094-0.8549805
				c0.2275391-0.3422852,0.3417969-0.7539062,0.3417969-1.2353516c0-0.480957-0.1079102-0.8740234-0.3232422-1.1777344
				c-0.215332-0.3041992-0.5004883-0.5634766-0.8549805-0.7792969c-0.3549805-0.2148438-0.7597656-0.3857422-1.2158203-0.5126953
				c-0.4560547-0.1264648-0.9248047-0.2407227-1.4057617-0.3422852c-0.8364258-0.1767578-1.6342773-0.3798828-2.394043-0.6079102
				c-0.7602539-0.2280273-1.425293-0.5253906-1.9951172-0.8930664c-0.5698242-0.3666992-1.0258789-0.8417969-1.3681641-1.4248047
				c-0.3417969-0.5825195-0.5126953-1.3300781-0.5126953-2.2421875c0-0.8608398,0.1899414-1.6206055,0.5698242-2.2797852
				c0.3798828-0.6586914,0.8862305-1.203125,1.5200195-1.6342773c0.6328125-0.4301758,1.3422852-0.7597656,2.1279297-0.987793
				c0.7851562-0.2280273,1.5961914-0.3422852,2.4321289-0.3422852c1.2666016,0,2.4379883,0.2539062,3.5151367,0.7602539
				c1.0761719,0.5068359,1.9189453,1.3300781,2.5268555,2.4702148l-2.4702148,1.6337891
				c-0.3798828-0.6328125-0.8803711-1.1459961-1.5009766-1.5390625c-0.6210938-0.3925781-1.3745117-0.5888672-2.2607422-0.5888672
				c-0.4057617,0-0.8173828,0.0507812-1.2353516,0.1518555c-0.4179688,0.1015625-0.7919922,0.253418-1.1206055,0.4560547
				c-0.3295898,0.203125-0.6020508,0.4624023-0.8173828,0.7788086c-0.215332,0.3173828-0.3227539,0.6782227-0.3227539,1.0830078
				c0,0.3803711,0.1201172,0.703125,0.3608398,0.9692383s0.5703125,0.5004883,0.9882812,0.703125
				s0.8989258,0.3798828,1.4438477,0.5317383c0.5444336,0.1518555,1.1079102,0.2792969,1.690918,0.3798828
				c0.7851562,0.1523438,1.5327148,0.3486328,2.2421875,0.5893555c0.7089844,0.2407227,1.3300781,0.5639648,1.8618164,0.96875
				c0.5322266,0.4057617,0.9501953,0.9121094,1.2539062,1.5200195c0.3041992,0.6079102,0.4560547,1.3554688,0.4560547,2.2421875
				c0,1.0131836-0.203125,1.875-0.6079102,2.5839844c-0.4057617,0.7094727-0.9438477,1.2861328-1.6152344,1.7290039
				c-0.6713867,0.4433594-1.4311523,0.7666016-2.2797852,0.96875c-0.8491211,0.2026367-1.7163086,0.3041992-2.6030273,0.3041992
				c-1.5200195,0-2.8310547-0.234375-3.9331055-0.703125c-1.1020508-0.4682617-2.0961914-1.3359375-2.9829102-2.6030273
				L233.2155914,252.8457642z"/>
			<path fill="#FFFFFF" d="M248.8679352,228.7915649h2.9638672v18.7719727l8.094223-7.828125h4.2177734l-8.5878754,8.0942383
				l9.4618988,9.6899414h-4.3701172l-8.8159027-9.3481445v9.3481445h-2.9638672V228.7915649z"/>
		</g>
	</g>
</g>
<g>
	<path fill="#4F4F4F" d="M475.2729797,223.8560333c0.1037292,0,0.1881104,0.0843964,0.1881104,0.1881409v43.6237335
		c0,0.1037292-0.0843811,0.1881104-0.1881104,0.1881104H431.649231c-0.1037292,0-0.1881409-0.0843811-0.1881409-0.1881104
		v-43.6237335c0-0.1037445,0.0844116-0.1881409,0.1881409-0.1881409H475.2729797 M475.2729797,220.8560333H431.649231
		c-1.7607422,0-3.1881409,1.4273834-3.1881409,3.1881409v43.6237335c0,1.7607422,1.4273987,3.1881104,3.1881409,3.1881104
		h43.6237488c1.7607422,0,3.1881104-1.4273682,3.1881104-3.1881104v-43.6237335
		C478.4610901,222.2834167,477.0337219,220.8560333,475.2729797,220.8560333L475.2729797,220.8560333z"/>
	<g>
		<g>
			<path fill="#4F4F4F" d="M495.4030762,230.6157837h3.1918945v11.3999023h14.3637695v-11.3999023h3.1918945v26.9038086h-3.1918945
				v-12.5400391h-14.3637695v12.5400391h-3.1918945V230.6157837z"/>
			<path fill="#4F4F4F" d="M521.4284668,232.7817993c0-0.5825195,0.2089844-1.0893555,0.6269531-1.5200195
				s0.9311523-0.6459961,1.5390625-0.6459961s1.1210938,0.215332,1.5390625,0.6459961s0.6269531,0.9375,0.6269531,1.5200195
				c0,0.6333008-0.203125,1.152832-0.6079102,1.5576172c-0.4057617,0.4057617-0.925293,0.6083984-1.5581055,0.6083984
				c-0.6337891,0-1.1533203-0.2026367-1.5581055-0.6083984
				C521.6311035,233.9346313,521.4284668,233.4151001,521.4284668,232.7817993z M522.1125488,239.7354126h2.9638672v17.7841797
				h-2.9638672V239.7354126z"/>
			<path fill="#4F4F4F" d="M545.1672363,254.3657837h-0.0761719c-0.5576172,1.0131836-1.4379883,1.8681641-2.6411133,2.5649414
				c-1.2036133,0.6962891-2.6030273,1.0449219-4.1987305,1.0449219c-1.2416992,0-2.4072266-0.234375-3.4960938-0.703125
				c-1.0898438-0.4682617-2.0332031-1.1210938-2.8310547-1.9570312s-1.425293-1.8237305-1.8808594-2.9638672
				c-0.4560547-1.1401367-0.684082-2.3808594-0.684082-3.7241211c0-1.3422852,0.2280273-2.5839844,0.684082-3.7241211
				c0.4555664-1.1396484,1.0888672-2.1279297,1.8999023-2.9638672c0.8105469-0.8359375,1.7919922-1.487793,2.9448242-1.9570312
				c1.1523438-0.4682617,2.425293-0.703125,3.8188477-0.703125c1.2919922,0,2.4760742,0.2661133,3.5532227,0.7983398
				c1.0766602,0.5317383,2.0200195,1.2792969,2.8310547,2.2416992h0.0761719v-13.527832h2.9638672v28.7280273h-2.9638672
				V254.3657837z M545.1672363,248.6275024c0-0.9370117-0.1464844-1.8046875-0.4370117-2.6030273
				c-0.2919922-0.7978516-0.7163086-1.4941406-1.2734375-2.0898438c-0.5571289-0.5952148-1.222168-1.0639648-1.9946289-1.40625
				c-0.7734375-0.3417969-1.640625-0.5126953-2.6030273-0.5126953c-0.9633789,0-1.8305664,0.1708984-2.6030273,0.5126953
				c-0.7729492,0.3422852-1.4379883,0.8110352-1.9951172,1.40625c-0.5576172,0.5957031-0.9819336,1.2919922-1.2729492,2.0898438
				c-0.2915039,0.7983398-0.4370117,1.6660156-0.4370117,2.6030273c0,0.9375,0.1455078,1.8051758,0.4370117,2.6030273
				c0.2910156,0.7978516,0.715332,1.4951172,1.2729492,2.0898438c0.5571289,0.5957031,1.222168,1.0644531,1.9951172,1.40625
				c0.7724609,0.3417969,1.6396484,0.5131836,2.6030273,0.5131836c0.9624023,0,1.8295898-0.1713867,2.6030273-0.5131836
				c0.7724609-0.3417969,1.4375-0.8105469,1.9946289-1.40625c0.5571289-0.5947266,0.9814453-1.2919922,1.2734375-2.0898438
				C545.020752,250.4326782,545.1672363,249.5650024,545.1672363,248.6275024z"/>
			<path fill="#4F4F4F" d="M569.2165527,254.2896118c-1.0639648,1.3681641-2.2294922,2.324707-3.4956055,2.8691406
				c-1.2670898,0.5444336-2.7363281,0.8168945-4.4082031,0.8168945c-1.3935547,0-2.6474609-0.2470703-3.762207-0.7412109
				c-1.1147461-0.4936523-2.0581055-1.1586914-2.8305664-1.9946289c-0.7734375-0.8364258-1.3681641-1.8242188-1.7861328-2.9643555
				c-0.4179688-1.1396484-0.6269531-2.355957-0.6269531-3.6479492c0-1.3676758,0.2280273-2.6279297,0.684082-3.7807617
				c0.4555664-1.152832,1.0888672-2.140625,1.8999023-2.9643555c0.8105469-0.8227539,1.7729492-1.4628906,2.8876953-1.9189453
				s2.3305664-0.684082,3.6479492-0.684082c1.2412109,0,2.3813477,0.2094727,3.4204102,0.6274414
				c1.0380859,0.4179688,1.9311523,1.0258789,2.6787109,1.8237305c0.7470703,0.7978516,1.3237305,1.7734375,1.7290039,2.9262695
				s0.6079102,2.4638672,0.6079102,3.9326172v0.9501953h-14.3637695c0.050293,0.7597656,0.2338867,1.4882812,0.5507812,2.1850586
				s0.7280273,1.3051758,1.2353516,1.8237305c0.5063477,0.5195312,1.1020508,0.9311523,1.7856445,1.2353516
				c0.684082,0.3037109,1.4311523,0.4560547,2.2421875,0.4560547c1.2919922,0,2.3808594-0.2280273,3.2680664-0.684082
				c0.8862305-0.4560547,1.6845703-1.1269531,2.394043-2.0141602L569.2165527,254.2896118z M566.6706543,247.0317993
				c-0.0507812-1.5200195-0.5449219-2.7363281-1.4819336-3.6484375c-0.9375-0.9116211-2.2294922-1.3676758-3.8759766-1.3676758
				c-1.6469727,0-2.9770508,0.4560547-3.9902344,1.3676758c-1.0131836,0.9121094-1.6210938,2.128418-1.8237305,3.6484375
				H566.6706543z"/>
			<path fill="#4F4F4F" d="M604.404541,236.1636353c-0.8110352-1.0888672-1.8115234-1.9057617-3.0019531-2.4511719
				c-1.190918-0.5444336-2.4321289-0.8168945-3.7241211-0.8168945c-1.4951172,0-2.8686523,0.3041992-4.1230469,0.9121094
				c-1.2539062,0.6079102-2.3369141,1.4248047-3.2485352,2.4506836c-0.9121094,1.0263672-1.621582,2.2172852-2.128418,3.5722656
				c-0.5068359,1.3554688-0.7597656,2.7680664-0.7597656,4.2368164c0,1.5712891,0.2529297,3.0341797,0.7597656,4.3891602
				c0.5068359,1.3554688,1.2094727,2.5336914,2.109375,3.5341797c0.8989258,1.0009766,1.9755859,1.7924805,3.2299805,2.375
				c1.2539062,0.5830078,2.640625,0.8740234,4.1606445,0.8740234c1.6464844,0,3.1162109-0.3232422,4.4082031-0.9692383
				s2.4189453-1.5771484,3.3818359-2.7929688l2.394043,2.0141602c-1.2158203,1.621582-2.6787109,2.8120117-4.3886719,3.5717773
				c-1.7104492,0.7602539-3.6420898,1.1401367-5.7954102,1.1401367c-1.925293,0-3.7236328-0.3549805-5.3959961-1.0639648
				c-1.671875-0.7089844-3.1225586-1.690918-4.3505859-2.9453125c-1.2294922-1.2539062-2.1918945-2.7416992-2.8881836-4.4648438
				c-0.6972656-1.7226562-1.0449219-3.6098633-1.0449219-5.6621094c0-1.9760742,0.3354492-3.824707,1.0068359-5.5478516
				c0.6708984-1.7226562,1.6152344-3.2167969,2.8310547-4.4838867c1.2158203-1.2666016,2.6601562-2.2670898,4.3320312-3.0019531
				s3.5083008-1.1020508,5.5097656-1.1020508c1.8242188,0,3.578125,0.3295898,5.2631836,0.987793
				c1.6845703,0.6591797,3.097168,1.7358398,4.2368164,3.2299805L604.404541,236.1636353z"/>
			<path fill="#4F4F4F" d="M610.279541,248.6275024c0-1.3930664,0.2402344-2.659668,0.7216797-3.7998047
				c0.480957-1.1401367,1.1401367-2.121582,1.9760742-2.9453125c0.8359375-0.8227539,1.8364258-1.4628906,3.0019531-1.9189453
				c1.1650391-0.4560547,2.4321289-0.684082,3.800293-0.684082c1.3676758,0,2.6342773,0.2280273,3.7998047,0.684082
				c1.1650391,0.4560547,2.1660156,1.0961914,3.0019531,1.9189453c0.8359375,0.8237305,1.4946289,1.8051758,1.9760742,2.9453125
				c0.480957,1.1401367,0.722168,2.4067383,0.722168,3.7998047c0,1.3935547-0.2412109,2.6601562-0.722168,3.800293
				c-0.4814453,1.1396484-1.1401367,2.1220703-1.9760742,2.9448242c-0.8359375,0.8237305-1.8369141,1.4628906-3.0019531,1.9189453
				c-1.1655273,0.4560547-2.4321289,0.684082-3.7998047,0.684082c-1.3681641,0-2.6352539-0.2280273-3.800293-0.684082
				c-1.1655273-0.4560547-2.1660156-1.0952148-3.0019531-1.9189453c-0.8359375-0.8227539-1.4951172-1.8051758-1.9760742-2.9448242
				C610.5197754,251.2876587,610.279541,250.0210571,610.279541,248.6275024z M613.4714355,248.6275024
				c0,0.9375,0.1455078,1.8051758,0.4370117,2.6030273c0.2910156,0.7978516,0.715332,1.4951172,1.2729492,2.0898438
				c0.5571289,0.5957031,1.222168,1.0644531,1.9951172,1.40625c0.7724609,0.3417969,1.6396484,0.5131836,2.6030273,0.5131836
				c0.9624023,0,1.8295898-0.1713867,2.6030273-0.5131836c0.7724609-0.3417969,1.4375-0.8105469,1.9946289-1.40625
				c0.5571289-0.5947266,0.9814453-1.2919922,1.2734375-2.0898438c0.2905273-0.7978516,0.4370117-1.6655273,0.4370117-2.6030273
				c0-0.9370117-0.1464844-1.8046875-0.4370117-2.6030273c-0.2919922-0.7978516-0.7163086-1.4941406-1.2734375-2.0898438
				c-0.5571289-0.5952148-1.222168-1.0639648-1.9946289-1.40625c-0.7734375-0.3417969-1.640625-0.5126953-2.6030273-0.5126953
				c-0.9633789,0-1.8305664,0.1708984-2.6030273,0.5126953c-0.7729492,0.3422852-1.4379883,0.8110352-1.9951172,1.40625
				c-0.5576172,0.5957031-0.9819336,1.2919922-1.2729492,2.0898438
				C613.6169434,246.8228149,613.4714355,247.6904907,613.4714355,248.6275024z"/>
			<path fill="#4F4F4F" d="M633.4973145,243.9536743c0-0.8105469-0.0253906-1.5703125-0.0761719-2.2802734
				c-0.0507812-0.7089844-0.0756836-1.3549805-0.0756836-1.9379883h2.8120117c0,0.4819336,0.012207,0.9633789,0.0375977,1.4443359
				c0.0253906,0.4814453,0.0380859,0.9755859,0.0380859,1.4819336h0.0761719
				c0.2026367-0.4306641,0.4873047-0.8486328,0.8549805-1.2539062c0.3666992-0.4052734,0.8037109-0.7661133,1.3110352-1.0830078
				c0.5063477-0.3164062,1.0766602-0.5703125,1.7099609-0.7602539c0.6328125-0.1899414,1.3168945-0.2851562,2.0517578-0.2851562
				c0.9628906,0,1.7670898,0.1206055,2.4130859,0.3613281c0.6459961,0.2412109,1.184082,0.5317383,1.6152344,0.8740234
				c0.4301758,0.3417969,0.765625,0.7094727,1.0068359,1.1020508c0.2407227,0.3930664,0.4370117,0.7407227,0.5888672,1.0449219
				c0.6586914-1.0639648,1.418457-1.8935547,2.2802734-2.4892578c0.8608398-0.5947266,1.9760742-0.8930664,3.34375-0.8930664
				c1.2666016,0,2.3305664,0.1713867,3.1923828,0.5131836c0.8608398,0.3422852,1.5576172,0.8359375,2.0898438,1.4819336
				c0.5317383,0.6459961,0.9121094,1.4316406,1.1401367,2.355957c0.2280273,0.925293,0.3417969,1.9570312,0.3417969,3.097168
				v10.7919922h-2.9638672v-10.6401367c0-0.6079102-0.0634766-1.2026367-0.1899414-1.7856445
				c-0.1274414-0.5825195-0.3549805-1.1020508-0.684082-1.5581055c-0.3295898-0.4560547-0.7729492-0.8232422-1.3300781-1.1020508
				c-0.5576172-0.2783203-1.2670898-0.4179688-2.1279297-0.4179688c-0.6337891,0-1.2290039,0.1269531-1.7861328,0.3798828
				c-0.5576172,0.253418-1.0449219,0.6079102-1.4628906,1.0639648s-0.7475586,1.0068359-0.9882812,1.652832
				s-0.3608398,1.3623047-0.3608398,2.1474609v10.2597656h-2.9638672v-10.0698242
				c0-1.9760742-0.2661133-3.3754883-0.7978516-4.1992188c-0.5322266-0.8227539-1.40625-1.2348633-2.6220703-1.2348633
				c-0.9633789,0-1.7924805,0.1650391-2.4892578,0.4941406s-1.2670898,0.7978516-1.7099609,1.4057617
				c-0.4433594,0.6079102-0.7729492,1.3300781-0.987793,2.1660156c-0.2158203,0.8359375-0.3232422,1.7612305-0.3232422,2.7739258
				v8.6640625h-2.9638672V243.9536743z"/>
			<path fill="#4F4F4F" d="M665.416748,239.7354126h2.9638672v2.5839844h0.0761719
				c0.8100586-0.9624023,1.7539062-1.7099609,2.8305664-2.2416992c1.0766602-0.5322266,2.2612305-0.7983398,3.5532227-0.7983398
				c1.3930664,0,2.6660156,0.2348633,3.8188477,0.703125c1.152832,0.4692383,2.1342773,1.1210938,2.9453125,1.9570312
				c0.8105469,0.8359375,1.4438477,1.8242188,1.8999023,2.9638672c0.4560547,1.1401367,0.684082,2.3818359,0.684082,3.7241211
				c0,1.3432617-0.2280273,2.5839844-0.684082,3.7241211s-1.0830078,2.1279297-1.8808594,2.9638672
				c-0.7983398,0.8359375-1.7421875,1.4887695-2.8310547,1.9570312c-1.0898438,0.46875-2.2553711,0.703125-3.4960938,0.703125
				c-1.5961914,0-2.9960938-0.3486328-4.1992188-1.0449219c-1.203125-0.6967773-2.0839844-1.5517578-2.640625-2.5649414h-0.0761719
				v11.8178711h-2.9638672V239.7354126z M668.3806152,248.6275024c0,0.9375,0.1455078,1.8051758,0.4370117,2.6030273
				c0.2910156,0.7978516,0.715332,1.4951172,1.2729492,2.0898438c0.5571289,0.5957031,1.222168,1.0644531,1.9951172,1.40625
				c0.7724609,0.3417969,1.6396484,0.5131836,2.6030273,0.5131836c0.9624023,0,1.8295898-0.1713867,2.6030273-0.5131836
				c0.7724609-0.3417969,1.4375-0.8105469,1.9946289-1.40625c0.5571289-0.5947266,0.9814453-1.2919922,1.2734375-2.0898438
				c0.2905273-0.7978516,0.4370117-1.6655273,0.4370117-2.6030273c0-0.9370117-0.1464844-1.8046875-0.4370117-2.6030273
				c-0.2919922-0.7978516-0.7163086-1.4941406-1.2734375-2.0898438c-0.5571289-0.5952148-1.222168-1.0639648-1.9946289-1.40625
				c-0.7734375-0.3417969-1.640625-0.5126953-2.6030273-0.5126953c-0.9633789,0-1.8305664,0.1708984-2.6030273,0.5126953
				c-0.7729492,0.3422852-1.4379883,0.8110352-1.9951172,1.40625c-0.5576172,0.5957031-0.9819336,1.2919922-1.2729492,2.0898438
				C668.526123,246.8228149,668.3806152,247.6904907,668.3806152,248.6275024z"/>
			<path fill="#4F4F4F" d="M688.6115723,228.7915649h2.9638672v28.7280273h-2.9638672V228.7915649z"/>
			<path fill="#4F4F4F" d="M712.9279785,254.2896118c-1.0644531,1.3681641-2.2294922,2.324707-3.4960938,2.8691406
				s-2.7363281,0.8168945-4.4082031,0.8168945c-1.3935547,0-2.6474609-0.2470703-3.762207-0.7412109
				c-1.1147461-0.4936523-2.0581055-1.1586914-2.8305664-1.9946289c-0.7734375-0.8364258-1.3681641-1.8242188-1.7861328-2.9643555
				c-0.4179688-1.1396484-0.6269531-2.355957-0.6269531-3.6479492c0-1.3676758,0.2280273-2.6279297,0.684082-3.7807617
				c0.4555664-1.152832,1.0888672-2.140625,1.8999023-2.9643555c0.8105469-0.8227539,1.7729492-1.4628906,2.8876953-1.9189453
				s2.3305664-0.684082,3.6484375-0.684082c1.2412109,0,2.3808594,0.2094727,3.4199219,0.6274414
				c1.0380859,0.4179688,1.9316406,1.0258789,2.6787109,1.8237305s1.3242188,1.7734375,1.7294922,2.9262695
				s0.6074219,2.4638672,0.6074219,3.9326172v0.9501953h-14.3637695c0.050293,0.7597656,0.2338867,1.4882812,0.5507812,2.1850586
				s0.7280273,1.3051758,1.2353516,1.8237305c0.5063477,0.5195312,1.1020508,0.9311523,1.7856445,1.2353516
				c0.684082,0.3037109,1.4311523,0.4560547,2.2421875,0.4560547c1.2919922,0,2.3808594-0.2280273,3.2685547-0.684082
				c0.8857422-0.4560547,1.6845703-1.1269531,2.3935547-2.0141602L712.9279785,254.2896118z M710.3820801,247.0317993
				c-0.0507812-1.5200195-0.5449219-2.7363281-1.4824219-3.6484375c-0.9375-0.9116211-2.2294922-1.3676758-3.8759766-1.3676758
				c-1.6469727,0-2.9770508,0.4560547-3.9902344,1.3676758c-1.0131836,0.9121094-1.6210938,2.128418-1.8237305,3.6484375
				H710.3820801z"/>
			<path fill="#4F4F4F" d="M727.4289551,242.2437134h-5.2441406v8.8920898c0,0.5830078,0.0126953,1.1206055,0.0380859,1.6147461
				c0.0244141,0.4941406,0.1259766,0.925293,0.3037109,1.2919922c0.1767578,0.3676758,0.4433594,0.6591797,0.7978516,0.8740234
				c0.3544922,0.215332,0.8613281,0.3232422,1.5205078,0.3232422c0.4296875,0,0.8740234-0.0507812,1.3300781-0.1523438
				c0.4560547-0.1005859,0.8857422-0.2529297,1.2919922-0.4560547l0.1132812,2.6982422
				c-0.5068359,0.2280273-1.0703125,0.3925781-1.6904297,0.4941406c-0.6210938,0.1005859-1.2099609,0.1518555-1.7675781,0.1518555
				c-1.0634766,0-1.9130859-0.1396484-2.5458984-0.4179688s-1.1269531-0.6708984-1.4814453-1.1782227
				c-0.3554688-0.5063477-0.5888672-1.1333008-0.703125-1.8808594c-0.1142578-0.7470703-0.1708984-1.5771484-0.1708984-2.4887695
				v-9.7661133h-3.8759766v-2.5083008h3.8759766v-5.0537109h2.9638672v5.0537109h5.2441406V242.2437134z"/>
			<path fill="#4F4F4F" d="M746.3518066,254.2896118c-1.0644531,1.3681641-2.2294922,2.324707-3.4960938,2.8691406
				s-2.7363281,0.8168945-4.4082031,0.8168945c-1.3935547,0-2.6474609-0.2470703-3.7617188-0.7412109
				c-1.1152344-0.4936523-2.0585938-1.1586914-2.8310547-1.9946289c-0.7734375-0.8364258-1.3681641-1.8242188-1.7861328-2.9643555
				c-0.4179688-1.1396484-0.6269531-2.355957-0.6269531-3.6479492c0-1.3676758,0.2285156-2.6279297,0.6845703-3.7807617
				c0.4550781-1.152832,1.0888672-2.140625,1.8994141-2.9643555c0.8105469-0.8227539,1.7734375-1.4628906,2.8876953-1.9189453
				c1.1152344-0.4560547,2.3310547-0.684082,3.6484375-0.684082c1.2412109,0,2.3808594,0.2094727,3.4199219,0.6274414
				c1.0380859,0.4179688,1.9316406,1.0258789,2.6787109,1.8237305s1.3242188,1.7734375,1.7294922,2.9262695
				s0.6074219,2.4638672,0.6074219,3.9326172v0.9501953h-14.3632812c0.0498047,0.7597656,0.2333984,1.4882812,0.5507812,2.1850586
				c0.3164062,0.6967773,0.7275391,1.3051758,1.2353516,1.8237305c0.5058594,0.5195312,1.1015625,0.9311523,1.7851562,1.2353516
				c0.6845703,0.3037109,1.4316406,0.4560547,2.2421875,0.4560547c1.2919922,0,2.3808594-0.2280273,3.2685547-0.684082
				c0.8857422-0.4560547,1.6845703-1.1269531,2.3935547-2.0141602L746.3518066,254.2896118z M743.8059082,247.0317993
				c-0.0507812-1.5200195-0.5449219-2.7363281-1.4824219-3.6484375c-0.9375-0.9116211-2.2294922-1.3676758-3.8759766-1.3676758
				s-2.9765625,0.4560547-3.9902344,1.3676758c-1.0126953,0.9121094-1.6210938,2.128418-1.8232422,3.6484375H743.8059082z"/>
			<path fill="#4F4F4F" d="M766.0246582,254.3657837h-0.0761719c-0.5576172,1.0131836-1.4375,1.8681641-2.640625,2.5649414
				c-1.2041016,0.6962891-2.6035156,1.0449219-4.1992188,1.0449219c-1.2412109,0-2.4072266-0.234375-3.4960938-0.703125
				c-1.0898438-0.4682617-2.0332031-1.1210938-2.8310547-1.9570312s-1.4248047-1.8237305-1.8808594-2.9638672
				s-0.6835938-2.3808594-0.6835938-3.7241211c0-1.3422852,0.2275391-2.5839844,0.6835938-3.7241211
				c0.4560547-1.1396484,1.0888672-2.1279297,1.9003906-2.9638672c0.8105469-0.8359375,1.7919922-1.487793,2.9443359-1.9570312
				c1.1523438-0.4682617,2.4257812-0.703125,3.8193359-0.703125c1.2919922,0,2.4755859,0.2661133,3.5527344,0.7983398
				c1.0771484,0.5317383,2.0205078,1.2792969,2.8310547,2.2416992h0.0761719v-13.527832h2.9638672v28.7280273h-2.9638672
				V254.3657837z M766.0246582,248.6275024c0-0.9370117-0.1464844-1.8046875-0.4365234-2.6030273
				c-0.2919922-0.7978516-0.7167969-1.4941406-1.2734375-2.0898438c-0.5576172-0.5952148-1.2226562-1.0639648-1.9951172-1.40625
				c-0.7734375-0.3417969-1.640625-0.5126953-2.6025391-0.5126953c-0.9638672,0-1.8310547,0.1708984-2.6035156,0.5126953
				c-0.7724609,0.3422852-1.4375,0.8110352-1.9951172,1.40625c-0.5576172,0.5957031-0.9814453,1.2919922-1.2724609,2.0898438
				c-0.2919922,0.7983398-0.4375,1.6660156-0.4375,2.6030273c0,0.9375,0.1455078,1.8051758,0.4375,2.6030273
				c0.2910156,0.7978516,0.7148438,1.4951172,1.2724609,2.0898438c0.5576172,0.5957031,1.2226562,1.0644531,1.9951172,1.40625
				s1.6396484,0.5131836,2.6035156,0.5131836c0.9619141,0,1.8291016-0.1713867,2.6025391-0.5131836
				c0.7724609-0.3417969,1.4375-0.8105469,1.9951172-1.40625c0.5566406-0.5947266,0.9814453-1.2919922,1.2734375-2.0898438
				C765.8781738,250.4326782,766.0246582,249.5650024,766.0246582,248.6275024z"/>
			<path fill="#4F4F4F" d="M803.6066895,233.5796509h-8.8925781v23.9399414h-3.1914062v-23.9399414h-8.8925781v-2.9638672
				h20.9765625V233.5796509z"/>
			<path fill="#4F4F4F" d="M802.9631348,242.015686c0.9121094-0.9370117,1.9951172-1.6274414,3.2490234-2.0712891
				c1.2539062-0.4428711,2.5273438-0.6650391,3.8193359-0.6650391c2.6347656,0,4.5341797,0.6210938,5.7001953,1.8623047
				c1.1650391,1.2416992,1.7480469,3.1289062,1.7480469,5.6621094v7.6376953c0,0.5073242,0.0244141,1.0327148,0.0751953,1.5771484
				c0.0507812,0.5449219,0.1142578,1.0449219,0.1904297,1.5009766h-2.8496094
				c-0.1015625-0.4047852-0.1591797-0.8549805-0.1708984-1.3491211c-0.0136719-0.4936523-0.0195312-0.9306641-0.0195312-1.3110352
				h-0.0761719c-0.5830078,0.9121094-1.3623047,1.659668-2.3369141,2.2421875
				c-0.9755859,0.5825195-2.1464844,0.8740234-3.5146484,0.8740234c-0.9121094,0-1.7675781-0.1142578-2.5654297-0.3422852
				c-0.7978516-0.2275391-1.4951172-0.5634766-2.0898438-1.0068359c-0.5957031-0.4428711-1.0703125-0.9936523-1.4248047-1.652832
				c-0.3554688-0.6586914-0.5322266-1.418457-0.5322266-2.2802734c0-1.46875,0.3798828-2.6220703,1.1396484-3.4580078
				c0.7607422-0.8359375,1.7041016-1.4560547,2.8310547-1.8618164c1.1269531-0.4047852,2.34375-0.6586914,3.6484375-0.7597656
				s2.5009766-0.1523438,3.5908203-0.1523438h1.140625v-0.5317383c0-1.2919922-0.3867188-2.2670898-1.1591797-2.9262695
				c-0.7734375-0.6582031-1.8564453-0.987793-3.2490234-0.987793c-0.9628906,0-1.9072266,0.1582031-2.8310547,0.4750977
				c-0.9248047,0.3168945-1.7421875,0.8041992-2.4511719,1.4628906L802.9631348,242.015686z M811.5510254,248.9697876
				c-1.8994141,0-3.4072266,0.265625-4.5214844,0.7978516c-1.1152344,0.5317383-1.671875,1.4057617-1.671875,2.6220703
				c0,1.1147461,0.3730469,1.90625,1.1210938,2.375c0.7460938,0.46875,1.6777344,0.703125,2.7929688,0.703125
				c0.8603516,0,1.6142578-0.1455078,2.2607422-0.4370117c0.6455078-0.2910156,1.1835938-0.6777344,1.6152344-1.1591797
				c0.4296875-0.480957,0.7597656-1.0449219,0.9873047-1.690918c0.2285156-0.6459961,0.3544922-1.3359375,0.3808594-2.0712891
				v-1.1396484H811.5510254z"/>
			<path fill="#4F4F4F" d="M823.1604004,252.8457642c0.5820312,0.7348633,1.2216797,1.3173828,1.9189453,1.7480469
				c0.6962891,0.4306641,1.5771484,0.6459961,2.640625,0.6459961c0.4560547,0,0.9179688-0.0507812,1.3876953-0.1523438
				c0.4677734-0.1005859,0.8925781-0.2661133,1.2724609-0.4936523c0.3798828-0.2280273,0.6845703-0.5131836,0.9121094-0.8549805
				c0.2275391-0.3422852,0.3417969-0.7539062,0.3417969-1.2353516c0-0.480957-0.1074219-0.8740234-0.3232422-1.1777344
				c-0.2148438-0.3041992-0.5-0.5634766-0.8544922-0.7792969c-0.3554688-0.2148438-0.7597656-0.3857422-1.2158203-0.5126953
				c-0.4560547-0.1264648-0.9248047-0.2407227-1.40625-0.3422852c-0.8359375-0.1767578-1.6337891-0.3798828-2.3935547-0.6079102
				c-0.7607422-0.2280273-1.4257812-0.5253906-1.9951172-0.8930664c-0.5703125-0.3666992-1.0263672-0.8417969-1.3681641-1.4248047
				c-0.3417969-0.5825195-0.5126953-1.3300781-0.5126953-2.2421875c0-0.8608398,0.1894531-1.6206055,0.5693359-2.2797852
				c0.3798828-0.6586914,0.8867188-1.203125,1.5205078-1.6342773c0.6328125-0.4301758,1.3417969-0.7597656,2.1279297-0.987793
				c0.7851562-0.2280273,1.5957031-0.3422852,2.4316406-0.3422852c1.2666016,0,2.4384766,0.2539062,3.515625,0.7602539
				c1.0761719,0.5068359,1.9189453,1.3300781,2.5263672,2.4702148l-2.4697266,1.6337891
				c-0.3798828-0.6328125-0.8808594-1.1459961-1.5009766-1.5390625c-0.6210938-0.3925781-1.375-0.5888672-2.2607422-0.5888672
				c-0.40625,0-0.8173828,0.0507812-1.2353516,0.1518555c-0.4179688,0.1015625-0.7919922,0.253418-1.1210938,0.4560547
				c-0.3291016,0.203125-0.6015625,0.4624023-0.8173828,0.7788086c-0.2148438,0.3173828-0.3222656,0.6782227-0.3222656,1.0830078
				c0,0.3803711,0.1201172,0.703125,0.3603516,0.9692383c0.2412109,0.2661133,0.5703125,0.5004883,0.9882812,0.703125
				s0.8994141,0.3798828,1.4443359,0.5317383c0.5439453,0.1518555,1.1074219,0.2792969,1.6904297,0.3798828
				c0.7851562,0.1523438,1.5332031,0.3486328,2.2421875,0.5893555s1.3300781,0.5639648,1.8623047,0.96875
				c0.5322266,0.4057617,0.9501953,0.9121094,1.2539062,1.5200195s0.4560547,1.3554688,0.4560547,2.2421875
				c0,1.0131836-0.203125,1.875-0.6083984,2.5839844c-0.4052734,0.7094727-0.9433594,1.2861328-1.6152344,1.7290039
				c-0.6708984,0.4433594-1.4306641,0.7666016-2.2792969,0.96875c-0.8496094,0.2026367-1.7167969,0.3041992-2.6035156,0.3041992
				c-1.5195312,0-2.8310547-0.234375-3.9326172-0.703125c-1.1025391-0.4682617-2.0966797-1.3359375-2.9833984-2.6030273
				L823.1604004,252.8457642z"/>
			<path fill="#4F4F4F" d="M838.8127441,228.7915649h2.9638672v18.7719727l8.09375-7.828125h4.2177734l-8.5878906,8.0942383
				l9.4619141,9.6899414h-4.3701172l-8.8154297-9.3481445v9.3481445h-2.9638672V228.7915649z"/>
			<path fill="#4F4F4F" d="M858.333252,252.8457642c0.5820312,0.7348633,1.2216797,1.3173828,1.9189453,1.7480469
				c0.6962891,0.4306641,1.5771484,0.6459961,2.640625,0.6459961c0.4560547,0,0.9179688-0.0507812,1.3876953-0.1523438
				c0.4677734-0.1005859,0.8925781-0.2661133,1.2724609-0.4936523c0.3798828-0.2280273,0.6845703-0.5131836,0.9121094-0.8549805
				c0.2275391-0.3422852,0.3417969-0.7539062,0.3417969-1.2353516c0-0.480957-0.1074219-0.8740234-0.3232422-1.1777344
				c-0.2148438-0.3041992-0.5-0.5634766-0.8544922-0.7792969c-0.3554688-0.2148438-0.7597656-0.3857422-1.2158203-0.5126953
				c-0.4560547-0.1264648-0.9248047-0.2407227-1.40625-0.3422852c-0.8359375-0.1767578-1.6337891-0.3798828-2.3935547-0.6079102
				c-0.7607422-0.2280273-1.4257812-0.5253906-1.9951172-0.8930664c-0.5703125-0.3666992-1.0263672-0.8417969-1.3681641-1.4248047
				c-0.3417969-0.5825195-0.5126953-1.3300781-0.5126953-2.2421875c0-0.8608398,0.1894531-1.6206055,0.5693359-2.2797852
				c0.3798828-0.6586914,0.8867188-1.203125,1.5205078-1.6342773c0.6328125-0.4301758,1.3417969-0.7597656,2.1279297-0.987793
				c0.7851562-0.2280273,1.5957031-0.3422852,2.4316406-0.3422852c1.2666016,0,2.4384766,0.2539062,3.515625,0.7602539
				c1.0761719,0.5068359,1.9189453,1.3300781,2.5263672,2.4702148l-2.4697266,1.6337891
				c-0.3798828-0.6328125-0.8808594-1.1459961-1.5009766-1.5390625c-0.6210938-0.3925781-1.375-0.5888672-2.2607422-0.5888672
				c-0.40625,0-0.8173828,0.0507812-1.2353516,0.1518555c-0.4179688,0.1015625-0.7919922,0.253418-1.1210938,0.4560547
				c-0.3291016,0.203125-0.6015625,0.4624023-0.8173828,0.7788086c-0.2148438,0.3173828-0.3222656,0.6782227-0.3222656,1.0830078
				c0,0.3803711,0.1201172,0.703125,0.3603516,0.9692383c0.2412109,0.2661133,0.5703125,0.5004883,0.9882812,0.703125
				s0.8994141,0.3798828,1.4443359,0.5317383c0.5439453,0.1518555,1.1074219,0.2792969,1.6904297,0.3798828
				c0.7851562,0.1523438,1.5332031,0.3486328,2.2421875,0.5893555s1.3300781,0.5639648,1.8623047,0.96875
				c0.5322266,0.4057617,0.9501953,0.9121094,1.2539062,1.5200195s0.4560547,1.3554688,0.4560547,2.2421875
				c0,1.0131836-0.203125,1.875-0.6083984,2.5839844c-0.4052734,0.7094727-0.9433594,1.2861328-1.6152344,1.7290039
				c-0.6708984,0.4433594-1.4306641,0.7666016-2.2792969,0.96875c-0.8496094,0.2026367-1.7167969,0.3041992-2.6035156,0.3041992
				c-1.5195312,0-2.8310547-0.234375-3.9326172-0.703125c-1.1025391-0.4682617-2.0966797-1.3359375-2.9833984-2.6030273
				L858.333252,252.8457642z"/>
		</g>
	</g>
</g>
<g>
	<g>
		<path fill="#4F4F4F" d="M310.4315796,940.9575195H78.1935883c-5.1468887,0-9.3192673-4.1724243-9.3192673-9.3192749v-66.5089111
			c0-5.1469116,4.1723785-9.3192749,9.3192673-9.3192749h232.2379913c5.1469116,0,9.3192749,4.1723633,9.3192749,9.3192749
			v66.5089111C319.7508545,936.7850952,315.5784912,940.9575195,310.4315796,940.9575195z"/>
	</g>
	<g>
		<g>
			<path fill="#FFFFFF" d="M111.2590408,883.144104h10.3359375c0.8862305,0,1.8237305,0.1015625,2.8120117,0.3037109
				c0.987793,0.203125,1.9692383,0.5263672,2.9448242,0.96875c0.9751053,0.4433594,1.9126053,1.0205078,2.8120193,1.7294922
				c0.8989258,0.7089844,1.690918,1.5644531,2.375,2.5644531c0.684082,1.0009766,1.2285156,2.1533203,1.6342773,3.4580078
				c0.4047852,1.3056641,0.6079102,2.7802734,0.6079102,4.4267578c0,1.6474609-0.203125,3.1230469-0.6079102,4.4277344
				c-0.4057617,1.3046875-0.9501953,2.4570312-1.6342773,3.4580078s-1.4760742,1.8554688-2.375,2.5644531
				c-0.8994141,0.7099609-1.8369141,1.2861328-2.8120193,1.7294922c-0.9755859,0.4433594-1.9570312,0.7666016-2.9448242,0.96875
				c-0.9882812,0.203125-1.9257812,0.3037109-2.8120117,0.3037109h-10.3359375V883.144104z M114.4509354,907.0835571h6.0800781
				c1.5449219,0,2.9765625-0.2021484,4.2939453-0.6074219c1.3168945-0.4052734,2.4570312-1.0322266,3.4199295-1.8818359
				c0.9624023-0.8476562,1.7226562-1.9306641,2.2802734-3.2490234c0.5566406-1.3164062,0.8359375-2.9003906,0.8359375-4.75
				c0-1.8486328-0.2792969-3.4316406-0.8359375-4.75c-0.5576172-1.3164062-1.3178711-2.3994141-2.2802734-3.2490234
				c-0.9628983-0.8476562-2.103035-1.4746094-3.4199295-1.8808594c-1.3173828-0.4042969-2.7490234-0.6074219-4.2939453-0.6074219
				h-6.0800781V907.0835571z"/>
			<path fill="#FFFFFF" d="M138.1169586,901.1558228c0-1.3935547,0.2402344-2.6601562,0.7216797-3.7998047
				c0.480957-1.140625,1.1401367-2.1220703,1.9760742-2.9453125s1.8364258-1.4628906,3.0019531-1.9189453
				c1.1650391-0.4560547,2.4321289-0.6845703,3.800293-0.6845703c1.3676758,0,2.6342773,0.2285156,3.7998047,0.6845703
				c1.1650391,0.4560547,2.1660156,1.0957031,3.0019531,1.9189453s1.4946289,1.8046875,1.9760742,2.9453125
				c0.480957,1.1396484,0.722168,2.40625,0.722168,3.7998047s-0.2412109,2.6601562-0.722168,3.7998047
				c-0.4814453,1.1396484-1.1401367,2.1220703-1.9760742,2.9453125s-1.8369141,1.4628906-3.0019531,1.9189453
				c-1.1655273,0.4560547-2.4321289,0.6835938-3.7998047,0.6835938c-1.3681641,0-2.6352539-0.2275391-3.800293-0.6835938
				c-1.1655273-0.4560547-2.1660156-1.0957031-3.0019531-1.9189453s-1.4951172-1.8056641-1.9760742-2.9453125
				C138.357193,903.815979,138.1169586,902.5493774,138.1169586,901.1558228z M141.3088531,901.1558228
				c0,0.9375,0.1455078,1.8046875,0.4370117,2.6025391c0.2910156,0.7978516,0.715332,1.4951172,1.2729492,2.0898438
				c0.5571289,0.5957031,1.222168,1.0644531,1.9951172,1.40625c0.7724609,0.3417969,1.6396484,0.5136719,2.6030273,0.5136719
				c0.9624023,0,1.8295898-0.171875,2.6030273-0.5136719c0.7724609-0.3417969,1.4375-0.8105469,1.9946289-1.40625
				c0.5571289-0.5947266,0.9814453-1.2919922,1.2734375-2.0898438c0.2905273-0.7978516,0.4370117-1.6650391,0.4370117-2.6025391
				s-0.1464844-1.8046875-0.4370117-2.6035156c-0.2919922-0.7978516-0.7163086-1.4941406-1.2734375-2.0898438
				c-0.5571289-0.5947266-1.222168-1.0634766-1.9946289-1.40625c-0.7734375-0.3417969-1.640625-0.5126953-2.6030273-0.5126953
				c-0.9633789,0-1.8305664,0.1708984-2.6030273,0.5126953c-0.7729492,0.3427734-1.4379883,0.8115234-1.9951172,1.40625
				c-0.5576172,0.5957031-0.9819336,1.2919922-1.2729492,2.0898438
				C141.454361,899.3511353,141.3088531,900.2183228,141.3088531,901.1558228z"/>
			<path fill="#FFFFFF" d="M180.1296539,910.0474243h-2.9262695l-5.0537109-13.6796875h-0.0761719l-4.4838867,13.6796875h-3.0400391
				l-5.7758789-17.7841797h3.2675781l4.0664062,13.6806641h0.0756836l4.5981445-13.6806641h3.1157227l4.6743164,13.6806641
				h0.0756836l4.0283203-13.6806641h3.1918945L180.1296539,910.0474243z"/>
			<path fill="#FFFFFF" d="M189.0783844,896.4819946c0-0.8105469-0.0253906-1.5703125-0.0761719-2.2802734
				c-0.0507812-0.7089844-0.0756836-1.3554688-0.0756836-1.9384766h2.8120117c0,0.4824219,0.012207,0.9638672,0.0375977,1.4443359
				c0.0253906,0.4814453,0.0380859,0.9755859,0.0380859,1.4824219h0.0761719
				c0.2026367-0.4306641,0.4873047-0.8486328,0.8549805-1.2539062c0.3666992-0.4052734,0.8037109-0.7666016,1.3110352-1.0830078
				c0.5063477-0.3164062,1.0766602-0.5703125,1.7099609-0.7607422c0.6328125-0.1894531,1.3168945-0.2851562,2.0517578-0.2851562
				c1.1650391,0,2.1723633,0.1777344,3.0214844,0.5322266c0.8481445,0.3554688,1.5512695,0.8496094,2.1088867,1.4824219
				c0.5566406,0.6337891,0.96875,1.3994141,1.2348633,2.2988281s0.3989258,1.8808594,0.3989258,2.9453125v10.9814453h-2.9638672
				v-10.6777344c0-1.4941406-0.3295898-2.6728516-0.9882812-3.5341797
				c-0.6586914-0.8603516-1.6850586-1.2919922-3.0776367-1.2919922c-0.9633789,0-1.7924805,0.1650391-2.4892578,0.4941406
				s-1.2670898,0.7978516-1.7099609,1.40625c-0.4433594,0.6074219-0.7729492,1.3300781-0.987793,2.1660156
				c-0.2158203,0.8359375-0.3232422,1.7607422-0.3232422,2.7734375v8.6640625h-2.9638672V896.4819946z"/>
			<path fill="#FFFFFF" d="M209.9519196,881.3198853h2.9638672v28.7275391h-2.9638672V881.3198853z"/>
			<path fill="#FFFFFF" d="M217.3576813,901.1558228c0-1.3935547,0.2402344-2.6601562,0.7216797-3.7998047
				c0.480957-1.140625,1.1401367-2.1220703,1.9760742-2.9453125s1.8364258-1.4628906,3.0019531-1.9189453
				c1.1650391-0.4560547,2.4321289-0.6845703,3.800293-0.6845703c1.3676758,0,2.6342773,0.2285156,3.7998047,0.6845703
				c1.1650391,0.4560547,2.1660156,1.0957031,3.0019531,1.9189453s1.4946289,1.8046875,1.9760742,2.9453125
				c0.480957,1.1396484,0.722168,2.40625,0.722168,3.7998047s-0.2412109,2.6601562-0.722168,3.7998047
				c-0.4814453,1.1396484-1.1401367,2.1220703-1.9760742,2.9453125s-1.8369141,1.4628906-3.0019531,1.9189453
				c-1.1655273,0.4560547-2.4321289,0.6835938-3.7998047,0.6835938c-1.3681641,0-2.6352539-0.2275391-3.800293-0.6835938
				c-1.1655273-0.4560547-2.1660156-1.0957031-3.0019531-1.9189453s-1.4951172-1.8056641-1.9760742-2.9453125
				C217.5979156,903.815979,217.3576813,902.5493774,217.3576813,901.1558228z M220.5495758,901.1558228
				c0,0.9375,0.1455078,1.8046875,0.4370117,2.6025391c0.2910156,0.7978516,0.715332,1.4951172,1.2729492,2.0898438
				c0.5571289,0.5957031,1.222168,1.0644531,1.9951172,1.40625c0.7724609,0.3417969,1.6396484,0.5136719,2.6030273,0.5136719
				c0.9624023,0,1.8295898-0.171875,2.6030273-0.5136719c0.7724609-0.3417969,1.4375-0.8105469,1.9946289-1.40625
				c0.5571289-0.5947266,0.9814453-1.2919922,1.2734375-2.0898438c0.2905273-0.7978516,0.4370117-1.6650391,0.4370117-2.6025391
				s-0.1464844-1.8046875-0.4370117-2.6035156c-0.2919922-0.7978516-0.7163086-1.4941406-1.2734375-2.0898438
				c-0.5571289-0.5947266-1.222168-1.0634766-1.9946289-1.40625c-0.7734375-0.3417969-1.640625-0.5126953-2.6030273-0.5126953
				c-0.9633789,0-1.8305664,0.1708984-2.6030273,0.5126953c-0.7729492,0.3427734-1.4379883,0.8115234-1.9951172,1.40625
				c-0.5576172,0.5957031-0.9819336,1.2919922-1.2729492,2.0898438
				C220.6950836,899.3511353,220.5495758,900.2183228,220.5495758,901.1558228z"/>
			<path fill="#FFFFFF" d="M240.2370758,894.5435181c0.9121094-0.9365234,1.9951172-1.6269531,3.2490234-2.0712891
				c1.2539062-0.4423828,2.5268555-0.6650391,3.8188477-0.6650391c2.6347656,0,4.534668,0.6210938,5.7001953,1.8623047
				c1.1650391,1.2421875,1.7480469,3.1289062,1.7480469,5.6621094v7.6376953c0,0.5078125,0.0249023,1.0332031,0.0756836,1.5771484
				c0.0507812,0.5449219,0.1142578,1.0449219,0.1904297,1.5009766h-2.8500977
				c-0.1015625-0.4042969-0.1586914-0.8544922-0.1708984-1.3486328c-0.0131836-0.4941406-0.019043-0.9306641-0.019043-1.3115234
				h-0.0761719c-0.5830078,0.9121094-1.3623047,1.6601562-2.3369141,2.2421875
				c-0.9755859,0.5830078-2.1469727,0.8740234-3.5151367,0.8740234c-0.9121094,0-1.7670898-0.1142578-2.5649414-0.3417969
				s-1.4951172-0.5634766-2.0898438-1.0068359c-0.5957031-0.4433594-1.0708008-0.9941406-1.425293-1.6533203
				c-0.3549805-0.6582031-0.5317383-1.4179688-0.5317383-2.2802734c0-1.46875,0.3798828-2.6220703,1.1396484-3.4580078
				c0.7602539-0.8359375,1.7036133-1.4560547,2.8310547-1.8613281c1.1269531-0.4052734,2.3432617-0.6591797,3.6479492-0.7597656
				c1.3046875-0.1015625,2.5014648-0.1523438,3.5913086-0.1523438h1.1401367v-0.5322266
				c0-1.2919922-0.3867188-2.2666016-1.1591797-2.9257812c-0.7729492-0.6582031-1.855957-0.9882812-3.2490234-0.9882812
				c-0.9628906,0-1.9067383,0.1582031-2.8310547,0.4755859c-0.9248047,0.3164062-1.7421875,0.8037109-2.4511719,1.4628906
				L240.2370758,894.5435181z M248.8249664,901.4976196c-1.8999023,0-3.4072266,0.265625-4.5219727,0.7978516
				s-1.671875,1.40625-1.671875,2.6220703c0,1.1152344,0.3735352,1.90625,1.1210938,2.375
				c0.746582,0.46875,1.6777344,0.703125,2.7929688,0.703125c0.8608398,0,1.6147461-0.1455078,2.2607422-0.4365234
				s1.184082-0.6777344,1.6152344-1.1591797c0.4301758-0.4814453,0.7597656-1.0449219,0.987793-1.6914062
				c0.2280273-0.6455078,0.3544922-1.3359375,0.3803711-2.0712891v-1.1396484H248.8249664z"/>
			<path fill="#FFFFFF" d="M274.5930176,906.894104h-0.0761719c-0.5576172,1.0126953-1.4379883,1.8681641-2.6411133,2.5644531
				c-1.2036133,0.6962891-2.6030273,1.0449219-4.1987305,1.0449219c-1.2416992,0-2.4072266-0.234375-3.4960938-0.703125
				c-1.0898438-0.4677734-2.0332031-1.1210938-2.8310547-1.9570312s-1.425293-1.8232422-1.8808594-2.9638672
				c-0.4560547-1.1396484-0.684082-2.3808594-0.684082-3.7236328s0.2280273-2.5839844,0.684082-3.7246094
				c0.4555664-1.1396484,1.0888672-2.1279297,1.8999023-2.9638672c0.8105469-0.8359375,1.7919922-1.4873047,2.9448242-1.9570312
				c1.1523438-0.4677734,2.425293-0.703125,3.8188477-0.703125c1.2919922,0,2.4760742,0.2666016,3.5532227,0.7988281
				c1.0766602,0.53125,2.0200195,1.2792969,2.8310547,2.2412109h0.0761719v-13.5273438h2.9638672v28.7275391h-2.9638672V906.894104z
				 M274.5930176,901.1558228c0-0.9375-0.1464844-1.8046875-0.4370117-2.6035156
				c-0.2919922-0.7978516-0.7163086-1.4941406-1.2734375-2.0898438c-0.5571289-0.5947266-1.222168-1.0634766-1.9946289-1.40625
				c-0.7734375-0.3417969-1.640625-0.5126953-2.6030273-0.5126953c-0.9633789,0-1.8305664,0.1708984-2.6030273,0.5126953
				c-0.7729492,0.3427734-1.4379883,0.8115234-1.9951172,1.40625c-0.5576172,0.5957031-0.9819336,1.2919922-1.2729492,2.0898438
				c-0.2915039,0.7988281-0.4370117,1.6660156-0.4370117,2.6035156s0.1455078,1.8046875,0.4370117,2.6025391
				c0.2910156,0.7978516,0.715332,1.4951172,1.2729492,2.0898438c0.5571289,0.5957031,1.222168,1.0644531,1.9951172,1.40625
				c0.7724609,0.3417969,1.6396484,0.5136719,2.6030273,0.5136719c0.9624023,0,1.8295898-0.171875,2.6030273-0.5136719
				c0.7724609-0.3417969,1.4375-0.8105469,1.9946289-1.40625c0.5571289-0.5947266,0.9814453-1.2919922,1.2734375-2.0898438
				C274.4465332,902.9605103,274.5930176,902.0933228,274.5930176,901.1558228z"/>
		</g>
	</g>
</g>
<g>
	<rect x="68.874321" y="175.5345917" fill="#2C1ED5" width="1278.2513428" height="1.9839276"/>
</g>
<g>
	<polygon fill="#4F4F4F" points="1347.1257324,53.7734375 1343.3522949,50 1327.5612793,65.7909546 1311.7703857,50 
		1307.9969482,53.7734375 1323.7878418,69.5643311 1307.9969482,85.3552856 1311.7703857,89.1287231 1327.5612793,73.3377686 
		1343.3522949,89.1287231 1347.1257324,85.3552856 1331.3347168,69.5643311 	"/>
</g>
<g>
	<g>
		<path fill="#2C1ED5" d="M1336.260376,211.8560486c5.4398193,0,9.8653564,4.4255219,9.8653564,9.8652039v48.2695312
			c0,5.4397278-4.4255371,9.8652649-9.8653564,9.8652649H943.1813965c-5.4396973,0-9.8652954-4.4255371-9.8652954-9.8652649
			v-48.2695312c0-5.439682,4.4255981-9.8652039,9.8652954-9.8652039H1336.260376 M1336.260376,210.8560486H943.1813965
			c-6.0007324,0-10.8652954,4.8645325-10.8652954,10.8652039v48.2695312c0,6.0007324,4.864563,10.8652649,10.8652954,10.8652649
			h393.0789795c6.0007324,0,10.8653564-4.8645325,10.8653564-10.8652649v-48.2695312
			C1347.1257324,215.7205811,1342.2611084,210.8560486,1336.260376,210.8560486L1336.260376,210.8560486z"/>
		<g>
			<g>
				<path fill="#4F4F4F" d="M983.3811035,235.3657837c-0.5322266-0.8613281-1.2412109-1.4882812-2.1279297-1.8813477
					c-0.8867188-0.3920898-1.8115234-0.5888672-2.7744141-0.5888672c-0.7089844,0-1.4052734,0.0888672-2.0898438,0.2661133
					c-0.6835938,0.1772461-1.2988281,0.4433594-1.8427734,0.7978516c-0.5449219,0.3549805-0.9824219,0.8237305-1.3115234,1.40625
					c-0.3291016,0.5830078-0.4931641,1.2670898-0.4931641,2.0517578c0,0.6079102,0.0947266,1.1464844,0.2841797,1.6152344
					c0.1904297,0.46875,0.5,0.8925781,0.9316406,1.2729492c0.4306641,0.3798828,1.0126953,0.7348633,1.7480469,1.0639648
					c0.734375,0.3295898,1.6337891,0.6591797,2.6972656,0.987793c1.0390625,0.3295898,2.0458984,0.684082,3.0214844,1.0639648
					c0.9746094,0.3803711,1.8369141,0.8618164,2.5839844,1.4443359c0.7470703,0.5830078,1.3427734,1.3110352,1.7861328,2.1845703
					c0.4423828,0.8740234,0.6650391,1.9702148,0.6650391,3.2871094c0,1.3432617-0.2666016,2.5083008-0.7978516,3.4960938
					c-0.5322266,0.987793-1.2353516,1.8051758-2.109375,2.4511719s-1.8808594,1.1274414-3.0205078,1.4438477
					c-1.140625,0.3164062-2.3183594,0.4750977-3.5341797,0.4750977c-0.7861328,0-1.5712891-0.0703125-2.3564453-0.2089844
					c-0.7851562-0.1396484-1.5390625-0.3549805-2.2607422-0.6459961s-1.4003906-0.6708984-2.0332031-1.1401367
					c-0.6337891-0.4682617-1.1777344-1.0449219-1.6337891-1.7290039l2.7363281-2.2421875
					c0.5820312,0.9882812,1.3925781,1.7358398,2.4316406,2.2421875c1.0380859,0.5073242,2.140625,0.7602539,3.3056641,0.7602539
					c0.6845703,0,1.3740234-0.1010742,2.0712891-0.3041992c0.6962891-0.2026367,1.3232422-0.5,1.8808594-0.8930664
					c0.5566406-0.3925781,1.0126953-0.8798828,1.3681641-1.4628906c0.3544922-0.5825195,0.5322266-1.2539062,0.5322266-2.0141602
					c0-0.8359375-0.1396484-1.5131836-0.4179688-2.0327148c-0.2792969-0.519043-0.7099609-0.9692383-1.2919922-1.3491211
					c-0.5830078-0.3798828-1.3173828-0.722168-2.2041016-1.0258789c-0.8876953-0.3041992-1.9257812-0.6586914-3.1162109-1.0639648
					c-0.9628906-0.3041992-1.8496094-0.6523438-2.6601562-1.0454102c-0.8105469-0.3920898-1.5136719-0.8740234-2.1083984-1.4438477
					c-0.5957031-0.5698242-1.0644531-1.2539062-1.40625-2.0517578c-0.3417969-0.7983398-0.5136719-1.7539062-0.5136719-2.8691406
					c0-1.2919922,0.2539062-2.4189453,0.7607422-3.3818359c0.5058594-0.9628906,1.1904297-1.7670898,2.0517578-2.4130859
					s1.8369141-1.1337891,2.9257812-1.4633789c1.0888672-0.3286133,2.2294922-0.4936523,3.4199219-0.4936523
					c1.5205078,0,2.9072266,0.234375,4.1611328,0.703125s2.375,1.2856445,3.3632812,2.4506836L983.3811035,235.3657837z"/>
				<path fill="#4F4F4F" d="M1006.7814941,254.2896118c-1.0644531,1.3681641-2.2294922,2.324707-3.4960938,2.8691406
					s-2.7363281,0.8168945-4.4082031,0.8168945c-1.3935547,0-2.6474609-0.2470703-3.7617188-0.7412109
					c-1.1152344-0.4936523-2.0585938-1.1586914-2.8310547-1.9946289c-0.7734375-0.8364258-1.3681641-1.8242188-1.7861328-2.9643555
					c-0.4179688-1.1396484-0.6269531-2.355957-0.6269531-3.6479492c0-1.3676758,0.2285156-2.6279297,0.6845703-3.7807617
					c0.4550781-1.152832,1.0888672-2.140625,1.8994141-2.9643555c0.8105469-0.8227539,1.7734375-1.4628906,2.8876953-1.9189453
					c1.1152344-0.4560547,2.3310547-0.684082,3.6484375-0.684082c1.2412109,0,2.3808594,0.2094727,3.4199219,0.6274414
					c1.0380859,0.4179688,1.9316406,1.0258789,2.6787109,1.8237305s1.3242188,1.7734375,1.7294922,2.9262695
					s0.6074219,2.4638672,0.6074219,3.9326172v0.9501953h-14.3632812c0.0498047,0.7597656,0.2333984,1.4882812,0.5507812,2.1850586
					c0.3164062,0.6967773,0.7275391,1.3051758,1.2353516,1.8237305c0.5058594,0.5195312,1.1015625,0.9311523,1.7851562,1.2353516
					c0.6845703,0.3037109,1.4316406,0.4560547,2.2421875,0.4560547c1.2919922,0,2.3808594-0.2280273,3.2685547-0.684082
					c0.8857422-0.4560547,1.6845703-1.1269531,2.3935547-2.0141602L1006.7814941,254.2896118z M1004.2355957,247.0317993
					c-0.0507812-1.5200195-0.5449219-2.7363281-1.4824219-3.6484375c-0.9375-0.9116211-2.2294922-1.3676758-3.8759766-1.3676758
					s-2.9765625,0.4560547-3.9902344,1.3676758c-1.0126953,0.9121094-1.6210938,2.128418-1.8232422,3.6484375H1004.2355957z"/>
				<path fill="#4F4F4F" d="M1011.1516113,242.015686c0.9121094-0.9370117,1.9951172-1.6274414,3.2490234-2.0712891
					c1.2539062-0.4428711,2.5263672-0.6650391,3.8183594-0.6650391c2.6347656,0,4.5351562,0.6210938,5.7001953,1.8623047
					c1.1650391,1.2416992,1.7480469,3.1289062,1.7480469,5.6621094v7.6376953c0,0.5073242,0.0253906,1.0327148,0.0761719,1.5771484
					c0.0507812,0.5449219,0.1142578,1.0449219,0.1904297,1.5009766h-2.8505859
					c-0.1015625-0.4047852-0.1582031-0.8549805-0.1708984-1.3491211c-0.0126953-0.4936523-0.0185547-0.9306641-0.0185547-1.3110352
					h-0.0761719c-0.5830078,0.9121094-1.3623047,1.659668-2.3369141,2.2421875
					c-0.9755859,0.5825195-2.1474609,0.8740234-3.515625,0.8740234c-0.9121094,0-1.7666016-0.1142578-2.5644531-0.3422852
					c-0.7978516-0.2275391-1.4951172-0.5634766-2.0898438-1.0068359c-0.5957031-0.4428711-1.0712891-0.9936523-1.4257812-1.652832
					c-0.3544922-0.6586914-0.53125-1.418457-0.53125-2.2802734c0-1.46875,0.3798828-2.6220703,1.1396484-3.4580078
					s1.703125-1.4560547,2.8310547-1.8618164c1.1269531-0.4047852,2.3427734-0.6586914,3.6474609-0.7597656
					s2.5019531-0.1523438,3.5917969-0.1523438h1.1396484v-0.5317383c0-1.2919922-0.3867188-2.2670898-1.1591797-2.9262695
					c-0.7724609-0.6582031-1.8554688-0.987793-3.2490234-0.987793c-0.9628906,0-1.90625,0.1582031-2.8310547,0.4750977
					s-1.7421875,0.8041992-2.4511719,1.4628906L1011.1516113,242.015686z M1019.739502,248.9697876
					c-1.9003906,0-3.4072266,0.265625-4.5224609,0.7978516c-1.1142578,0.5317383-1.671875,1.4057617-1.671875,2.6220703
					c0,1.1147461,0.3740234,1.90625,1.1210938,2.375s1.6777344,0.703125,2.7929688,0.703125
					c0.8613281,0,1.6152344-0.1455078,2.2607422-0.4370117c0.6464844-0.2910156,1.1845703-0.6777344,1.6152344-1.1591797
					c0.4306641-0.480957,0.7597656-1.0449219,0.9882812-1.690918c0.2275391-0.6459961,0.3544922-1.3359375,0.3798828-2.0712891
					v-1.1396484H1019.739502z"/>
				<path fill="#4F4F4F" d="M1030.7775879,243.9536743c0-0.8105469-0.0253906-1.5703125-0.0761719-2.2802734
					c-0.0507812-0.7089844-0.0751953-1.3549805-0.0751953-1.9379883h2.8115234c0,0.4819336,0.0126953,0.9633789,0.0380859,1.4443359
					c0.0253906,0.4814453,0.0380859,0.9755859,0.0380859,1.4819336h0.0761719
					c0.2021484-0.4306641,0.4873047-0.8486328,0.8544922-1.2539062s0.8037109-0.7661133,1.3115234-1.0830078
					c0.5058594-0.3164062,1.0761719-0.5703125,1.7099609-0.7602539c0.6328125-0.1899414,1.3164062-0.2851562,2.0517578-0.2851562
					c0.2021484,0,0.4052734,0.0131836,0.6083984,0.0380859c0.2021484,0.0258789,0.4042969,0.0761719,0.6074219,0.1523438
					l-0.1894531,3.0019531c-0.5078125-0.1523438-1.0390625-0.2280273-1.5966797-0.2280273
					c-1.8232422,0-3.1474609,0.5888672-3.9707031,1.7670898c-0.8232422,1.1777344-1.2353516,2.7929688-1.2353516,4.8447266
					v8.6640625h-2.9638672V243.9536743z"/>
				<path fill="#4F4F4F" d="M1056.1574707,244.1817017c-0.6328125-0.7602539-1.3173828-1.3110352-2.0517578-1.6533203
					c-0.7353516-0.3417969-1.5449219-0.5126953-2.4316406-0.5126953c-0.9882812,0-1.8623047,0.1708984-2.6220703,0.5126953
					c-0.7597656,0.3422852-1.3867188,0.8173828-1.8808594,1.425293s-0.8681641,1.3110352-1.1210938,2.1088867
					c-0.2539062,0.7978516-0.3798828,1.652832-0.3798828,2.5649414s0.1455078,1.7670898,0.4365234,2.5649414
					c0.2910156,0.7983398,0.6962891,1.5009766,1.2158203,2.109375c0.5195312,0.6079102,1.1464844,1.0830078,1.8818359,1.4248047
					c0.734375,0.3417969,1.5576172,0.5131836,2.4697266,0.5131836c1.9501953,0,3.4580078-0.7348633,4.5214844-2.2041016
					l2.2041016,2.0898438c-0.8613281,0.9882812-1.875,1.7099609-3.0400391,2.1660156s-2.3935547,0.684082-3.6855469,0.684082
					c-1.3681641,0-2.6220703-0.2280273-3.7617188-0.684082c-1.140625-0.4560547-2.109375-1.1020508-2.9072266-1.9379883
					s-1.4189453-1.8242188-1.8623047-2.9638672c-0.4433594-1.1401367-0.6650391-2.394043-0.6650391-3.762207
					c0-1.3422852,0.2216797-2.5839844,0.6650391-3.7241211c0.4433594-1.1396484,1.0703125-2.1279297,1.8808594-2.9638672
					s1.7792969-1.487793,2.9072266-1.9570312c1.1269531-0.4682617,2.375-0.703125,3.7431641-0.703125
					c1.3164062,0,2.5644531,0.2280273,3.7431641,0.684082c1.1777344,0.4560547,2.2099609,1.1655273,3.0966797,2.1279297
					L1056.1574707,244.1817017z"/>
				<path fill="#4F4F4F" d="M1061.6066895,228.7915649h2.9638672v13.4140625h0.0761719
					c0.203125-0.3544922,0.4814453-0.703125,0.8359375-1.0449219c0.3544922-0.3422852,0.7792969-0.6518555,1.2734375-0.9311523
					c0.4941406-0.2783203,1.0449219-0.5063477,1.6523438-0.684082c0.6083984-0.1767578,1.2548828-0.2661133,1.9384766-0.2661133
					c1.1650391,0,2.171875,0.1777344,3.0214844,0.5322266c0.8476562,0.3549805,1.5507812,0.8491211,2.1083984,1.4819336
					c0.5566406,0.6337891,0.96875,1.3999023,1.2353516,2.2993164c0.265625,0.8994141,0.3984375,1.8808594,0.3984375,2.9448242
					v10.9819336h-2.9638672v-10.6782227c0-1.4941406-0.3291016-2.6723633-0.9882812-3.5336914
					c-0.6582031-0.8608398-1.6845703-1.2919922-3.0771484-1.2919922c-0.9638672,0-1.7929688,0.1650391-2.4892578,0.4941406
					c-0.6972656,0.3291016-1.2675781,0.7978516-1.7099609,1.4057617c-0.4433594,0.6079102-0.7734375,1.3300781-0.9882812,2.1660156
					c-0.2158203,0.8359375-0.3232422,1.7612305-0.3232422,2.7739258v8.6640625h-2.9638672V228.7915649z"/>
				<path fill="#4F4F4F" d="M1084.4680176,253.187561c0.6328125,0,1.1708984,0.222168,1.6142578,0.6650391
					c0.4433594,0.4433594,0.6650391,0.9819336,0.6650391,1.6152344s-0.234375,1.171875-0.703125,1.6147461
					s-0.9941406,0.6650391-1.5761719,0.6650391c-0.5839844,0-1.109375-0.222168-1.5771484-0.6650391
					c-0.4697266-0.4428711-0.703125-0.9814453-0.703125-1.6147461s0.2216797-1.171875,0.6650391-1.6152344
					C1083.295166,253.409729,1083.8342285,253.187561,1084.4680176,253.187561z"/>
				<path fill="#4F4F4F" d="M1093.4318848,253.187561c0.6328125,0,1.171875,0.222168,1.6152344,0.6650391
					c0.4423828,0.4433594,0.6650391,0.9819336,0.6650391,1.6152344s-0.234375,1.171875-0.703125,1.6147461
					s-0.9951172,0.6650391-1.5771484,0.6650391c-0.5830078,0-1.1083984-0.222168-1.5771484-0.6650391
					s-0.703125-0.9814453-0.703125-1.6147461s0.2216797-1.171875,0.6650391-1.6152344
					C1092.2600098,253.409729,1092.7980957,253.187561,1093.4318848,253.187561z"/>
				<path fill="#4F4F4F" d="M1102.395752,253.187561c0.6328125,0,1.171875,0.222168,1.6152344,0.6650391
					c0.4423828,0.4433594,0.6650391,0.9819336,0.6650391,1.6152344s-0.234375,1.171875-0.703125,1.6147461
					s-0.9951172,0.6650391-1.5771484,0.6650391c-0.5830078,0-1.1083984-0.222168-1.5771484-0.6650391
					s-0.703125-0.9814453-0.703125-1.6147461s0.2216797-1.171875,0.6650391-1.6152344
					C1101.223877,253.409729,1101.7619629,253.187561,1102.395752,253.187561z"/>
				<path fill="#4F4F4F" d="M1111.3605957,253.187561c0.6328125,0,1.1708984,0.222168,1.6142578,0.6650391
					c0.4433594,0.4433594,0.6650391,0.9819336,0.6650391,1.6152344s-0.234375,1.171875-0.703125,1.6147461
					s-0.9941406,0.6650391-1.5761719,0.6650391c-0.5839844,0-1.109375-0.222168-1.5771484-0.6650391
					c-0.4697266-0.4428711-0.703125-0.9814453-0.703125-1.6147461s0.2216797-1.171875,0.6650391-1.6152344
					C1110.1877441,253.409729,1110.7268066,253.187561,1111.3605957,253.187561z"/>
			</g>
		</g>
	</g>
	<g>
		<path fill="#2C1ED5" d="M1296.7456055,228.8881989c7.178833,0,13.019165,5.8403778,13.019165,13.0191498
			s-5.840332,13.0191498-13.019165,13.0191498s-13.019165-5.8403778-13.019165-13.0191498
			S1289.5667725,228.8881989,1296.7456055,228.8881989 M1296.7456055,225.8881989
			c-8.8470459,0-16.019165,7.1720276-16.019165,16.0191498c0,8.8471375,7.1721191,16.0191345,16.019165,16.0191345
			c8.847168,0,16.019165-7.1719971,16.019165-16.0191345
			C1312.7647705,233.0602264,1305.5927734,225.8881989,1296.7456055,225.8881989L1296.7456055,225.8881989z"/>
		
			<rect x="1312.9608154" y="249.6441345" transform="matrix(0.7071196 -0.7070939 0.7070939 0.7071196 201.7561951 1005.3388672)" fill="#2C1ED5" width="2.9996796" height="18.9555035"/>
	</g>
</g>
<g id="sve6Pu.tif">
	
		<image overflow="visible" width="2800" height="872" id="Layer_0" xlink:href="160875C433CA79A0.png"  transform="matrix(0.4565184 0 0 0.4565184 68.874321 328.8146362)">
	</image>
</g>
</svg>
