<?xml version="1.0" encoding="utf-8"?>
<!-- Generator: Adobe Illustrator 25.0.1, SVG Export Plug-In . SVG Version: 6.00 Build 0)  -->
<svg version="1.1" id="Layer_1" xmlns="http://www.w3.org/2000/svg" xmlns:xlink="http://www.w3.org/1999/xlink" x="0px" y="0px"
	 viewBox="0 0 50 50" enable-background="new 0 0 50 50" xml:space="preserve">
<g opacity="0.01">
	<rect width="50" height="50"/>
</g>
<g>
	<circle fill="none" stroke="#797979" stroke-width="2.5" stroke-miterlimit="10" cx="15.642" cy="23.363" r="3.093"/>
	<circle fill="none" stroke="#797979" stroke-width="2.5" stroke-miterlimit="10" cx="25" cy="23.363" r="3.093"/>
	<circle fill="none" stroke="#797979" stroke-width="2.5" stroke-miterlimit="10" cx="34.358" cy="23.363" r="3.093"/>
</g>
<path fill="#FFFFFF" stroke="#797979" stroke-width="2.5" stroke-miterlimit="10" d="M25,5.61c-10.453,0-18.927,7.87-18.927,17.578
	c0,4.741,2.031,9.036,5.317,12.197c-0.324,1.798-1.297,5.955-3.739,8.996c4.816,0.176,9.264-2.435,11.877-4.368
	c1.733,0.486,3.568,0.753,5.472,0.753c10.453,0,18.927-7.87,18.927-17.578C43.927,13.48,35.453,5.61,25,5.61z M15.642,26.456
	c-1.708,0-3.093-1.385-3.093-3.093c0-1.708,1.385-3.093,3.093-3.093s3.093,1.385,3.093,3.093
	C18.735,25.071,17.35,26.456,15.642,26.456z M25,26.456c-1.708,0-3.093-1.385-3.093-3.093c0-1.708,1.385-3.093,3.093-3.093
	c1.708,0,3.093,1.385,3.093,3.093C28.093,25.071,26.708,26.456,25,26.456z M34.358,26.456c-1.708,0-3.093-1.385-3.093-3.093
	c0-1.708,1.385-3.093,3.093-3.093s3.093,1.385,3.093,3.093C37.451,25.071,36.066,26.456,34.358,26.456z"/>
</svg>
