<?xml version="1.0" encoding="utf-8"?>
<!-- Generator: Adobe Illustrator 25.0.1, SVG Export Plug-In . SVG Version: 6.00 Build 0)  -->
<svg version="1.1" id="Layer_1" xmlns="http://www.w3.org/2000/svg" xmlns:xlink="http://www.w3.org/1999/xlink" x="0px" y="0px"
	 viewBox="0 0 50 50" enable-background="new 0 0 50 50" xml:space="preserve">
<g opacity="0.01">
	<rect width="50" height="50"/>
</g>
<circle fill="none" stroke="#797979" stroke-width="2.5" stroke-miterlimit="10" cx="25" cy="19.605" r="10.34"/>
<path fill="#FFFFFF" stroke="#797979" stroke-width="2.5" stroke-miterlimit="10" d="M25,1.841c-9.664,0-17.499,7.835-17.499,17.499
	c0,2.798,0.673,5.432,1.84,7.777l15.603,21.042l15.714-21.042c1.167-2.345,1.84-4.98,1.84-7.777C42.499,9.676,34.664,1.841,25,1.841
	z M25,29.945c-5.711,0-10.34-4.629-10.34-10.34c0-5.711,4.629-10.34,10.34-10.34c5.711,0,10.34,4.629,10.34,10.34
	C35.34,25.316,30.711,29.945,25,29.945z"/>
</svg>
